<?xml version="1.0" standalone="no"?>
 <!DOCTYPE svg PUBLIC "-//W3C//DTD SVG 1.1//EN" 
 "http://www.w3.org/Graphics/SVG/1.1/DTD/svg11.dtd"> 
<svg
  xmlns:svg="http://www.w3.org/2000/svg"
  xmlns="http://www.w3.org/2000/svg"
  xmlns:xlink="http://www.w3.org/1999/xlink"
  version="1.1"
  width="96.6978mm" height="93.8022mm" viewBox="0.0000 0.0000 96.6978 93.8022">
<title>SVG Image created as wing-combo-Edge_Cuts.svg date 2025/10/26 12:58:50 </title>
  <desc>Image generated by PCBNEW </desc>
<g style="fill:#000000; fill-opacity:1.0000;stroke:#000000; stroke-opacity:1.0000;
stroke-linecap:round; stroke-linejoin:round;"
 transform="translate(0 0) scale(1 1)">
<path style="fill:none; 
stroke:#D0D2CD; stroke-width:0.0529; stroke-opacity:1; 
stroke-linecap:round; stroke-linejoin:round;fill:none"
d="M 96.6003,91.3156
54.7595,91.2965
54.7595,83.1440
54.7589,83.1181
54.7568,83.0928
54.7537,83.0675
54.7490,83.0427
54.7433,83.0189
54.7366,82.9946
54.7288,82.9719
54.7200,82.9491
54.7097,82.9269
54.6988,82.9052
54.6870,82.8840
54.6740,82.8639
54.6601,82.8442
54.6451,82.8256
54.6296,82.8076
54.6131,82.7900
54.5955,82.7734
54.5774,82.7579
54.5583,82.7429
54.5392,82.7290
54.5185,82.7161
54.4978,82.7042
54.4761,82.6939
54.4539,82.6835
54.4312,82.6742
54.4079,82.6664
54.3841,82.6592
54.3598,82.6535
54.3356,82.6494
54.3102,82.6463
54.2849,82.6442
54.2591,82.6437
54.1593,82.6437
54.1335,82.6442
54.1082,82.6463
54.0829,82.6494
54.0581,82.6535
54.0338,82.6592
54.0100,82.6664
53.9868,82.6742
53.9640,82.6835
53.9418,82.6939
53.9206,82.7042
53.8994,82.7161
53.8793,82.7290
53.8596,82.7429
53.8405,82.7579
53.8224,82.7734
53.8054,82.7900
53.7888,82.8076
53.7728,82.8256
53.7583,82.8442
53.7444,82.8639
53.7315,82.8840
53.7191,82.9052
53.7082,82.9269
53.6984,82.9491
53.6891,82.9719
53.6813,82.9946
53.6746,83.0189
53.6689,83.0427
53.6648,83.0675
53.6617,83.0928
53.6596,83.1181
53.6591,83.1440
53.6591,91.2965
44.1672,91.2965
44.1672,89.5545
44.1666,89.5348
44.1651,89.5152
44.1624,89.4961
44.1593,89.4769
44.1552,89.4583
44.1505,89.4403
44.1448,89.4222
44.1381,89.4046
44.1303,89.3875
44.1225,89.3710
44.1137,89.3545
44.1039,89.3390
44.0936,89.3235
44.0828,89.3090
44.0714,89.2945
44.0590,89.2811
44.0461,89.2682
44.0326,89.2558
44.0187,89.2434
44.0037,89.2325
43.9887,89.2217
43.9732,89.2119
43.9572,89.2031
43.9406,89.1948
43.9236,89.1870
43.9065,89.1798
43.8884,89.1736
43.8703,89.1689
43.8523,89.1648
43.8331,89.1607
43.8140,89.1576
43.7944,89.1560
43.7944,89.1539
39.4350,89.1539
39.4350,88.1498
39.4344,88.1291
39.4328,88.1085
39.4302,88.0878
39.4266,88.0687
39.4219,88.0495
39.4167,88.0304
39.4105,88.0118
39.4033,87.9937
39.3950,87.9762
39.3862,87.9581
39.3769,87.9421
39.3666,87.9255
39.3552,87.9100
39.3433,87.8950
39.3309,87.8806
39.3175,87.8661
39.3036,87.8532
39.2891,87.8408
39.2741,87.8284
39.2586,87.8175
39.2421,87.8067
39.2255,87.7969
39.2085,87.7881
39.1904,87.7798
39.1723,87.7731
39.1537,87.7669
39.1346,87.7617
39.1154,87.7576
39.0958,87.7540
39.0555,87.7498
39.0343,87.7492
35.4340,87.7492
35.4139,87.7498
35.3932,87.7519
35.3730,87.7540
35.3534,87.7576
35.3343,87.7617
35.3152,87.7669
35.2966,87.7731
35.2785,87.7798
35.2604,87.7881
35.2433,87.7969
35.2268,87.8067
35.2103,87.8175
35.1948,87.8284
35.1798,87.8408
35.1653,87.8532
35.1513,87.8661
35.1379,87.8806
35.1255,87.8950
35.1136,87.9100
35.1023,87.9255
35.0919,87.9421
35.0826,87.9581
35.0738,87.9762
35.0655,87.9937
35.0583,88.0118
35.0521,88.0304
35.0469,88.0495
35.0422,88.0687
35.0391,88.0878
35.0360,88.1085
35.0350,88.1291
35.0345,88.1498
35.0345,89.1539
26.6939,89.1539
26.6939,88.1498
26.6934,88.1291
26.6918,88.1085
26.6892,88.0878
26.6856,88.0687
26.6809,88.0495
26.6757,88.0304
26.6695,88.0118
26.6623,87.9937
26.6545,87.9762
26.6457,87.9581
26.6359,87.9421
26.6256,87.9255
26.6142,87.9100
26.6023,87.8950
26.5899,87.8806
26.5765,87.8661
26.5625,87.8532
26.5480,87.8408
26.5331,87.8284
26.5176,87.8175
26.5010,87.8067
26.4845,87.7969
26.4674,87.7881
26.4493,87.7798
26.4312,87.7731
26.4126,87.7669
26.3935,87.7617
26.3744,87.7576
26.3548,87.7540
26.3145,87.7498
26.2938,87.7492
22.6935,87.7492
22.6734,87.7498
22.6527,87.7519
22.6325,87.7540
22.6129,87.7576
22.5938,87.7617
22.5747,87.7669
22.5561,87.7731
22.5380,87.7798
22.5199,87.7881
22.5028,87.7969
22.4863,87.8067
22.4697,87.8175
22.4542,87.8284
22.4393,87.8408
22.4248,87.8532
22.4108,87.8661
22.3974,87.8806
22.3850,87.8950
22.3731,87.9100
22.3618,87.9255
22.3514,87.9421
22.3421,87.9581
22.3333,87.9762
22.3250,87.9937
22.3178,88.0118
22.3116,88.0304
22.3064,88.0495
22.3017,88.0687
22.2981,88.0878
22.2960,88.1085
22.2944,88.1291
22.2939,88.1498
22.2939,89.1539
14.0345,89.1539
14.0345,88.1539
14.0339,88.1333
14.0323,88.1126
14.0297,88.0930
14.0261,88.0723
14.0214,88.0537
14.0162,88.0346
14.0100,88.0160
14.0028,87.9979
13.9945,87.9798
13.9857,87.9622
13.9764,87.9457
13.9661,87.9297
13.9547,87.9142
13.9428,87.8992
13.9304,87.8847
13.9170,87.8707
13.9031,87.8573
13.8886,87.8449
13.8736,87.8330
13.8581,87.8222
13.8416,87.8113
13.8250,87.8010
13.8080,87.7922
13.7899,87.7844
13.7718,87.7772
13.7532,87.7710
13.7341,87.7663
13.7149,87.7622
13.6953,87.7581
13.6752,87.7550
13.6550,87.7540
13.6338,87.7535
10.0335,87.7535
10.0134,87.7540
9.9927,87.7550
9.9725,87.7581
9.9529,87.7622
9.9338,87.7663
9.9147,87.7710
9.8961,87.7772
9.8780,87.7844
9.8599,87.7922
9.8428,87.8010
9.8263,87.8113
9.8098,87.8222
9.7943,87.8330
9.7793,87.8449
9.7648,87.8573
9.7509,87.8707
9.7374,87.8847
9.7250,87.8992
9.7131,87.9142
9.7018,87.9297
9.6914,87.9457
9.6821,87.9622
9.6733,87.9798
9.6651,87.9979
9.6578,88.0160
9.6516,88.0346
9.6465,88.0537
9.6418,88.0723
9.6387,88.0930
9.6356,88.1126
9.6346,88.1333
9.6341,88.1539
9.6341,89.1539
5.3005,89.1539
5.3005,41.6162
8.3603,41.6162
8.4150,41.6157
8.4698,41.6136
8.5241,41.6100
8.5778,41.6053
8.6310,41.5991
8.6843,41.5919
8.7365,41.5831
8.7887,41.5728
8.8403,41.5619
8.8915,41.5495
8.9421,41.5356
8.9923,41.5206
9.0419,41.5045
9.0910,41.4870
9.1395,41.4684
9.1876,41.4493
9.2351,41.4281
9.2816,41.4064
9.3276,41.3836
9.3731,41.3598
9.4181,41.3345
9.4620,41.3082
9.5059,41.2813
9.5483,41.2529
9.5907,41.2239
9.6320,41.1940
9.6723,41.1630
9.7121,41.1309
9.7509,41.0979
9.7891,41.0643
9.8263,41.0291
9.8630,40.9935
9.8987,40.9573
9.9333,40.9201
9.9674,40.8819
9.9999,40.8431
10.0320,40.8033
10.0635,40.7630
10.0935,40.7216
10.1224,40.6793
10.1508,40.6369
10.1777,40.5935
10.2041,40.5491
10.2289,40.5041
10.2526,40.4586
10.2759,40.4126
10.2976,40.3656
10.3183,40.3181
10.3379,40.2705
10.3565,40.2219
10.3736,40.1729
10.3901,40.1232
10.4051,40.0731
10.4185,40.0225
10.4309,39.9708
10.4423,39.9196
10.4521,39.8674
10.4609,39.8147
10.4681,39.7615
10.4743,39.7083
10.4790,39.6545
10.4826,39.6003
10.4847,39.5460
10.4852,39.4912
10.4847,39.4359
10.4826,39.3817
10.4790,39.3274
10.4743,39.2737
10.4681,39.2205
10.4609,39.1677
10.4521,39.1150
10.4423,39.0634
10.4309,39.0117
10.4185,38.9605
10.4051,38.9099
10.3901,38.8592
10.3736,38.8096
10.3565,38.7605
10.3379,38.7120
10.3183,38.6639
10.2976,38.6169
10.2759,38.5698
10.2526,38.5238
10.2289,38.4784
10.2041,38.4334
10.1777,38.3890
10.1508,38.3456
10.1224,38.3027
10.0935,38.2608
10.0635,38.2195
10.0320,38.1792
9.9999,38.1394
9.9674,38.1006
9.9333,38.0624
9.8987,38.0252
9.8630,37.9885
9.8263,37.9533
9.7891,37.9182
9.7509,37.8846
9.7121,37.8515
9.6723,37.8195
9.6320,37.7885
9.5907,37.7585
9.5483,37.7296
9.5059,37.7012
9.4620,37.6743
9.4181,37.6479
9.3731,37.6231
9.3276,37.5988
9.2816,37.5761
9.2351,37.5544
9.1876,37.5337
9.1395,37.5141
9.0910,37.4955
9.0419,37.4779
8.9923,37.4619
8.9421,37.4469
8.8915,37.4335
8.8403,37.4205
8.7887,37.4092
8.7365,37.3994
8.6843,37.3906
8.6310,37.3834
8.5778,37.3772
8.5241,37.3725
8.4698,37.3689
8.4150,37.3668
8.3603,37.3658
5.3005,37.3658
5.3005,0.0378
50.4205,0.0378
50.4205,13.7093
50.4210,13.7352
50.4231,13.7605
50.4263,13.7858
50.4304,13.8101
50.4360,13.8344
50.4427,13.8582
50.4505,13.8814
50.4598,13.9042
50.4696,13.9264
50.4805,13.9481
50.4929,13.9687
50.5058,13.9889
50.5198,14.0085
50.5342,14.0277
50.5503,14.0457
50.5668,14.0628
50.5839,14.0793
50.6019,14.0954
50.6211,14.1098
50.6407,14.1238
50.6609,14.1367
50.6820,14.1491
50.7037,14.1599
50.7254,14.1697
50.7482,14.1785
50.7714,14.1868
50.7952,14.1935
50.8195,14.1987
50.8443,14.2034
50.8696,14.2065
50.8949,14.2086
50.9208,14.2092
51.0205,14.2092
51.0464,14.2086
51.0717,14.2065
51.0965,14.2034
51.1213,14.1987
51.1456,14.1935
51.1694,14.1868
51.1926,14.1785
51.2153,14.1697
51.2376,14.1599
51.2593,14.1491
51.2799,14.1367
51.3006,14.1238
51.3203,14.1098
51.3389,14.0954
51.3570,14.0793
51.3745,14.0628
51.3911,14.0457
51.4066,14.0277
51.4216,14.0085
51.4355,13.9889
51.4484,13.9687
51.4603,13.9481
51.4712,13.9264
51.4815,13.9042
51.4903,13.8814
51.4981,13.8582
51.5048,13.8344
51.5105,13.8101
51.5152,13.7858
51.5183,13.7605
51.5204,13.7352
51.5209,13.7093
51.5209,0.0378
96.5590,0.0264
Z" /> 
<path style="fill:none; 
stroke:#D0D2CD; stroke-width:0.0529; stroke-opacity:1; 
stroke-linecap:round; stroke-linejoin:round;fill:none"
d="M 46.3338,78.3263
46.3475,78.3273
46.3610,78.3290
46.3743,78.3314
46.3873,78.3344
46.4002,78.3381
46.4127,78.3423
46.4250,78.3471
46.4369,78.3525
46.4486,78.3585
46.4599,78.3650
46.4708,78.3720
46.4814,78.3796
46.4916,78.3876
46.5014,78.3961
46.5108,78.4050
46.5197,78.4144
46.5282,78.4242
46.5362,78.4344
46.5438,78.4450
46.5508,78.4559
46.5573,78.4672
46.5632,78.4789
46.5687,78.4908
46.5735,78.5031
46.5777,78.5156
46.5814,78.5284
46.5844,78.5415
46.5868,78.5548
46.5885,78.5683
46.5895,78.5820
46.5899,78.5959
46.5899,78.5959
46.5895,78.6098
46.5885,78.6235
46.5868,78.6370
46.5844,78.6503
46.5814,78.6634
46.5777,78.6762
46.5735,78.6888
46.5687,78.7010
46.5632,78.7130
46.5573,78.7246
46.5508,78.7359
46.5438,78.7469
46.5362,78.7575
46.5282,78.7677
46.5197,78.7775
46.5108,78.7868
46.5014,78.7958
46.4916,78.8043
46.4814,78.8123
46.4708,78.8198
46.4599,78.8268
46.4486,78.8333
46.4369,78.8393
46.4250,78.8447
46.4127,78.8495
46.4002,78.8538
46.3874,78.8574
46.3743,78.8604
46.3610,78.8628
46.3475,78.8645
46.3338,78.8656
46.3199,78.8659
46.3060,78.8656
46.2923,78.8645
46.2788,78.8628
46.2655,78.8604
46.2524,78.8574
46.2396,78.8538
46.2270,78.8495
46.2148,78.8447
46.2028,78.8393
46.1912,78.8333
46.1799,78.8268
46.1689,78.8198
46.1583,78.8123
46.1481,78.8043
46.1383,78.7958
46.1290,78.7868
46.1200,78.7775
46.1115,78.7677
46.1035,78.7575
46.0960,78.7469
46.0890,78.7359
46.0825,78.7246
46.0765,78.7130
46.0711,78.7010
46.0663,78.6888
46.0620,78.6762
46.0584,78.6634
46.0554,78.6503
46.0530,78.6370
46.0513,78.6235
46.0502,78.6098
46.0499,78.5959
46.0502,78.5820
46.0513,78.5683
46.0530,78.5548
46.0554,78.5415
46.0584,78.5284
46.0620,78.5156
46.0663,78.5031
46.0711,78.4908
46.0765,78.4789
46.0825,78.4672
46.0890,78.4559
46.0960,78.4450
46.1035,78.4344
46.1115,78.4242
46.1200,78.4144
46.1289,78.4050
46.1383,78.3961
46.1481,78.3876
46.1583,78.3796
46.1689,78.3720
46.1799,78.3650
46.1912,78.3585
46.2028,78.3525
46.2148,78.3471
46.2270,78.3423
46.2396,78.3381
46.2524,78.3344
46.2655,78.3314
46.2787,78.3290
46.2923,78.3273
46.3060,78.3263
46.3199,78.3259
Z" /> 
<path style="fill:none; 
stroke:#D0D2CD; stroke-width:0.0529; stroke-opacity:1; 
stroke-linecap:round; stroke-linejoin:round;fill:none"
d="M 53.9316,34.8498
53.9580,34.8519
53.9849,34.8550
54.0112,34.8602
54.0371,34.8659
54.0629,34.8731
54.0887,34.8819
54.1135,34.8917
54.1383,34.9025
54.1621,34.9149
54.1859,34.9284
54.2086,34.9434
54.2288,34.9563
54.2706,34.9847
54.2991,35.0048
54.3321,35.0296
54.3698,35.0591
54.4117,35.0937
54.4577,35.1330
54.5078,35.1774
54.5610,35.2276
54.6179,35.2829
54.6783,35.3444
54.7414,35.4121
54.8070,35.4860
54.8406,35.5252
54.8752,35.5660
54.9336,35.6378
54.9925,35.7153
55.0525,35.7980
55.0824,35.8419
55.1124,35.8869
55.1419,35.9334
55.1708,35.9809
55.1997,36.0300
55.2282,36.0801
55.2556,36.1318
55.2829,36.1850
55.3093,36.2393
55.3346,36.2951
55.3579,36.3483
55.3801,36.4026
55.4013,36.4589
55.4214,36.5163
55.4411,36.5747
55.4591,36.6346
55.4757,36.6961
55.4917,36.7581
55.5057,36.8222
55.5181,36.8873
55.5289,36.9540
55.5377,37.0212
55.5449,37.0904
55.5506,37.1602
55.5537,37.2315
55.5547,37.3043
55.5542,37.3705
55.5516,37.4361
55.5475,37.5028
55.5418,37.5689
55.5346,37.6351
55.5258,37.7012
55.5155,37.7674
55.5036,37.8335
55.4896,37.8997
55.4741,37.9658
55.4576,38.0314
55.4390,38.0971
55.4188,38.1622
55.3971,38.2273
55.3734,38.2919
55.3486,38.3565
55.3232,38.4170
55.2969,38.4769
55.2690,38.5368
55.2390,38.5963
55.2080,38.6552
55.1755,38.7136
55.1419,38.7720
55.1062,38.8293
55.0695,38.8862
55.0308,38.9420
54.9910,38.9978
54.9496,39.0526
54.9067,39.1068
54.8628,39.1600
54.8168,39.2122
54.7698,39.2639
54.7233,39.3120
54.6757,39.3595
54.6266,39.4060
54.5760,39.4520
54.5243,39.4965
54.4711,39.5399
54.4168,39.5828
54.3610,39.6241
54.3037,39.6644
54.2453,39.7032
54.1853,39.7409
54.1244,39.7776
54.0618,39.8127
53.9983,39.8463
53.9332,39.8783
53.8670,39.9093
53.8024,39.9373
53.7363,39.9636
53.6691,39.9889
53.6009,40.0122
53.5316,40.0339
53.4613,40.0540
53.3900,40.0726
53.3177,40.0892
53.2448,40.1042
53.1704,40.1171
53.0950,40.1284
53.0190,40.1377
52.9415,40.1449
52.8635,40.1501
52.7849,40.1532
52.7048,40.1542
52.4222,40.1516
52.1648,40.1449
51.9307,40.1351
51.7163,40.1233
51.3582,40.0979
51.2042,40.0871
51.0651,40.0788
51.0026,40.0757
50.9427,40.0736
50.8858,40.0726
50.8306,40.0726
50.7768,40.0736
50.7241,40.0762
50.6719,40.0798
50.6197,40.0850
50.5691,40.0912
50.5164,40.0995
50.4616,40.1093
50.4042,40.1217
50.3438,40.1356
50.2803,40.1527
50.2126,40.1723
50.1413,40.1946
50.1150,40.2034
50.0881,40.2137
50.0597,40.2256
50.0302,40.2385
49.9992,40.2530
49.9677,40.2690
49.9351,40.2871
49.9015,40.3062
49.8674,40.3269
49.8323,40.3491
49.7961,40.3729
49.7594,40.3987
49.7217,40.4261
49.6835,40.4550
49.6447,40.4855
49.6049,40.5181
49.5667,40.5506
49.5279,40.5852
49.4892,40.6204
49.4504,40.6576
49.4111,40.6958
49.3724,40.7356
49.3336,40.7764
49.2948,40.8188
49.2561,40.8622
49.2178,40.9072
49.1796,40.9532
49.1414,41.0007
49.1036,41.0493
49.0664,41.0994
49.0298,41.1506
48.9931,41.2033
48.9233,41.3092
48.8556,41.4198
48.7905,41.5340
48.7285,41.6529
48.6696,41.7753
48.6412,41.8379
48.6143,41.9014
48.5879,41.9660
48.5626,42.0311
48.5388,42.0978
48.5156,42.1650
48.4737,42.2993
48.4365,42.4368
48.4040,42.5774
48.3771,42.7215
48.3652,42.7944
48.3554,42.8678
48.3466,42.9422
48.3394,43.0171
48.3337,43.0931
48.3296,43.1696
48.3275,43.2466
48.3265,43.3241
48.3275,43.4005
48.3296,43.4765
48.3394,43.6274
48.3549,43.7757
48.3761,43.9220
48.4030,44.0661
48.4355,44.2077
48.4732,44.3467
48.5156,44.4832
48.5621,44.6149
48.6128,44.7436
48.6680,44.8692
48.7264,44.9916
48.7885,45.1105
48.8536,45.2257
48.9223,45.3374
48.9931,45.4454
49.0293,45.4970
49.0654,45.5477
49.1398,45.6454
49.2153,45.7384
49.2923,45.8267
49.3698,45.9105
49.4484,45.9890
49.5264,46.0624
49.6049,46.1306
49.6441,46.1626
49.6823,46.1931
49.7201,46.2216
49.7574,46.2489
49.7941,46.2743
49.8302,46.2980
49.8648,46.3202
49.8994,46.3409
49.9330,46.3600
49.9656,46.3781
49.9971,46.3941
50.0281,46.4091
50.0580,46.4226
50.0870,46.4345
50.1143,46.4448
50.1412,46.4541
50.2120,46.4758
50.2787,46.4954
50.3417,46.5120
50.4022,46.5265
50.4595,46.5383
50.5149,46.5481
50.5681,46.5564
50.6198,46.5631
50.6710,46.5683
50.7227,46.5719
50.7749,46.5745
50.8286,46.5755
50.8838,46.5755
50.9412,46.5745
51.0016,46.5724
51.0652,46.5698
51.2021,46.5615
51.3551,46.5507
51.5256,46.5383
51.7158,46.5254
51.9261,46.5135
52.1597,46.5037
52.4181,46.4970
52.5581,46.4949
52.7049,46.4944
52.7834,46.4954
52.8609,46.4985
52.9379,46.5032
53.0139,46.5104
53.0893,46.5192
53.1643,46.5300
53.2382,46.5429
53.3115,46.5574
53.3839,46.5739
53.4552,46.5920
53.5260,46.6122
53.5963,46.6339
53.6650,46.6577
53.7332,46.6830
53.8009,46.7098
53.8671,46.7388
53.9322,46.7688
53.9957,46.8003
54.0583,46.8333
54.1203,46.8680
54.1807,46.9036
54.2402,46.9413
54.2980,46.9796
54.3554,47.0199
54.4112,47.0612
54.4660,47.1036
54.5197,47.1475
54.5724,47.1925
54.6236,47.2390
54.6737,47.2860
54.7223,47.3346
54.7698,47.3842
54.8158,47.4343
54.8608,47.4855
54.9042,47.5377
54.9461,47.5909
54.9874,47.6452
55.0267,47.6999
55.0649,47.7557
55.1021,47.8121
55.1378,47.8700
55.1719,47.9278
55.2050,47.9867
55.2365,48.0467
55.2664,48.1066
55.2949,48.1676
55.3223,48.2291
55.3481,48.2916
55.3724,48.3542
55.3951,48.4172
55.4168,48.4808
55.4365,48.5448
55.4551,48.6094
55.4721,48.6746
55.4876,48.7402
55.5016,48.8058
55.5140,48.8725
55.5243,48.9391
55.5336,49.0058
55.5414,49.0730
55.5471,49.1407
55.5512,49.2084
55.5538,49.2761
55.5548,49.3443
55.5584,51.3049
55.5548,53.4055
55.5538,53.4732
55.5512,53.5414
55.5471,53.6091
55.5414,53.6763
55.5336,53.7435
55.5248,53.8102
55.5140,53.8768
55.5016,53.9430
55.4881,54.0091
55.4726,54.0747
55.4556,54.1399
55.4370,54.2044
55.4173,54.2684
55.3956,54.3320
55.3729,54.3950
55.3486,54.4576
55.3228,54.5196
55.2954,54.5811
55.2669,54.6420
55.2365,54.7025
55.2049,54.7619
55.1724,54.8208
55.1378,54.8792
55.1021,54.9366
55.0654,54.9934
55.0272,55.0492
54.9874,55.1040
54.9466,55.1578
54.9042,55.2110
54.8608,55.2632
54.8158,55.3143
54.7698,55.3650
54.7223,55.4141
54.6737,55.4626
54.6236,55.5102
54.5724,55.5562
54.5197,55.6011
54.4660,55.6451
54.4112,55.6874
54.3554,55.7288
54.2985,55.7691
54.2402,55.8078
54.1807,55.8450
54.1203,55.8812
54.0583,55.9153
53.9957,55.9489
53.9322,55.9799
53.8671,56.0104
53.8009,56.0388
53.7337,56.0662
53.6655,56.0910
53.5963,56.1148
53.5265,56.1370
53.4557,56.1567
53.3839,56.1753
53.3115,56.1918
53.2382,56.2063
53.1643,56.2192
53.0893,56.2300
53.0139,56.2388
52.9379,56.2460
52.8609,56.2512
52.7834,56.2543
52.7049,56.2553
52.4186,56.2527
52.1598,56.2460
51.9267,56.2362
51.7164,56.2244
51.3552,56.1990
51.2022,56.1882
51.0653,56.1799
51.0017,56.1768
50.9413,56.1747
50.8839,56.1737
50.8286,56.1737
50.7749,56.1747
50.7227,56.1773
50.6710,56.1809
50.6198,56.1861
50.5682,56.1923
50.5149,56.2006
50.4596,56.2109
50.4023,56.2228
50.3418,56.2373
50.2788,56.2543
50.2121,56.2734
50.1413,56.2957
50.1144,56.3045
50.0871,56.3153
50.0581,56.3272
50.0281,56.3406
49.9977,56.3551
49.9656,56.3716
49.9331,56.3892
49.8995,56.4083
49.8654,56.4290
49.8302,56.4517
49.7940,56.4755
49.7574,56.5008
49.7201,56.5277
49.6824,56.5566
49.6442,56.5871
49.6049,56.6192
49.5657,56.6522
49.5269,56.6869
49.4876,56.7230
49.4484,56.7602
49.4091,56.7990
49.3703,56.8388
49.3311,56.8801
49.2923,56.9225
49.2541,56.9659
49.2158,57.0109
49.1776,57.0569
49.1399,57.1039
49.1027,57.1525
49.0654,57.2021
49.0293,57.2527
48.9931,57.3044
48.9223,57.4119
48.8536,57.5235
48.7885,57.6387
48.7265,57.7576
48.6681,57.8796
48.6402,57.9421
48.6128,58.0051
48.5869,58.0692
48.5621,58.1343
48.5383,58.1994
48.5156,58.2661
48.4732,58.4025
48.4355,58.5415
48.4030,58.6831
48.3761,58.8268
48.3549,58.9730
48.3461,59.0469
48.3394,59.1218
48.3337,59.1968
48.3296,59.2722
48.3275,59.3487
48.3265,59.4252
48.3275,59.5027
48.3296,59.5797
48.3394,59.7316
48.3554,59.8810
48.3771,60.0272
48.4040,60.1714
48.4366,60.3119
48.4738,60.4499
48.5156,60.5843
48.5627,60.7176
48.6143,60.8473
48.6696,60.9739
48.7280,61.0964
48.7905,61.2152
48.8557,61.3294
48.9234,61.4400
48.9931,61.5465
49.0298,61.5987
49.0665,61.6498
49.1037,61.7000
49.1414,61.7485
49.2179,61.8421
49.2949,61.9309
49.3724,62.0141
49.4499,62.0922
49.5280,62.1645
49.6050,62.2317
49.6447,62.2643
49.6835,62.2948
49.7217,62.3237
49.7595,62.3511
49.7962,62.3764
49.8323,62.4007
49.8675,62.4229
49.9016,62.4436
49.9352,62.4627
49.9677,62.4803
49.9992,62.4963
50.0297,62.5108
50.0592,62.5242
50.0881,62.5356
50.1150,62.5459
50.1414,62.5552
50.2127,62.5774
50.2804,62.5965
50.3439,62.6136
50.4044,62.6275
50.4617,62.6399
50.5165,62.6497
50.5692,62.6575
50.6199,62.6642
50.6721,62.6694
50.7243,62.6730
50.7770,62.6756
50.8307,62.6766
50.8860,62.6766
50.9428,62.6756
51.0028,62.6735
51.0653,62.6709
51.2043,62.6621
51.3583,62.6513
51.5288,62.6389
51.7164,62.6265
51.9304,62.6141
52.1645,62.6043
52.4218,62.5976
52.5598,62.5955
52.7050,62.5950
52.7846,62.5960
52.8636,62.5991
52.9416,62.6043
53.0186,62.6115
53.0945,62.6208
53.1700,62.6316
53.2445,62.6445
53.3177,62.6595
53.3901,62.6761
53.4614,62.6947
53.5317,62.7148
53.6009,62.7365
53.6691,62.7598
53.7358,62.7851
53.8020,62.8115
53.8671,62.8399
53.9332,62.8704
53.9983,62.9024
54.0619,62.9360
54.1239,62.9711
54.1854,63.0078
54.2448,63.0455
54.3032,63.0843
54.3606,63.1246
54.4164,63.1660
54.4712,63.2089
54.5244,63.2523
54.5761,63.2972
54.6267,63.3427
54.6758,63.3892
54.7233,63.4368
54.7699,63.4853
54.8169,63.5365
54.8624,63.5887
54.9068,63.6419
54.9497,63.6962
54.9905,63.7510
55.0308,63.8062
55.0691,63.8626
55.1057,63.9194
55.1414,63.9768
55.1755,64.0346
55.2081,64.0930
55.2391,64.1525
55.2685,64.2119
55.2970,64.2718
55.3233,64.3318
55.3486,64.3927
55.3734,64.4568
55.3972,64.5214
55.4189,64.5865
55.4391,64.6516
55.4571,64.7167
55.4742,64.7829
55.4897,64.8485
55.5031,64.9147
55.5155,64.9808
55.5259,65.0470
55.5347,65.1136
55.5419,65.1798
55.5476,65.2464
55.5517,65.3126
55.5543,65.3792
55.5548,65.4454
55.5543,65.5131
55.5517,65.5797
55.5481,65.6459
55.5429,65.7110
55.5289,65.8376
55.5103,65.9611
55.4871,66.0799
55.4597,66.1952
55.4292,66.3063
55.3956,66.4133
55.3568,66.5228
55.3150,66.6288
55.2705,66.7306
55.2245,66.8277
55.1770,66.9207
55.1289,67.0091
55.0793,67.0933
55.0302,67.1734
54.9765,67.2556
54.9222,67.3341
54.8685,67.4086
54.8153,67.4788
54.7631,67.5450
54.7124,67.6070
54.6639,67.6644
54.6174,67.7176
54.5688,67.7713
54.5228,67.8209
54.4794,67.8669
54.4391,67.9083
54.4003,67.9475
54.3647,67.9832
54.3073,68.0400
54.2908,68.0561
54.2727,68.0736
54.2334,68.1113
54.1368,68.2028
54.0773,68.2595
54.0153,68.3201
53.9502,68.3842
53.8820,68.4524
53.7874,68.5479
53.6934,68.6457
53.5999,68.7448
53.5079,68.8450
53.4381,68.9226
53.3704,68.9996
53.3048,69.0767
53.2412,69.1525
53.1472,69.2689
53.0604,69.3805
52.9808,69.4885
52.9074,69.5924
52.8413,69.6915
52.7808,69.7871
52.7265,69.8780
52.6785,69.9654
52.6511,70.0181
52.6258,70.0692
52.6025,70.1183
52.5818,70.1654
52.5632,70.2108
52.5467,70.2542
52.5317,70.2961
52.5188,70.3359
52.5059,70.3793
52.4955,70.4201
52.4867,70.4590
52.4800,70.4956
52.4748,70.5298
52.4712,70.5623
52.4691,70.5923
52.4686,70.6206
52.4676,70.9179
52.4645,71.2444
52.4521,72.0397
52.4423,72.5487
52.4253,73.5403
52.4191,74.0762
52.4165,74.6121
52.4170,74.6343
52.4175,74.6565
52.4191,74.6782
52.4207,74.6999
52.4259,74.7433
52.4295,74.7640
52.4331,74.7852
52.4378,74.8058
52.4425,74.8265
52.4482,74.8472
52.4539,74.8678
52.4601,74.8885
52.4668,74.9087
52.4818,74.9495
52.4906,74.9707
52.4994,74.9919
52.5190,75.0347
52.5407,75.0782
52.5650,75.1221
52.5919,75.1670
52.6203,75.2125
52.6513,75.2590
52.6849,75.3066
52.7216,75.3567
52.7604,75.4068
52.8012,75.4580
52.8436,75.5097
52.8880,75.5619
52.9335,75.6151
53.0301,75.7246
53.2466,75.9644
53.3588,76.0900
53.4719,76.2187
53.6099,76.3814
53.7406,76.5437
53.8636,76.7065
53.9225,76.7887
53.9799,76.8713
54.0352,76.9545
54.0889,77.0388
54.1406,77.1240
54.1453,77.1313
54.1565,77.1492
54.1632,77.1602
54.1698,77.1715
54.1759,77.1825
54.1809,77.1922
54.2042,77.2481
54.2200,77.3025
54.2289,77.3554
54.2313,77.4066
54.2275,77.4561
54.2178,77.5037
54.2029,77.5493
54.1829,77.5929
54.1583,77.6343
54.1295,77.6735
54.0970,77.7103
54.0610,77.7446
54.0220,77.7763
53.9804,77.8054
53.9366,77.8317
53.8909,77.8551
53.8439,77.8755
53.7958,77.8929
53.7470,77.9070
53.6980,77.9179
53.6492,77.9254
53.6008,77.9294
53.5535,77.9297
53.5075,77.9264
53.4632,77.9193
53.4210,77.9083
53.3813,77.8933
53.3446,77.8741
53.3112,77.8508
53.2815,77.8231
53.2559,77.7911
53.2347,77.7545
53.2324,77.7499
53.2298,77.7449
53.2239,77.7342
53.2175,77.7230
53.2111,77.7122
53.2004,77.6945
53.1960,77.6873
53.1557,77.6206
53.1133,77.5545
53.0689,77.4878
53.0229,77.4217
52.9748,77.3545
52.8725,77.2191
52.7614,77.0812
52.6410,76.9390
52.5371,76.8212
52.4301,76.7019
52.2095,76.4574
52.1046,76.3381
52.0513,76.2766
51.9981,76.2135
51.9454,76.1489
51.8932,76.0838
51.8421,76.0172
51.7924,75.9500
51.7449,75.8823
51.6984,75.8125
51.6529,75.7412
51.6095,75.6673
51.5676,75.5913
51.5475,75.5521
51.5279,75.5128
51.5093,75.4725
51.4912,75.4322
51.4736,75.3908
51.4565,75.3490
51.4405,75.3066
51.4255,75.2637
51.4111,75.2203
51.3976,75.1765
51.3852,75.1319
51.3739,75.0875
51.3635,75.0421
51.3537,74.9965
51.3454,74.9500
51.3382,74.9035
51.3316,74.8560
51.3264,74.8084
51.3222,74.7599
51.3196,74.7113
51.3175,74.6617
51.3170,74.6121
51.3196,74.0680
51.3258,73.5249
51.3429,72.5281
51.3527,72.0196
51.3652,71.2315
51.3688,70.6207
51.3693,70.5825
51.3703,70.5447
51.3755,70.4683
51.3838,70.3918
51.3945,70.3153
51.4091,70.2388
51.4260,70.1624
51.4457,70.0854
51.4684,70.0089
51.4906,69.9412
51.5149,69.8730
51.5414,69.8037
51.5703,69.7340
51.6012,69.6637
51.6343,69.5924
51.6700,69.5205
51.7077,69.4477
51.7718,69.3314
51.8420,69.2131
51.9185,69.0927
52.0007,68.9692
52.0895,68.8436
52.1841,68.7159
52.2854,68.5852
52.3929,68.4524
52.4652,68.3656
52.5396,68.2793
52.6156,68.1925
52.6931,68.1061
52.7949,67.9950
52.8978,67.8865
53.0006,67.7795
53.1034,67.6757
53.1773,67.6023
53.2471,67.5331
53.3137,67.4685
53.3763,67.4085
53.4739,67.3150
53.5101,67.2804
53.5241,67.2674
53.5354,67.2561
53.5907,67.2018
53.6212,67.1713
53.6538,67.1383
53.6863,67.1047
53.7210,67.0680
53.7576,67.0292
53.7762,67.0086
53.7954,66.9874
53.8315,66.9460
53.8682,66.9026
53.9065,66.8556
53.9452,66.8065
53.9845,66.7548
54.0238,66.7000
54.0630,66.6432
54.1018,66.5838
54.1369,66.5269
54.1716,66.4675
54.2051,66.4060
54.2377,66.3419
54.2692,66.2758
54.2987,66.2076
54.3131,66.1724
54.3266,66.1368
54.3400,66.1011
54.3524,66.0644
54.3741,65.9947
54.3943,65.9228
54.4118,65.8489
54.4196,65.8112
54.4263,65.7730
54.4330,65.7337
54.4387,65.6939
54.4434,65.6541
54.4475,65.6133
54.4506,65.5725
54.4527,65.5306
54.4543,65.4883
54.4549,65.4454
54.4543,65.4061
54.4527,65.3663
54.4506,65.3265
54.4470,65.2867
54.4429,65.2464
54.4372,65.2061
54.4310,65.1658
54.4238,65.1255
54.4155,65.0852
54.4057,65.0449
54.3954,65.0045
54.3840,64.9642
54.3716,64.9239
54.3582,64.8836
54.3437,64.8433
54.3282,64.8035
54.3127,64.7653
54.2957,64.7280
54.2786,64.6903
54.2600,64.6531
54.2404,64.6164
54.2202,64.5797
54.1991,64.5436
54.1768,64.5079
54.1541,64.4723
54.1303,64.4371
54.1055,64.4025
54.0797,64.3684
54.0533,64.3348
54.0254,64.3022
53.9975,64.2697
53.9680,64.2376
53.9391,64.2076
53.9097,64.1782
53.8797,64.1498
53.8487,64.1214
53.8166,64.0940
53.7841,64.0676
53.7510,64.0413
53.7169,64.0164
53.6818,63.9916
53.6461,63.9679
53.6099,63.9451
53.5727,63.9229
53.5350,63.9017
53.4968,63.8816
53.4575,63.8619
53.4177,63.8439
53.3789,63.8268
53.3391,63.8108
53.2988,63.7958
53.2575,63.7818
53.2156,63.7684
53.1728,63.7560
53.1293,63.7452
53.0854,63.7348
53.0405,63.7260
52.9945,63.7177
52.9485,63.7110
52.9009,63.7053
52.8534,63.7006
52.8048,63.6975
52.7552,63.6954
52.7051,63.6949
52.4421,63.6970
52.2028,63.7032
51.9852,63.7125
51.7858,63.7239
51.6070,63.7358
51.4386,63.7482
51.2784,63.7600
51.1218,63.7693
51.0464,63.7724
50.9704,63.7750
50.8939,63.7766
50.8169,63.7766
50.7394,63.7745
50.6604,63.7709
50.5797,63.7652
50.4981,63.7574
50.4164,63.7471
50.3338,63.7342
50.2506,63.7192
50.1653,63.7011
50.0785,63.6804
49.9896,63.6572
49.8981,63.6308
49.8036,63.6014
49.7462,63.5817
49.6888,63.5600
49.6315,63.5368
49.5736,63.5109
49.5162,63.4841
49.4589,63.4551
49.4020,63.4241
49.3447,63.3916
49.2878,63.3569
49.2315,63.3213
49.1752,63.2841
49.1194,63.2448
49.0636,63.2045
49.0083,63.1626
48.9535,63.1192
48.8992,63.0748
48.8460,63.0293
48.7923,62.9818
48.7390,62.9332
48.6863,62.8830
48.6336,62.8309
48.5814,62.7776
48.5297,62.7228
48.4781,62.6670
48.4269,62.6092
48.3763,62.5503
48.3261,62.4898
48.2770,62.4278
48.2279,62.3642
48.1799,62.2996
48.1323,62.2340
48.0853,62.1668
47.9954,62.0304
47.9086,61.8888
47.8249,61.7415
47.7453,61.5896
47.6698,61.4320
47.6337,61.3519
47.5985,61.2697
47.5649,61.1870
47.5324,61.1028
47.5014,61.0175
47.4719,60.9312
47.4176,60.7576
47.3696,60.5793
47.3272,60.3969
47.2921,60.2098
47.2771,60.1153
47.2642,60.0191
47.2528,59.9225
47.2435,59.8248
47.2363,59.7261
47.2306,59.6264
47.2275,59.5261
47.2265,59.4249
47.2275,59.3246
47.2306,59.2254
47.2430,59.0290
47.2631,58.8357
47.2910,58.6456
47.3262,58.4585
47.3686,58.2751
47.4171,58.0952
47.4719,57.9190
47.5318,57.7490
47.5970,57.5836
47.6678,57.4219
47.7427,57.2648
47.8228,57.1123
47.9065,56.9640
47.9944,56.8209
48.0853,56.6829
48.1313,56.6163
48.1783,56.5512
48.2744,56.4245
48.3737,56.3031
48.4749,56.1863
48.5783,56.0752
48.6837,55.9693
48.7912,55.8695
48.8992,55.7755
48.9524,55.7316
49.0067,55.6887
49.0615,55.6473
49.1168,55.6070
49.1721,55.5683
49.2284,55.5305
49.2847,55.4949
49.3416,55.4603
49.3984,55.4277
49.4558,55.3967
49.5131,55.3672
49.5710,55.3393
49.6294,55.3140
49.6873,55.2897
49.7452,55.2680
49.8035,55.2484
49.8966,55.2195
49.9875,55.1931
50.0759,55.1699
50.1627,55.1492
50.2480,55.1311
50.3322,55.1161
50.4154,55.1032
50.4981,55.0928
50.5792,55.0845
50.6583,55.0788
50.7368,55.0752
50.8143,55.0736
50.8913,55.0736
50.9683,55.0746
51.0448,55.0772
51.1218,55.0808
51.2763,55.0901
51.4360,55.1010
51.6044,55.1135
51.7858,55.1259
51.9822,55.1367
52.1987,55.1460
52.4389,55.1521
52.5686,55.1543
52.7051,55.1549
52.7542,55.1539
52.8027,55.1524
52.8508,55.1493
52.8983,55.1446
52.9448,55.1394
52.9913,55.1327
53.0368,55.1249
53.0818,55.1161
53.1257,55.1057
53.1696,55.0949
53.2125,55.0825
53.2549,55.0690
53.2967,55.0551
53.3376,55.0396
53.3779,55.0236
53.4177,55.0065
53.4569,54.9884
53.4952,54.9693
53.5329,54.9492
53.5706,54.9285
53.6073,54.9068
53.6435,54.8841
53.6786,54.8603
53.7138,54.8360
53.7479,54.8107
53.7815,54.7843
53.8140,54.7580
53.8466,54.7301
53.8776,54.7016
53.9086,54.6727
53.9386,54.6427
53.9680,54.6122
53.9964,54.5807
54.0243,54.5492
54.0512,54.5166
54.0776,54.4836
54.1029,54.4500
54.1277,54.4159
54.1514,54.3807
54.1747,54.3456
54.1969,54.3099
54.2181,54.2738
54.2388,54.2371
54.2584,54.1999
54.2770,54.1622
54.2951,54.1239
54.3122,54.0857
54.3282,54.0469
54.3432,54.0076
54.3576,53.9684
54.3711,53.9291
54.3830,53.8893
54.3943,53.8495
54.4047,53.8097
54.4145,53.7694
54.4228,53.7291
54.4300,53.6888
54.4367,53.6485
54.4424,53.6077
54.4465,53.5674
54.4501,53.5265
54.4527,53.4862
54.4543,53.4454
54.4548,53.4051
54.4584,51.3050
54.4548,49.3439
54.4543,49.3030
54.4527,49.2627
54.4501,49.2219
54.4465,49.1816
54.4424,49.1408
54.4367,49.1005
54.4300,49.0597
54.4228,49.0193
54.4145,48.9790
54.4047,48.9392
54.3943,48.8989
54.3830,48.8591
54.3711,48.8194
54.3576,48.7801
54.3432,48.7408
54.3282,48.7021
54.3122,48.6633
54.2951,48.6245
54.2770,48.5868
54.2584,48.5491
54.2383,48.5119
54.2181,48.4747
54.1964,48.4385
54.1742,48.4028
54.1515,48.3672
54.1272,48.3326
54.1029,48.2985
54.0770,48.2643
54.0507,48.2313
54.0238,48.1992
53.9959,48.1672
53.9675,48.1362
53.9380,48.1057
53.9081,48.0757
53.8776,48.0463
53.8461,48.0179
53.8135,47.9905
53.7809,47.9636
53.7474,47.9378
53.7132,47.9124
53.6786,47.8882
53.6430,47.8649
53.6068,47.8422
53.5701,47.8205
53.5329,47.7993
53.4952,47.7796
53.4569,47.7605
53.4177,47.7424
53.3779,47.7249
53.3376,47.7088
53.2962,47.6938
53.2549,47.6794
53.2125,47.6659
53.1696,47.6541
53.1257,47.6427
53.0818,47.6323
53.0368,47.6235
52.9913,47.6157
52.9448,47.6090
52.8983,47.6033
52.8508,47.5992
52.8027,47.5961
52.7542,47.5940
52.7051,47.5935
52.4384,47.5956
52.1981,47.6023
51.9816,47.6116
51.7852,47.6230
51.4355,47.6473
51.2758,47.6586
51.1218,47.6680
51.0448,47.6716
50.9683,47.6737
50.8913,47.6753
50.8143,47.6753
50.7368,47.6731
50.6583,47.6695
50.5792,47.6638
50.4981,47.6560
50.4154,47.6457
50.3316,47.6328
50.2475,47.6173
50.1622,47.5992
50.0754,47.5790
49.9870,47.5553
49.8961,47.5294
49.8030,47.5005
49.7446,47.4804
49.6868,47.4586
49.6289,47.4349
49.5705,47.4090
49.5131,47.3816
49.4552,47.3522
49.3979,47.3207
49.3410,47.2881
49.2842,47.2540
49.2279,47.2178
49.1721,47.1806
49.1163,47.1419
49.0615,47.1015
49.0067,47.0597
48.9524,47.0173
48.8992,46.9734
48.8450,46.9269
48.7907,46.8793
48.7370,46.8297
48.6837,46.7791
48.6310,46.7269
48.5783,46.6732
48.5266,46.6184
48.4749,46.5621
48.4238,46.5042
48.3737,46.4453
48.3235,46.3848
48.2744,46.3233
48.2264,46.2608
48.1783,46.1967
48.1313,46.1316
48.0853,46.0654
47.9938,45.9270
47.9065,45.7838
47.8228,45.6360
47.7427,45.4836
47.6677,45.3265
47.6316,45.2464
47.5970,45.1647
47.5639,45.0826
47.5318,44.9994
47.5014,44.9151
47.4719,44.8299
47.4171,44.6537
47.3685,44.4733
47.3262,44.2898
47.2910,44.1028
47.2766,44.0082
47.2631,43.9126
47.2523,43.8160
47.2430,43.7193
47.2358,43.6212
47.2306,43.5224
47.2275,43.4232
47.2265,43.3235
47.2275,43.2222
47.2306,43.1214
47.2435,42.9235
47.2642,42.7287
47.2921,42.5380
47.3272,42.3515
47.3696,42.1690
47.4176,41.9913
47.4719,41.8176
47.5329,41.6456
47.5985,41.4786
47.6698,41.3164
47.7453,41.1588
47.8248,41.0063
47.9086,40.8596
47.9954,40.7175
48.0853,40.5815
48.1323,40.5144
48.1799,40.4482
48.2279,40.3836
48.2770,40.3206
48.3762,40.1981
48.4780,40.0813
48.5814,39.9707
48.6863,39.8658
48.7922,39.7666
48.8992,39.6741
48.9535,39.6291
49.0082,39.5862
49.0635,39.5439
49.1193,39.5036
49.1752,39.4643
49.2315,39.4271
49.2883,39.3909
49.3452,39.3568
49.4020,39.3242
49.4594,39.2932
49.5167,39.2643
49.5741,39.2369
49.6314,39.2116
49.6888,39.1878
49.7462,39.1666
49.8035,39.1470
49.8981,39.1175
49.9896,39.0912
50.0784,39.0679
50.1653,39.0473
50.2505,39.0292
50.3342,39.0142
50.4164,39.0018
50.4981,38.9914
50.5797,38.9831
50.6603,38.9774
50.7394,38.9738
50.8174,38.9722
50.8944,38.9722
50.9704,38.9732
51.0463,38.9758
51.1218,38.9794
51.2784,38.9887
51.4391,39.0001
51.6070,39.0120
51.7858,39.0244
51.9853,39.0358
52.2034,39.0451
52.4421,39.0513
52.5703,39.0534
52.7052,39.0539
52.7552,39.0534
52.8048,39.0513
52.8534,39.0477
52.9014,39.0436
52.9484,39.0379
52.9950,39.0312
53.0404,39.0229
53.0854,39.0136
53.1298,39.0038
53.1732,38.9924
53.2156,38.9800
53.2580,38.9671
53.2988,38.9526
53.3391,38.9376
53.3789,38.9216
53.4177,38.9051
53.4574,38.8865
53.4967,38.8668
53.5355,38.8467
53.5732,38.8255
53.6099,38.8033
53.6466,38.7805
53.6822,38.7567
53.7169,38.7319
53.7510,38.7066
53.7845,38.6808
53.8166,38.6539
53.8486,38.6265
53.8796,38.5986
53.9101,38.5697
53.9391,38.5407
53.9680,38.5108
53.9975,38.4787
54.0259,38.4462
54.0533,38.4131
54.0796,38.3795
54.1055,38.3454
54.1303,38.3108
54.1541,38.2757
54.1773,38.2405
54.1990,38.2043
54.2202,38.1682
54.2409,38.1320
54.2600,38.0948
54.2786,38.0581
54.2962,38.0209
54.3127,37.9832
54.3282,37.9455
54.3437,37.9051
54.3582,37.8648
54.3716,37.8245
54.3845,37.7842
54.3959,37.7439
54.4062,37.7031
54.4155,37.6629
54.4238,37.6226
54.4310,37.5823
54.4372,37.5419
54.4429,37.5022
54.4470,37.4618
54.4506,37.4221
54.4527,37.3823
54.4543,37.3430
54.4548,37.3037
54.4543,37.2650
54.4527,37.2272
54.4496,37.1895
54.4455,37.1523
54.4408,37.1156
54.4351,37.0795
54.4279,37.0438
54.4201,37.0081
54.4113,36.9735
54.4020,36.9389
54.3917,36.9048
54.3809,36.8712
54.3690,36.8381
54.3566,36.8056
54.3297,36.7420
54.3142,36.7079
54.2976,36.6743
54.2811,36.6412
54.2635,36.6092
54.2460,36.5772
54.2274,36.5462
54.1896,36.4857
54.1504,36.4273
54.1106,36.3720
54.0703,36.3193
54.0295,36.2692
53.9819,36.2134
53.9359,36.1622
53.8915,36.1147
53.8496,36.0718
53.8093,36.0325
53.7716,35.9979
53.7049,35.9395
53.6517,35.8961
53.6135,35.8677
53.5907,35.8527
53.5737,35.8408
53.5571,35.8279
53.5416,35.8150
53.5261,35.8015
53.5117,35.7870
53.4977,35.7726
53.4838,35.7576
53.4709,35.7421
53.4590,35.7261
53.4471,35.7095
53.4362,35.6930
53.4259,35.6759
53.4161,35.6584
53.4068,35.6408
53.3985,35.6227
53.3907,35.6041
53.3835,35.5855
53.3768,35.5669
53.3711,35.5478
53.3659,35.5281
53.3577,35.4889
53.3551,35.4692
53.3525,35.4491
53.3509,35.4289
53.3504,35.4088
53.3504,35.3886
53.3509,35.3679
53.3525,35.3478
53.3551,35.3271
53.3582,35.3070
53.3618,35.2863
53.3664,35.2662
53.3716,35.2460
53.3845,35.2072
53.4000,35.1695
53.4181,35.1334
53.4388,35.0987
53.4615,35.0662
53.4868,35.0352
53.5142,35.0062
53.5437,34.9794
53.5752,34.9545
53.6083,34.9318
53.6434,34.9117
53.6796,34.8941
53.7173,34.8791
53.7566,34.8672
53.7767,34.8620
53.7969,34.8579
53.8237,34.8533
53.8506,34.8502
53.8775,34.8486
53.9049,34.8481
Z" /> 
<path style="fill:none; 
stroke:#D0D2CD; stroke-width:0.0529; stroke-opacity:1; 
stroke-linecap:round; stroke-linejoin:round;fill:none"
d="M 22.4200,13.4763
22.4796,13.4788
22.5390,13.4831
22.5983,13.4890
22.6574,13.4965
22.7163,13.5057
22.7749,13.5166
22.8332,13.5291
22.8911,13.5432
22.9486,13.5589
23.0056,13.5762
23.0621,13.5951
23.1181,13.6155
23.1734,13.6375
23.2282,13.6611
23.2823,13.6862
23.3357,13.7128
23.3882,13.7410
23.4400,13.7705
23.4909,13.8015
23.5409,13.8339
23.5900,13.8677
23.6382,13.9029
23.6853,13.9394
23.7314,13.9773
23.7764,14.0163
23.8203,14.0567
23.8630,14.0982
23.9045,14.1409
23.9448,14.1848
23.9839,14.2297
24.0218,14.2758
24.0583,14.3229
24.0935,14.3710
24.1273,14.4201
24.1597,14.4700
24.1907,14.5209
24.2202,14.5725
24.2483,14.6251
24.2750,14.6784
24.3001,14.7325
24.3237,14.7873
24.3457,14.8428
24.3662,14.8988
24.3850,14.9553
24.4023,15.0124
24.4180,15.0700
24.4321,15.1280
24.4445,15.1863
24.4553,15.2449
24.4645,15.3038
24.4720,15.3629
24.4778,15.4222
24.4820,15.4816
24.4845,15.5412
24.4853,15.6008
24.4841,15.6707
24.4807,15.7403
24.4750,15.8097
24.4670,15.8787
24.4568,15.9474
24.4444,16.0157
24.4297,16.0835
24.4129,16.1507
24.3939,16.2174
24.3726,16.2834
24.3493,16.3488
24.3238,16.4134
24.2961,16.4772
24.2664,16.5401
24.2345,16.6021
24.2006,16.6632
24.1647,16.7231
24.1269,16.7817
24.0872,16.8390
24.0458,16.8948
24.0026,16.9492
23.9577,17.0021
23.9111,17.0535
23.8629,17.1033
23.8131,17.1516
23.7617,17.1981
23.7088,17.2431
23.6544,17.2862
23.5986,17.3277
23.5413,17.3673
23.4827,17.4051
23.4228,17.4410
23.3618,17.4750
23.2997,17.5068
23.2368,17.5366
23.1730,17.5642
23.1084,17.5897
23.0431,17.6131
22.9770,17.6343
22.9103,17.6533
22.8431,17.6702
22.7753,17.6848
22.7070,17.6973
22.6383,17.7075
22.5692,17.7155
22.4999,17.7212
22.4302,17.7246
22.3604,17.7258
22.2905,17.7246
22.2209,17.7212
22.1515,17.7155
22.0824,17.7075
22.0137,17.6973
21.9454,17.6848
21.8776,17.6702
21.8104,17.6533
21.7437,17.6343
21.6777,17.6131
21.6123,17.5897
21.5477,17.5642
21.4839,17.5366
21.4210,17.5068
21.3590,17.4750
21.2979,17.4410
21.2380,17.4051
21.1794,17.3673
21.1222,17.3277
21.0663,17.2863
21.0119,17.2431
20.9590,17.1982
20.9077,17.1516
20.8578,17.1034
20.8096,17.0535
20.7630,17.0022
20.7181,16.9493
20.6749,16.8949
20.6335,16.8390
20.5939,16.7818
20.5561,16.7232
20.5202,16.6633
20.4862,16.6022
20.4544,16.5402
20.4246,16.4773
20.3970,16.4135
20.3715,16.3489
20.3481,16.2835
20.3269,16.2175
20.3079,16.1508
20.2910,16.0835
20.2763,16.0157
20.2639,15.9475
20.2537,15.8788
20.2457,15.8097
20.2400,15.7403
20.2366,15.6707
20.2354,15.6008
20.2366,15.5310
20.2400,15.4614
20.2457,15.3920
20.2537,15.3229
20.2639,15.2543
20.2763,15.1860
20.2910,15.1182
20.3078,15.0509
20.3269,14.9843
20.3481,14.9182
20.3714,14.8529
20.3969,14.7883
20.4246,14.7245
20.4543,14.6616
20.4862,14.5995
20.5201,14.5385
20.5560,14.4785
20.5938,14.4198
20.6334,14.3626
20.6749,14.3067
20.7181,14.2523
20.7630,14.1993
20.8095,14.1479
20.8578,14.0980
20.9076,14.0498
20.9590,14.0032
21.0119,13.9582
21.0663,13.9150
21.1221,13.8735
21.1794,13.8339
21.2380,13.7961
21.2979,13.7601
21.3590,13.7262
21.4210,13.6943
21.4839,13.6646
21.5477,13.6369
21.6123,13.6114
21.6777,13.5881
21.7437,13.5669
21.8104,13.5478
21.8776,13.5310
21.9454,13.5163
22.0137,13.5039
22.0824,13.4937
22.1515,13.4857
22.2209,13.4800
22.2905,13.4765
22.3604,13.4754
22.3604,13.4754
Z" /> 
<path style="fill:none; 
stroke:#D0D2CD; stroke-width:0.0529; stroke-opacity:1; 
stroke-linecap:round; stroke-linejoin:round;fill:none"
d="M 46.3338,85.8262
46.3475,85.8273
46.3610,85.8290
46.3743,85.8314
46.3873,85.8344
46.4002,85.8380
46.4127,85.8423
46.4250,85.8471
46.4369,85.8525
46.4486,85.8585
46.4599,85.8650
46.4708,85.8720
46.4814,85.8795
46.4916,85.8875
46.5014,85.8960
46.5108,85.9050
46.5197,85.9143
46.5282,85.9241
46.5362,85.9343
46.5438,85.9449
46.5508,85.9559
46.5573,85.9672
46.5632,85.9788
46.5687,85.9908
46.5735,86.0030
46.5777,86.0156
46.5814,86.0284
46.5844,86.0415
46.5868,86.0548
46.5885,86.0683
46.5895,86.0820
46.5899,86.0959
46.5899,86.0959
46.5895,86.1098
46.5885,86.1235
46.5868,86.1370
46.5844,86.1503
46.5814,86.1634
46.5777,86.1762
46.5735,86.1887
46.5687,86.2010
46.5632,86.2129
46.5573,86.2246
46.5508,86.2359
46.5438,86.2468
46.5362,86.2574
46.5282,86.2676
46.5197,86.2774
46.5108,86.2868
46.5014,86.2957
46.4916,86.3042
46.4814,86.3122
46.4708,86.3198
46.4599,86.3268
46.4486,86.3333
46.4369,86.3393
46.4250,86.3447
46.4127,86.3495
46.4002,86.3537
46.3874,86.3574
46.3743,86.3604
46.3610,86.3628
46.3475,86.3645
46.3338,86.3655
46.3199,86.3659
46.3060,86.3655
46.2923,86.3645
46.2788,86.3628
46.2655,86.3604
46.2524,86.3574
46.2396,86.3537
46.2270,86.3495
46.2148,86.3447
46.2028,86.3393
46.1912,86.3333
46.1799,86.3268
46.1689,86.3198
46.1583,86.3122
46.1481,86.3042
46.1383,86.2957
46.1290,86.2868
46.1200,86.2774
46.1115,86.2676
46.1035,86.2574
46.0960,86.2468
46.0890,86.2359
46.0825,86.2246
46.0765,86.2129
46.0711,86.2010
46.0663,86.1887
46.0620,86.1762
46.0584,86.1634
46.0554,86.1503
46.0530,86.1370
46.0513,86.1235
46.0502,86.1098
46.0499,86.0959
46.0502,86.0820
46.0513,86.0683
46.0530,86.0548
46.0554,86.0415
46.0584,86.0284
46.0620,86.0156
46.0663,86.0030
46.0711,85.9908
46.0765,85.9788
46.0825,85.9672
46.0890,85.9559
46.0960,85.9449
46.1035,85.9343
46.1115,85.9241
46.1200,85.9143
46.1289,85.9050
46.1383,85.8960
46.1481,85.8875
46.1583,85.8795
46.1689,85.8720
46.1799,85.8650
46.1912,85.8585
46.2028,85.8525
46.2148,85.8471
46.2270,85.8423
46.2396,85.8380
46.2524,85.8344
46.2655,85.8314
46.2787,85.8290
46.2923,85.8273
46.3060,85.8262
46.3199,85.8259
Z" /> 
</g>
<g style="fill:none; 
stroke:#D0D2CD; stroke-width:0.0100; stroke-opacity:1; 
stroke-linecap:round; stroke-linejoin:round;">
<circle cx="46.3200" cy="78.5963" r="0.2700" /> 
<circle cx="46.3200" cy="86.0963" r="0.2700" /> 
</g>
<g style="fill:none; 
stroke:#D0D2CD; stroke-width:0.1000; stroke-opacity:1; 
stroke-linecap:round; stroke-linejoin:round;">
<circle cx="59.0700" cy="79.6013" r="2.0616" /> 
<path style="fill:none; 
stroke:#D0D2CD; stroke-width:0.0529; stroke-opacity:1; 
stroke-linecap:round; stroke-linejoin:round;fill:none"
d="M 96.6003,91.3156
54.7595,91.2965
54.7595,83.1440
54.7589,83.1181
54.7568,83.0928
54.7537,83.0675
54.7490,83.0427
54.7433,83.0189
54.7366,82.9946
54.7288,82.9719
54.7200,82.9491
54.7097,82.9269
54.6988,82.9052
54.6870,82.8840
54.6740,82.8639
54.6601,82.8442
54.6451,82.8256
54.6296,82.8076
54.6131,82.7900
54.5955,82.7734
54.5774,82.7579
54.5583,82.7429
54.5392,82.7290
54.5185,82.7161
54.4978,82.7042
54.4761,82.6939
54.4539,82.6835
54.4312,82.6742
54.4079,82.6664
54.3841,82.6592
54.3598,82.6535
54.3356,82.6494
54.3102,82.6463
54.2849,82.6442
54.2591,82.6437
54.1593,82.6437
54.1335,82.6442
54.1082,82.6463
54.0829,82.6494
54.0581,82.6535
54.0338,82.6592
54.0100,82.6664
53.9868,82.6742
53.9640,82.6835
53.9418,82.6939
53.9206,82.7042
53.8994,82.7161
53.8793,82.7290
53.8596,82.7429
53.8405,82.7579
53.8224,82.7734
53.8054,82.7900
53.7888,82.8076
53.7728,82.8256
53.7583,82.8442
53.7444,82.8639
53.7315,82.8840
53.7191,82.9052
53.7082,82.9269
53.6984,82.9491
53.6891,82.9719
53.6813,82.9946
53.6746,83.0189
53.6689,83.0427
53.6648,83.0675
53.6617,83.0928
53.6596,83.1181
53.6591,83.1440
53.6591,91.2965
44.1672,91.2965
44.1672,89.5545
44.1666,89.5348
44.1651,89.5152
44.1624,89.4961
44.1593,89.4769
44.1552,89.4583
44.1505,89.4403
44.1448,89.4222
44.1381,89.4046
44.1303,89.3875
44.1225,89.3710
44.1137,89.3545
44.1039,89.3390
44.0936,89.3235
44.0828,89.3090
44.0714,89.2945
44.0590,89.2811
44.0461,89.2682
44.0326,89.2558
44.0187,89.2434
44.0037,89.2325
43.9887,89.2217
43.9732,89.2119
43.9572,89.2031
43.9406,89.1948
43.9236,89.1870
43.9065,89.1798
43.8884,89.1736
43.8703,89.1689
43.8523,89.1648
43.8331,89.1607
43.8140,89.1576
43.7944,89.1560
43.7944,89.1539
39.4350,89.1539
39.4350,88.1498
39.4344,88.1291
39.4328,88.1085
39.4302,88.0878
39.4266,88.0687
39.4219,88.0495
39.4167,88.0304
39.4105,88.0118
39.4033,87.9937
39.3950,87.9762
39.3862,87.9581
39.3769,87.9421
39.3666,87.9255
39.3552,87.9100
39.3433,87.8950
39.3309,87.8806
39.3175,87.8661
39.3036,87.8532
39.2891,87.8408
39.2741,87.8284
39.2586,87.8175
39.2421,87.8067
39.2255,87.7969
39.2085,87.7881
39.1904,87.7798
39.1723,87.7731
39.1537,87.7669
39.1346,87.7617
39.1154,87.7576
39.0958,87.7540
39.0555,87.7498
39.0343,87.7492
35.4340,87.7492
35.4139,87.7498
35.3932,87.7519
35.3730,87.7540
35.3534,87.7576
35.3343,87.7617
35.3152,87.7669
35.2966,87.7731
35.2785,87.7798
35.2604,87.7881
35.2433,87.7969
35.2268,87.8067
35.2103,87.8175
35.1948,87.8284
35.1798,87.8408
35.1653,87.8532
35.1513,87.8661
35.1379,87.8806
35.1255,87.8950
35.1136,87.9100
35.1023,87.9255
35.0919,87.9421
35.0826,87.9581
35.0738,87.9762
35.0655,87.9937
35.0583,88.0118
35.0521,88.0304
35.0469,88.0495
35.0422,88.0687
35.0391,88.0878
35.0360,88.1085
35.0350,88.1291
35.0345,88.1498
35.0345,89.1539
26.6939,89.1539
26.6939,88.1498
26.6934,88.1291
26.6918,88.1085
26.6892,88.0878
26.6856,88.0687
26.6809,88.0495
26.6757,88.0304
26.6695,88.0118
26.6623,87.9937
26.6545,87.9762
26.6457,87.9581
26.6359,87.9421
26.6256,87.9255
26.6142,87.9100
26.6023,87.8950
26.5899,87.8806
26.5765,87.8661
26.5625,87.8532
26.5480,87.8408
26.5331,87.8284
26.5176,87.8175
26.5010,87.8067
26.4845,87.7969
26.4674,87.7881
26.4493,87.7798
26.4312,87.7731
26.4126,87.7669
26.3935,87.7617
26.3744,87.7576
26.3548,87.7540
26.3145,87.7498
26.2938,87.7492
22.6935,87.7492
22.6734,87.7498
22.6527,87.7519
22.6325,87.7540
22.6129,87.7576
22.5938,87.7617
22.5747,87.7669
22.5561,87.7731
22.5380,87.7798
22.5199,87.7881
22.5028,87.7969
22.4863,87.8067
22.4697,87.8175
22.4542,87.8284
22.4393,87.8408
22.4248,87.8532
22.4108,87.8661
22.3974,87.8806
22.3850,87.8950
22.3731,87.9100
22.3618,87.9255
22.3514,87.9421
22.3421,87.9581
22.3333,87.9762
22.3250,87.9937
22.3178,88.0118
22.3116,88.0304
22.3064,88.0495
22.3017,88.0687
22.2981,88.0878
22.2960,88.1085
22.2944,88.1291
22.2939,88.1498
22.2939,89.1539
14.0345,89.1539
14.0345,88.1539
14.0339,88.1333
14.0323,88.1126
14.0297,88.0930
14.0261,88.0723
14.0214,88.0537
14.0162,88.0346
14.0100,88.0160
14.0028,87.9979
13.9945,87.9798
13.9857,87.9622
13.9764,87.9457
13.9661,87.9297
13.9547,87.9142
13.9428,87.8992
13.9304,87.8847
13.9170,87.8707
13.9031,87.8573
13.8886,87.8449
13.8736,87.8330
13.8581,87.8222
13.8416,87.8113
13.8250,87.8010
13.8080,87.7922
13.7899,87.7844
13.7718,87.7772
13.7532,87.7710
13.7341,87.7663
13.7149,87.7622
13.6953,87.7581
13.6752,87.7550
13.6550,87.7540
13.6338,87.7535
10.0335,87.7535
10.0134,87.7540
9.9927,87.7550
9.9725,87.7581
9.9529,87.7622
9.9338,87.7663
9.9147,87.7710
9.8961,87.7772
9.8780,87.7844
9.8599,87.7922
9.8428,87.8010
9.8263,87.8113
9.8098,87.8222
9.7943,87.8330
9.7793,87.8449
9.7648,87.8573
9.7509,87.8707
9.7374,87.8847
9.7250,87.8992
9.7131,87.9142
9.7018,87.9297
9.6914,87.9457
9.6821,87.9622
9.6733,87.9798
9.6651,87.9979
9.6578,88.0160
9.6516,88.0346
9.6465,88.0537
9.6418,88.0723
9.6387,88.0930
9.6356,88.1126
9.6346,88.1333
9.6341,88.1539
9.6341,89.1539
5.3005,89.1539
5.3005,41.6162
8.3603,41.6162
8.4150,41.6157
8.4698,41.6136
8.5241,41.6100
8.5778,41.6053
8.6310,41.5991
8.6843,41.5919
8.7365,41.5831
8.7887,41.5728
8.8403,41.5619
8.8915,41.5495
8.9421,41.5356
8.9923,41.5206
9.0419,41.5045
9.0910,41.4870
9.1395,41.4684
9.1876,41.4493
9.2351,41.4281
9.2816,41.4064
9.3276,41.3836
9.3731,41.3598
9.4181,41.3345
9.4620,41.3082
9.5059,41.2813
9.5483,41.2529
9.5907,41.2239
9.6320,41.1940
9.6723,41.1630
9.7121,41.1309
9.7509,41.0979
9.7891,41.0643
9.8263,41.0291
9.8630,40.9935
9.8987,40.9573
9.9333,40.9201
9.9674,40.8819
9.9999,40.8431
10.0320,40.8033
10.0635,40.7630
10.0935,40.7216
10.1224,40.6793
10.1508,40.6369
10.1777,40.5935
10.2041,40.5491
10.2289,40.5041
10.2526,40.4586
10.2759,40.4126
10.2976,40.3656
10.3183,40.3181
10.3379,40.2705
10.3565,40.2219
10.3736,40.1729
10.3901,40.1232
10.4051,40.0731
10.4185,40.0225
10.4309,39.9708
10.4423,39.9196
10.4521,39.8674
10.4609,39.8147
10.4681,39.7615
10.4743,39.7083
10.4790,39.6545
10.4826,39.6003
10.4847,39.5460
10.4852,39.4912
10.4847,39.4359
10.4826,39.3817
10.4790,39.3274
10.4743,39.2737
10.4681,39.2205
10.4609,39.1677
10.4521,39.1150
10.4423,39.0634
10.4309,39.0117
10.4185,38.9605
10.4051,38.9099
10.3901,38.8592
10.3736,38.8096
10.3565,38.7605
10.3379,38.7120
10.3183,38.6639
10.2976,38.6169
10.2759,38.5698
10.2526,38.5238
10.2289,38.4784
10.2041,38.4334
10.1777,38.3890
10.1508,38.3456
10.1224,38.3027
10.0935,38.2608
10.0635,38.2195
10.0320,38.1792
9.9999,38.1394
9.9674,38.1006
9.9333,38.0624
9.8987,38.0252
9.8630,37.9885
9.8263,37.9533
9.7891,37.9182
9.7509,37.8846
9.7121,37.8515
9.6723,37.8195
9.6320,37.7885
9.5907,37.7585
9.5483,37.7296
9.5059,37.7012
9.4620,37.6743
9.4181,37.6479
9.3731,37.6231
9.3276,37.5988
9.2816,37.5761
9.2351,37.5544
9.1876,37.5337
9.1395,37.5141
9.0910,37.4955
9.0419,37.4779
8.9923,37.4619
8.9421,37.4469
8.8915,37.4335
8.8403,37.4205
8.7887,37.4092
8.7365,37.3994
8.6843,37.3906
8.6310,37.3834
8.5778,37.3772
8.5241,37.3725
8.4698,37.3689
8.4150,37.3668
8.3603,37.3658
5.3005,37.3658
5.3005,0.0378
50.4205,0.0378
50.4205,13.7093
50.4210,13.7352
50.4231,13.7605
50.4263,13.7858
50.4304,13.8101
50.4360,13.8344
50.4427,13.8582
50.4505,13.8814
50.4598,13.9042
50.4696,13.9264
50.4805,13.9481
50.4929,13.9687
50.5058,13.9889
50.5198,14.0085
50.5342,14.0277
50.5503,14.0457
50.5668,14.0628
50.5839,14.0793
50.6019,14.0954
50.6211,14.1098
50.6407,14.1238
50.6609,14.1367
50.6820,14.1491
50.7037,14.1599
50.7254,14.1697
50.7482,14.1785
50.7714,14.1868
50.7952,14.1935
50.8195,14.1987
50.8443,14.2034
50.8696,14.2065
50.8949,14.2086
50.9208,14.2092
51.0205,14.2092
51.0464,14.2086
51.0717,14.2065
51.0965,14.2034
51.1213,14.1987
51.1456,14.1935
51.1694,14.1868
51.1926,14.1785
51.2153,14.1697
51.2376,14.1599
51.2593,14.1491
51.2799,14.1367
51.3006,14.1238
51.3203,14.1098
51.3389,14.0954
51.3570,14.0793
51.3745,14.0628
51.3911,14.0457
51.4066,14.0277
51.4216,14.0085
51.4355,13.9889
51.4484,13.9687
51.4603,13.9481
51.4712,13.9264
51.4815,13.9042
51.4903,13.8814
51.4981,13.8582
51.5048,13.8344
51.5105,13.8101
51.5152,13.7858
51.5183,13.7605
51.5204,13.7352
51.5209,13.7093
51.5209,0.0378
96.5590,0.0264
Z" /> 
<path style="fill:none; 
stroke:#D0D2CD; stroke-width:0.0529; stroke-opacity:1; 
stroke-linecap:round; stroke-linejoin:round;fill:none"
d="M 46.3338,78.3263
46.3475,78.3273
46.3610,78.3290
46.3743,78.3314
46.3873,78.3344
46.4002,78.3381
46.4127,78.3423
46.4250,78.3471
46.4369,78.3525
46.4486,78.3585
46.4599,78.3650
46.4708,78.3720
46.4814,78.3796
46.4916,78.3876
46.5014,78.3961
46.5108,78.4050
46.5197,78.4144
46.5282,78.4242
46.5362,78.4344
46.5438,78.4450
46.5508,78.4559
46.5573,78.4672
46.5632,78.4789
46.5687,78.4908
46.5735,78.5031
46.5777,78.5156
46.5814,78.5284
46.5844,78.5415
46.5868,78.5548
46.5885,78.5683
46.5895,78.5820
46.5899,78.5959
46.5899,78.5959
46.5895,78.6098
46.5885,78.6235
46.5868,78.6370
46.5844,78.6503
46.5814,78.6634
46.5777,78.6762
46.5735,78.6888
46.5687,78.7010
46.5632,78.7130
46.5573,78.7246
46.5508,78.7359
46.5438,78.7469
46.5362,78.7575
46.5282,78.7677
46.5197,78.7775
46.5108,78.7868
46.5014,78.7958
46.4916,78.8043
46.4814,78.8123
46.4708,78.8198
46.4599,78.8268
46.4486,78.8333
46.4369,78.8393
46.4250,78.8447
46.4127,78.8495
46.4002,78.8538
46.3874,78.8574
46.3743,78.8604
46.3610,78.8628
46.3475,78.8645
46.3338,78.8656
46.3199,78.8659
46.3060,78.8656
46.2923,78.8645
46.2788,78.8628
46.2655,78.8604
46.2524,78.8574
46.2396,78.8538
46.2270,78.8495
46.2148,78.8447
46.2028,78.8393
46.1912,78.8333
46.1799,78.8268
46.1689,78.8198
46.1583,78.8123
46.1481,78.8043
46.1383,78.7958
46.1290,78.7868
46.1200,78.7775
46.1115,78.7677
46.1035,78.7575
46.0960,78.7469
46.0890,78.7359
46.0825,78.7246
46.0765,78.7130
46.0711,78.7010
46.0663,78.6888
46.0620,78.6762
46.0584,78.6634
46.0554,78.6503
46.0530,78.6370
46.0513,78.6235
46.0502,78.6098
46.0499,78.5959
46.0502,78.5820
46.0513,78.5683
46.0530,78.5548
46.0554,78.5415
46.0584,78.5284
46.0620,78.5156
46.0663,78.5031
46.0711,78.4908
46.0765,78.4789
46.0825,78.4672
46.0890,78.4559
46.0960,78.4450
46.1035,78.4344
46.1115,78.4242
46.1200,78.4144
46.1289,78.4050
46.1383,78.3961
46.1481,78.3876
46.1583,78.3796
46.1689,78.3720
46.1799,78.3650
46.1912,78.3585
46.2028,78.3525
46.2148,78.3471
46.2270,78.3423
46.2396,78.3381
46.2524,78.3344
46.2655,78.3314
46.2787,78.3290
46.2923,78.3273
46.3060,78.3263
46.3199,78.3259
Z" /> 
<path style="fill:none; 
stroke:#D0D2CD; stroke-width:0.0529; stroke-opacity:1; 
stroke-linecap:round; stroke-linejoin:round;fill:none"
d="M 53.9316,34.8498
53.9580,34.8519
53.9849,34.8550
54.0112,34.8602
54.0371,34.8659
54.0629,34.8731
54.0887,34.8819
54.1135,34.8917
54.1383,34.9025
54.1621,34.9149
54.1859,34.9284
54.2086,34.9434
54.2288,34.9563
54.2706,34.9847
54.2991,35.0048
54.3321,35.0296
54.3698,35.0591
54.4117,35.0937
54.4577,35.1330
54.5078,35.1774
54.5610,35.2276
54.6179,35.2829
54.6783,35.3444
54.7414,35.4121
54.8070,35.4860
54.8406,35.5252
54.8752,35.5660
54.9336,35.6378
54.9925,35.7153
55.0525,35.7980
55.0824,35.8419
55.1124,35.8869
55.1419,35.9334
55.1708,35.9809
55.1997,36.0300
55.2282,36.0801
55.2556,36.1318
55.2829,36.1850
55.3093,36.2393
55.3346,36.2951
55.3579,36.3483
55.3801,36.4026
55.4013,36.4589
55.4214,36.5163
55.4411,36.5747
55.4591,36.6346
55.4757,36.6961
55.4917,36.7581
55.5057,36.8222
55.5181,36.8873
55.5289,36.9540
55.5377,37.0212
55.5449,37.0904
55.5506,37.1602
55.5537,37.2315
55.5547,37.3043
55.5542,37.3705
55.5516,37.4361
55.5475,37.5028
55.5418,37.5689
55.5346,37.6351
55.5258,37.7012
55.5155,37.7674
55.5036,37.8335
55.4896,37.8997
55.4741,37.9658
55.4576,38.0314
55.4390,38.0971
55.4188,38.1622
55.3971,38.2273
55.3734,38.2919
55.3486,38.3565
55.3232,38.4170
55.2969,38.4769
55.2690,38.5368
55.2390,38.5963
55.2080,38.6552
55.1755,38.7136
55.1419,38.7720
55.1062,38.8293
55.0695,38.8862
55.0308,38.9420
54.9910,38.9978
54.9496,39.0526
54.9067,39.1068
54.8628,39.1600
54.8168,39.2122
54.7698,39.2639
54.7233,39.3120
54.6757,39.3595
54.6266,39.4060
54.5760,39.4520
54.5243,39.4965
54.4711,39.5399
54.4168,39.5828
54.3610,39.6241
54.3037,39.6644
54.2453,39.7032
54.1853,39.7409
54.1244,39.7776
54.0618,39.8127
53.9983,39.8463
53.9332,39.8783
53.8670,39.9093
53.8024,39.9373
53.7363,39.9636
53.6691,39.9889
53.6009,40.0122
53.5316,40.0339
53.4613,40.0540
53.3900,40.0726
53.3177,40.0892
53.2448,40.1042
53.1704,40.1171
53.0950,40.1284
53.0190,40.1377
52.9415,40.1449
52.8635,40.1501
52.7849,40.1532
52.7048,40.1542
52.4222,40.1516
52.1648,40.1449
51.9307,40.1351
51.7163,40.1233
51.3582,40.0979
51.2042,40.0871
51.0651,40.0788
51.0026,40.0757
50.9427,40.0736
50.8858,40.0726
50.8306,40.0726
50.7768,40.0736
50.7241,40.0762
50.6719,40.0798
50.6197,40.0850
50.5691,40.0912
50.5164,40.0995
50.4616,40.1093
50.4042,40.1217
50.3438,40.1356
50.2803,40.1527
50.2126,40.1723
50.1413,40.1946
50.1150,40.2034
50.0881,40.2137
50.0597,40.2256
50.0302,40.2385
49.9992,40.2530
49.9677,40.2690
49.9351,40.2871
49.9015,40.3062
49.8674,40.3269
49.8323,40.3491
49.7961,40.3729
49.7594,40.3987
49.7217,40.4261
49.6835,40.4550
49.6447,40.4855
49.6049,40.5181
49.5667,40.5506
49.5279,40.5852
49.4892,40.6204
49.4504,40.6576
49.4111,40.6958
49.3724,40.7356
49.3336,40.7764
49.2948,40.8188
49.2561,40.8622
49.2178,40.9072
49.1796,40.9532
49.1414,41.0007
49.1036,41.0493
49.0664,41.0994
49.0298,41.1506
48.9931,41.2033
48.9233,41.3092
48.8556,41.4198
48.7905,41.5340
48.7285,41.6529
48.6696,41.7753
48.6412,41.8379
48.6143,41.9014
48.5879,41.9660
48.5626,42.0311
48.5388,42.0978
48.5156,42.1650
48.4737,42.2993
48.4365,42.4368
48.4040,42.5774
48.3771,42.7215
48.3652,42.7944
48.3554,42.8678
48.3466,42.9422
48.3394,43.0171
48.3337,43.0931
48.3296,43.1696
48.3275,43.2466
48.3265,43.3241
48.3275,43.4005
48.3296,43.4765
48.3394,43.6274
48.3549,43.7757
48.3761,43.9220
48.4030,44.0661
48.4355,44.2077
48.4732,44.3467
48.5156,44.4832
48.5621,44.6149
48.6128,44.7436
48.6680,44.8692
48.7264,44.9916
48.7885,45.1105
48.8536,45.2257
48.9223,45.3374
48.9931,45.4454
49.0293,45.4970
49.0654,45.5477
49.1398,45.6454
49.2153,45.7384
49.2923,45.8267
49.3698,45.9105
49.4484,45.9890
49.5264,46.0624
49.6049,46.1306
49.6441,46.1626
49.6823,46.1931
49.7201,46.2216
49.7574,46.2489
49.7941,46.2743
49.8302,46.2980
49.8648,46.3202
49.8994,46.3409
49.9330,46.3600
49.9656,46.3781
49.9971,46.3941
50.0281,46.4091
50.0580,46.4226
50.0870,46.4345
50.1143,46.4448
50.1412,46.4541
50.2120,46.4758
50.2787,46.4954
50.3417,46.5120
50.4022,46.5265
50.4595,46.5383
50.5149,46.5481
50.5681,46.5564
50.6198,46.5631
50.6710,46.5683
50.7227,46.5719
50.7749,46.5745
50.8286,46.5755
50.8838,46.5755
50.9412,46.5745
51.0016,46.5724
51.0652,46.5698
51.2021,46.5615
51.3551,46.5507
51.5256,46.5383
51.7158,46.5254
51.9261,46.5135
52.1597,46.5037
52.4181,46.4970
52.5581,46.4949
52.7049,46.4944
52.7834,46.4954
52.8609,46.4985
52.9379,46.5032
53.0139,46.5104
53.0893,46.5192
53.1643,46.5300
53.2382,46.5429
53.3115,46.5574
53.3839,46.5739
53.4552,46.5920
53.5260,46.6122
53.5963,46.6339
53.6650,46.6577
53.7332,46.6830
53.8009,46.7098
53.8671,46.7388
53.9322,46.7688
53.9957,46.8003
54.0583,46.8333
54.1203,46.8680
54.1807,46.9036
54.2402,46.9413
54.2980,46.9796
54.3554,47.0199
54.4112,47.0612
54.4660,47.1036
54.5197,47.1475
54.5724,47.1925
54.6236,47.2390
54.6737,47.2860
54.7223,47.3346
54.7698,47.3842
54.8158,47.4343
54.8608,47.4855
54.9042,47.5377
54.9461,47.5909
54.9874,47.6452
55.0267,47.6999
55.0649,47.7557
55.1021,47.8121
55.1378,47.8700
55.1719,47.9278
55.2050,47.9867
55.2365,48.0467
55.2664,48.1066
55.2949,48.1676
55.3223,48.2291
55.3481,48.2916
55.3724,48.3542
55.3951,48.4172
55.4168,48.4808
55.4365,48.5448
55.4551,48.6094
55.4721,48.6746
55.4876,48.7402
55.5016,48.8058
55.5140,48.8725
55.5243,48.9391
55.5336,49.0058
55.5414,49.0730
55.5471,49.1407
55.5512,49.2084
55.5538,49.2761
55.5548,49.3443
55.5584,51.3049
55.5548,53.4055
55.5538,53.4732
55.5512,53.5414
55.5471,53.6091
55.5414,53.6763
55.5336,53.7435
55.5248,53.8102
55.5140,53.8768
55.5016,53.9430
55.4881,54.0091
55.4726,54.0747
55.4556,54.1399
55.4370,54.2044
55.4173,54.2684
55.3956,54.3320
55.3729,54.3950
55.3486,54.4576
55.3228,54.5196
55.2954,54.5811
55.2669,54.6420
55.2365,54.7025
55.2049,54.7619
55.1724,54.8208
55.1378,54.8792
55.1021,54.9366
55.0654,54.9934
55.0272,55.0492
54.9874,55.1040
54.9466,55.1578
54.9042,55.2110
54.8608,55.2632
54.8158,55.3143
54.7698,55.3650
54.7223,55.4141
54.6737,55.4626
54.6236,55.5102
54.5724,55.5562
54.5197,55.6011
54.4660,55.6451
54.4112,55.6874
54.3554,55.7288
54.2985,55.7691
54.2402,55.8078
54.1807,55.8450
54.1203,55.8812
54.0583,55.9153
53.9957,55.9489
53.9322,55.9799
53.8671,56.0104
53.8009,56.0388
53.7337,56.0662
53.6655,56.0910
53.5963,56.1148
53.5265,56.1370
53.4557,56.1567
53.3839,56.1753
53.3115,56.1918
53.2382,56.2063
53.1643,56.2192
53.0893,56.2300
53.0139,56.2388
52.9379,56.2460
52.8609,56.2512
52.7834,56.2543
52.7049,56.2553
52.4186,56.2527
52.1598,56.2460
51.9267,56.2362
51.7164,56.2244
51.3552,56.1990
51.2022,56.1882
51.0653,56.1799
51.0017,56.1768
50.9413,56.1747
50.8839,56.1737
50.8286,56.1737
50.7749,56.1747
50.7227,56.1773
50.6710,56.1809
50.6198,56.1861
50.5682,56.1923
50.5149,56.2006
50.4596,56.2109
50.4023,56.2228
50.3418,56.2373
50.2788,56.2543
50.2121,56.2734
50.1413,56.2957
50.1144,56.3045
50.0871,56.3153
50.0581,56.3272
50.0281,56.3406
49.9977,56.3551
49.9656,56.3716
49.9331,56.3892
49.8995,56.4083
49.8654,56.4290
49.8302,56.4517
49.7940,56.4755
49.7574,56.5008
49.7201,56.5277
49.6824,56.5566
49.6442,56.5871
49.6049,56.6192
49.5657,56.6522
49.5269,56.6869
49.4876,56.7230
49.4484,56.7602
49.4091,56.7990
49.3703,56.8388
49.3311,56.8801
49.2923,56.9225
49.2541,56.9659
49.2158,57.0109
49.1776,57.0569
49.1399,57.1039
49.1027,57.1525
49.0654,57.2021
49.0293,57.2527
48.9931,57.3044
48.9223,57.4119
48.8536,57.5235
48.7885,57.6387
48.7265,57.7576
48.6681,57.8796
48.6402,57.9421
48.6128,58.0051
48.5869,58.0692
48.5621,58.1343
48.5383,58.1994
48.5156,58.2661
48.4732,58.4025
48.4355,58.5415
48.4030,58.6831
48.3761,58.8268
48.3549,58.9730
48.3461,59.0469
48.3394,59.1218
48.3337,59.1968
48.3296,59.2722
48.3275,59.3487
48.3265,59.4252
48.3275,59.5027
48.3296,59.5797
48.3394,59.7316
48.3554,59.8810
48.3771,60.0272
48.4040,60.1714
48.4366,60.3119
48.4738,60.4499
48.5156,60.5843
48.5627,60.7176
48.6143,60.8473
48.6696,60.9739
48.7280,61.0964
48.7905,61.2152
48.8557,61.3294
48.9234,61.4400
48.9931,61.5465
49.0298,61.5987
49.0665,61.6498
49.1037,61.7000
49.1414,61.7485
49.2179,61.8421
49.2949,61.9309
49.3724,62.0141
49.4499,62.0922
49.5280,62.1645
49.6050,62.2317
49.6447,62.2643
49.6835,62.2948
49.7217,62.3237
49.7595,62.3511
49.7962,62.3764
49.8323,62.4007
49.8675,62.4229
49.9016,62.4436
49.9352,62.4627
49.9677,62.4803
49.9992,62.4963
50.0297,62.5108
50.0592,62.5242
50.0881,62.5356
50.1150,62.5459
50.1414,62.5552
50.2127,62.5774
50.2804,62.5965
50.3439,62.6136
50.4044,62.6275
50.4617,62.6399
50.5165,62.6497
50.5692,62.6575
50.6199,62.6642
50.6721,62.6694
50.7243,62.6730
50.7770,62.6756
50.8307,62.6766
50.8860,62.6766
50.9428,62.6756
51.0028,62.6735
51.0653,62.6709
51.2043,62.6621
51.3583,62.6513
51.5288,62.6389
51.7164,62.6265
51.9304,62.6141
52.1645,62.6043
52.4218,62.5976
52.5598,62.5955
52.7050,62.5950
52.7846,62.5960
52.8636,62.5991
52.9416,62.6043
53.0186,62.6115
53.0945,62.6208
53.1700,62.6316
53.2445,62.6445
53.3177,62.6595
53.3901,62.6761
53.4614,62.6947
53.5317,62.7148
53.6009,62.7365
53.6691,62.7598
53.7358,62.7851
53.8020,62.8115
53.8671,62.8399
53.9332,62.8704
53.9983,62.9024
54.0619,62.9360
54.1239,62.9711
54.1854,63.0078
54.2448,63.0455
54.3032,63.0843
54.3606,63.1246
54.4164,63.1660
54.4712,63.2089
54.5244,63.2523
54.5761,63.2972
54.6267,63.3427
54.6758,63.3892
54.7233,63.4368
54.7699,63.4853
54.8169,63.5365
54.8624,63.5887
54.9068,63.6419
54.9497,63.6962
54.9905,63.7510
55.0308,63.8062
55.0691,63.8626
55.1057,63.9194
55.1414,63.9768
55.1755,64.0346
55.2081,64.0930
55.2391,64.1525
55.2685,64.2119
55.2970,64.2718
55.3233,64.3318
55.3486,64.3927
55.3734,64.4568
55.3972,64.5214
55.4189,64.5865
55.4391,64.6516
55.4571,64.7167
55.4742,64.7829
55.4897,64.8485
55.5031,64.9147
55.5155,64.9808
55.5259,65.0470
55.5347,65.1136
55.5419,65.1798
55.5476,65.2464
55.5517,65.3126
55.5543,65.3792
55.5548,65.4454
55.5543,65.5131
55.5517,65.5797
55.5481,65.6459
55.5429,65.7110
55.5289,65.8376
55.5103,65.9611
55.4871,66.0799
55.4597,66.1952
55.4292,66.3063
55.3956,66.4133
55.3568,66.5228
55.3150,66.6288
55.2705,66.7306
55.2245,66.8277
55.1770,66.9207
55.1289,67.0091
55.0793,67.0933
55.0302,67.1734
54.9765,67.2556
54.9222,67.3341
54.8685,67.4086
54.8153,67.4788
54.7631,67.5450
54.7124,67.6070
54.6639,67.6644
54.6174,67.7176
54.5688,67.7713
54.5228,67.8209
54.4794,67.8669
54.4391,67.9083
54.4003,67.9475
54.3647,67.9832
54.3073,68.0400
54.2908,68.0561
54.2727,68.0736
54.2334,68.1113
54.1368,68.2028
54.0773,68.2595
54.0153,68.3201
53.9502,68.3842
53.8820,68.4524
53.7874,68.5479
53.6934,68.6457
53.5999,68.7448
53.5079,68.8450
53.4381,68.9226
53.3704,68.9996
53.3048,69.0767
53.2412,69.1525
53.1472,69.2689
53.0604,69.3805
52.9808,69.4885
52.9074,69.5924
52.8413,69.6915
52.7808,69.7871
52.7265,69.8780
52.6785,69.9654
52.6511,70.0181
52.6258,70.0692
52.6025,70.1183
52.5818,70.1654
52.5632,70.2108
52.5467,70.2542
52.5317,70.2961
52.5188,70.3359
52.5059,70.3793
52.4955,70.4201
52.4867,70.4590
52.4800,70.4956
52.4748,70.5298
52.4712,70.5623
52.4691,70.5923
52.4686,70.6206
52.4676,70.9179
52.4645,71.2444
52.4521,72.0397
52.4423,72.5487
52.4253,73.5403
52.4191,74.0762
52.4165,74.6121
52.4170,74.6343
52.4175,74.6565
52.4191,74.6782
52.4207,74.6999
52.4259,74.7433
52.4295,74.7640
52.4331,74.7852
52.4378,74.8058
52.4425,74.8265
52.4482,74.8472
52.4539,74.8678
52.4601,74.8885
52.4668,74.9087
52.4818,74.9495
52.4906,74.9707
52.4994,74.9919
52.5190,75.0347
52.5407,75.0782
52.5650,75.1221
52.5919,75.1670
52.6203,75.2125
52.6513,75.2590
52.6849,75.3066
52.7216,75.3567
52.7604,75.4068
52.8012,75.4580
52.8436,75.5097
52.8880,75.5619
52.9335,75.6151
53.0301,75.7246
53.2466,75.9644
53.3588,76.0900
53.4719,76.2187
53.6099,76.3814
53.7406,76.5437
53.8636,76.7065
53.9225,76.7887
53.9799,76.8713
54.0352,76.9545
54.0889,77.0388
54.1406,77.1240
54.1453,77.1313
54.1565,77.1492
54.1632,77.1602
54.1698,77.1715
54.1759,77.1825
54.1809,77.1922
54.2042,77.2481
54.2200,77.3025
54.2289,77.3554
54.2313,77.4066
54.2275,77.4561
54.2178,77.5037
54.2029,77.5493
54.1829,77.5929
54.1583,77.6343
54.1295,77.6735
54.0970,77.7103
54.0610,77.7446
54.0220,77.7763
53.9804,77.8054
53.9366,77.8317
53.8909,77.8551
53.8439,77.8755
53.7958,77.8929
53.7470,77.9070
53.6980,77.9179
53.6492,77.9254
53.6008,77.9294
53.5535,77.9297
53.5075,77.9264
53.4632,77.9193
53.4210,77.9083
53.3813,77.8933
53.3446,77.8741
53.3112,77.8508
53.2815,77.8231
53.2559,77.7911
53.2347,77.7545
53.2324,77.7499
53.2298,77.7449
53.2239,77.7342
53.2175,77.7230
53.2111,77.7122
53.2004,77.6945
53.1960,77.6873
53.1557,77.6206
53.1133,77.5545
53.0689,77.4878
53.0229,77.4217
52.9748,77.3545
52.8725,77.2191
52.7614,77.0812
52.6410,76.9390
52.5371,76.8212
52.4301,76.7019
52.2095,76.4574
52.1046,76.3381
52.0513,76.2766
51.9981,76.2135
51.9454,76.1489
51.8932,76.0838
51.8421,76.0172
51.7924,75.9500
51.7449,75.8823
51.6984,75.8125
51.6529,75.7412
51.6095,75.6673
51.5676,75.5913
51.5475,75.5521
51.5279,75.5128
51.5093,75.4725
51.4912,75.4322
51.4736,75.3908
51.4565,75.3490
51.4405,75.3066
51.4255,75.2637
51.4111,75.2203
51.3976,75.1765
51.3852,75.1319
51.3739,75.0875
51.3635,75.0421
51.3537,74.9965
51.3454,74.9500
51.3382,74.9035
51.3316,74.8560
51.3264,74.8084
51.3222,74.7599
51.3196,74.7113
51.3175,74.6617
51.3170,74.6121
51.3196,74.0680
51.3258,73.5249
51.3429,72.5281
51.3527,72.0196
51.3652,71.2315
51.3688,70.6207
51.3693,70.5825
51.3703,70.5447
51.3755,70.4683
51.3838,70.3918
51.3945,70.3153
51.4091,70.2388
51.4260,70.1624
51.4457,70.0854
51.4684,70.0089
51.4906,69.9412
51.5149,69.8730
51.5414,69.8037
51.5703,69.7340
51.6012,69.6637
51.6343,69.5924
51.6700,69.5205
51.7077,69.4477
51.7718,69.3314
51.8420,69.2131
51.9185,69.0927
52.0007,68.9692
52.0895,68.8436
52.1841,68.7159
52.2854,68.5852
52.3929,68.4524
52.4652,68.3656
52.5396,68.2793
52.6156,68.1925
52.6931,68.1061
52.7949,67.9950
52.8978,67.8865
53.0006,67.7795
53.1034,67.6757
53.1773,67.6023
53.2471,67.5331
53.3137,67.4685
53.3763,67.4085
53.4739,67.3150
53.5101,67.2804
53.5241,67.2674
53.5354,67.2561
53.5907,67.2018
53.6212,67.1713
53.6538,67.1383
53.6863,67.1047
53.7210,67.0680
53.7576,67.0292
53.7762,67.0086
53.7954,66.9874
53.8315,66.9460
53.8682,66.9026
53.9065,66.8556
53.9452,66.8065
53.9845,66.7548
54.0238,66.7000
54.0630,66.6432
54.1018,66.5838
54.1369,66.5269
54.1716,66.4675
54.2051,66.4060
54.2377,66.3419
54.2692,66.2758
54.2987,66.2076
54.3131,66.1724
54.3266,66.1368
54.3400,66.1011
54.3524,66.0644
54.3741,65.9947
54.3943,65.9228
54.4118,65.8489
54.4196,65.8112
54.4263,65.7730
54.4330,65.7337
54.4387,65.6939
54.4434,65.6541
54.4475,65.6133
54.4506,65.5725
54.4527,65.5306
54.4543,65.4883
54.4549,65.4454
54.4543,65.4061
54.4527,65.3663
54.4506,65.3265
54.4470,65.2867
54.4429,65.2464
54.4372,65.2061
54.4310,65.1658
54.4238,65.1255
54.4155,65.0852
54.4057,65.0449
54.3954,65.0045
54.3840,64.9642
54.3716,64.9239
54.3582,64.8836
54.3437,64.8433
54.3282,64.8035
54.3127,64.7653
54.2957,64.7280
54.2786,64.6903
54.2600,64.6531
54.2404,64.6164
54.2202,64.5797
54.1991,64.5436
54.1768,64.5079
54.1541,64.4723
54.1303,64.4371
54.1055,64.4025
54.0797,64.3684
54.0533,64.3348
54.0254,64.3022
53.9975,64.2697
53.9680,64.2376
53.9391,64.2076
53.9097,64.1782
53.8797,64.1498
53.8487,64.1214
53.8166,64.0940
53.7841,64.0676
53.7510,64.0413
53.7169,64.0164
53.6818,63.9916
53.6461,63.9679
53.6099,63.9451
53.5727,63.9229
53.5350,63.9017
53.4968,63.8816
53.4575,63.8619
53.4177,63.8439
53.3789,63.8268
53.3391,63.8108
53.2988,63.7958
53.2575,63.7818
53.2156,63.7684
53.1728,63.7560
53.1293,63.7452
53.0854,63.7348
53.0405,63.7260
52.9945,63.7177
52.9485,63.7110
52.9009,63.7053
52.8534,63.7006
52.8048,63.6975
52.7552,63.6954
52.7051,63.6949
52.4421,63.6970
52.2028,63.7032
51.9852,63.7125
51.7858,63.7239
51.6070,63.7358
51.4386,63.7482
51.2784,63.7600
51.1218,63.7693
51.0464,63.7724
50.9704,63.7750
50.8939,63.7766
50.8169,63.7766
50.7394,63.7745
50.6604,63.7709
50.5797,63.7652
50.4981,63.7574
50.4164,63.7471
50.3338,63.7342
50.2506,63.7192
50.1653,63.7011
50.0785,63.6804
49.9896,63.6572
49.8981,63.6308
49.8036,63.6014
49.7462,63.5817
49.6888,63.5600
49.6315,63.5368
49.5736,63.5109
49.5162,63.4841
49.4589,63.4551
49.4020,63.4241
49.3447,63.3916
49.2878,63.3569
49.2315,63.3213
49.1752,63.2841
49.1194,63.2448
49.0636,63.2045
49.0083,63.1626
48.9535,63.1192
48.8992,63.0748
48.8460,63.0293
48.7923,62.9818
48.7390,62.9332
48.6863,62.8830
48.6336,62.8309
48.5814,62.7776
48.5297,62.7228
48.4781,62.6670
48.4269,62.6092
48.3763,62.5503
48.3261,62.4898
48.2770,62.4278
48.2279,62.3642
48.1799,62.2996
48.1323,62.2340
48.0853,62.1668
47.9954,62.0304
47.9086,61.8888
47.8249,61.7415
47.7453,61.5896
47.6698,61.4320
47.6337,61.3519
47.5985,61.2697
47.5649,61.1870
47.5324,61.1028
47.5014,61.0175
47.4719,60.9312
47.4176,60.7576
47.3696,60.5793
47.3272,60.3969
47.2921,60.2098
47.2771,60.1153
47.2642,60.0191
47.2528,59.9225
47.2435,59.8248
47.2363,59.7261
47.2306,59.6264
47.2275,59.5261
47.2265,59.4249
47.2275,59.3246
47.2306,59.2254
47.2430,59.0290
47.2631,58.8357
47.2910,58.6456
47.3262,58.4585
47.3686,58.2751
47.4171,58.0952
47.4719,57.9190
47.5318,57.7490
47.5970,57.5836
47.6678,57.4219
47.7427,57.2648
47.8228,57.1123
47.9065,56.9640
47.9944,56.8209
48.0853,56.6829
48.1313,56.6163
48.1783,56.5512
48.2744,56.4245
48.3737,56.3031
48.4749,56.1863
48.5783,56.0752
48.6837,55.9693
48.7912,55.8695
48.8992,55.7755
48.9524,55.7316
49.0067,55.6887
49.0615,55.6473
49.1168,55.6070
49.1721,55.5683
49.2284,55.5305
49.2847,55.4949
49.3416,55.4603
49.3984,55.4277
49.4558,55.3967
49.5131,55.3672
49.5710,55.3393
49.6294,55.3140
49.6873,55.2897
49.7452,55.2680
49.8035,55.2484
49.8966,55.2195
49.9875,55.1931
50.0759,55.1699
50.1627,55.1492
50.2480,55.1311
50.3322,55.1161
50.4154,55.1032
50.4981,55.0928
50.5792,55.0845
50.6583,55.0788
50.7368,55.0752
50.8143,55.0736
50.8913,55.0736
50.9683,55.0746
51.0448,55.0772
51.1218,55.0808
51.2763,55.0901
51.4360,55.1010
51.6044,55.1135
51.7858,55.1259
51.9822,55.1367
52.1987,55.1460
52.4389,55.1521
52.5686,55.1543
52.7051,55.1549
52.7542,55.1539
52.8027,55.1524
52.8508,55.1493
52.8983,55.1446
52.9448,55.1394
52.9913,55.1327
53.0368,55.1249
53.0818,55.1161
53.1257,55.1057
53.1696,55.0949
53.2125,55.0825
53.2549,55.0690
53.2967,55.0551
53.3376,55.0396
53.3779,55.0236
53.4177,55.0065
53.4569,54.9884
53.4952,54.9693
53.5329,54.9492
53.5706,54.9285
53.6073,54.9068
53.6435,54.8841
53.6786,54.8603
53.7138,54.8360
53.7479,54.8107
53.7815,54.7843
53.8140,54.7580
53.8466,54.7301
53.8776,54.7016
53.9086,54.6727
53.9386,54.6427
53.9680,54.6122
53.9964,54.5807
54.0243,54.5492
54.0512,54.5166
54.0776,54.4836
54.1029,54.4500
54.1277,54.4159
54.1514,54.3807
54.1747,54.3456
54.1969,54.3099
54.2181,54.2738
54.2388,54.2371
54.2584,54.1999
54.2770,54.1622
54.2951,54.1239
54.3122,54.0857
54.3282,54.0469
54.3432,54.0076
54.3576,53.9684
54.3711,53.9291
54.3830,53.8893
54.3943,53.8495
54.4047,53.8097
54.4145,53.7694
54.4228,53.7291
54.4300,53.6888
54.4367,53.6485
54.4424,53.6077
54.4465,53.5674
54.4501,53.5265
54.4527,53.4862
54.4543,53.4454
54.4548,53.4051
54.4584,51.3050
54.4548,49.3439
54.4543,49.3030
54.4527,49.2627
54.4501,49.2219
54.4465,49.1816
54.4424,49.1408
54.4367,49.1005
54.4300,49.0597
54.4228,49.0193
54.4145,48.9790
54.4047,48.9392
54.3943,48.8989
54.3830,48.8591
54.3711,48.8194
54.3576,48.7801
54.3432,48.7408
54.3282,48.7021
54.3122,48.6633
54.2951,48.6245
54.2770,48.5868
54.2584,48.5491
54.2383,48.5119
54.2181,48.4747
54.1964,48.4385
54.1742,48.4028
54.1515,48.3672
54.1272,48.3326
54.1029,48.2985
54.0770,48.2643
54.0507,48.2313
54.0238,48.1992
53.9959,48.1672
53.9675,48.1362
53.9380,48.1057
53.9081,48.0757
53.8776,48.0463
53.8461,48.0179
53.8135,47.9905
53.7809,47.9636
53.7474,47.9378
53.7132,47.9124
53.6786,47.8882
53.6430,47.8649
53.6068,47.8422
53.5701,47.8205
53.5329,47.7993
53.4952,47.7796
53.4569,47.7605
53.4177,47.7424
53.3779,47.7249
53.3376,47.7088
53.2962,47.6938
53.2549,47.6794
53.2125,47.6659
53.1696,47.6541
53.1257,47.6427
53.0818,47.6323
53.0368,47.6235
52.9913,47.6157
52.9448,47.6090
52.8983,47.6033
52.8508,47.5992
52.8027,47.5961
52.7542,47.5940
52.7051,47.5935
52.4384,47.5956
52.1981,47.6023
51.9816,47.6116
51.7852,47.6230
51.4355,47.6473
51.2758,47.6586
51.1218,47.6680
51.0448,47.6716
50.9683,47.6737
50.8913,47.6753
50.8143,47.6753
50.7368,47.6731
50.6583,47.6695
50.5792,47.6638
50.4981,47.6560
50.4154,47.6457
50.3316,47.6328
50.2475,47.6173
50.1622,47.5992
50.0754,47.5790
49.9870,47.5553
49.8961,47.5294
49.8030,47.5005
49.7446,47.4804
49.6868,47.4586
49.6289,47.4349
49.5705,47.4090
49.5131,47.3816
49.4552,47.3522
49.3979,47.3207
49.3410,47.2881
49.2842,47.2540
49.2279,47.2178
49.1721,47.1806
49.1163,47.1419
49.0615,47.1015
49.0067,47.0597
48.9524,47.0173
48.8992,46.9734
48.8450,46.9269
48.7907,46.8793
48.7370,46.8297
48.6837,46.7791
48.6310,46.7269
48.5783,46.6732
48.5266,46.6184
48.4749,46.5621
48.4238,46.5042
48.3737,46.4453
48.3235,46.3848
48.2744,46.3233
48.2264,46.2608
48.1783,46.1967
48.1313,46.1316
48.0853,46.0654
47.9938,45.9270
47.9065,45.7838
47.8228,45.6360
47.7427,45.4836
47.6677,45.3265
47.6316,45.2464
47.5970,45.1647
47.5639,45.0826
47.5318,44.9994
47.5014,44.9151
47.4719,44.8299
47.4171,44.6537
47.3685,44.4733
47.3262,44.2898
47.2910,44.1028
47.2766,44.0082
47.2631,43.9126
47.2523,43.8160
47.2430,43.7193
47.2358,43.6212
47.2306,43.5224
47.2275,43.4232
47.2265,43.3235
47.2275,43.2222
47.2306,43.1214
47.2435,42.9235
47.2642,42.7287
47.2921,42.5380
47.3272,42.3515
47.3696,42.1690
47.4176,41.9913
47.4719,41.8176
47.5329,41.6456
47.5985,41.4786
47.6698,41.3164
47.7453,41.1588
47.8248,41.0063
47.9086,40.8596
47.9954,40.7175
48.0853,40.5815
48.1323,40.5144
48.1799,40.4482
48.2279,40.3836
48.2770,40.3206
48.3762,40.1981
48.4780,40.0813
48.5814,39.9707
48.6863,39.8658
48.7922,39.7666
48.8992,39.6741
48.9535,39.6291
49.0082,39.5862
49.0635,39.5439
49.1193,39.5036
49.1752,39.4643
49.2315,39.4271
49.2883,39.3909
49.3452,39.3568
49.4020,39.3242
49.4594,39.2932
49.5167,39.2643
49.5741,39.2369
49.6314,39.2116
49.6888,39.1878
49.7462,39.1666
49.8035,39.1470
49.8981,39.1175
49.9896,39.0912
50.0784,39.0679
50.1653,39.0473
50.2505,39.0292
50.3342,39.0142
50.4164,39.0018
50.4981,38.9914
50.5797,38.9831
50.6603,38.9774
50.7394,38.9738
50.8174,38.9722
50.8944,38.9722
50.9704,38.9732
51.0463,38.9758
51.1218,38.9794
51.2784,38.9887
51.4391,39.0001
51.6070,39.0120
51.7858,39.0244
51.9853,39.0358
52.2034,39.0451
52.4421,39.0513
52.5703,39.0534
52.7052,39.0539
52.7552,39.0534
52.8048,39.0513
52.8534,39.0477
52.9014,39.0436
52.9484,39.0379
52.9950,39.0312
53.0404,39.0229
53.0854,39.0136
53.1298,39.0038
53.1732,38.9924
53.2156,38.9800
53.2580,38.9671
53.2988,38.9526
53.3391,38.9376
53.3789,38.9216
53.4177,38.9051
53.4574,38.8865
53.4967,38.8668
53.5355,38.8467
53.5732,38.8255
53.6099,38.8033
53.6466,38.7805
53.6822,38.7567
53.7169,38.7319
53.7510,38.7066
53.7845,38.6808
53.8166,38.6539
53.8486,38.6265
53.8796,38.5986
53.9101,38.5697
53.9391,38.5407
53.9680,38.5108
53.9975,38.4787
54.0259,38.4462
54.0533,38.4131
54.0796,38.3795
54.1055,38.3454
54.1303,38.3108
54.1541,38.2757
54.1773,38.2405
54.1990,38.2043
54.2202,38.1682
54.2409,38.1320
54.2600,38.0948
54.2786,38.0581
54.2962,38.0209
54.3127,37.9832
54.3282,37.9455
54.3437,37.9051
54.3582,37.8648
54.3716,37.8245
54.3845,37.7842
54.3959,37.7439
54.4062,37.7031
54.4155,37.6629
54.4238,37.6226
54.4310,37.5823
54.4372,37.5419
54.4429,37.5022
54.4470,37.4618
54.4506,37.4221
54.4527,37.3823
54.4543,37.3430
54.4548,37.3037
54.4543,37.2650
54.4527,37.2272
54.4496,37.1895
54.4455,37.1523
54.4408,37.1156
54.4351,37.0795
54.4279,37.0438
54.4201,37.0081
54.4113,36.9735
54.4020,36.9389
54.3917,36.9048
54.3809,36.8712
54.3690,36.8381
54.3566,36.8056
54.3297,36.7420
54.3142,36.7079
54.2976,36.6743
54.2811,36.6412
54.2635,36.6092
54.2460,36.5772
54.2274,36.5462
54.1896,36.4857
54.1504,36.4273
54.1106,36.3720
54.0703,36.3193
54.0295,36.2692
53.9819,36.2134
53.9359,36.1622
53.8915,36.1147
53.8496,36.0718
53.8093,36.0325
53.7716,35.9979
53.7049,35.9395
53.6517,35.8961
53.6135,35.8677
53.5907,35.8527
53.5737,35.8408
53.5571,35.8279
53.5416,35.8150
53.5261,35.8015
53.5117,35.7870
53.4977,35.7726
53.4838,35.7576
53.4709,35.7421
53.4590,35.7261
53.4471,35.7095
53.4362,35.6930
53.4259,35.6759
53.4161,35.6584
53.4068,35.6408
53.3985,35.6227
53.3907,35.6041
53.3835,35.5855
53.3768,35.5669
53.3711,35.5478
53.3659,35.5281
53.3577,35.4889
53.3551,35.4692
53.3525,35.4491
53.3509,35.4289
53.3504,35.4088
53.3504,35.3886
53.3509,35.3679
53.3525,35.3478
53.3551,35.3271
53.3582,35.3070
53.3618,35.2863
53.3664,35.2662
53.3716,35.2460
53.3845,35.2072
53.4000,35.1695
53.4181,35.1334
53.4388,35.0987
53.4615,35.0662
53.4868,35.0352
53.5142,35.0062
53.5437,34.9794
53.5752,34.9545
53.6083,34.9318
53.6434,34.9117
53.6796,34.8941
53.7173,34.8791
53.7566,34.8672
53.7767,34.8620
53.7969,34.8579
53.8237,34.8533
53.8506,34.8502
53.8775,34.8486
53.9049,34.8481
Z" /> 
<path style="fill:none; 
stroke:#D0D2CD; stroke-width:0.0529; stroke-opacity:1; 
stroke-linecap:round; stroke-linejoin:round;fill:none"
d="M 22.4200,13.4763
22.4796,13.4788
22.5390,13.4831
22.5983,13.4890
22.6574,13.4965
22.7163,13.5057
22.7749,13.5166
22.8332,13.5291
22.8911,13.5432
22.9486,13.5589
23.0056,13.5762
23.0621,13.5951
23.1181,13.6155
23.1734,13.6375
23.2282,13.6611
23.2823,13.6862
23.3357,13.7128
23.3882,13.7410
23.4400,13.7705
23.4909,13.8015
23.5409,13.8339
23.5900,13.8677
23.6382,13.9029
23.6853,13.9394
23.7314,13.9773
23.7764,14.0163
23.8203,14.0567
23.8630,14.0982
23.9045,14.1409
23.9448,14.1848
23.9839,14.2297
24.0218,14.2758
24.0583,14.3229
24.0935,14.3710
24.1273,14.4201
24.1597,14.4700
24.1907,14.5209
24.2202,14.5725
24.2483,14.6251
24.2750,14.6784
24.3001,14.7325
24.3237,14.7873
24.3457,14.8428
24.3662,14.8988
24.3850,14.9553
24.4023,15.0124
24.4180,15.0700
24.4321,15.1280
24.4445,15.1863
24.4553,15.2449
24.4645,15.3038
24.4720,15.3629
24.4778,15.4222
24.4820,15.4816
24.4845,15.5412
24.4853,15.6008
24.4841,15.6707
24.4807,15.7403
24.4750,15.8097
24.4670,15.8787
24.4568,15.9474
24.4444,16.0157
24.4297,16.0835
24.4129,16.1507
24.3939,16.2174
24.3726,16.2834
24.3493,16.3488
24.3238,16.4134
24.2961,16.4772
24.2664,16.5401
24.2345,16.6021
24.2006,16.6632
24.1647,16.7231
24.1269,16.7817
24.0872,16.8390
24.0458,16.8948
24.0026,16.9492
23.9577,17.0021
23.9111,17.0535
23.8629,17.1033
23.8131,17.1516
23.7617,17.1981
23.7088,17.2431
23.6544,17.2862
23.5986,17.3277
23.5413,17.3673
23.4827,17.4051
23.4228,17.4410
23.3618,17.4750
23.2997,17.5068
23.2368,17.5366
23.1730,17.5642
23.1084,17.5897
23.0431,17.6131
22.9770,17.6343
22.9103,17.6533
22.8431,17.6702
22.7753,17.6848
22.7070,17.6973
22.6383,17.7075
22.5692,17.7155
22.4999,17.7212
22.4302,17.7246
22.3604,17.7258
22.2905,17.7246
22.2209,17.7212
22.1515,17.7155
22.0824,17.7075
22.0137,17.6973
21.9454,17.6848
21.8776,17.6702
21.8104,17.6533
21.7437,17.6343
21.6777,17.6131
21.6123,17.5897
21.5477,17.5642
21.4839,17.5366
21.4210,17.5068
21.3590,17.4750
21.2979,17.4410
21.2380,17.4051
21.1794,17.3673
21.1222,17.3277
21.0663,17.2863
21.0119,17.2431
20.9590,17.1982
20.9077,17.1516
20.8578,17.1034
20.8096,17.0535
20.7630,17.0022
20.7181,16.9493
20.6749,16.8949
20.6335,16.8390
20.5939,16.7818
20.5561,16.7232
20.5202,16.6633
20.4862,16.6022
20.4544,16.5402
20.4246,16.4773
20.3970,16.4135
20.3715,16.3489
20.3481,16.2835
20.3269,16.2175
20.3079,16.1508
20.2910,16.0835
20.2763,16.0157
20.2639,15.9475
20.2537,15.8788
20.2457,15.8097
20.2400,15.7403
20.2366,15.6707
20.2354,15.6008
20.2366,15.5310
20.2400,15.4614
20.2457,15.3920
20.2537,15.3229
20.2639,15.2543
20.2763,15.1860
20.2910,15.1182
20.3078,15.0509
20.3269,14.9843
20.3481,14.9182
20.3714,14.8529
20.3969,14.7883
20.4246,14.7245
20.4543,14.6616
20.4862,14.5995
20.5201,14.5385
20.5560,14.4785
20.5938,14.4198
20.6334,14.3626
20.6749,14.3067
20.7181,14.2523
20.7630,14.1993
20.8095,14.1479
20.8578,14.0980
20.9076,14.0498
20.9590,14.0032
21.0119,13.9582
21.0663,13.9150
21.1221,13.8735
21.1794,13.8339
21.2380,13.7961
21.2979,13.7601
21.3590,13.7262
21.4210,13.6943
21.4839,13.6646
21.5477,13.6369
21.6123,13.6114
21.6777,13.5881
21.7437,13.5669
21.8104,13.5478
21.8776,13.5310
21.9454,13.5163
22.0137,13.5039
22.0824,13.4937
22.1515,13.4857
22.2209,13.4800
22.2905,13.4765
22.3604,13.4754
22.3604,13.4754
Z" /> 
<path style="fill:none; 
stroke:#D0D2CD; stroke-width:0.0529; stroke-opacity:1; 
stroke-linecap:round; stroke-linejoin:round;fill:none"
d="M 46.3338,85.8262
46.3475,85.8273
46.3610,85.8290
46.3743,85.8314
46.3873,85.8344
46.4002,85.8380
46.4127,85.8423
46.4250,85.8471
46.4369,85.8525
46.4486,85.8585
46.4599,85.8650
46.4708,85.8720
46.4814,85.8795
46.4916,85.8875
46.5014,85.8960
46.5108,85.9050
46.5197,85.9143
46.5282,85.9241
46.5362,85.9343
46.5438,85.9449
46.5508,85.9559
46.5573,85.9672
46.5632,85.9788
46.5687,85.9908
46.5735,86.0030
46.5777,86.0156
46.5814,86.0284
46.5844,86.0415
46.5868,86.0548
46.5885,86.0683
46.5895,86.0820
46.5899,86.0959
46.5899,86.0959
46.5895,86.1098
46.5885,86.1235
46.5868,86.1370
46.5844,86.1503
46.5814,86.1634
46.5777,86.1762
46.5735,86.1887
46.5687,86.2010
46.5632,86.2129
46.5573,86.2246
46.5508,86.2359
46.5438,86.2468
46.5362,86.2574
46.5282,86.2676
46.5197,86.2774
46.5108,86.2868
46.5014,86.2957
46.4916,86.3042
46.4814,86.3122
46.4708,86.3198
46.4599,86.3268
46.4486,86.3333
46.4369,86.3393
46.4250,86.3447
46.4127,86.3495
46.4002,86.3537
46.3874,86.3574
46.3743,86.3604
46.3610,86.3628
46.3475,86.3645
46.3338,86.3655
46.3199,86.3659
46.3060,86.3655
46.2923,86.3645
46.2788,86.3628
46.2655,86.3604
46.2524,86.3574
46.2396,86.3537
46.2270,86.3495
46.2148,86.3447
46.2028,86.3393
46.1912,86.3333
46.1799,86.3268
46.1689,86.3198
46.1583,86.3122
46.1481,86.3042
46.1383,86.2957
46.1290,86.2868
46.1200,86.2774
46.1115,86.2676
46.1035,86.2574
46.0960,86.2468
46.0890,86.2359
46.0825,86.2246
46.0765,86.2129
46.0711,86.2010
46.0663,86.1887
46.0620,86.1762
46.0584,86.1634
46.0554,86.1503
46.0530,86.1370
46.0513,86.1235
46.0502,86.1098
46.0499,86.0959
46.0502,86.0820
46.0513,86.0683
46.0530,86.0548
46.0554,86.0415
46.0584,86.0284
46.0620,86.0156
46.0663,86.0030
46.0711,85.9908
46.0765,85.9788
46.0825,85.9672
46.0890,85.9559
46.0960,85.9449
46.1035,85.9343
46.1115,85.9241
46.1200,85.9143
46.1289,85.9050
46.1383,85.8960
46.1481,85.8875
46.1583,85.8795
46.1689,85.8720
46.1799,85.8650
46.1912,85.8585
46.2028,85.8525
46.2148,85.8471
46.2270,85.8423
46.2396,85.8380
46.2524,85.8344
46.2655,85.8314
46.2787,85.8290
46.2923,85.8273
46.3060,85.8262
46.3199,85.8259
Z" /> 
</g>
<g style="fill:none; 
stroke:#D0D2CD; stroke-width:0.0100; stroke-opacity:1; 
stroke-linecap:round; stroke-linejoin:round;">
<circle cx="46.3200" cy="78.5963" r="0.2700" /> 
<circle cx="46.3200" cy="86.0963" r="0.2700" /> 
</g>
<g style="fill:none; 
stroke:#D0D2CD; stroke-width:0.1000; stroke-opacity:1; 
stroke-linecap:round; stroke-linejoin:round;">
<circle cx="59.0700" cy="79.6013" r="2.0616" /> 
</g> 
</svg>
