<?xml version="1.0" standalone="no"?>
 <!DOCTYPE svg PUBLIC "-//W3C//DTD SVG 1.1//EN" 
 "http://www.w3.org/Graphics/SVG/1.1/DTD/svg11.dtd"> 
<svg
  xmlns:svg="http://www.w3.org/2000/svg"
  xmlns="http://www.w3.org/2000/svg"
  xmlns:xlink="http://www.w3.org/1999/xlink"
  version="1.1"
  width="96.6978mm" height="93.8022mm" viewBox="0.0000 0.0000 96.6978 93.8022">
<title>SVG Image created as wing-combo-Edge_Cuts.svg date 2025/09/21 13:42:34 </title>
  <desc>Image generated by PCBNEW </desc>
<g style="fill:#000000; fill-opacity:1.0000;stroke:#000000; stroke-opacity:1.0000;
stroke-linecap:round; stroke-linejoin:round;"
 transform="translate(0 0) scale(1 1)">
<path style="fill:none; 
stroke:#D0D2CD; stroke-width:0.0529; stroke-opacity:1; 
stroke-linecap:round; stroke-linejoin:round;fill:none"
d="M 96.6000,91.3165
54.7590,91.2974
54.7590,84.2032
54.7585,84.1774
54.7564,84.1521
54.7533,84.1268
54.7486,84.1020
54.7429,84.0782
54.7362,84.0539
54.7284,84.0312
54.7196,84.0085
54.7093,83.9863
54.6984,83.9646
54.6865,83.9434
54.6736,83.9232
54.6597,83.9036
54.6447,83.8850
54.6292,83.8669
54.6126,83.8493
54.5951,83.8328
54.5770,83.8173
54.5579,83.8023
54.5387,83.7884
54.5181,83.7755
54.4974,83.7636
54.4757,83.7528
54.4535,83.7425
54.4307,83.7335
54.4075,83.7255
54.3837,83.7185
54.3594,83.7125
54.3351,83.7085
54.3098,83.7055
54.2845,83.7035
54.2587,83.7030
54.1589,83.7030
54.1331,83.7035
54.1078,83.7055
54.0824,83.7085
54.0576,83.7125
54.0334,83.7185
54.0096,83.7255
53.9863,83.7335
53.9636,83.7425
53.9414,83.7528
53.9202,83.7636
53.8990,83.7755
53.8788,83.7884
53.8592,83.8023
53.8401,83.8173
53.8220,83.8328
53.8049,83.8493
53.7884,83.8669
53.7724,83.8850
53.7579,83.9036
53.7440,83.9232
53.7310,83.9434
53.7186,83.9646
53.7078,83.9863
53.6980,84.0085
53.6887,84.0312
53.6809,84.0539
53.6742,84.0782
53.6685,84.1020
53.6644,84.1268
53.6613,84.1521
53.6592,84.1774
53.6587,84.2032
53.6587,91.2974
44.1667,91.2974
44.1667,89.5554
44.1662,89.5358
44.1646,89.5161
44.1620,89.4970
44.1589,89.4779
44.1548,89.4593
44.1501,89.4412
44.1444,89.4231
44.1377,89.4055
44.1299,89.3885
44.1221,89.3721
44.1133,89.3556
44.1035,89.3401
44.0932,89.3246
44.0823,89.3101
44.0710,89.2956
44.0586,89.2822
44.0456,89.2693
44.0322,89.2564
44.0183,89.2445
44.0033,89.2336
43.9883,89.2227
43.9728,89.2127
43.9567,89.2037
43.9402,89.1957
43.9232,89.1877
43.9061,89.1807
43.8880,89.1747
43.8699,89.1697
43.8518,89.1657
43.8327,89.1617
43.8136,89.1587
43.7940,89.1567
43.7940,89.1547
39.4345,89.1547
39.4345,88.1506
39.4340,88.1299
39.4325,88.1092
39.4299,88.0890
39.4263,88.0694
39.4216,88.0503
39.4164,88.0312
39.4102,88.0126
39.4030,87.9945
39.3947,87.9769
39.3859,87.9593
39.3766,87.9428
39.3663,87.9263
39.3549,87.9108
39.3430,87.8958
39.3306,87.8813
39.3172,87.8673
39.3032,87.8539
39.2888,87.8415
39.2738,87.8296
39.2583,87.8187
39.2417,87.8078
39.2252,87.7978
39.2081,87.7888
39.1901,87.7808
39.1720,87.7738
39.1534,87.7678
39.1342,87.7628
39.1151,87.7588
39.0955,87.7548
39.0753,87.7528
39.0552,87.7508
39.0340,87.7503
35.4337,87.7503
35.4135,87.7508
35.3929,87.7528
35.3727,87.7548
35.3531,87.7588
35.3340,87.7628
35.3148,87.7678
35.2962,87.7738
35.2782,87.7808
35.2601,87.7888
35.2430,87.7978
35.2265,87.8078
35.2099,87.8187
35.1944,87.8296
35.1794,87.8415
35.1650,87.8539
35.1510,87.8673
35.1376,87.8813
35.1252,87.8958
35.1133,87.9108
35.1019,87.9263
35.0916,87.9428
35.0823,87.9593
35.0735,87.9769
35.0652,87.9945
35.0580,88.0126
35.0518,88.0312
35.0466,88.0503
35.0419,88.0694
35.0388,88.0890
35.0357,88.1092
35.0347,88.1299
35.0342,88.1506
35.0342,89.1547
26.6936,89.1547
26.6936,88.1506
26.6931,88.1299
26.6915,88.1092
26.6889,88.0890
26.6853,88.0694
26.6806,88.0503
26.6754,88.0312
26.6692,88.0126
26.6620,87.9945
26.6542,87.9769
26.6454,87.9593
26.6356,87.9428
26.6253,87.9263
26.6139,87.9108
26.6020,87.8958
26.5896,87.8813
26.5762,87.8673
26.5622,87.8539
26.5477,87.8415
26.5328,87.8296
26.5173,87.8187
26.5007,87.8078
26.4842,87.7978
26.4671,87.7888
26.4490,87.7808
26.4309,87.7738
26.4123,87.7678
26.3932,87.7628
26.3741,87.7588
26.3545,87.7548
26.3343,87.7528
26.3142,87.7508
26.2935,87.7503
22.6932,87.7503
22.6730,87.7508
22.6524,87.7528
22.6322,87.7548
22.6126,87.7588
22.5935,87.7628
22.5743,87.7678
22.5557,87.7738
22.5377,87.7808
22.5196,87.7888
22.5025,87.7978
22.4860,87.8078
22.4694,87.8187
22.4539,87.8296
22.4389,87.8415
22.4245,87.8539
22.4105,87.8673
22.3971,87.8813
22.3847,87.8958
22.3728,87.9108
22.3614,87.9263
22.3511,87.9428
22.3418,87.9593
22.3330,87.9769
22.3247,87.9945
22.3175,88.0126
22.3113,88.0312
22.3061,88.0503
22.3014,88.0694
22.2978,88.0890
22.2957,88.1092
22.2942,88.1299
22.2937,88.1506
22.2937,89.1547
14.0342,89.1547
14.0342,88.1548
14.0337,88.1341
14.0322,88.1134
14.0296,88.0938
14.0260,88.0735
14.0213,88.0544
14.0162,88.0353
14.0100,88.0167
14.0027,87.9986
13.9945,87.9805
13.9857,87.9634
13.9764,87.9469
13.9660,87.9305
13.9547,87.9149
13.9428,87.8999
13.9304,87.8855
13.9169,87.8716
13.9030,87.8582
13.8885,87.8457
13.8735,87.8338
13.8580,87.8230
13.8415,87.8121
13.8250,87.8022
13.8079,87.7932
13.7898,87.7852
13.7717,87.7782
13.7531,87.7722
13.7340,87.7672
13.7149,87.7632
13.6952,87.7592
13.6751,87.7561
13.6549,87.7551
13.6338,87.7546
10.0335,87.7546
10.0133,87.7551
9.9926,87.7561
9.9725,87.7592
9.9528,87.7632
9.9337,87.7672
9.9146,87.7722
9.8960,87.7782
9.8779,87.7852
9.8598,87.7932
9.8428,87.8022
9.8262,87.8121
9.8097,87.8230
9.7942,87.8338
9.7792,87.8457
9.7647,87.8582
9.7508,87.8716
9.7373,87.8855
9.7249,87.8999
9.7131,87.9149
9.7017,87.9305
9.6914,87.9469
9.6821,87.9634
9.6733,87.9805
9.6650,87.9986
9.6578,88.0167
9.6516,88.0353
9.6464,88.0544
9.6417,88.0735
9.6386,88.0938
9.6355,88.1134
9.6345,88.1341
9.6340,88.1548
9.6340,89.1547
5.3004,89.1547
5.3004,43.0510
8.3602,43.0510
8.4150,43.0503
8.4696,43.0482
8.5237,43.0448
8.5775,43.0399
8.6309,43.0338
8.6839,43.0263
8.7365,43.0176
8.7886,43.0076
8.8402,42.9964
8.8914,42.9839
8.9421,42.9701
8.9923,42.9552
9.0419,42.9390
9.0910,42.9217
9.1396,42.9032
9.1875,42.8836
9.2349,42.8629
9.2816,42.8411
9.3277,42.8181
9.3731,42.7942
9.4179,42.7691
9.4620,42.7430
9.5055,42.7159
9.5482,42.6877
9.5903,42.6586
9.6316,42.6285
9.6721,42.5974
9.7119,42.5654
9.7509,42.5325
9.7891,42.4987
9.8264,42.4639
9.8629,42.4283
9.8985,42.3919
9.9333,42.3546
9.9671,42.3165
10.0000,42.2776
10.0320,42.2379
10.0631,42.1974
10.0932,42.1561
10.1223,42.1141
10.1505,42.0714
10.1776,42.0279
10.2037,41.9837
10.2287,41.9388
10.2527,41.8933
10.2757,41.8471
10.2975,41.8003
10.3182,41.7529
10.3378,41.7049
10.3563,41.6564
10.3736,41.6073
10.3898,41.5576
10.4047,41.5075
10.4185,41.4568
10.4310,41.4056
10.4422,41.3540
10.4522,41.3019
10.4609,41.2493
10.4682,41.1963
10.4743,41.1429
10.4790,41.0891
10.4824,41.0349
10.4844,40.9804
10.4851,40.9256
10.4844,40.8707
10.4824,40.8163
10.4790,40.7622
10.4743,40.7085
10.4682,40.6552
10.4609,40.6023
10.4522,40.5498
10.4422,40.4977
10.4310,40.4460
10.4185,40.3949
10.4047,40.3442
10.3898,40.2940
10.3736,40.2444
10.3563,40.1953
10.3378,40.1467
10.3182,40.0987
10.2975,40.0514
10.2757,40.0046
10.2527,39.9584
10.2287,39.9129
10.2037,39.8680
10.1776,39.8238
10.1505,39.7803
10.1223,39.7375
10.0932,39.6955
10.0631,39.6543
10.0320,39.6138
10.0000,39.5741
9.9671,39.5352
9.9333,39.4971
9.8985,39.4598
9.8629,39.4233
9.8264,39.3877
9.7891,39.3530
9.7509,39.3192
9.7119,39.2862
9.6721,39.2542
9.6316,39.2232
9.5903,39.1931
9.5482,39.1639
9.5055,39.1358
9.4620,39.1087
9.4179,39.0826
9.3731,39.0575
9.3277,39.0335
9.2816,39.0106
9.2349,38.9888
9.1875,38.9681
9.1396,38.9485
9.0910,38.9300
9.0419,38.9127
8.9923,38.8965
8.9421,38.8816
8.8914,38.8678
8.8402,38.8553
8.7886,38.8440
8.7365,38.8340
8.6839,38.8253
8.6309,38.8179
8.5775,38.8117
8.5237,38.8069
8.4696,38.8034
8.4150,38.8013
8.3602,38.8006
5.3004,38.8006
5.3004,0.0381
50.4210,0.0381
50.4210,18.4722
50.4215,18.4980
50.4236,18.5233
50.4267,18.5487
50.4308,18.5729
50.4365,18.5972
50.4432,18.6210
50.4510,18.6443
50.4603,18.6670
50.4701,18.6892
50.4810,18.7109
50.4934,18.7316
50.5063,18.7517
50.5202,18.7714
50.5347,18.7905
50.5507,18.8086
50.5673,18.8256
50.5843,18.8422
50.6024,18.8582
50.6215,18.8727
50.6412,18.8866
50.6613,18.8995
50.6825,18.9119
50.7042,18.9228
50.7259,18.9326
50.7487,18.9414
50.7719,18.9497
50.7957,18.9564
50.8200,18.9616
50.8448,18.9663
50.8701,18.9694
50.8954,18.9715
50.9213,18.9720
51.0210,18.9720
51.0468,18.9715
51.0722,18.9694
51.0970,18.9663
51.1218,18.9616
51.1460,18.9564
51.1698,18.9497
51.1931,18.9414
51.2158,18.9326
51.2380,18.9228
51.2597,18.9119
51.2804,18.8995
51.3011,18.8866
51.3207,18.8727
51.3393,18.8582
51.3574,18.8422
51.3750,18.8256
51.3915,18.8086
51.4070,18.7905
51.4220,18.7714
51.4360,18.7517
51.4489,18.7316
51.4608,18.7109
51.4716,18.6892
51.4819,18.6670
51.4907,18.6443
51.4985,18.6210
51.5052,18.5972
51.5109,18.5729
51.5156,18.5487
51.5187,18.5233
51.5209,18.4980
51.5214,18.4722
51.5214,0.0381
96.5600,0.0265
Z" /> 
<path style="fill:none; 
stroke:#D0D2CD; stroke-width:0.0529; stroke-opacity:1; 
stroke-linecap:round; stroke-linejoin:round;fill:none"
d="M 22.4200,13.4765
22.4796,13.4790
22.5390,13.4833
22.5983,13.4892
22.6574,13.4967
22.7163,13.5059
22.7749,13.5168
22.8332,13.5293
22.8911,13.5434
22.9486,13.5591
23.0056,13.5764
23.0621,13.5952
23.1181,13.6157
23.1734,13.6377
23.2282,13.6613
23.2823,13.6864
23.3357,13.7130
23.3882,13.7411
23.4400,13.7707
23.4909,13.8017
23.5409,13.8341
23.5900,13.8679
23.6382,13.9031
23.6853,13.9396
23.7314,13.9774
23.7764,14.0165
23.8203,14.0569
23.8630,14.0984
23.9045,14.1411
23.9448,14.1849
23.9839,14.2299
24.0218,14.2760
24.0583,14.3231
24.0935,14.3712
24.1273,14.4202
24.1597,14.4702
24.1907,14.5210
24.2202,14.5727
24.2483,14.6253
24.2750,14.6786
24.3001,14.7327
24.3237,14.7875
24.3457,14.8430
24.3662,14.8990
24.3850,14.9555
24.4023,15.0126
24.4180,15.0702
24.4321,15.1282
24.4445,15.1865
24.4553,15.2451
24.4645,15.3040
24.4720,15.3631
24.4778,15.4224
24.4820,15.4818
24.4845,15.5414
24.4853,15.6010
24.4841,15.6708
24.4807,15.7405
24.4750,15.8098
24.4670,15.8789
24.4568,15.9476
24.4444,16.0159
24.4297,16.0836
24.4129,16.1509
24.3939,16.2176
24.3726,16.2836
24.3493,16.3490
24.3238,16.4136
24.2961,16.4773
24.2664,16.5403
24.2345,16.6023
24.2006,16.6634
24.1647,16.7233
24.1269,16.7819
24.0872,16.8392
24.0458,16.8950
24.0026,16.9494
23.9577,17.0023
23.9111,17.0537
23.8629,17.1035
23.8131,17.1517
23.7617,17.1983
23.7088,17.2432
23.6544,17.2864
23.5986,17.3279
23.5413,17.3675
23.4827,17.4053
23.4228,17.4412
23.3618,17.4751
23.2997,17.5070
23.2368,17.5367
23.1730,17.5644
23.1084,17.5899
23.0431,17.6133
22.9770,17.6345
22.9103,17.6535
22.8431,17.6704
22.7753,17.6850
22.7070,17.6975
22.6383,17.7077
22.5692,17.7156
22.4999,17.7213
22.4302,17.7248
22.3604,17.7259
22.2905,17.7248
22.2209,17.7214
22.1515,17.7156
22.0824,17.7077
22.0137,17.6975
21.9454,17.6850
21.8776,17.6704
21.8104,17.6535
21.7437,17.6345
21.6777,17.6133
21.6123,17.5899
21.5477,17.5644
21.4839,17.5368
21.4210,17.5070
21.3590,17.4751
21.2979,17.4412
21.2380,17.4053
21.1794,17.3675
21.1222,17.3279
21.0663,17.2864
21.0119,17.2433
20.9590,17.1984
20.9077,17.1518
20.8578,17.1035
20.8096,17.0537
20.7630,17.0023
20.7181,16.9494
20.6749,16.8951
20.6335,16.8392
20.5939,16.7820
20.5561,16.7234
20.5202,16.6635
20.4862,16.6024
20.4544,16.5404
20.4246,16.4774
20.3970,16.4136
20.3715,16.3491
20.3481,16.2837
20.3269,16.2177
20.3079,16.1510
20.2910,16.0837
20.2763,16.0159
20.2639,15.9477
20.2537,15.8790
20.2457,15.8099
20.2400,15.7405
20.2366,15.6709
20.2354,15.6010
20.2366,15.5312
20.2400,15.4615
20.2457,15.3922
20.2537,15.3231
20.2639,15.2544
20.2763,15.1862
20.2910,15.1184
20.3078,15.0511
20.3269,14.9844
20.3481,14.9184
20.3714,14.8531
20.3969,14.7885
20.4246,14.7247
20.4543,14.6617
20.4862,14.5997
20.5201,14.5386
20.5560,14.4787
20.5938,14.4200
20.6334,14.3628
20.6749,14.3069
20.7181,14.2525
20.7630,14.1995
20.8095,14.1481
20.8578,14.0982
20.9076,14.0500
20.9590,14.0033
21.0119,13.9584
21.0663,13.9152
21.1221,13.8737
21.1794,13.8341
21.2380,13.7962
21.2979,13.7603
21.3590,13.7264
21.4210,13.6945
21.4839,13.6648
21.5477,13.6371
21.6123,13.6116
21.6777,13.5883
21.7437,13.5670
21.8104,13.5480
21.8776,13.5311
21.9454,13.5165
22.0137,13.5040
22.0824,13.4938
22.1515,13.4859
22.2209,13.4802
22.2905,13.4767
22.3604,13.4756
22.3604,13.4756
Z" /> 
<path style="fill:none; 
stroke:#D0D2CD; stroke-width:0.0000; stroke-opacity:1; 
stroke-linecap:round; stroke-linejoin:round;fill:none"
d="M 53.9319,34.8493
53.9586,34.8514
53.9852,34.8549
54.0116,34.8597
54.0377,34.8657
54.0635,34.8730
54.0890,34.8816
54.1140,34.8914
54.1386,34.9025
54.1626,34.9148
54.1862,34.9283
54.2091,34.9430
54.2293,34.9560
54.2710,34.9844
54.2995,35.0048
54.3326,35.0296
54.3703,35.0590
54.4123,35.0933
54.4583,35.1326
54.5082,35.1772
54.5617,35.2272
54.6186,35.2828
54.6787,35.3443
54.7417,35.4118
54.8075,35.4855
54.8413,35.5248
54.8757,35.5657
54.9339,35.6374
54.9932,35.7149
55.0531,35.7980
55.0829,35.8416
55.1127,35.8866
55.1422,35.9330
55.1714,35.9807
55.2002,36.0298
55.2286,36.0802
55.2563,36.1319
55.2834,36.1849
55.3097,36.2392
55.3351,36.2948
55.3582,36.3481
55.3804,36.4026
55.4017,36.4586
55.4221,36.5159
55.4414,36.5745
55.4596,36.6344
55.4764,36.6957
55.4920,36.7582
55.5060,36.8221
55.5185,36.8872
55.5293,36.9536
55.5384,37.0212
55.5456,37.0901
55.5509,37.1602
55.5542,37.2315
55.5553,37.3041
55.5545,37.3701
55.5521,37.4362
55.5481,37.5024
55.5424,37.5686
55.5352,37.6349
55.5264,37.7012
55.5159,37.7674
55.5039,37.8335
55.4902,37.8996
55.4749,37.9655
55.4580,38.0312
55.4394,38.0968
55.4193,38.1621
55.3975,38.2271
55.3741,38.2918
55.3491,38.3562
55.3240,38.4167
55.2974,38.4768
55.2693,38.5367
55.2397,38.5961
55.2087,38.6551
55.1762,38.7136
55.1422,38.7716
55.1067,38.8290
55.0698,38.8858
55.0314,38.9420
54.9916,38.9976
54.9502,39.0524
54.9074,39.1064
54.8632,39.1597
54.8175,39.2121
54.7703,39.2636
54.7240,39.3119
54.6763,39.3594
54.6272,39.4059
54.5767,39.4516
54.5249,39.4962
54.4718,39.5398
54.4173,39.5824
54.3615,39.6238
54.3043,39.6641
54.2458,39.7031
54.1860,39.7409
54.1249,39.7773
54.0625,39.8124
53.9988,39.8461
53.9338,39.8783
53.8675,39.9091
53.8027,39.9371
53.7367,39.9637
53.6696,39.9887
53.6015,40.0121
53.5323,40.0339
53.4620,40.0541
53.3907,40.0725
53.3184,40.0891
53.2451,40.1040
53.1709,40.1170
53.0956,40.1281
53.0194,40.1374
52.9422,40.1446
52.8642,40.1498
52.7852,40.1530
52.7053,40.1540
52.4224,40.1516
52.1653,40.1450
51.9311,40.1352
51.7168,40.1230
51.3588,40.0980
51.2048,40.0870
51.0656,40.0786
51.0031,40.0757
50.9434,40.0736
50.8862,40.0726
50.8310,40.0725
50.7772,40.0736
50.7245,40.0760
50.6723,40.0797
50.6202,40.0848
50.5695,40.0912
50.5169,40.0992
50.4620,40.1093
50.4046,40.1214
50.3442,40.1357
50.2805,40.1526
50.2131,40.1720
50.1417,40.1943
50.1155,40.2033
50.0882,40.2136
50.0598,40.2253
50.0303,40.2384
49.9997,40.2530
49.9681,40.2691
49.9356,40.2867
49.9021,40.3059
49.8677,40.3266
49.8324,40.3489
49.7964,40.3728
49.7596,40.3984
49.7220,40.4257
49.6837,40.4547
49.6448,40.4854
49.6053,40.5178
49.5668,40.5507
49.5281,40.5849
49.4894,40.6204
49.4505,40.6574
49.4116,40.6957
49.3727,40.7353
49.3339,40.7763
49.2952,40.8185
49.2566,40.8621
49.2181,40.9070
49.1799,40.9532
49.1419,41.0006
49.1042,41.0494
49.0669,41.0993
49.0299,41.1506
48.9934,41.2030
48.9234,41.3092
48.8557,41.4195
48.7907,41.5340
48.7286,41.6526
48.6697,41.7750
48.6416,41.8377
48.6145,41.9013
48.5883,41.9658
48.5631,42.0312
48.5390,42.0975
48.5159,42.1647
48.4740,42.2991
48.4367,42.4368
48.4044,42.5775
48.3772,42.7212
48.3657,42.7942
48.3556,42.8678
48.3469,42.9422
48.3398,43.0172
48.3342,43.0929
48.3301,43.1693
48.3276,43.2462
48.3268,43.3239
48.3276,43.4004
48.3300,43.4765
48.3395,43.6271
48.3551,43.7756
48.3764,43.9219
48.4035,44.0659
48.4359,44.2075
48.4734,44.3466
48.5159,44.4830
48.5625,44.6148
48.6133,44.7436
48.6681,44.8692
48.7267,44.9916
48.7887,45.1105
48.8541,45.2258
48.9224,45.3374
48.9934,45.4452
49.0294,45.4969
49.0659,45.5475
49.1402,45.6454
49.2158,45.7385
49.2927,45.8269
49.3703,45.9104
49.4485,45.9889
49.5269,46.0623
49.6053,46.1304
49.6443,46.1624
49.6827,46.1928
49.7206,46.2215
49.7578,46.2486
49.7944,46.2740
49.8303,46.2979
49.8654,46.3202
49.8998,46.3410
49.9333,46.3602
49.9660,46.3780
49.9977,46.3942
50.0286,46.4090
50.0584,46.4224
50.0872,46.4343
50.1150,46.4448
50.1417,46.4539
50.2122,46.4759
50.2789,46.4952
50.3423,46.5119
50.4026,46.5262
50.4602,46.5383
50.5154,46.5483
50.5686,46.5565
50.6202,46.5629
50.6715,46.5680
50.7230,46.5717
50.7753,46.5742
50.8289,46.5754
50.8842,46.5755
50.9418,46.5746
51.0021,46.5726
51.0656,46.5696
51.2026,46.5613
51.3554,46.5504
51.5259,46.5380
51.7162,46.5252
51.9267,46.5133
52.1600,46.5034
52.4187,46.4967
52.5584,46.4948
52.7053,46.4942
52.7836,46.4952
52.8612,46.4982
52.9382,46.5033
53.0144,46.5102
53.0899,46.5192
53.1647,46.5300
53.2387,46.5428
53.3119,46.5574
53.3843,46.5739
53.4559,46.5921
53.5267,46.6122
53.5967,46.6340
53.6657,46.6576
53.7339,46.6829
53.8012,46.7099
53.8675,46.7386
53.9324,46.7687
53.9962,46.8002
54.0589,46.8333
54.1205,46.8678
54.1810,46.9038
54.2404,46.9411
54.2987,46.9798
54.3559,47.0198
54.4119,47.0612
54.4667,47.1038
54.5203,47.1476
54.5728,47.1926
54.6240,47.2388
54.6740,47.2861
54.7228,47.3346
54.7703,47.3840
54.8163,47.4343
54.8610,47.4855
54.9045,47.5377
54.9467,47.5909
54.9876,47.6449
55.0272,47.6999
55.0655,47.7557
55.1024,47.8123
55.1380,47.8698
55.1723,47.9280
55.2052,47.9869
55.2367,48.0465
55.2668,48.1068
55.2955,48.1678
55.3227,48.2293
55.3486,48.2915
55.3729,48.3540
55.3958,48.4170
55.4172,48.4806
55.4371,48.5448
55.4556,48.6094
55.4726,48.6745
55.4880,48.7400
55.5019,48.8060
55.5143,48.8723
55.5250,48.9389
55.5342,49.0059
55.5417,49.0731
55.5476,49.1406
55.5519,49.2083
55.5544,49.2761
55.5553,49.3441
55.5589,51.3047
55.5553,53.4054
55.5544,53.4734
55.5519,53.5412
55.5477,53.6089
55.5418,53.6763
55.5343,53.7435
55.5252,53.8104
55.5145,53.8770
55.5022,53.9432
55.4884,54.0091
55.4730,54.0746
55.4560,54.1397
55.4376,54.2043
55.4177,54.2684
55.3963,54.3320
55.3734,54.3950
55.3491,54.4575
55.3233,54.5196
55.2960,54.5812
55.2673,54.6421
55.2371,54.7024
55.2056,54.7621
55.1727,54.8210
55.1384,54.8792
55.1027,54.9366
55.0657,54.9933
55.0274,55.0491
54.9878,55.1040
54.9468,55.1581
54.9046,55.2113
54.8611,55.2635
54.8163,55.3147
54.7703,55.3650
54.7228,55.4144
54.6741,55.4628
54.6240,55.5101
54.5728,55.5563
54.5204,55.6014
54.4667,55.6452
54.4119,55.6878
54.3559,55.7291
54.2988,55.7691
54.2405,55.8079
54.1811,55.8452
54.1205,55.8812
54.0589,55.9157
53.9962,55.9488
53.9324,55.9803
53.8675,56.0104
53.8012,56.0391
53.7340,56.0661
53.6658,56.0914
53.5967,56.1150
53.5268,56.1369
53.4560,56.1570
53.3844,56.1753
53.3120,56.1919
53.2387,56.2065
53.1647,56.2193
53.0900,56.2302
53.0145,56.2392
52.9382,56.2462
52.8613,56.2513
52.7836,56.2543
52.7053,56.2553
52.4189,56.2529
52.1603,56.2461
51.9272,56.2363
51.7168,56.2243
51.3557,56.1991
51.2027,56.1882
51.0656,56.1799
51.0021,56.1769
50.9418,56.1749
50.8842,56.1739
50.8289,56.1739
50.7754,56.1750
50.7231,56.1774
50.6715,56.1811
50.6202,56.1861
50.5686,56.1926
50.5154,56.2008
50.4602,56.2109
50.4026,56.2231
50.3423,56.2375
50.2790,56.2543
50.2122,56.2736
50.1417,56.2956
50.1150,56.3048
50.0873,56.3153
50.0585,56.3272
50.0286,56.3405
49.9978,56.3553
49.9660,56.3715
49.9334,56.3893
49.8998,56.4085
49.8655,56.4293
49.8303,56.4516
49.7944,56.4755
49.7579,56.5010
49.7206,56.5280
49.6827,56.5568
49.6443,56.5871
49.6053,56.6191
49.5661,56.6525
49.5270,56.6872
49.4878,56.7233
49.4486,56.7606
49.4094,56.7992
49.3704,56.8391
49.3315,56.8802
49.2927,56.9226
49.2542,56.9661
49.2159,57.0110
49.1779,57.0570
49.1402,57.1041
49.1029,57.1525
49.0659,57.2020
49.0294,57.2526
48.9934,57.3044
48.9224,57.4121
48.8541,57.5236
48.7888,57.6388
48.7267,57.7576
48.6681,57.8799
48.6402,57.9422
48.6133,58.0054
48.5874,58.0694
48.5625,58.1342
48.5387,58.1998
48.5159,58.2661
48.4734,58.4024
48.4359,58.5414
48.4035,58.6830
48.3765,58.8270
48.3551,58.9733
48.3465,59.0473
48.3395,59.1218
48.3340,59.1969
48.3300,59.2725
48.3276,59.3486
48.3268,59.4252
48.3276,59.5027
48.3301,59.5797
48.3398,59.7317
48.3556,59.8810
48.3772,60.0276
48.4043,60.1714
48.4367,60.3121
48.4740,60.4498
48.5159,60.5843
48.5631,60.7178
48.6144,60.8477
48.6697,60.9740
48.7285,61.0966
48.7906,61.2152
48.8557,61.3298
48.9234,61.4403
48.9934,61.5465
49.0299,61.5989
49.0669,61.6501
49.1042,61.7001
49.1418,61.7488
49.2180,61.8424
49.2951,61.9309
49.3727,62.0141
49.4504,62.0921
49.5281,62.1646
49.6053,62.2317
49.6448,62.2642
49.6837,62.2948
49.7219,62.3238
49.7595,62.3511
49.7963,62.3766
49.8324,62.4006
49.8676,62.4229
49.9020,62.4436
49.9355,62.4627
49.9680,62.4804
49.9996,62.4965
50.0302,62.5111
50.0597,62.5242
50.0882,62.5359
50.1155,62.5463
50.1417,62.5552
50.2130,62.5775
50.2804,62.5969
50.3441,62.6136
50.4045,62.6279
50.4619,62.6399
50.5168,62.6498
50.5694,62.6579
50.6202,62.6642
50.6723,62.6694
50.7244,62.6731
50.7772,62.6756
50.8309,62.6768
50.8861,62.6768
50.9433,62.6758
51.0030,62.6738
51.0656,62.6709
51.2047,62.6625
51.3586,62.6515
51.5289,62.6392
51.7168,62.6265
51.9309,62.6143
52.1650,62.6043
52.4222,62.5975
52.5603,62.5956
52.7053,62.5950
52.7851,62.5960
52.8640,62.5992
52.9420,62.6044
53.0191,62.6116
53.0952,62.6208
53.1704,62.6319
53.2447,62.6449
53.3180,62.6598
53.3903,62.6764
53.4616,62.6948
53.5319,62.7150
53.6012,62.7368
53.6694,62.7602
53.7365,62.7852
53.8026,62.8118
53.8675,62.8399
53.9337,62.8706
53.9986,62.9028
54.0623,62.9364
54.1246,62.9715
54.1857,63.0079
54.2454,63.0457
54.3039,63.0847
54.3611,63.1249
54.4169,63.1663
54.4714,63.2089
54.5246,63.2525
54.5764,63.2972
54.6269,63.3429
54.6761,63.3895
54.7239,63.4370
54.7703,63.4854
54.8174,63.5368
54.8630,63.5891
54.9072,63.6423
54.9499,63.6963
54.9912,63.7510
55.0311,63.8065
55.0695,63.8627
55.1064,63.9195
55.1419,63.9769
55.1759,64.0349
55.2084,64.0935
55.2395,64.1525
55.2691,64.2120
55.2972,64.2719
55.3239,64.3322
55.3491,64.3928
55.3741,64.4570
55.3974,64.5216
55.4191,64.5865
55.4393,64.6517
55.4578,64.7172
55.4747,64.7829
55.4900,64.8489
55.5037,64.9149
55.5158,64.9811
55.5263,65.0474
55.5351,65.1138
55.5424,65.1802
55.5480,65.2466
55.5521,65.3130
55.5545,65.3793
55.5553,65.4455
55.5545,65.5133
55.5523,65.5802
55.5486,65.6461
55.5436,65.7111
55.5296,65.8381
55.5107,65.9612
55.4876,66.0804
55.4604,66.1955
55.4298,66.3065
55.3961,66.4134
55.3571,66.5233
55.3153,66.6291
55.2712,66.7306
55.2252,66.8279
55.1777,66.9209
55.1292,67.0096
55.0801,67.0938
55.0308,67.1735
54.9769,67.2559
54.9229,67.3343
54.8691,67.4088
54.8159,67.4791
54.7638,67.5452
54.7131,67.6070
54.6643,67.6646
54.6179,67.7177
54.5693,67.7715
54.5231,67.8214
54.4797,67.8670
54.4396,67.9084
54.4008,67.9476
54.3651,67.9834
54.3078,68.0401
54.2912,68.0564
54.2730,68.0740
54.2339,68.1114
54.1373,68.2029
54.0780,68.2600
54.0158,68.3205
53.9506,68.3847
53.8825,68.4525
53.7878,68.5485
53.6937,68.6461
53.6005,68.7450
53.5084,68.8453
53.4387,68.9229
53.3710,69.0001
53.3053,69.0767
53.2417,69.1527
53.1477,69.2690
53.0609,69.3810
52.9811,69.4888
52.9080,69.5924
52.8415,69.6919
52.7813,69.7873
52.7272,69.8785
52.6790,69.9656
52.6514,70.0186
52.6262,70.0696
52.6032,70.1187
52.5825,70.1660
52.5638,70.2113
52.5471,70.2548
52.5323,70.2964
52.5193,70.3361
52.5065,70.3795
52.4959,70.4205
52.4872,70.4593
52.4804,70.4958
52.4753,70.5302
52.4718,70.5625
52.4698,70.5927
52.4692,70.6209
52.4681,70.9180
52.4651,71.2447
52.4526,72.0399
52.4428,72.5489
52.4256,73.5409
52.4194,74.0768
52.4170,74.6123
52.4173,74.6348
52.4181,74.6569
52.4194,74.6789
52.4212,74.7006
52.4236,74.7221
52.4265,74.7435
52.4299,74.7646
52.4337,74.7856
52.4381,74.8065
52.4430,74.8272
52.4483,74.8478
52.4542,74.8684
52.4604,74.8888
52.4672,74.9092
52.4821,74.9498
52.4906,74.9709
52.4996,74.9922
52.5193,75.0350
52.5412,75.0784
52.5654,75.1225
52.5919,75.1673
52.6206,75.2129
52.6517,75.2594
52.6852,75.3069
52.7221,75.3569
52.7608,75.4073
52.8015,75.4583
52.8439,75.5099
52.8880,75.5623
52.9339,75.6155
53.0304,75.7249
53.2469,75.9651
53.3592,76.0903
53.4722,76.2190
53.6102,76.3818
53.7408,76.5442
53.8641,76.7071
53.9230,76.7891
53.9802,76.8718
54.0356,76.9551
54.0892,77.0393
54.1411,77.1246
54.1913,77.2109
54.2397,77.2986
54.2865,77.3877
54.3316,77.4784
54.3750,77.5708
54.4408,77.7223
54.4985,77.8697
54.5488,78.0125
54.5923,78.1500
54.6295,78.2817
54.6610,78.4072
54.6874,78.5258
54.7094,78.6369
54.7372,78.8033
54.7583,78.9615
54.7737,79.1095
54.7842,79.2451
54.7908,79.3664
54.7944,79.4712
54.7962,79.6234
54.7948,79.6512
54.7921,79.6786
54.7880,79.7056
54.7827,79.7322
54.7761,79.7582
54.7683,79.7838
54.7593,79.8088
54.7492,79.8332
54.7379,79.8570
54.7256,79.8801
54.7122,79.9026
54.6977,79.9244
54.6823,79.9454
54.6659,79.9656
54.6487,79.9850
54.6305,80.0036
54.6115,80.0214
54.5916,80.0382
54.5710,80.0540
54.5496,80.0689
54.5275,80.0828
54.5047,80.0957
54.4812,80.1075
54.4572,80.1181
54.4325,80.1277
54.4073,80.1361
54.3816,80.1433
54.3554,80.1492
54.3287,80.1539
54.3016,80.1573
54.2742,80.1593
54.2463,80.1600
54.2185,80.1593
54.1910,80.1573
54.1640,80.1539
54.1373,80.1492
54.1111,80.1433
54.0854,80.1361
54.0602,80.1277
54.0355,80.1181
54.0114,80.1075
53.9880,80.0957
53.9652,80.0828
53.9431,80.0689
53.9217,80.0540
53.9011,80.0382
53.8812,80.0214
53.8622,80.0036
53.8440,79.9850
53.8267,79.9656
53.8104,79.9454
53.7949,79.9244
53.7805,79.9026
53.7671,79.8801
53.7548,79.8570
53.7435,79.8332
53.7333,79.8088
53.7244,79.7838
53.7165,79.7582
53.7100,79.7322
53.7046,79.7056
53.7006,79.6786
53.6979,79.6512
53.6965,79.6234
53.6950,79.4978
53.6920,79.4133
53.6867,79.3164
53.6783,79.2087
53.6662,79.0919
53.6584,79.0306
53.6495,78.9676
53.6393,78.9031
53.6278,78.8374
53.6109,78.7516
53.5906,78.6607
53.5665,78.5650
53.5382,78.4648
53.5052,78.3607
53.4671,78.2528
53.4461,78.1976
53.4236,78.1417
53.3996,78.0850
53.3740,78.0276
53.3415,77.9583
53.3075,77.8898
53.2720,77.8220
53.2349,77.7547
53.1961,77.6879
53.1557,77.6213
53.1134,77.5549
53.0693,77.4885
53.0233,77.4219
52.9753,77.3550
52.8729,77.2198
52.7618,77.0816
52.6413,76.9393
52.5375,76.8215
52.4305,76.7023
52.2098,76.4577
52.1046,76.3386
52.0515,76.2768
51.9984,76.2138
51.9456,76.1496
51.8936,76.0842
51.8425,76.0177
51.7927,75.9502
51.7452,75.8828
51.6987,75.8132
51.6534,75.7416
51.6097,75.6677
51.5679,75.5916
51.5478,75.5527
51.5283,75.5132
51.5094,75.4731
51.4912,75.4324
51.4737,75.3911
51.4568,75.3492
51.4408,75.3069
51.4257,75.2640
51.4114,75.2207
51.3981,75.1769
51.3857,75.1326
51.3742,75.0878
51.3637,75.0426
51.3542,74.9968
51.3458,74.9506
51.3384,74.9038
51.3320,74.8566
51.3268,74.8088
51.3227,74.7605
51.3197,74.7116
51.3179,74.6623
51.3173,74.6123
51.3198,74.0681
51.3260,73.5252
51.3432,72.5282
51.3530,72.0197
51.3651,71.2317
51.3690,70.6209
51.3694,70.5829
51.3706,70.5448
51.3756,70.4686
51.3837,70.3922
51.3950,70.3157
51.4092,70.2391
51.4263,70.1624
51.4461,70.0857
51.4687,70.0090
51.4908,69.9414
51.5150,69.8731
51.5415,69.8041
51.5703,69.7343
51.6013,69.6638
51.6346,69.5926
51.6701,69.5206
51.7080,69.4478
51.7722,69.3318
51.8424,69.2135
51.9186,69.0928
52.0010,68.9696
52.0896,68.8441
52.1844,68.7160
52.2856,68.5855
52.3932,68.4525
52.4655,68.3660
52.5398,68.2794
52.6158,68.1928
52.6934,68.1063
52.7954,67.9954
52.8979,67.8866
53.0008,67.7801
53.1038,67.6758
53.1774,67.6025
53.2475,67.5335
53.3140,67.4689
53.3766,67.4086
53.4743,67.3152
53.5102,67.2809
53.5242,67.2675
53.5358,67.2563
53.5908,67.2020
53.6215,67.1714
53.6541,67.1384
53.6868,67.1048
53.7215,67.0685
53.7579,67.0293
53.7767,67.0088
53.7957,66.9875
53.8316,66.9465
53.8687,66.9027
53.9068,66.8561
53.9456,66.8068
53.9848,66.7549
54.0241,66.7004
54.0633,66.6434
54.1021,66.5839
54.1373,66.5270
54.1719,66.4677
54.2056,66.4061
54.2382,66.3422
54.2695,66.2760
54.2992,66.2077
54.3133,66.1727
54.3270,66.1372
54.3402,66.1012
54.3528,66.0646
54.3747,65.9951
54.3945,65.9233
54.4120,65.8492
54.4197,65.8114
54.4268,65.7730
54.4332,65.7340
54.4388,65.6944
54.4437,65.6543
54.4477,65.6137
54.4509,65.5725
54.4532,65.5307
54.4546,65.4884
54.4551,65.4455
54.4546,65.4061
54.4532,65.3665
54.4508,65.3267
54.4474,65.2868
54.4430,65.2467
54.4376,65.2065
54.4313,65.1663
54.4239,65.1259
54.4156,65.0856
54.4062,65.0452
54.3958,65.0048
54.3844,64.9644
54.3720,64.9241
54.3585,64.8839
54.3440,64.8437
54.3285,64.8037
54.3128,64.7658
54.2961,64.7282
54.2786,64.6907
54.2601,64.6536
54.2407,64.6167
54.2204,64.5801
54.1992,64.5439
54.1772,64.5081
54.1542,64.4726
54.1303,64.4376
54.1055,64.4030
54.0798,64.3689
54.0533,64.3353
54.0258,64.3023
53.9975,64.2698
53.9683,64.2378
53.9396,64.2079
53.9101,64.1786
53.8798,64.1499
53.8488,64.1219
53.8169,64.0945
53.7843,64.0678
53.7510,64.0418
53.7169,64.0166
53.6821,63.9921
53.6465,63.9684
53.6102,63.9455
53.5732,63.9234
53.5354,63.9023
53.4970,63.8819
53.4578,63.8625
53.4179,63.8441
53.3790,63.8272
53.3394,63.8113
53.2990,63.7962
53.2578,63.7820
53.2158,63.7688
53.1732,63.7565
53.1297,63.7453
53.0855,63.7352
53.0406,63.7261
52.9949,63.7181
52.9485,63.7112
52.9013,63.7056
52.8534,63.7011
52.8048,63.6979
52.7554,63.6959
52.7053,63.6952
52.4421,63.6975
52.2032,63.7037
51.9855,63.7128
51.7860,63.7241
51.6070,63.7363
51.4389,63.7487
51.2784,63.7602
51.1220,63.7696
51.0464,63.7731
50.9706,63.7756
50.8943,63.7769
50.8173,63.7768
50.7394,63.7751
50.6604,63.7714
50.5800,63.7657
50.4982,63.7577
50.4166,63.7475
50.3341,63.7348
50.2505,63.7195
50.1655,63.7016
50.0786,63.6810
49.9896,63.6575
49.8980,63.6311
49.8037,63.6017
49.7463,63.5821
49.6889,63.5606
49.6314,63.5371
49.5739,63.5116
49.5165,63.4844
49.4592,63.4553
49.4020,63.4244
49.3450,63.3919
49.2882,63.3576
49.2316,63.3217
49.1753,63.2843
49.1193,63.2453
49.0637,63.2049
49.0085,63.1630
48.9537,63.1197
48.8994,63.0751
48.8459,63.0295
48.7925,62.9823
48.7394,62.9336
48.6865,62.8833
48.6339,62.8315
48.5816,62.7782
48.5297,62.7235
48.4782,62.6673
48.4271,62.6096
48.3765,62.5505
48.3264,62.4901
48.2769,62.4282
48.2281,62.3649
48.1798,62.3003
48.1323,62.2344
48.0855,62.1671
47.9955,62.0309
47.9086,61.8891
47.8251,61.7421
47.7453,61.5899
47.6698,61.4326
47.6337,61.3521
47.5988,61.2703
47.5651,61.1874
47.5327,61.1033
47.5017,61.0180
47.4721,60.9316
47.4179,60.7579
47.3696,60.5797
47.3276,60.3972
47.2923,60.2105
47.2773,60.1156
47.2642,60.0197
47.2529,59.9229
47.2436,59.8252
47.2362,59.7265
47.2309,59.6269
47.2277,59.5265
47.2266,59.4252
47.2277,59.3252
47.2308,59.2259
47.2432,59.0294
47.2635,58.8360
47.2914,58.6458
47.3265,58.4588
47.3685,58.2753
47.4172,58.0955
47.4721,57.9193
47.5320,57.7497
47.5973,57.5840
47.6678,57.4225
47.7430,57.2654
47.8227,57.1127
47.9066,56.9647
47.9943,56.8215
48.0855,56.6832
48.1316,56.6169
48.1786,56.5518
48.2748,56.4251
48.3737,56.3034
48.4751,56.1868
48.5786,56.0756
48.6841,55.9699
48.7911,55.8699
48.8994,55.7758
48.9528,55.7319
49.0069,55.6891
49.0615,55.6476
49.1167,55.6074
49.1723,55.5686
49.2283,55.5312
49.2847,55.4952
49.3415,55.4609
49.3986,55.4281
49.4559,55.3970
49.5135,55.3676
49.5713,55.3400
49.6293,55.3143
49.6874,55.2904
49.7455,55.2685
49.8037,55.2487
49.8968,55.2197
49.9874,55.1935
50.0759,55.1702
50.1627,55.1496
50.2480,55.1317
50.3321,55.1164
50.4154,55.1036
50.4982,55.0932
50.5791,55.0852
50.6586,55.0795
50.7370,55.0759
50.8146,55.0741
50.8917,55.0740
50.9684,55.0752
51.0451,55.0777
51.1220,55.0813
51.2762,55.0905
51.4359,55.1017
51.6046,55.1140
51.7860,55.1262
51.9821,55.1374
52.1988,55.1466
52.4390,55.1529
52.5687,55.1546
52.7053,55.1552
52.7545,55.1545
52.8032,55.1527
52.8512,55.1495
52.8985,55.1452
52.9453,55.1397
52.9915,55.1331
53.0370,55.1252
53.0819,55.1163
53.1261,55.1063
53.1698,55.0951
53.2127,55.0830
53.2551,55.0697
53.2968,55.0555
53.3378,55.0402
53.3782,55.0240
53.4179,55.0069
53.4570,54.9888
53.4955,54.9697
53.5334,54.9497
53.5707,54.9288
53.6074,54.9070
53.6435,54.8843
53.6789,54.8608
53.7138,54.8363
53.7480,54.8111
53.7815,54.7850
53.8144,54.7582
53.8466,54.7306
53.8780,54.7022
53.9088,54.6730
53.9389,54.6431
53.9683,54.6126
53.9968,54.5814
54.0246,54.5496
54.0516,54.5171
54.0779,54.4841
54.1033,54.4504
54.1280,54.4162
54.1518,54.3814
54.1749,54.3462
54.1971,54.3104
54.2184,54.2741
54.2390,54.2373
54.2586,54.2001
54.2774,54.1625
54.2953,54.1245
54.3123,54.0860
54.3285,54.0472
54.3436,54.0083
54.3579,53.9690
54.3711,53.9296
54.3834,53.8899
54.3948,53.8501
54.4052,53.8100
54.4146,53.7699
54.4230,53.7296
54.4305,53.6892
54.4370,53.6487
54.4425,53.6082
54.4470,53.5676
54.4505,53.5271
54.4531,53.4865
54.4546,53.4459
54.4551,53.4054
54.4587,51.3053
54.4551,49.3442
54.4546,49.3036
54.4531,49.2631
54.4505,49.2225
54.4470,49.1819
54.4425,49.1413
54.4370,49.1008
54.4305,49.0603
54.4230,49.0199
54.4146,48.9796
54.4052,48.9395
54.3948,48.8995
54.3834,48.8596
54.3711,48.8200
54.3578,48.7805
54.3436,48.7413
54.3285,48.7023
54.3123,48.6635
54.2953,48.6251
54.2773,48.5870
54.2585,48.5493
54.2388,48.5121
54.2183,48.4753
54.1968,48.4389
54.1746,48.4031
54.1515,48.3678
54.1276,48.3330
54.1029,48.2987
54.0774,48.2650
54.0512,48.2319
54.0241,48.1995
53.9963,48.1676
53.9678,48.1365
53.9384,48.1059
53.9083,48.0760
53.8776,48.0469
53.8461,48.0185
53.8139,47.9909
53.7811,47.9641
53.7476,47.9381
53.7135,47.9129
53.6787,47.8886
53.6433,47.8651
53.6072,47.8424
53.5706,47.8206
53.5333,47.7998
53.4954,47.7798
53.4570,47.7608
53.4179,47.7427
53.3782,47.7255
53.3378,47.7093
53.2967,47.6940
53.2550,47.6797
53.2127,47.6665
53.1697,47.6542
53.1261,47.6431
53.0818,47.6330
53.0369,47.6240
52.9914,47.6161
52.9453,47.6094
52.8985,47.6039
52.8511,47.5995
52.8031,47.5964
52.7545,47.5945
52.7053,47.5939
52.4388,47.5963
52.1985,47.6027
51.9816,47.6121
51.7855,47.6233
51.4355,47.6478
51.2761,47.6591
51.1220,47.6683
51.0451,47.6718
50.9684,47.6743
50.8916,47.6756
50.8146,47.6754
50.7370,47.6736
50.6586,47.6700
50.5791,47.6643
50.4982,47.6564
50.4154,47.6460
50.3320,47.6331
50.2477,47.6178
50.1624,47.5999
50.0755,47.5793
49.9869,47.5560
49.8963,47.5299
49.8032,47.5008
49.7450,47.4810
49.6868,47.4591
49.6288,47.4353
49.5708,47.4095
49.5131,47.3819
49.4555,47.3525
49.3982,47.3214
49.3411,47.2887
49.2844,47.2543
49.2280,47.2183
49.1721,47.1809
49.1165,47.1421
49.0614,47.1019
49.0068,47.0604
48.9528,47.0177
48.8994,46.9737
48.8450,46.9274
48.7910,46.8796
48.7373,46.8303
48.6840,46.7795
48.6311,46.7273
48.5786,46.6737
48.5265,46.6187
48.4750,46.5624
48.4240,46.5047
48.3736,46.4458
48.3238,46.3855
48.2747,46.3240
48.2263,46.2612
48.1786,46.1973
48.1316,46.1321
48.0855,46.0658
47.9942,45.9275
47.9065,45.7843
47.8227,45.6364
47.7430,45.4838
47.6677,45.3268
47.6319,45.2466
47.5973,45.1654
47.5639,45.0831
47.5319,44.9998
47.5013,44.9155
47.4721,44.8302
47.4171,44.6540
47.3685,44.4740
47.3265,44.2904
47.2914,44.1034
47.2765,44.0086
47.2635,43.9130
47.2524,43.8167
47.2432,43.7196
47.2360,43.6217
47.2308,43.5231
47.2277,43.4238
47.2266,43.3238
47.2277,43.2225
47.2309,43.1220
47.2436,42.9238
47.2642,42.7293
47.2924,42.5387
47.3276,42.3521
47.3696,42.1696
47.4179,41.9916
47.4721,41.8180
47.5328,41.6462
47.5988,41.4790
47.6698,41.3166
47.7454,41.1593
47.8251,41.0069
47.9087,40.8599
47.9956,40.7181
48.0855,40.5819
48.1323,40.5146
48.1799,40.4487
48.2281,40.3841
48.2770,40.3208
48.3766,40.1985
48.4783,40.0819
48.5817,39.9710
48.6866,39.8661
48.7926,39.7672
48.8994,39.6745
48.9537,39.6298
49.0085,39.5865
49.0638,39.5446
49.1194,39.5041
49.1754,39.4650
49.2317,39.4275
49.2883,39.3916
49.3451,39.3573
49.4022,39.3247
49.4593,39.2938
49.5167,39.2647
49.5740,39.2374
49.6315,39.2120
49.6889,39.1885
49.7463,39.1669
49.8037,39.1474
49.8981,39.1179
49.9897,39.0916
50.0787,39.0682
50.1656,39.0477
50.2507,39.0299
50.3342,39.0147
50.4166,39.0021
50.4982,38.9918
50.5801,38.9838
50.6604,38.9781
50.7395,38.9745
50.8174,38.9727
50.8944,38.9726
50.9707,38.9739
51.0465,38.9764
51.1220,38.9799
51.2785,38.9893
51.4391,39.0006
51.6071,39.0128
51.7860,39.0249
51.9857,39.0363
52.2034,39.0457
52.4423,39.0520
52.5706,39.0537
52.7053,39.0543
52.7555,39.0537
52.8049,39.0517
52.8536,39.0485
52.9016,39.0440
52.9487,39.0383
52.9952,39.0315
53.0409,39.0235
53.0858,39.0144
53.1300,39.0042
53.1734,38.9929
53.2161,38.9807
53.2580,38.9675
53.2991,38.9533
53.3395,38.9383
53.3791,38.9223
53.4179,38.9055
53.4579,38.8870
53.4971,38.8675
53.5356,38.8472
53.5734,38.8259
53.6104,38.8038
53.6467,38.7809
53.6823,38.7571
53.7172,38.7326
53.7512,38.7073
53.7846,38.6812
53.8171,38.6545
53.8489,38.6271
53.8800,38.5990
53.9102,38.5703
53.9396,38.5411
53.9683,38.5112
53.9976,38.4792
54.0260,38.4467
54.0534,38.4136
54.0800,38.3800
54.1057,38.3459
54.1305,38.3113
54.1544,38.2763
54.1774,38.2409
54.1994,38.2051
54.2206,38.1689
54.2409,38.1324
54.2602,38.0956
54.2787,38.0586
54.2962,38.0212
54.3128,37.9836
54.3285,37.9459
54.3441,37.9057
54.3586,37.8655
54.3721,37.8252
54.3846,37.7848
54.3960,37.7444
54.4063,37.7039
54.4157,37.6635
54.4240,37.6231
54.4314,37.5828
54.4377,37.5426
54.4431,37.5024
54.4474,37.4624
54.4508,37.4225
54.4532,37.3828
54.4546,37.3433
54.4551,37.3040
54.4545,37.2656
54.4528,37.2276
54.4499,37.1901
54.4460,37.1529
54.4411,37.1162
54.4352,37.0800
54.4283,37.0442
54.4205,37.0088
54.4119,36.9739
54.4024,36.9394
54.3921,36.9054
54.3811,36.8719
54.3693,36.8388
54.3568,36.8062
54.3300,36.7423
54.3144,36.7083
54.2982,36.6748
54.2814,36.6419
54.2640,36.6095
54.2461,36.5777
54.2277,36.5465
54.1899,36.4860
54.1508,36.4279
54.1108,36.3724
54.0704,36.3195
54.0298,36.2695
53.9823,36.2138
53.9363,36.1624
53.8920,36.1152
53.8497,36.0722
53.8097,36.0331
53.7721,35.9981
53.7055,35.9397
53.6520,35.8966
53.6137,35.8681
53.5911,35.8530
53.5741,35.8410
53.5577,35.8284
53.5419,35.8153
53.5266,35.8017
53.5119,35.7876
53.4978,35.7730
53.4843,35.7579
53.4714,35.7424
53.4591,35.7264
53.4475,35.7101
53.4364,35.6934
53.4260,35.6763
53.4162,35.6588
53.4071,35.6411
53.3986,35.6230
53.3908,35.6046
53.3836,35.5860
53.3772,35.5671
53.3714,35.5480
53.3663,35.5286
53.3619,35.5091
53.3582,35.4894
53.3553,35.4695
53.3530,35.4495
53.3515,35.4294
53.3507,35.4092
53.3507,35.3889
53.3515,35.3685
53.3530,35.3481
53.3552,35.3277
53.3583,35.3072
53.3621,35.2868
53.3667,35.2666
53.3720,35.2466
53.3848,35.2076
53.4003,35.1700
53.4184,35.1339
53.4391,35.0994
53.4621,35.0666
53.4873,35.0356
53.5147,35.0066
53.5442,34.9796
53.5755,34.9548
53.6087,34.9323
53.6435,34.9122
53.6799,34.8947
53.7177,34.8797
53.7569,34.8676
53.7769,34.8625
53.7973,34.8583
53.7973,34.8582
53.8241,34.8538
53.8511,34.8506
53.8781,34.8489
53.9050,34.8484
Z" /> 
</g>
<g style="fill:none; 
stroke:#D0D2CD; stroke-width:0.1000; stroke-opacity:1; 
stroke-linecap:round; stroke-linejoin:round;">
<circle cx="59.0700" cy="79.6015" r="2.0616" /> 
</g>
<g style="fill:none; 
stroke:#D0D2CD; stroke-width:0.0100; stroke-opacity:1; 
stroke-linecap:round; stroke-linejoin:round;">
<circle cx="49.5700" cy="70.0765" r="0.2700" /> 
<circle cx="42.0700" cy="70.0765" r="0.2700" /> 
</g> 
</svg>
