<?xml version="1.0" standalone="no"?>
 <!DOCTYPE svg PUBLIC "-//W3C//DTD SVG 1.1//EN" 
 "http://www.w3.org/Graphics/SVG/1.1/DTD/svg11.dtd"> 
<svg
  xmlns:svg="http://www.w3.org/2000/svg"
  xmlns="http://www.w3.org/2000/svg"
  xmlns:xlink="http://www.w3.org/1999/xlink"
  version="1.1"
  width="96.6978mm" height="94.2086mm" viewBox="0.0000 0.0000 96.6978 94.2086">
<title>SVG Image created as wing-combo-Edge_Cuts.svg date 2025/10/05 13:09:32 </title>
  <desc>Image generated by PCBNEW </desc>
<g style="fill:#000000; fill-opacity:1.0000;stroke:#000000; stroke-opacity:1.0000;
stroke-linecap:round; stroke-linejoin:round;"
 transform="translate(0 0) scale(1 1)">
<path style="fill:none; 
stroke:#D0D2CD; stroke-width:0.0529; stroke-opacity:1; 
stroke-linecap:round; stroke-linejoin:round;fill:none"
d="M 96.5996,91.3160
54.7588,91.2969
54.7588,83.1444
54.7583,83.1186
54.7562,83.0933
54.7531,83.0680
54.7484,83.0432
54.7427,83.0194
54.7360,82.9951
54.7282,82.9724
54.7194,82.9497
54.7091,82.9275
54.6982,82.9058
54.6863,82.8846
54.6734,82.8644
54.6595,82.8448
54.6445,82.8262
54.6290,82.8081
54.6124,82.7905
54.5949,82.7740
54.5768,82.7585
54.5577,82.7435
54.5385,82.7296
54.5179,82.7167
54.4972,82.7048
54.4755,82.6940
54.4533,82.6837
54.4305,82.6747
54.4073,82.6667
54.3835,82.6597
54.3592,82.6537
54.3349,82.6497
54.3096,82.6467
54.2843,82.6447
54.2585,82.6442
54.1587,82.6442
54.1329,82.6447
54.1076,82.6467
54.0822,82.6497
54.0574,82.6537
54.0332,82.6597
54.0094,82.6667
53.9861,82.6747
53.9634,82.6837
53.9412,82.6940
53.9200,82.7048
53.8988,82.7167
53.8786,82.7296
53.8590,82.7435
53.8399,82.7585
53.8218,82.7740
53.8047,82.7905
53.7882,82.8081
53.7722,82.8262
53.7577,82.8448
53.7438,82.8644
53.7308,82.8846
53.7184,82.9058
53.7076,82.9275
53.6978,82.9497
53.6885,82.9724
53.6807,82.9951
53.6740,83.0194
53.6683,83.0432
53.6642,83.0680
53.6611,83.0933
53.6590,83.1186
53.6585,83.1444
53.6585,91.2969
44.1666,91.2969
44.1666,89.5549
44.1661,89.5353
44.1645,89.5156
44.1619,89.4965
44.1588,89.4774
44.1547,89.4588
44.1500,89.4407
44.1443,89.4226
44.1376,89.4050
44.1298,89.3880
44.1220,89.3716
44.1132,89.3551
44.1034,89.3396
44.0931,89.3241
44.0822,89.3096
44.0709,89.2951
44.0585,89.2817
44.0455,89.2688
44.0321,89.2559
44.0182,89.2440
44.0032,89.2331
43.9882,89.2222
43.9727,89.2122
43.9566,89.2032
43.9401,89.1952
43.9231,89.1872
43.9060,89.1802
43.8879,89.1742
43.8698,89.1692
43.8517,89.1652
43.8326,89.1612
43.8135,89.1582
43.7939,89.1562
43.7939,89.1542
39.4344,89.1542
39.4344,88.1501
39.4339,88.1294
39.4324,88.1087
39.4298,88.0885
39.4262,88.0689
39.4215,88.0498
39.4163,88.0307
39.4101,88.0121
39.4029,87.9940
39.3946,87.9764
39.3858,87.9588
39.3765,87.9423
39.3662,87.9258
39.3548,87.9103
39.3429,87.8953
39.3305,87.8808
39.3171,87.8668
39.3031,87.8534
39.2887,87.8410
39.2737,87.8291
39.2582,87.8182
39.2416,87.8073
39.2251,87.7973
39.2080,87.7883
39.1900,87.7803
39.1719,87.7733
39.1533,87.7673
39.1341,87.7623
39.1150,87.7583
39.0954,87.7543
39.0752,87.7523
39.0551,87.7503
39.0339,87.7498
35.4336,87.7498
35.4134,87.7503
35.3928,87.7523
35.3726,87.7543
35.3530,87.7583
35.3339,87.7623
35.3147,87.7673
35.2961,87.7733
35.2781,87.7803
35.2600,87.7883
35.2429,87.7973
35.2264,87.8073
35.2098,87.8182
35.1943,87.8291
35.1793,87.8410
35.1649,87.8534
35.1509,87.8668
35.1375,87.8808
35.1251,87.8953
35.1132,87.9103
35.1018,87.9258
35.0915,87.9423
35.0822,87.9588
35.0734,87.9764
35.0651,87.9940
35.0579,88.0121
35.0517,88.0307
35.0465,88.0498
35.0418,88.0689
35.0387,88.0885
35.0356,88.1087
35.0346,88.1294
35.0341,88.1501
35.0341,89.1542
26.6936,89.1542
26.6936,88.1501
26.6931,88.1294
26.6915,88.1087
26.6889,88.0885
26.6853,88.0689
26.6806,88.0498
26.6754,88.0307
26.6692,88.0121
26.6620,87.9940
26.6542,87.9764
26.6454,87.9588
26.6356,87.9423
26.6253,87.9258
26.6139,87.9103
26.6020,87.8953
26.5896,87.8808
26.5762,87.8668
26.5622,87.8534
26.5477,87.8410
26.5328,87.8291
26.5173,87.8182
26.5007,87.8073
26.4842,87.7973
26.4671,87.7883
26.4490,87.7803
26.4309,87.7733
26.4123,87.7673
26.3932,87.7623
26.3741,87.7583
26.3545,87.7543
26.3343,87.7523
26.3142,87.7503
26.2935,87.7498
22.6932,87.7498
22.6730,87.7503
22.6524,87.7523
22.6322,87.7543
22.6126,87.7583
22.5935,87.7623
22.5743,87.7673
22.5557,87.7733
22.5377,87.7803
22.5196,87.7883
22.5025,87.7973
22.4860,87.8073
22.4694,87.8182
22.4539,87.8291
22.4389,87.8410
22.4245,87.8534
22.4105,87.8668
22.3971,87.8808
22.3847,87.8953
22.3728,87.9103
22.3614,87.9258
22.3511,87.9423
22.3418,87.9588
22.3330,87.9764
22.3247,87.9940
22.3175,88.0121
22.3113,88.0307
22.3061,88.0498
22.3014,88.0689
22.2978,88.0885
22.2957,88.1087
22.2942,88.1294
22.2937,88.1501
22.2937,89.1542
14.0342,89.1542
14.0342,88.1543
14.0337,88.1336
14.0322,88.1129
14.0296,88.0933
14.0260,88.0730
14.0213,88.0539
14.0162,88.0348
14.0100,88.0162
14.0027,87.9981
13.9945,87.9800
13.9857,87.9629
13.9764,87.9464
13.9660,87.9300
13.9547,87.9144
13.9428,87.8994
13.9304,87.8850
13.9169,87.8711
13.9030,87.8577
13.8885,87.8452
13.8735,87.8333
13.8580,87.8225
13.8415,87.8116
13.8250,87.8017
13.8079,87.7927
13.7898,87.7847
13.7717,87.7777
13.7531,87.7717
13.7340,87.7667
13.7149,87.7627
13.6952,87.7587
13.6751,87.7556
13.6549,87.7546
13.6338,87.7541
10.0336,87.7541
10.0134,87.7546
9.9927,87.7556
9.9726,87.7587
9.9529,87.7627
9.9338,87.7667
9.9147,87.7717
9.8961,87.7777
9.8780,87.7847
9.8599,87.7927
9.8429,87.8017
9.8263,87.8116
9.8098,87.8225
9.7943,87.8333
9.7793,87.8452
9.7648,87.8577
9.7509,87.8711
9.7374,87.8850
9.7250,87.8994
9.7132,87.9144
9.7018,87.9300
9.6915,87.9464
9.6822,87.9629
9.6734,87.9800
9.6651,87.9981
9.6579,88.0162
9.6517,88.0348
9.6465,88.0539
9.6418,88.0730
9.6387,88.0933
9.6356,88.1129
9.6346,88.1336
9.6341,88.1543
9.6341,89.1542
5.3005,89.1542
5.3005,43.0507
8.3603,43.0507
8.4151,43.0500
8.4697,43.0479
8.5238,43.0445
8.5776,43.0396
8.6310,43.0335
8.6840,43.0260
8.7366,43.0173
8.7887,43.0073
8.8403,42.9961
8.8915,42.9836
8.9422,42.9698
8.9924,42.9549
9.0420,42.9387
9.0911,42.9214
9.1397,42.9029
9.1876,42.8833
9.2350,42.8626
9.2817,42.8408
9.3278,42.8178
9.3732,42.7939
9.4180,42.7688
9.4621,42.7427
9.5056,42.7156
9.5483,42.6874
9.5904,42.6583
9.6317,42.6282
9.6722,42.5971
9.7120,42.5651
9.7510,42.5322
9.7892,42.4984
9.8265,42.4636
9.8630,42.4280
9.8986,42.3916
9.9334,42.3543
9.9672,42.3162
10.0001,42.2773
10.0321,42.2376
10.0632,42.1971
10.0933,42.1558
10.1224,42.1138
10.1506,42.0711
10.1777,42.0276
10.2038,41.9834
10.2288,41.9385
10.2528,41.8930
10.2758,41.8468
10.2976,41.8000
10.3183,41.7526
10.3379,41.7046
10.3564,41.6561
10.3737,41.6070
10.3899,41.5573
10.4048,41.5072
10.4186,41.4565
10.4311,41.4053
10.4423,41.3537
10.4523,41.3016
10.4610,41.2490
10.4683,41.1960
10.4744,41.1426
10.4791,41.0888
10.4825,41.0346
10.4845,40.9801
10.4852,40.9253
10.4845,40.8704
10.4825,40.8160
10.4791,40.7619
10.4744,40.7082
10.4683,40.6549
10.4610,40.6020
10.4523,40.5495
10.4423,40.4974
10.4311,40.4457
10.4186,40.3946
10.4048,40.3439
10.3899,40.2937
10.3737,40.2441
10.3564,40.1950
10.3379,40.1464
10.3183,40.0984
10.2976,40.0511
10.2758,40.0043
10.2528,39.9581
10.2288,39.9126
10.2038,39.8677
10.1777,39.8235
10.1506,39.7800
10.1224,39.7372
10.0933,39.6952
10.0632,39.6540
10.0321,39.6135
10.0001,39.5738
9.9672,39.5349
9.9334,39.4968
9.8986,39.4595
9.8630,39.4230
9.8265,39.3874
9.7892,39.3527
9.7510,39.3189
9.7120,39.2859
9.6722,39.2539
9.6317,39.2229
9.5904,39.1928
9.5483,39.1636
9.5056,39.1355
9.4621,39.1084
9.4180,39.0823
9.3732,39.0572
9.3278,39.0332
9.2817,39.0103
9.2350,38.9885
9.1876,38.9678
9.1397,38.9482
9.0911,38.9297
9.0420,38.9124
8.9924,38.8962
8.9422,38.8813
8.8915,38.8675
8.8403,38.8550
8.7887,38.8437
8.7366,38.8337
8.6840,38.8250
8.6310,38.8176
8.5776,38.8114
8.5238,38.8066
8.4697,38.8031
8.4151,38.8010
8.3603,38.8003
5.3005,38.8003
5.3005,0.0381
50.4209,0.0381
50.4209,13.7096
50.4214,13.7354
50.4235,13.7607
50.4266,13.7861
50.4307,13.8103
50.4364,13.8346
50.4431,13.8584
50.4509,13.8817
50.4602,13.9044
50.4700,13.9266
50.4809,13.9483
50.4933,13.9690
50.5062,13.9891
50.5201,14.0088
50.5346,14.0279
50.5506,14.0460
50.5672,14.0630
50.5842,14.0796
50.6023,14.0956
50.6214,14.1101
50.6411,14.1240
50.6612,14.1369
50.6824,14.1493
50.7041,14.1602
50.7258,14.1700
50.7486,14.1788
50.7718,14.1871
50.7956,14.1938
50.8199,14.1990
50.8447,14.2037
50.8700,14.2068
50.8952,14.2089
50.9212,14.2094
51.0209,14.2094
51.0467,14.2089
51.0720,14.2068
51.0968,14.2037
51.1216,14.1990
51.1458,14.1938
51.1696,14.1871
51.1929,14.1788
51.2157,14.1700
51.2379,14.1602
51.2596,14.1493
51.2803,14.1369
51.3010,14.1240
51.3206,14.1101
51.3392,14.0956
51.3573,14.0796
51.3749,14.0630
51.3914,14.0460
51.4069,14.0279
51.4218,14.0088
51.4358,13.9891
51.4488,13.9690
51.4607,13.9483
51.4715,13.9266
51.4818,13.9044
51.4906,13.8817
51.4984,13.8584
51.5051,13.8346
51.5108,13.8103
51.5155,13.7861
51.5186,13.7607
51.5208,13.7354
51.5213,13.7096
51.5213,0.0381
96.5596,0.0265
Z" /> 
<path style="fill:none; 
stroke:#D0D2CD; stroke-width:0.0529; stroke-opacity:1; 
stroke-linecap:round; stroke-linejoin:round;fill:none"
d="M 53.9318,34.8500
53.9582,34.8521
53.9851,34.8552
54.0114,34.8604
54.0373,34.8661
54.0631,34.8733
54.0889,34.8821
54.1137,34.8919
54.1385,34.9027
54.1623,34.9151
54.1861,34.9286
54.2088,34.9436
54.2290,34.9565
54.2708,34.9849
54.2993,35.0050
54.3323,35.0298
54.3700,35.0593
54.4119,35.0939
54.4579,35.1332
54.5080,35.1776
54.5612,35.2278
54.6181,35.2831
54.6785,35.3446
54.7416,35.4123
54.8072,35.4862
54.8408,35.5254
54.8754,35.5662
54.9338,35.6381
54.9927,35.7156
55.0527,35.7983
55.0826,35.8422
55.1126,35.8872
55.1421,35.9337
55.1710,35.9812
55.1999,36.0303
55.2284,36.0804
55.2558,36.1321
55.2831,36.1853
55.3095,36.2396
55.3348,36.2954
55.3581,36.3486
55.3803,36.4029
55.4015,36.4592
55.4216,36.5166
55.4413,36.5750
55.4593,36.6349
55.4759,36.6964
55.4919,36.7584
55.5059,36.8225
55.5183,36.8876
55.5291,36.9543
55.5379,37.0215
55.5451,37.0907
55.5508,37.1605
55.5539,37.2318
55.5549,37.3046
55.5544,37.3708
55.5518,37.4364
55.5477,37.5031
55.5420,37.5692
55.5348,37.6354
55.5260,37.7015
55.5157,37.7677
55.5038,37.8338
55.4898,37.9000
55.4743,37.9661
55.4578,38.0317
55.4392,38.0974
55.4190,38.1625
55.3973,38.2276
55.3736,38.2922
55.3488,38.3568
55.3234,38.4173
55.2971,38.4772
55.2692,38.5371
55.2392,38.5966
55.2082,38.6555
55.1757,38.7139
55.1421,38.7723
55.1064,38.8296
55.0697,38.8865
55.0310,38.9423
54.9912,38.9981
54.9498,39.0529
54.9069,39.1071
54.8630,39.1603
54.8170,39.2125
54.7700,39.2642
54.7235,39.3123
54.6759,39.3598
54.6268,39.4063
54.5762,39.4523
54.5245,39.4968
54.4713,39.5402
54.4170,39.5831
54.3612,39.6244
54.3039,39.6647
54.2455,39.7035
54.1855,39.7412
54.1246,39.7779
54.0620,39.8130
53.9985,39.8466
53.9334,39.8786
53.8672,39.9096
53.8026,39.9376
53.7365,39.9639
53.6693,39.9892
53.6011,40.0125
53.5318,40.0342
53.4615,40.0543
53.3902,40.0729
53.3179,40.0895
53.2450,40.1045
53.1706,40.1174
53.0952,40.1287
53.0192,40.1380
52.9417,40.1452
52.8637,40.1504
52.7851,40.1535
52.7050,40.1545
52.4224,40.1519
52.1650,40.1452
51.9309,40.1354
51.7165,40.1236
51.3584,40.0982
51.2044,40.0874
51.0653,40.0791
51.0028,40.0760
50.9429,40.0739
50.8860,40.0729
50.8308,40.0729
50.7770,40.0739
50.7243,40.0765
50.6721,40.0801
50.6199,40.0853
50.5693,40.0915
50.5166,40.0998
50.4618,40.1096
50.4044,40.1220
50.3440,40.1359
50.2804,40.1530
50.2127,40.1726
50.1414,40.1949
50.1151,40.2037
50.0882,40.2140
50.0598,40.2259
50.0303,40.2388
49.9993,40.2533
49.9678,40.2693
49.9352,40.2874
49.9016,40.3065
49.8675,40.3272
49.8324,40.3494
49.7962,40.3732
49.7595,40.3990
49.7218,40.4264
49.6836,40.4553
49.6448,40.4858
49.6050,40.5184
49.5668,40.5509
49.5280,40.5855
49.4893,40.6207
49.4505,40.6579
49.4112,40.6961
49.3725,40.7359
49.3337,40.7767
49.2949,40.8191
49.2562,40.8625
49.2179,40.9075
49.1797,40.9535
49.1415,41.0010
49.1037,41.0496
49.0665,41.0997
49.0299,41.1509
48.9932,41.2036
48.9234,41.3095
48.8557,41.4201
48.7906,41.5343
48.7286,41.6532
48.6697,41.7756
48.6413,41.8382
48.6144,41.9017
48.5880,41.9663
48.5627,42.0314
48.5389,42.0981
48.5157,42.1653
48.4738,42.2996
48.4366,42.4371
48.4041,42.5777
48.3772,42.7218
48.3653,42.7947
48.3555,42.8681
48.3467,42.9425
48.3395,43.0174
48.3338,43.0934
48.3297,43.1699
48.3276,43.2469
48.3266,43.3244
48.3276,43.4008
48.3297,43.4768
48.3395,43.6277
48.3550,43.7760
48.3762,43.9223
48.4031,44.0664
48.4356,44.2080
48.4733,44.3470
48.5157,44.4835
48.5622,44.6152
48.6129,44.7439
48.6681,44.8695
48.7265,44.9919
48.7886,45.1108
48.8537,45.2260
48.9224,45.3377
48.9932,45.4457
49.0294,45.4973
49.0655,45.5480
49.1399,45.6457
49.2154,45.7387
49.2924,45.8270
49.3699,45.9108
49.4485,45.9893
49.5265,46.0627
49.6050,46.1309
49.6443,46.1629
49.6825,46.1934
49.7203,46.2219
49.7575,46.2492
49.7942,46.2746
49.8303,46.2983
49.8650,46.3205
49.8996,46.3412
49.9332,46.3603
49.9657,46.3784
49.9972,46.3944
50.0282,46.4094
50.0582,46.4229
50.0872,46.4348
50.1145,46.4451
50.1414,46.4544
50.2122,46.4761
50.2789,46.4957
50.3419,46.5123
50.4024,46.5268
50.4597,46.5386
50.5150,46.5484
50.5683,46.5567
50.6199,46.5634
50.6711,46.5686
50.7228,46.5722
50.7750,46.5748
50.8287,46.5758
50.8840,46.5758
50.9414,46.5748
51.0018,46.5727
51.0654,46.5701
51.2023,46.5618
51.3553,46.5510
51.5258,46.5386
51.7160,46.5257
51.9263,46.5138
52.1599,46.5040
52.4183,46.4973
52.5583,46.4952
52.7051,46.4947
52.7836,46.4957
52.8611,46.4988
52.9381,46.5035
53.0141,46.5107
53.0895,46.5195
53.1645,46.5303
53.2384,46.5432
53.3117,46.5577
53.3841,46.5742
53.4554,46.5923
53.5262,46.6125
53.5965,46.6342
53.6652,46.6580
53.7334,46.6833
53.8011,46.7101
53.8673,46.7391
53.9324,46.7691
53.9959,46.8006
54.0585,46.8336
54.1205,46.8683
54.1809,46.9039
54.2404,46.9416
54.2982,46.9799
54.3556,47.0202
54.4114,47.0615
54.4662,47.1039
54.5199,47.1478
54.5726,47.1928
54.6238,47.2393
54.6739,47.2863
54.7225,47.3349
54.7700,47.3845
54.8160,47.4346
54.8610,47.4858
54.9044,47.5380
54.9463,47.5912
54.9876,47.6455
55.0269,47.7002
55.0651,47.7560
55.1023,47.8124
55.1380,47.8703
55.1721,47.9281
55.2052,47.9870
55.2367,48.0470
55.2666,48.1069
55.2951,48.1679
55.3225,48.2294
55.3483,48.2919
55.3726,48.3545
55.3953,48.4175
55.4170,48.4811
55.4367,48.5451
55.4553,48.6097
55.4723,48.6749
55.4878,48.7405
55.5018,48.8061
55.5142,48.8728
55.5245,48.9394
55.5338,49.0061
55.5416,49.0733
55.5473,49.1410
55.5514,49.2087
55.5540,49.2764
55.5550,49.3446
55.5586,51.3052
55.5550,53.4058
55.5540,53.4735
55.5514,53.5417
55.5473,53.6094
55.5416,53.6766
55.5338,53.7438
55.5250,53.8105
55.5142,53.8771
55.5018,53.9433
55.4883,54.0094
55.4728,54.0750
55.4558,54.1402
55.4372,54.2047
55.4175,54.2688
55.3958,54.3324
55.3731,54.3954
55.3488,54.4580
55.3230,54.5200
55.2956,54.5815
55.2671,54.6424
55.2367,54.7029
55.2051,54.7623
55.1726,54.8212
55.1380,54.8796
55.1023,54.9370
55.0656,54.9938
55.0274,55.0496
54.9876,55.1044
54.9468,55.1582
54.9044,55.2114
54.8610,55.2636
54.8160,55.3147
54.7700,55.3654
54.7225,55.4145
54.6739,55.4630
54.6238,55.5106
54.5726,55.5566
54.5199,55.6015
54.4662,55.6455
54.4114,55.6878
54.3556,55.7292
54.2987,55.7695
54.2404,55.8082
54.1809,55.8454
54.1205,55.8816
54.0585,55.9157
53.9959,55.9493
53.9324,55.9803
53.8673,56.0108
53.8011,56.0392
53.7339,56.0666
53.6657,56.0914
53.5965,56.1152
53.5267,56.1374
53.4559,56.1571
53.3841,56.1757
53.3117,56.1922
53.2384,56.2067
53.1645,56.2196
53.0895,56.2304
53.0141,56.2392
52.9381,56.2464
52.8611,56.2516
52.7836,56.2547
52.7051,56.2557
52.4188,56.2531
52.1599,56.2464
51.9268,56.2366
51.7165,56.2248
51.3553,56.1994
51.2023,56.1886
51.0654,56.1803
51.0018,56.1772
50.9414,56.1751
50.8840,56.1741
50.8287,56.1741
50.7750,56.1751
50.7228,56.1777
50.6711,56.1813
50.6199,56.1865
50.5683,56.1927
50.5150,56.2010
50.4597,56.2113
50.4024,56.2232
50.3419,56.2377
50.2789,56.2547
50.2122,56.2738
50.1414,56.2961
50.1145,56.3049
50.0872,56.3157
50.0582,56.3276
50.0282,56.3410
49.9978,56.3555
49.9657,56.3720
49.9332,56.3896
49.8996,56.4087
49.8655,56.4294
49.8303,56.4521
49.7941,56.4759
49.7575,56.5012
49.7202,56.5281
49.6825,56.5570
49.6443,56.5875
49.6050,56.6196
49.5658,56.6526
49.5270,56.6873
49.4877,56.7234
49.4485,56.7606
49.4092,56.7994
49.3704,56.8392
49.3312,56.8805
49.2924,56.9229
49.2542,56.9663
49.2159,57.0113
49.1777,57.0573
49.1400,57.1043
49.1028,57.1529
49.0655,57.2025
49.0294,57.2531
48.9932,57.3048
48.9224,57.4123
48.8537,57.5239
48.7886,57.6391
48.7266,57.7580
48.6682,57.8800
48.6403,57.9425
48.6129,58.0055
48.5870,58.0696
48.5622,58.1347
48.5384,58.1998
48.5157,58.2665
48.4733,58.4029
48.4356,58.5419
48.4031,58.6835
48.3762,58.8272
48.3550,58.9734
48.3462,59.0473
48.3395,59.1222
48.3338,59.1972
48.3297,59.2726
48.3276,59.3491
48.3266,59.4256
48.3276,59.5031
48.3297,59.5801
48.3395,59.7320
48.3555,59.8814
48.3772,60.0276
48.4041,60.1718
48.4367,60.3123
48.4739,60.4503
48.5157,60.5847
48.5628,60.7180
48.6144,60.8477
48.6697,60.9743
48.7281,61.0968
48.7906,61.2156
48.8558,61.3298
48.9235,61.4404
48.9932,61.5469
49.0299,61.5991
49.0666,61.6502
49.1038,61.7004
49.1415,61.7489
49.2180,61.8425
49.2950,61.9313
49.3725,62.0145
49.4500,62.0926
49.5281,62.1649
49.6051,62.2321
49.6448,62.2647
49.6836,62.2952
49.7218,62.3241
49.7596,62.3515
49.7963,62.3768
49.8324,62.4011
49.8676,62.4233
49.9017,62.4440
49.9353,62.4631
49.9678,62.4807
49.9993,62.4967
50.0298,62.5112
50.0593,62.5246
50.0882,62.5360
50.1151,62.5463
50.1415,62.5556
50.2128,62.5778
50.2805,62.5969
50.3440,62.6140
50.4045,62.6279
50.4618,62.6403
50.5166,62.6501
50.5693,62.6579
50.6200,62.6646
50.6722,62.6698
50.7244,62.6734
50.7771,62.6760
50.8308,62.6770
50.8861,62.6770
50.9429,62.6760
51.0029,62.6739
51.0654,62.6713
51.2044,62.6625
51.3584,62.6517
51.5289,62.6393
51.7165,62.6269
51.9305,62.6145
52.1646,62.6047
52.4219,62.5980
52.5599,62.5959
52.7051,62.5954
52.7847,62.5964
52.8637,62.5995
52.9418,62.6047
53.0188,62.6119
53.0947,62.6212
53.1702,62.6320
53.2446,62.6449
53.3179,62.6599
53.3903,62.6765
53.4616,62.6951
53.5319,62.7152
53.6011,62.7369
53.6693,62.7602
53.7360,62.7855
53.8022,62.8119
53.8673,62.8403
53.9334,62.8708
53.9985,62.9028
54.0621,62.9364
54.1241,62.9715
54.1856,63.0082
54.2450,63.0459
54.3034,63.0847
54.3608,63.1250
54.4166,63.1664
54.4714,63.2093
54.5246,63.2527
54.5763,63.2976
54.6269,63.3431
54.6760,63.3896
54.7235,63.4372
54.7701,63.4857
54.8171,63.5369
54.8626,63.5891
54.9070,63.6423
54.9499,63.6966
54.9907,63.7514
55.0310,63.8066
55.0693,63.8630
55.1059,63.9198
55.1416,63.9772
55.1757,64.0350
55.2083,64.0934
55.2393,64.1529
55.2687,64.2123
55.2972,64.2722
55.3235,64.3322
55.3488,64.3931
55.3736,64.4572
55.3974,64.5218
55.4191,64.5869
55.4393,64.6520
55.4573,64.7171
55.4744,64.7833
55.4899,64.8489
55.5033,64.9151
55.5157,64.9812
55.5261,65.0474
55.5349,65.1140
55.5421,65.1802
55.5478,65.2468
55.5519,65.3130
55.5545,65.3796
55.5550,65.4458
55.5545,65.5135
55.5519,65.5801
55.5483,65.6463
55.5431,65.7114
55.5291,65.8380
55.5105,65.9615
55.4873,66.0803
55.4599,66.1956
55.4294,66.3067
55.3958,66.4137
55.3570,66.5232
55.3152,66.6292
55.2707,66.7310
55.2247,66.8281
55.1772,66.9211
55.1291,67.0095
55.0795,67.0937
55.0304,67.1738
54.9767,67.2560
54.9224,67.3345
54.8687,67.4090
54.8155,67.4792
54.7633,67.5454
54.7126,67.6074
54.6641,67.6648
54.6176,67.7180
54.5690,67.7717
54.5230,67.8213
54.4796,67.8673
54.4393,67.9087
54.4005,67.9479
54.3649,67.9836
54.3075,68.0404
54.2910,68.0565
54.2729,68.0740
54.2336,68.1117
54.1370,68.2032
54.0775,68.2600
54.0155,68.3205
53.9504,68.3846
53.8822,68.4528
53.7876,68.5484
53.6936,68.6461
53.6001,68.7453
53.5081,68.8455
53.4383,68.9231
53.3706,69.0001
53.3050,69.0771
53.2414,69.1530
53.1474,69.2693
53.0606,69.3809
52.9810,69.4889
52.9076,69.5928
52.8415,69.6920
52.7810,69.7876
52.7267,69.8785
52.6787,69.9659
52.6513,70.0186
52.6260,70.0697
52.6027,70.1188
52.5820,70.1659
52.5634,70.2113
52.5469,70.2547
52.5319,70.2966
52.5190,70.3364
52.5061,70.3798
52.4957,70.4206
52.4869,70.4594
52.4802,70.4961
52.4750,70.5302
52.4714,70.5627
52.4693,70.5927
52.4688,70.6211
52.4678,70.9183
52.4647,71.2449
52.4523,72.0402
52.4425,72.5492
52.4255,73.5408
52.4193,74.0767
52.4167,74.6126
52.4172,74.6348
52.4177,74.6570
52.4193,74.6787
52.4209,74.7004
52.4235,74.7221
52.4261,74.7438
52.4297,74.7645
52.4333,74.7857
52.4380,74.8063
52.4427,74.8270
52.4484,74.8477
52.4541,74.8683
52.4603,74.8890
52.4670,74.9092
52.4820,74.9500
52.4908,74.9712
52.4996,74.9924
52.5192,75.0352
52.5409,75.0787
52.5652,75.1226
52.5921,75.1675
52.6205,75.2130
52.6515,75.2595
52.6851,75.3071
52.7218,75.3572
52.7606,75.4073
52.8014,75.4585
52.8438,75.5102
52.8882,75.5624
52.9337,75.6156
53.0303,75.7251
53.2468,75.9649
53.3590,76.0905
53.4721,76.2192
53.6101,76.3819
53.7408,76.5442
53.8638,76.7070
53.9227,76.7892
53.9801,76.8718
54.0354,76.9550
54.0891,77.0393
54.1408,77.1245
54.1455,77.1318
54.1567,77.1497
54.1634,77.1607
54.1700,77.1720
54.1761,77.1830
54.1811,77.1927
54.2044,77.2486
54.2202,77.3030
54.2291,77.3559
54.2315,77.4071
54.2277,77.4566
54.2180,77.5042
54.2031,77.5498
54.1831,77.5934
54.1585,77.6348
54.1297,77.6740
54.0972,77.7108
54.0612,77.7451
54.0222,77.7768
53.9806,77.8059
53.9368,77.8322
53.8911,77.8556
53.8441,77.8760
53.7960,77.8934
53.7472,77.9075
53.6982,77.9184
53.6494,77.9259
53.6010,77.9299
53.5537,77.9302
53.5077,77.9269
53.4634,77.9198
53.4212,77.9088
53.3815,77.8938
53.3448,77.8746
53.3114,77.8513
53.2817,77.8236
53.2561,77.7916
53.2349,77.7550
53.2326,77.7504
53.2300,77.7454
53.2241,77.7347
53.2177,77.7235
53.2113,77.7127
53.2006,77.6950
53.1962,77.6878
53.1559,77.6211
53.1135,77.5550
53.0691,77.4883
53.0231,77.4222
52.9750,77.3550
52.8727,77.2196
52.7616,77.0817
52.6412,76.9395
52.5373,76.8217
52.4303,76.7024
52.2097,76.4579
52.1048,76.3386
52.0515,76.2771
51.9983,76.2140
51.9456,76.1494
51.8934,76.0843
51.8423,76.0177
51.7926,75.9505
51.7451,75.8828
51.6986,75.8130
51.6531,75.7417
51.6097,75.6678
51.5678,75.5918
51.5477,75.5526
51.5281,75.5133
51.5095,75.4730
51.4914,75.4327
51.4738,75.3913
51.4567,75.3495
51.4407,75.3071
51.4257,75.2642
51.4113,75.2208
51.3978,75.1769
51.3854,75.1324
51.3741,75.0880
51.3637,75.0425
51.3539,74.9970
51.3456,74.9505
51.3384,74.9040
51.3317,74.8565
51.3265,74.8089
51.3224,74.7604
51.3198,74.7118
51.3177,74.6622
51.3172,74.6126
51.3198,74.0684
51.3260,73.5253
51.3431,72.5285
51.3529,72.0200
51.3653,71.2319
51.3689,70.6211
51.3694,70.5829
51.3704,70.5451
51.3756,70.4687
51.3839,70.3922
51.3947,70.3157
51.4092,70.2392
51.4262,70.1628
51.4459,70.0858
51.4686,70.0093
51.4908,69.9416
51.5151,69.8734
51.5415,69.8041
51.5704,69.7344
51.6014,69.6641
51.6345,69.5928
51.6702,69.5209
51.7079,69.4481
51.7720,69.3318
51.8422,69.2135
51.9187,69.0931
52.0009,68.9696
52.0897,68.8440
52.1843,68.7163
52.2856,68.5856
52.3931,68.4528
52.4654,68.3660
52.5398,68.2797
52.6158,68.1929
52.6933,68.1065
52.7951,67.9954
52.8980,67.8869
53.0008,67.7799
53.1036,67.6761
53.1775,67.6027
53.2473,67.5335
53.3139,67.4689
53.3765,67.4089
53.4741,67.3154
53.5103,67.2808
53.5243,67.2678
53.5356,67.2565
53.5909,67.2022
53.6214,67.1717
53.6540,67.1387
53.6865,67.1051
53.7212,67.0684
53.7578,67.0296
53.7764,67.0090
53.7956,66.9878
53.8317,66.9464
53.8684,66.9030
53.9067,66.8560
53.9454,66.8069
53.9847,66.7552
54.0240,66.7004
54.0632,66.6436
54.1020,66.5842
54.1371,66.5273
54.1718,66.4679
54.2053,66.4064
54.2379,66.3423
54.2694,66.2762
54.2989,66.2080
54.3133,66.1728
54.3268,66.1372
54.3402,66.1015
54.3526,66.0648
54.3743,65.9951
54.3945,65.9232
54.4120,65.8493
54.4198,65.8116
54.4265,65.7734
54.4332,65.7341
54.4389,65.6943
54.4436,65.6545
54.4477,65.6137
54.4508,65.5729
54.4529,65.5310
54.4545,65.4887
54.4551,65.4458
54.4545,65.4065
54.4529,65.3667
54.4508,65.3269
54.4472,65.2871
54.4431,65.2468
54.4374,65.2065
54.4312,65.1662
54.4240,65.1259
54.4157,65.0856
54.4059,65.0453
54.3956,65.0049
54.3842,64.9646
54.3718,64.9243
54.3584,64.8840
54.3439,64.8437
54.3284,64.8039
54.3129,64.7657
54.2959,64.7284
54.2788,64.6907
54.2602,64.6535
54.2406,64.6168
54.2204,64.5801
54.1993,64.5440
54.1770,64.5083
54.1543,64.4727
54.1305,64.4375
54.1057,64.4029
54.0799,64.3688
54.0535,64.3352
54.0256,64.3026
53.9977,64.2701
53.9682,64.2380
53.9393,64.2080
53.9099,64.1786
53.8799,64.1502
53.8489,64.1218
53.8168,64.0944
53.7843,64.0680
53.7512,64.0417
53.7171,64.0168
53.6820,63.9920
53.6463,63.9683
53.6101,63.9455
53.5729,63.9233
53.5352,63.9021
53.4970,63.8820
53.4577,63.8623
53.4179,63.8443
53.3791,63.8272
53.3393,63.8112
53.2990,63.7962
53.2577,63.7822
53.2158,63.7688
53.1730,63.7564
53.1295,63.7456
53.0856,63.7352
53.0407,63.7264
52.9947,63.7181
52.9487,63.7114
52.9011,63.7057
52.8536,63.7010
52.8050,63.6979
52.7554,63.6958
52.7053,63.6953
52.4423,63.6974
52.2030,63.7036
51.9854,63.7129
51.7860,63.7243
51.6072,63.7362
51.4387,63.7486
51.2785,63.7604
51.1219,63.7697
51.0465,63.7728
50.9705,63.7754
50.8940,63.7770
50.8170,63.7770
50.7395,63.7749
50.6605,63.7713
50.5798,63.7656
50.4982,63.7578
50.4165,63.7475
50.3339,63.7346
50.2507,63.7196
50.1654,63.7015
50.0786,63.6808
49.9897,63.6576
49.8982,63.6312
49.8037,63.6018
49.7463,63.5821
49.6889,63.5604
49.6316,63.5372
49.5737,63.5113
49.5163,63.4845
49.4590,63.4555
49.4021,63.4245
49.3448,63.3920
49.2879,63.3573
49.2316,63.3217
49.1753,63.2845
49.1195,63.2452
49.0637,63.2049
49.0084,63.1630
48.9536,63.1196
48.8993,63.0752
48.8461,63.0297
48.7924,62.9822
48.7391,62.9336
48.6864,62.8834
48.6337,62.8313
48.5815,62.7780
48.5298,62.7232
48.4782,62.6674
48.4270,62.6096
48.3764,62.5507
48.3262,62.4902
48.2771,62.4282
48.2280,62.3646
48.1800,62.3000
48.1324,62.2344
48.0854,62.1672
47.9955,62.0308
47.9087,61.8892
47.8250,61.7419
47.7454,61.5900
47.6699,61.4324
47.6338,61.3523
47.5986,61.2701
47.5650,61.1874
47.5325,61.1032
47.5015,61.0179
47.4720,60.9316
47.4177,60.7580
47.3697,60.5797
47.3273,60.3973
47.2922,60.2102
47.2772,60.1157
47.2643,60.0195
47.2529,59.9229
47.2436,59.8252
47.2364,59.7265
47.2307,59.6268
47.2276,59.5265
47.2266,59.4253
47.2276,59.3250
47.2307,59.2258
47.2431,59.0294
47.2632,58.8361
47.2911,58.6460
47.3263,58.4589
47.3687,58.2755
47.4172,58.0956
47.4720,57.9194
47.5319,57.7494
47.5971,57.5840
47.6679,57.4223
47.7428,57.2652
47.8229,57.1127
47.9066,56.9644
47.9945,56.8213
48.0854,56.6833
48.1314,56.6167
48.1784,56.5516
48.2745,56.4249
48.3738,56.3035
48.4750,56.1867
48.5784,56.0756
48.6838,55.9697
48.7913,55.8699
48.8993,55.7759
48.9525,55.7320
49.0068,55.6891
49.0616,55.6477
49.1169,55.6074
49.1722,55.5687
49.2285,55.5309
49.2848,55.4953
49.3417,55.4607
49.3985,55.4281
49.4559,55.3971
49.5132,55.3676
49.5711,55.3397
49.6295,55.3144
49.6874,55.2901
49.7453,55.2684
49.8036,55.2488
49.8967,55.2199
49.9876,55.1935
50.0760,55.1703
50.1628,55.1496
50.2481,55.1315
50.3323,55.1165
50.4155,55.1036
50.4982,55.0932
50.5793,55.0849
50.6584,55.0792
50.7369,55.0756
50.8144,55.0740
50.8914,55.0740
50.9684,55.0750
51.0449,55.0776
51.1219,55.0812
51.2764,55.0905
51.4361,55.1014
51.6046,55.1138
51.7859,55.1262
51.9823,55.1370
52.1988,55.1463
52.4391,55.1525
52.5688,55.1546
52.7053,55.1552
52.7544,55.1542
52.8029,55.1527
52.8510,55.1496
52.8985,55.1449
52.9450,55.1397
52.9915,55.1330
53.0370,55.1252
53.0820,55.1164
53.1259,55.1060
53.1698,55.0952
53.2127,55.0828
53.2551,55.0693
53.2969,55.0554
53.3378,55.0399
53.3781,55.0239
53.4179,55.0068
53.4571,54.9887
53.4954,54.9696
53.5331,54.9495
53.5708,54.9288
53.6075,54.9071
53.6437,54.8844
53.6788,54.8606
53.7140,54.8363
53.7481,54.8110
53.7817,54.7846
53.8142,54.7583
53.8468,54.7304
53.8778,54.7019
53.9088,54.6730
53.9388,54.6430
53.9682,54.6125
53.9966,54.5810
54.0245,54.5495
54.0514,54.5169
54.0778,54.4839
54.1031,54.4503
54.1279,54.4162
54.1516,54.3810
54.1749,54.3459
54.1971,54.3102
54.2183,54.2741
54.2390,54.2374
54.2586,54.2002
54.2772,54.1625
54.2953,54.1242
54.3124,54.0860
54.3284,54.0472
54.3434,54.0079
54.3578,53.9687
54.3713,53.9294
54.3832,53.8896
54.3945,53.8498
54.4049,53.8100
54.4147,53.7697
54.4230,53.7294
54.4302,53.6891
54.4369,53.6488
54.4426,53.6080
54.4467,53.5677
54.4503,53.5268
54.4529,53.4865
54.4545,53.4457
54.4550,53.4054
54.4586,51.3053
54.4550,49.3442
54.4545,49.3033
54.4529,49.2630
54.4503,49.2222
54.4467,49.1819
54.4426,49.1411
54.4369,49.1008
54.4302,49.0600
54.4230,49.0196
54.4147,48.9793
54.4049,48.9395
54.3945,48.8992
54.3832,48.8594
54.3713,48.8197
54.3578,48.7804
54.3434,48.7411
54.3284,48.7024
54.3124,48.6636
54.2953,48.6248
54.2772,48.5871
54.2586,48.5494
54.2385,48.5122
54.2183,48.4750
54.1966,48.4388
54.1744,48.4031
54.1517,48.3675
54.1274,48.3329
54.1031,48.2988
54.0772,48.2646
54.0509,48.2316
54.0240,48.1995
53.9961,48.1675
53.9677,48.1365
53.9382,48.1060
53.9083,48.0760
53.8778,48.0466
53.8463,48.0182
53.8137,47.9908
53.7811,47.9639
53.7476,47.9381
53.7134,47.9127
53.6788,47.8885
53.6432,47.8652
53.6070,47.8425
53.5703,47.8208
53.5331,47.7996
53.4954,47.7799
53.4571,47.7608
53.4179,47.7427
53.3781,47.7252
53.3378,47.7091
53.2964,47.6941
53.2551,47.6797
53.2127,47.6662
53.1698,47.6544
53.1259,47.6430
53.0820,47.6326
53.0370,47.6238
52.9915,47.6160
52.9450,47.6093
52.8985,47.6036
52.8510,47.5995
52.8029,47.5964
52.7544,47.5943
52.7053,47.5938
52.4386,47.5959
52.1983,47.6026
51.9818,47.6119
51.7854,47.6233
51.4356,47.6476
51.2759,47.6589
51.1219,47.6683
51.0449,47.6719
50.9684,47.6740
50.8914,47.6756
50.8144,47.6756
50.7369,47.6734
50.6584,47.6698
50.5793,47.6641
50.4982,47.6563
50.4155,47.6460
50.3318,47.6331
50.2476,47.6176
50.1623,47.5995
50.0755,47.5793
49.9871,47.5556
49.8962,47.5297
49.8031,47.5008
49.7447,47.4807
49.6869,47.4589
49.6290,47.4352
49.5706,47.4093
49.5132,47.3819
49.4553,47.3525
49.3980,47.3210
49.3411,47.2884
49.2843,47.2543
49.2280,47.2181
49.1722,47.1809
49.1164,47.1422
49.0616,47.1018
49.0068,47.0600
48.9525,47.0176
48.8993,46.9737
48.8451,46.9272
48.7908,46.8796
48.7371,46.8300
48.6838,46.7794
48.6311,46.7272
48.5784,46.6735
48.5267,46.6187
48.4750,46.5624
48.4239,46.5045
48.3738,46.4456
48.3236,46.3851
48.2745,46.3236
48.2265,46.2611
48.1784,46.1970
48.1314,46.1319
48.0854,46.0657
47.9939,45.9273
47.9066,45.7841
47.8229,45.6363
47.7428,45.4839
47.6678,45.3268
47.6317,45.2467
47.5971,45.1650
47.5640,45.0829
47.5319,44.9997
47.5015,44.9154
47.4720,44.8302
47.4172,44.6540
47.3686,44.4736
47.3263,44.2901
47.2911,44.1031
47.2767,44.0085
47.2632,43.9129
47.2524,43.8163
47.2431,43.7196
47.2359,43.6215
47.2307,43.5227
47.2276,43.4235
47.2266,43.3238
47.2276,43.2225
47.2307,43.1217
47.2436,42.9238
47.2643,42.7290
47.2922,42.5383
47.3273,42.3518
47.3697,42.1693
47.4177,41.9916
47.4720,41.8179
47.5330,41.6459
47.5986,41.4789
47.6699,41.3167
47.7454,41.1591
47.8249,41.0066
47.9087,40.8599
47.9955,40.7178
48.0854,40.5818
48.1324,40.5147
48.1800,40.4485
48.2280,40.3839
48.2771,40.3209
48.3763,40.1984
48.4781,40.0816
48.5815,39.9710
48.6864,39.8661
48.7923,39.7669
48.8993,39.6744
48.9536,39.6294
49.0083,39.5865
49.0636,39.5442
49.1194,39.5039
49.1753,39.4646
49.2316,39.4274
49.2884,39.3912
49.3453,39.3571
49.4021,39.3245
49.4595,39.2935
49.5168,39.2646
49.5742,39.2372
49.6315,39.2119
49.6889,39.1881
49.7463,39.1669
49.8036,39.1473
49.8982,39.1178
49.9897,39.0915
50.0785,39.0682
50.1654,39.0476
50.2506,39.0295
50.3343,39.0145
50.4165,39.0021
50.4982,38.9917
50.5798,38.9834
50.6604,38.9777
50.7395,38.9741
50.8175,38.9725
50.8945,38.9725
50.9705,38.9735
51.0464,38.9761
51.1219,38.9797
51.2785,38.9890
51.4392,39.0004
51.6071,39.0123
51.7859,39.0247
51.9854,39.0361
52.2035,39.0454
52.4422,39.0516
52.5704,39.0537
52.7053,39.0542
52.7554,39.0537
52.8050,39.0516
52.8536,39.0480
52.9016,39.0439
52.9486,39.0382
52.9952,39.0315
53.0406,39.0232
53.0856,39.0139
53.1300,39.0041
53.1734,38.9927
53.2158,38.9803
53.2582,38.9674
53.2990,38.9529
53.3393,38.9379
53.3791,38.9219
53.4179,38.9054
53.4576,38.8868
53.4969,38.8671
53.5357,38.8470
53.5734,38.8258
53.6101,38.8036
53.6468,38.7808
53.6824,38.7570
53.7171,38.7322
53.7512,38.7069
53.7847,38.6811
53.8168,38.6542
53.8488,38.6268
53.8798,38.5989
53.9103,38.5700
53.9393,38.5410
53.9682,38.5111
53.9977,38.4790
54.0261,38.4465
54.0535,38.4134
54.0798,38.3798
54.1057,38.3457
54.1305,38.3111
54.1543,38.2760
54.1775,38.2408
54.1992,38.2046
54.2204,38.1685
54.2411,38.1323
54.2602,38.0951
54.2788,38.0584
54.2964,38.0212
54.3129,37.9835
54.3284,37.9458
54.3439,37.9054
54.3584,37.8651
54.3718,37.8248
54.3847,37.7845
54.3961,37.7442
54.4064,37.7034
54.4157,37.6631
54.4240,37.6228
54.4312,37.5825
54.4374,37.5421
54.4431,37.5024
54.4472,37.4620
54.4508,37.4223
54.4529,37.3825
54.4545,37.3432
54.4550,37.3039
54.4545,37.2652
54.4529,37.2274
54.4498,37.1897
54.4457,37.1525
54.4410,37.1158
54.4353,37.0797
54.4281,37.0440
54.4203,37.0083
54.4115,36.9737
54.4022,36.9391
54.3919,36.9050
54.3811,36.8714
54.3692,36.8383
54.3568,36.8058
54.3299,36.7422
54.3144,36.7081
54.2978,36.6745
54.2813,36.6414
54.2637,36.6094
54.2462,36.5774
54.2276,36.5464
54.1898,36.4859
54.1506,36.4275
54.1108,36.3722
54.0705,36.3195
54.0297,36.2694
53.9821,36.2136
53.9361,36.1624
53.8917,36.1149
53.8498,36.0720
53.8095,36.0327
53.7718,35.9981
53.7051,35.9397
53.6519,35.8963
53.6137,35.8679
53.5909,35.8529
53.5739,35.8410
53.5573,35.8281
53.5418,35.8152
53.5263,35.8017
53.5119,35.7872
53.4979,35.7728
53.4840,35.7578
53.4711,35.7423
53.4592,35.7263
53.4473,35.7097
53.4364,35.6932
53.4261,35.6761
53.4163,35.6586
53.4070,35.6410
53.3987,35.6229
53.3909,35.6043
53.3837,35.5857
53.3770,35.5671
53.3713,35.5480
53.3661,35.5283
53.3579,35.4891
53.3553,35.4694
53.3527,35.4493
53.3511,35.4291
53.3506,35.4090
53.3506,35.3888
53.3511,35.3681
53.3527,35.3480
53.3553,35.3273
53.3584,35.3072
53.3620,35.2865
53.3666,35.2664
53.3718,35.2462
53.3847,35.2074
53.4002,35.1697
53.4183,35.1336
53.4390,35.0989
53.4617,35.0664
53.4870,35.0354
53.5144,35.0064
53.5439,34.9796
53.5754,34.9547
53.6085,34.9320
53.6436,34.9119
53.6798,34.8943
53.7175,34.8793
53.7568,34.8674
53.7769,34.8622
53.7971,34.8581
53.8239,34.8535
53.8508,34.8504
53.8777,34.8488
53.9051,34.8483
Z" /> 
<path style="fill:none; 
stroke:#D0D2CD; stroke-width:0.0529; stroke-opacity:1; 
stroke-linecap:round; stroke-linejoin:round;fill:none"
d="M 22.4200,13.4764
22.4796,13.4790
22.5390,13.4832
22.5983,13.4891
22.6574,13.4966
22.7163,13.5059
22.7749,13.5167
22.8332,13.5292
22.8911,13.5433
22.9486,13.5590
23.0056,13.5763
23.0621,13.5952
23.1181,13.6156
23.1734,13.6376
23.2282,13.6612
23.2823,13.6863
23.3357,13.7130
23.3882,13.7411
23.4400,13.7706
23.4909,13.8016
23.5409,13.8340
23.5900,13.8678
23.6382,13.9030
23.6853,13.9395
23.7314,13.9774
23.7764,14.0165
23.8203,14.0568
23.8630,14.0983
23.9045,14.1410
23.9448,14.1849
23.9839,14.2299
24.0218,14.2760
24.0583,14.3231
24.0935,14.3711
24.1273,14.4202
24.1597,14.4701
24.1907,14.5210
24.2202,14.5727
24.2483,14.6252
24.2750,14.6785
24.3001,14.7327
24.3237,14.7875
24.3457,14.8429
24.3662,14.8989
24.3850,14.9554
24.4023,15.0125
24.4180,15.0701
24.4321,15.1281
24.4445,15.1864
24.4553,15.2450
24.4645,15.3039
24.4720,15.3630
24.4778,15.4223
24.4820,15.4817
24.4845,15.5413
24.4853,15.6009
24.4841,15.6708
24.4807,15.7404
24.4750,15.8098
24.4670,15.8788
24.4568,15.9475
24.4444,16.0158
24.4297,16.0836
24.4129,16.1508
24.3939,16.2175
24.3726,16.2835
24.3493,16.3489
24.3238,16.4135
24.2961,16.4773
24.2664,16.5402
24.2345,16.6023
24.2006,16.6633
24.1647,16.7233
24.1269,16.7819
24.0872,16.8391
24.0458,16.8949
24.0026,16.9493
23.9577,17.0022
23.9111,17.0536
23.8629,17.1035
23.8131,17.1517
23.7617,17.1983
23.7088,17.2432
23.6544,17.2864
23.5986,17.3278
23.5413,17.3674
23.4827,17.4052
23.4228,17.4411
23.3618,17.4751
23.2997,17.5069
23.2368,17.5367
23.1730,17.5643
23.1084,17.5898
23.0431,17.6132
22.9770,17.6344
22.9103,17.6534
22.8431,17.6703
22.7753,17.6849
22.7070,17.6974
22.6383,17.7076
22.5692,17.7156
22.4999,17.7213
22.4302,17.7247
22.3604,17.7259
22.2905,17.7247
22.2209,17.7213
22.1515,17.7156
22.0824,17.7076
22.0137,17.6974
21.9454,17.6850
21.8776,17.6703
21.8104,17.6534
21.7437,17.6344
21.6777,17.6132
21.6123,17.5898
21.5477,17.5643
21.4839,17.5367
21.4210,17.5069
21.3590,17.4751
21.2979,17.4411
21.2380,17.4052
21.1794,17.3674
21.1222,17.3278
21.0663,17.2864
21.0119,17.2432
20.9590,17.1983
20.9077,17.1517
20.8578,17.1035
20.8096,17.0537
20.7630,17.0023
20.7181,16.9494
20.6749,16.8950
20.6335,16.8392
20.5939,16.7819
20.5561,16.7233
20.5202,16.6634
20.4862,16.6023
20.4544,16.5403
20.4246,16.4774
20.3970,16.4136
20.3715,16.3490
20.3481,16.2836
20.3269,16.2176
20.3079,16.1509
20.2910,16.0837
20.2763,16.0159
20.2639,15.9476
20.2537,15.8789
20.2457,15.8098
20.2400,15.7404
20.2366,15.6708
20.2354,15.6009
20.2366,15.5311
20.2400,15.4615
20.2457,15.3921
20.2537,15.3231
20.2639,15.2544
20.2763,15.1861
20.2910,15.1183
20.3078,15.0511
20.3269,14.9844
20.3481,14.9183
20.3714,14.8530
20.3969,14.7884
20.4246,14.7246
20.4543,14.6617
20.4862,14.5996
20.5201,14.5386
20.5560,14.4786
20.5938,14.4200
20.6334,14.3627
20.6749,14.3068
20.7181,14.2524
20.7630,14.1994
20.8095,14.1480
20.8578,14.0982
20.9076,14.0499
20.9590,14.0033
21.0119,13.9583
21.0663,13.9151
21.1221,13.8737
21.1794,13.8340
21.2380,13.7962
21.2979,13.7602
21.3590,13.7263
21.4210,13.6944
21.4839,13.6647
21.5477,13.6371
21.6123,13.6115
21.6777,13.5882
21.7437,13.5670
21.8104,13.5479
21.8776,13.5311
21.9454,13.5164
22.0137,13.5040
22.0824,13.4938
22.1515,13.4858
22.2209,13.4801
22.2905,13.4767
22.3604,13.4755
22.3604,13.4755
Z" /> 
</g>
<g style="fill:none; 
stroke:#D0D2CD; stroke-width:0.0100; stroke-opacity:1; 
stroke-linecap:round; stroke-linejoin:round;">
<circle cx="46.3200" cy="78.5964" r="0.2700" /> 
<circle cx="46.3200" cy="86.0964" r="0.2700" /> 
</g>
<g style="fill:none; 
stroke:#D0D2CD; stroke-width:0.1000; stroke-opacity:1; 
stroke-linecap:round; stroke-linejoin:round;">
<circle cx="59.0700" cy="79.6014" r="2.0616" /> 
<path style="fill:none; 
stroke:#D0D2CD; stroke-width:0.0529; stroke-opacity:1; 
stroke-linecap:round; stroke-linejoin:round;fill:none"
d="M 96.5996,91.3160
54.7588,91.2969
54.7588,83.1444
54.7583,83.1186
54.7562,83.0933
54.7531,83.0680
54.7484,83.0432
54.7427,83.0194
54.7360,82.9951
54.7282,82.9724
54.7194,82.9497
54.7091,82.9275
54.6982,82.9058
54.6863,82.8846
54.6734,82.8644
54.6595,82.8448
54.6445,82.8262
54.6290,82.8081
54.6124,82.7905
54.5949,82.7740
54.5768,82.7585
54.5577,82.7435
54.5385,82.7296
54.5179,82.7167
54.4972,82.7048
54.4755,82.6940
54.4533,82.6837
54.4305,82.6747
54.4073,82.6667
54.3835,82.6597
54.3592,82.6537
54.3349,82.6497
54.3096,82.6467
54.2843,82.6447
54.2585,82.6442
54.1587,82.6442
54.1329,82.6447
54.1076,82.6467
54.0822,82.6497
54.0574,82.6537
54.0332,82.6597
54.0094,82.6667
53.9861,82.6747
53.9634,82.6837
53.9412,82.6940
53.9200,82.7048
53.8988,82.7167
53.8786,82.7296
53.8590,82.7435
53.8399,82.7585
53.8218,82.7740
53.8047,82.7905
53.7882,82.8081
53.7722,82.8262
53.7577,82.8448
53.7438,82.8644
53.7308,82.8846
53.7184,82.9058
53.7076,82.9275
53.6978,82.9497
53.6885,82.9724
53.6807,82.9951
53.6740,83.0194
53.6683,83.0432
53.6642,83.0680
53.6611,83.0933
53.6590,83.1186
53.6585,83.1444
53.6585,91.2969
44.1666,91.2969
44.1666,89.5549
44.1661,89.5353
44.1645,89.5156
44.1619,89.4965
44.1588,89.4774
44.1547,89.4588
44.1500,89.4407
44.1443,89.4226
44.1376,89.4050
44.1298,89.3880
44.1220,89.3716
44.1132,89.3551
44.1034,89.3396
44.0931,89.3241
44.0822,89.3096
44.0709,89.2951
44.0585,89.2817
44.0455,89.2688
44.0321,89.2559
44.0182,89.2440
44.0032,89.2331
43.9882,89.2222
43.9727,89.2122
43.9566,89.2032
43.9401,89.1952
43.9231,89.1872
43.9060,89.1802
43.8879,89.1742
43.8698,89.1692
43.8517,89.1652
43.8326,89.1612
43.8135,89.1582
43.7939,89.1562
43.7939,89.1542
39.4344,89.1542
39.4344,88.1501
39.4339,88.1294
39.4324,88.1087
39.4298,88.0885
39.4262,88.0689
39.4215,88.0498
39.4163,88.0307
39.4101,88.0121
39.4029,87.9940
39.3946,87.9764
39.3858,87.9588
39.3765,87.9423
39.3662,87.9258
39.3548,87.9103
39.3429,87.8953
39.3305,87.8808
39.3171,87.8668
39.3031,87.8534
39.2887,87.8410
39.2737,87.8291
39.2582,87.8182
39.2416,87.8073
39.2251,87.7973
39.2080,87.7883
39.1900,87.7803
39.1719,87.7733
39.1533,87.7673
39.1341,87.7623
39.1150,87.7583
39.0954,87.7543
39.0752,87.7523
39.0551,87.7503
39.0339,87.7498
35.4336,87.7498
35.4134,87.7503
35.3928,87.7523
35.3726,87.7543
35.3530,87.7583
35.3339,87.7623
35.3147,87.7673
35.2961,87.7733
35.2781,87.7803
35.2600,87.7883
35.2429,87.7973
35.2264,87.8073
35.2098,87.8182
35.1943,87.8291
35.1793,87.8410
35.1649,87.8534
35.1509,87.8668
35.1375,87.8808
35.1251,87.8953
35.1132,87.9103
35.1018,87.9258
35.0915,87.9423
35.0822,87.9588
35.0734,87.9764
35.0651,87.9940
35.0579,88.0121
35.0517,88.0307
35.0465,88.0498
35.0418,88.0689
35.0387,88.0885
35.0356,88.1087
35.0346,88.1294
35.0341,88.1501
35.0341,89.1542
26.6936,89.1542
26.6936,88.1501
26.6931,88.1294
26.6915,88.1087
26.6889,88.0885
26.6853,88.0689
26.6806,88.0498
26.6754,88.0307
26.6692,88.0121
26.6620,87.9940
26.6542,87.9764
26.6454,87.9588
26.6356,87.9423
26.6253,87.9258
26.6139,87.9103
26.6020,87.8953
26.5896,87.8808
26.5762,87.8668
26.5622,87.8534
26.5477,87.8410
26.5328,87.8291
26.5173,87.8182
26.5007,87.8073
26.4842,87.7973
26.4671,87.7883
26.4490,87.7803
26.4309,87.7733
26.4123,87.7673
26.3932,87.7623
26.3741,87.7583
26.3545,87.7543
26.3343,87.7523
26.3142,87.7503
26.2935,87.7498
22.6932,87.7498
22.6730,87.7503
22.6524,87.7523
22.6322,87.7543
22.6126,87.7583
22.5935,87.7623
22.5743,87.7673
22.5557,87.7733
22.5377,87.7803
22.5196,87.7883
22.5025,87.7973
22.4860,87.8073
22.4694,87.8182
22.4539,87.8291
22.4389,87.8410
22.4245,87.8534
22.4105,87.8668
22.3971,87.8808
22.3847,87.8953
22.3728,87.9103
22.3614,87.9258
22.3511,87.9423
22.3418,87.9588
22.3330,87.9764
22.3247,87.9940
22.3175,88.0121
22.3113,88.0307
22.3061,88.0498
22.3014,88.0689
22.2978,88.0885
22.2957,88.1087
22.2942,88.1294
22.2937,88.1501
22.2937,89.1542
14.0342,89.1542
14.0342,88.1543
14.0337,88.1336
14.0322,88.1129
14.0296,88.0933
14.0260,88.0730
14.0213,88.0539
14.0162,88.0348
14.0100,88.0162
14.0027,87.9981
13.9945,87.9800
13.9857,87.9629
13.9764,87.9464
13.9660,87.9300
13.9547,87.9144
13.9428,87.8994
13.9304,87.8850
13.9169,87.8711
13.9030,87.8577
13.8885,87.8452
13.8735,87.8333
13.8580,87.8225
13.8415,87.8116
13.8250,87.8017
13.8079,87.7927
13.7898,87.7847
13.7717,87.7777
13.7531,87.7717
13.7340,87.7667
13.7149,87.7627
13.6952,87.7587
13.6751,87.7556
13.6549,87.7546
13.6338,87.7541
10.0336,87.7541
10.0134,87.7546
9.9927,87.7556
9.9726,87.7587
9.9529,87.7627
9.9338,87.7667
9.9147,87.7717
9.8961,87.7777
9.8780,87.7847
9.8599,87.7927
9.8429,87.8017
9.8263,87.8116
9.8098,87.8225
9.7943,87.8333
9.7793,87.8452
9.7648,87.8577
9.7509,87.8711
9.7374,87.8850
9.7250,87.8994
9.7132,87.9144
9.7018,87.9300
9.6915,87.9464
9.6822,87.9629
9.6734,87.9800
9.6651,87.9981
9.6579,88.0162
9.6517,88.0348
9.6465,88.0539
9.6418,88.0730
9.6387,88.0933
9.6356,88.1129
9.6346,88.1336
9.6341,88.1543
9.6341,89.1542
5.3005,89.1542
5.3005,43.0507
8.3603,43.0507
8.4151,43.0500
8.4697,43.0479
8.5238,43.0445
8.5776,43.0396
8.6310,43.0335
8.6840,43.0260
8.7366,43.0173
8.7887,43.0073
8.8403,42.9961
8.8915,42.9836
8.9422,42.9698
8.9924,42.9549
9.0420,42.9387
9.0911,42.9214
9.1397,42.9029
9.1876,42.8833
9.2350,42.8626
9.2817,42.8408
9.3278,42.8178
9.3732,42.7939
9.4180,42.7688
9.4621,42.7427
9.5056,42.7156
9.5483,42.6874
9.5904,42.6583
9.6317,42.6282
9.6722,42.5971
9.7120,42.5651
9.7510,42.5322
9.7892,42.4984
9.8265,42.4636
9.8630,42.4280
9.8986,42.3916
9.9334,42.3543
9.9672,42.3162
10.0001,42.2773
10.0321,42.2376
10.0632,42.1971
10.0933,42.1558
10.1224,42.1138
10.1506,42.0711
10.1777,42.0276
10.2038,41.9834
10.2288,41.9385
10.2528,41.8930
10.2758,41.8468
10.2976,41.8000
10.3183,41.7526
10.3379,41.7046
10.3564,41.6561
10.3737,41.6070
10.3899,41.5573
10.4048,41.5072
10.4186,41.4565
10.4311,41.4053
10.4423,41.3537
10.4523,41.3016
10.4610,41.2490
10.4683,41.1960
10.4744,41.1426
10.4791,41.0888
10.4825,41.0346
10.4845,40.9801
10.4852,40.9253
10.4845,40.8704
10.4825,40.8160
10.4791,40.7619
10.4744,40.7082
10.4683,40.6549
10.4610,40.6020
10.4523,40.5495
10.4423,40.4974
10.4311,40.4457
10.4186,40.3946
10.4048,40.3439
10.3899,40.2937
10.3737,40.2441
10.3564,40.1950
10.3379,40.1464
10.3183,40.0984
10.2976,40.0511
10.2758,40.0043
10.2528,39.9581
10.2288,39.9126
10.2038,39.8677
10.1777,39.8235
10.1506,39.7800
10.1224,39.7372
10.0933,39.6952
10.0632,39.6540
10.0321,39.6135
10.0001,39.5738
9.9672,39.5349
9.9334,39.4968
9.8986,39.4595
9.8630,39.4230
9.8265,39.3874
9.7892,39.3527
9.7510,39.3189
9.7120,39.2859
9.6722,39.2539
9.6317,39.2229
9.5904,39.1928
9.5483,39.1636
9.5056,39.1355
9.4621,39.1084
9.4180,39.0823
9.3732,39.0572
9.3278,39.0332
9.2817,39.0103
9.2350,38.9885
9.1876,38.9678
9.1397,38.9482
9.0911,38.9297
9.0420,38.9124
8.9924,38.8962
8.9422,38.8813
8.8915,38.8675
8.8403,38.8550
8.7887,38.8437
8.7366,38.8337
8.6840,38.8250
8.6310,38.8176
8.5776,38.8114
8.5238,38.8066
8.4697,38.8031
8.4151,38.8010
8.3603,38.8003
5.3005,38.8003
5.3005,0.0381
50.4209,0.0381
50.4209,13.7096
50.4214,13.7354
50.4235,13.7607
50.4266,13.7861
50.4307,13.8103
50.4364,13.8346
50.4431,13.8584
50.4509,13.8817
50.4602,13.9044
50.4700,13.9266
50.4809,13.9483
50.4933,13.9690
50.5062,13.9891
50.5201,14.0088
50.5346,14.0279
50.5506,14.0460
50.5672,14.0630
50.5842,14.0796
50.6023,14.0956
50.6214,14.1101
50.6411,14.1240
50.6612,14.1369
50.6824,14.1493
50.7041,14.1602
50.7258,14.1700
50.7486,14.1788
50.7718,14.1871
50.7956,14.1938
50.8199,14.1990
50.8447,14.2037
50.8700,14.2068
50.8952,14.2089
50.9212,14.2094
51.0209,14.2094
51.0467,14.2089
51.0720,14.2068
51.0968,14.2037
51.1216,14.1990
51.1458,14.1938
51.1696,14.1871
51.1929,14.1788
51.2157,14.1700
51.2379,14.1602
51.2596,14.1493
51.2803,14.1369
51.3010,14.1240
51.3206,14.1101
51.3392,14.0956
51.3573,14.0796
51.3749,14.0630
51.3914,14.0460
51.4069,14.0279
51.4218,14.0088
51.4358,13.9891
51.4488,13.9690
51.4607,13.9483
51.4715,13.9266
51.4818,13.9044
51.4906,13.8817
51.4984,13.8584
51.5051,13.8346
51.5108,13.8103
51.5155,13.7861
51.5186,13.7607
51.5208,13.7354
51.5213,13.7096
51.5213,0.0381
96.5596,0.0265
Z" /> 
<path style="fill:none; 
stroke:#D0D2CD; stroke-width:0.0529; stroke-opacity:1; 
stroke-linecap:round; stroke-linejoin:round;fill:none"
d="M 53.9318,34.8500
53.9582,34.8521
53.9851,34.8552
54.0114,34.8604
54.0373,34.8661
54.0631,34.8733
54.0889,34.8821
54.1137,34.8919
54.1385,34.9027
54.1623,34.9151
54.1861,34.9286
54.2088,34.9436
54.2290,34.9565
54.2708,34.9849
54.2993,35.0050
54.3323,35.0298
54.3700,35.0593
54.4119,35.0939
54.4579,35.1332
54.5080,35.1776
54.5612,35.2278
54.6181,35.2831
54.6785,35.3446
54.7416,35.4123
54.8072,35.4862
54.8408,35.5254
54.8754,35.5662
54.9338,35.6381
54.9927,35.7156
55.0527,35.7983
55.0826,35.8422
55.1126,35.8872
55.1421,35.9337
55.1710,35.9812
55.1999,36.0303
55.2284,36.0804
55.2558,36.1321
55.2831,36.1853
55.3095,36.2396
55.3348,36.2954
55.3581,36.3486
55.3803,36.4029
55.4015,36.4592
55.4216,36.5166
55.4413,36.5750
55.4593,36.6349
55.4759,36.6964
55.4919,36.7584
55.5059,36.8225
55.5183,36.8876
55.5291,36.9543
55.5379,37.0215
55.5451,37.0907
55.5508,37.1605
55.5539,37.2318
55.5549,37.3046
55.5544,37.3708
55.5518,37.4364
55.5477,37.5031
55.5420,37.5692
55.5348,37.6354
55.5260,37.7015
55.5157,37.7677
55.5038,37.8338
55.4898,37.9000
55.4743,37.9661
55.4578,38.0317
55.4392,38.0974
55.4190,38.1625
55.3973,38.2276
55.3736,38.2922
55.3488,38.3568
55.3234,38.4173
55.2971,38.4772
55.2692,38.5371
55.2392,38.5966
55.2082,38.6555
55.1757,38.7139
55.1421,38.7723
55.1064,38.8296
55.0697,38.8865
55.0310,38.9423
54.9912,38.9981
54.9498,39.0529
54.9069,39.1071
54.8630,39.1603
54.8170,39.2125
54.7700,39.2642
54.7235,39.3123
54.6759,39.3598
54.6268,39.4063
54.5762,39.4523
54.5245,39.4968
54.4713,39.5402
54.4170,39.5831
54.3612,39.6244
54.3039,39.6647
54.2455,39.7035
54.1855,39.7412
54.1246,39.7779
54.0620,39.8130
53.9985,39.8466
53.9334,39.8786
53.8672,39.9096
53.8026,39.9376
53.7365,39.9639
53.6693,39.9892
53.6011,40.0125
53.5318,40.0342
53.4615,40.0543
53.3902,40.0729
53.3179,40.0895
53.2450,40.1045
53.1706,40.1174
53.0952,40.1287
53.0192,40.1380
52.9417,40.1452
52.8637,40.1504
52.7851,40.1535
52.7050,40.1545
52.4224,40.1519
52.1650,40.1452
51.9309,40.1354
51.7165,40.1236
51.3584,40.0982
51.2044,40.0874
51.0653,40.0791
51.0028,40.0760
50.9429,40.0739
50.8860,40.0729
50.8308,40.0729
50.7770,40.0739
50.7243,40.0765
50.6721,40.0801
50.6199,40.0853
50.5693,40.0915
50.5166,40.0998
50.4618,40.1096
50.4044,40.1220
50.3440,40.1359
50.2804,40.1530
50.2127,40.1726
50.1414,40.1949
50.1151,40.2037
50.0882,40.2140
50.0598,40.2259
50.0303,40.2388
49.9993,40.2533
49.9678,40.2693
49.9352,40.2874
49.9016,40.3065
49.8675,40.3272
49.8324,40.3494
49.7962,40.3732
49.7595,40.3990
49.7218,40.4264
49.6836,40.4553
49.6448,40.4858
49.6050,40.5184
49.5668,40.5509
49.5280,40.5855
49.4893,40.6207
49.4505,40.6579
49.4112,40.6961
49.3725,40.7359
49.3337,40.7767
49.2949,40.8191
49.2562,40.8625
49.2179,40.9075
49.1797,40.9535
49.1415,41.0010
49.1037,41.0496
49.0665,41.0997
49.0299,41.1509
48.9932,41.2036
48.9234,41.3095
48.8557,41.4201
48.7906,41.5343
48.7286,41.6532
48.6697,41.7756
48.6413,41.8382
48.6144,41.9017
48.5880,41.9663
48.5627,42.0314
48.5389,42.0981
48.5157,42.1653
48.4738,42.2996
48.4366,42.4371
48.4041,42.5777
48.3772,42.7218
48.3653,42.7947
48.3555,42.8681
48.3467,42.9425
48.3395,43.0174
48.3338,43.0934
48.3297,43.1699
48.3276,43.2469
48.3266,43.3244
48.3276,43.4008
48.3297,43.4768
48.3395,43.6277
48.3550,43.7760
48.3762,43.9223
48.4031,44.0664
48.4356,44.2080
48.4733,44.3470
48.5157,44.4835
48.5622,44.6152
48.6129,44.7439
48.6681,44.8695
48.7265,44.9919
48.7886,45.1108
48.8537,45.2260
48.9224,45.3377
48.9932,45.4457
49.0294,45.4973
49.0655,45.5480
49.1399,45.6457
49.2154,45.7387
49.2924,45.8270
49.3699,45.9108
49.4485,45.9893
49.5265,46.0627
49.6050,46.1309
49.6443,46.1629
49.6825,46.1934
49.7203,46.2219
49.7575,46.2492
49.7942,46.2746
49.8303,46.2983
49.8650,46.3205
49.8996,46.3412
49.9332,46.3603
49.9657,46.3784
49.9972,46.3944
50.0282,46.4094
50.0582,46.4229
50.0872,46.4348
50.1145,46.4451
50.1414,46.4544
50.2122,46.4761
50.2789,46.4957
50.3419,46.5123
50.4024,46.5268
50.4597,46.5386
50.5150,46.5484
50.5683,46.5567
50.6199,46.5634
50.6711,46.5686
50.7228,46.5722
50.7750,46.5748
50.8287,46.5758
50.8840,46.5758
50.9414,46.5748
51.0018,46.5727
51.0654,46.5701
51.2023,46.5618
51.3553,46.5510
51.5258,46.5386
51.7160,46.5257
51.9263,46.5138
52.1599,46.5040
52.4183,46.4973
52.5583,46.4952
52.7051,46.4947
52.7836,46.4957
52.8611,46.4988
52.9381,46.5035
53.0141,46.5107
53.0895,46.5195
53.1645,46.5303
53.2384,46.5432
53.3117,46.5577
53.3841,46.5742
53.4554,46.5923
53.5262,46.6125
53.5965,46.6342
53.6652,46.6580
53.7334,46.6833
53.8011,46.7101
53.8673,46.7391
53.9324,46.7691
53.9959,46.8006
54.0585,46.8336
54.1205,46.8683
54.1809,46.9039
54.2404,46.9416
54.2982,46.9799
54.3556,47.0202
54.4114,47.0615
54.4662,47.1039
54.5199,47.1478
54.5726,47.1928
54.6238,47.2393
54.6739,47.2863
54.7225,47.3349
54.7700,47.3845
54.8160,47.4346
54.8610,47.4858
54.9044,47.5380
54.9463,47.5912
54.9876,47.6455
55.0269,47.7002
55.0651,47.7560
55.1023,47.8124
55.1380,47.8703
55.1721,47.9281
55.2052,47.9870
55.2367,48.0470
55.2666,48.1069
55.2951,48.1679
55.3225,48.2294
55.3483,48.2919
55.3726,48.3545
55.3953,48.4175
55.4170,48.4811
55.4367,48.5451
55.4553,48.6097
55.4723,48.6749
55.4878,48.7405
55.5018,48.8061
55.5142,48.8728
55.5245,48.9394
55.5338,49.0061
55.5416,49.0733
55.5473,49.1410
55.5514,49.2087
55.5540,49.2764
55.5550,49.3446
55.5586,51.3052
55.5550,53.4058
55.5540,53.4735
55.5514,53.5417
55.5473,53.6094
55.5416,53.6766
55.5338,53.7438
55.5250,53.8105
55.5142,53.8771
55.5018,53.9433
55.4883,54.0094
55.4728,54.0750
55.4558,54.1402
55.4372,54.2047
55.4175,54.2688
55.3958,54.3324
55.3731,54.3954
55.3488,54.4580
55.3230,54.5200
55.2956,54.5815
55.2671,54.6424
55.2367,54.7029
55.2051,54.7623
55.1726,54.8212
55.1380,54.8796
55.1023,54.9370
55.0656,54.9938
55.0274,55.0496
54.9876,55.1044
54.9468,55.1582
54.9044,55.2114
54.8610,55.2636
54.8160,55.3147
54.7700,55.3654
54.7225,55.4145
54.6739,55.4630
54.6238,55.5106
54.5726,55.5566
54.5199,55.6015
54.4662,55.6455
54.4114,55.6878
54.3556,55.7292
54.2987,55.7695
54.2404,55.8082
54.1809,55.8454
54.1205,55.8816
54.0585,55.9157
53.9959,55.9493
53.9324,55.9803
53.8673,56.0108
53.8011,56.0392
53.7339,56.0666
53.6657,56.0914
53.5965,56.1152
53.5267,56.1374
53.4559,56.1571
53.3841,56.1757
53.3117,56.1922
53.2384,56.2067
53.1645,56.2196
53.0895,56.2304
53.0141,56.2392
52.9381,56.2464
52.8611,56.2516
52.7836,56.2547
52.7051,56.2557
52.4188,56.2531
52.1599,56.2464
51.9268,56.2366
51.7165,56.2248
51.3553,56.1994
51.2023,56.1886
51.0654,56.1803
51.0018,56.1772
50.9414,56.1751
50.8840,56.1741
50.8287,56.1741
50.7750,56.1751
50.7228,56.1777
50.6711,56.1813
50.6199,56.1865
50.5683,56.1927
50.5150,56.2010
50.4597,56.2113
50.4024,56.2232
50.3419,56.2377
50.2789,56.2547
50.2122,56.2738
50.1414,56.2961
50.1145,56.3049
50.0872,56.3157
50.0582,56.3276
50.0282,56.3410
49.9978,56.3555
49.9657,56.3720
49.9332,56.3896
49.8996,56.4087
49.8655,56.4294
49.8303,56.4521
49.7941,56.4759
49.7575,56.5012
49.7202,56.5281
49.6825,56.5570
49.6443,56.5875
49.6050,56.6196
49.5658,56.6526
49.5270,56.6873
49.4877,56.7234
49.4485,56.7606
49.4092,56.7994
49.3704,56.8392
49.3312,56.8805
49.2924,56.9229
49.2542,56.9663
49.2159,57.0113
49.1777,57.0573
49.1400,57.1043
49.1028,57.1529
49.0655,57.2025
49.0294,57.2531
48.9932,57.3048
48.9224,57.4123
48.8537,57.5239
48.7886,57.6391
48.7266,57.7580
48.6682,57.8800
48.6403,57.9425
48.6129,58.0055
48.5870,58.0696
48.5622,58.1347
48.5384,58.1998
48.5157,58.2665
48.4733,58.4029
48.4356,58.5419
48.4031,58.6835
48.3762,58.8272
48.3550,58.9734
48.3462,59.0473
48.3395,59.1222
48.3338,59.1972
48.3297,59.2726
48.3276,59.3491
48.3266,59.4256
48.3276,59.5031
48.3297,59.5801
48.3395,59.7320
48.3555,59.8814
48.3772,60.0276
48.4041,60.1718
48.4367,60.3123
48.4739,60.4503
48.5157,60.5847
48.5628,60.7180
48.6144,60.8477
48.6697,60.9743
48.7281,61.0968
48.7906,61.2156
48.8558,61.3298
48.9235,61.4404
48.9932,61.5469
49.0299,61.5991
49.0666,61.6502
49.1038,61.7004
49.1415,61.7489
49.2180,61.8425
49.2950,61.9313
49.3725,62.0145
49.4500,62.0926
49.5281,62.1649
49.6051,62.2321
49.6448,62.2647
49.6836,62.2952
49.7218,62.3241
49.7596,62.3515
49.7963,62.3768
49.8324,62.4011
49.8676,62.4233
49.9017,62.4440
49.9353,62.4631
49.9678,62.4807
49.9993,62.4967
50.0298,62.5112
50.0593,62.5246
50.0882,62.5360
50.1151,62.5463
50.1415,62.5556
50.2128,62.5778
50.2805,62.5969
50.3440,62.6140
50.4045,62.6279
50.4618,62.6403
50.5166,62.6501
50.5693,62.6579
50.6200,62.6646
50.6722,62.6698
50.7244,62.6734
50.7771,62.6760
50.8308,62.6770
50.8861,62.6770
50.9429,62.6760
51.0029,62.6739
51.0654,62.6713
51.2044,62.6625
51.3584,62.6517
51.5289,62.6393
51.7165,62.6269
51.9305,62.6145
52.1646,62.6047
52.4219,62.5980
52.5599,62.5959
52.7051,62.5954
52.7847,62.5964
52.8637,62.5995
52.9418,62.6047
53.0188,62.6119
53.0947,62.6212
53.1702,62.6320
53.2446,62.6449
53.3179,62.6599
53.3903,62.6765
53.4616,62.6951
53.5319,62.7152
53.6011,62.7369
53.6693,62.7602
53.7360,62.7855
53.8022,62.8119
53.8673,62.8403
53.9334,62.8708
53.9985,62.9028
54.0621,62.9364
54.1241,62.9715
54.1856,63.0082
54.2450,63.0459
54.3034,63.0847
54.3608,63.1250
54.4166,63.1664
54.4714,63.2093
54.5246,63.2527
54.5763,63.2976
54.6269,63.3431
54.6760,63.3896
54.7235,63.4372
54.7701,63.4857
54.8171,63.5369
54.8626,63.5891
54.9070,63.6423
54.9499,63.6966
54.9907,63.7514
55.0310,63.8066
55.0693,63.8630
55.1059,63.9198
55.1416,63.9772
55.1757,64.0350
55.2083,64.0934
55.2393,64.1529
55.2687,64.2123
55.2972,64.2722
55.3235,64.3322
55.3488,64.3931
55.3736,64.4572
55.3974,64.5218
55.4191,64.5869
55.4393,64.6520
55.4573,64.7171
55.4744,64.7833
55.4899,64.8489
55.5033,64.9151
55.5157,64.9812
55.5261,65.0474
55.5349,65.1140
55.5421,65.1802
55.5478,65.2468
55.5519,65.3130
55.5545,65.3796
55.5550,65.4458
55.5545,65.5135
55.5519,65.5801
55.5483,65.6463
55.5431,65.7114
55.5291,65.8380
55.5105,65.9615
55.4873,66.0803
55.4599,66.1956
55.4294,66.3067
55.3958,66.4137
55.3570,66.5232
55.3152,66.6292
55.2707,66.7310
55.2247,66.8281
55.1772,66.9211
55.1291,67.0095
55.0795,67.0937
55.0304,67.1738
54.9767,67.2560
54.9224,67.3345
54.8687,67.4090
54.8155,67.4792
54.7633,67.5454
54.7126,67.6074
54.6641,67.6648
54.6176,67.7180
54.5690,67.7717
54.5230,67.8213
54.4796,67.8673
54.4393,67.9087
54.4005,67.9479
54.3649,67.9836
54.3075,68.0404
54.2910,68.0565
54.2729,68.0740
54.2336,68.1117
54.1370,68.2032
54.0775,68.2600
54.0155,68.3205
53.9504,68.3846
53.8822,68.4528
53.7876,68.5484
53.6936,68.6461
53.6001,68.7453
53.5081,68.8455
53.4383,68.9231
53.3706,69.0001
53.3050,69.0771
53.2414,69.1530
53.1474,69.2693
53.0606,69.3809
52.9810,69.4889
52.9076,69.5928
52.8415,69.6920
52.7810,69.7876
52.7267,69.8785
52.6787,69.9659
52.6513,70.0186
52.6260,70.0697
52.6027,70.1188
52.5820,70.1659
52.5634,70.2113
52.5469,70.2547
52.5319,70.2966
52.5190,70.3364
52.5061,70.3798
52.4957,70.4206
52.4869,70.4594
52.4802,70.4961
52.4750,70.5302
52.4714,70.5627
52.4693,70.5927
52.4688,70.6211
52.4678,70.9183
52.4647,71.2449
52.4523,72.0402
52.4425,72.5492
52.4255,73.5408
52.4193,74.0767
52.4167,74.6126
52.4172,74.6348
52.4177,74.6570
52.4193,74.6787
52.4209,74.7004
52.4235,74.7221
52.4261,74.7438
52.4297,74.7645
52.4333,74.7857
52.4380,74.8063
52.4427,74.8270
52.4484,74.8477
52.4541,74.8683
52.4603,74.8890
52.4670,74.9092
52.4820,74.9500
52.4908,74.9712
52.4996,74.9924
52.5192,75.0352
52.5409,75.0787
52.5652,75.1226
52.5921,75.1675
52.6205,75.2130
52.6515,75.2595
52.6851,75.3071
52.7218,75.3572
52.7606,75.4073
52.8014,75.4585
52.8438,75.5102
52.8882,75.5624
52.9337,75.6156
53.0303,75.7251
53.2468,75.9649
53.3590,76.0905
53.4721,76.2192
53.6101,76.3819
53.7408,76.5442
53.8638,76.7070
53.9227,76.7892
53.9801,76.8718
54.0354,76.9550
54.0891,77.0393
54.1408,77.1245
54.1455,77.1318
54.1567,77.1497
54.1634,77.1607
54.1700,77.1720
54.1761,77.1830
54.1811,77.1927
54.2044,77.2486
54.2202,77.3030
54.2291,77.3559
54.2315,77.4071
54.2277,77.4566
54.2180,77.5042
54.2031,77.5498
54.1831,77.5934
54.1585,77.6348
54.1297,77.6740
54.0972,77.7108
54.0612,77.7451
54.0222,77.7768
53.9806,77.8059
53.9368,77.8322
53.8911,77.8556
53.8441,77.8760
53.7960,77.8934
53.7472,77.9075
53.6982,77.9184
53.6494,77.9259
53.6010,77.9299
53.5537,77.9302
53.5077,77.9269
53.4634,77.9198
53.4212,77.9088
53.3815,77.8938
53.3448,77.8746
53.3114,77.8513
53.2817,77.8236
53.2561,77.7916
53.2349,77.7550
53.2326,77.7504
53.2300,77.7454
53.2241,77.7347
53.2177,77.7235
53.2113,77.7127
53.2006,77.6950
53.1962,77.6878
53.1559,77.6211
53.1135,77.5550
53.0691,77.4883
53.0231,77.4222
52.9750,77.3550
52.8727,77.2196
52.7616,77.0817
52.6412,76.9395
52.5373,76.8217
52.4303,76.7024
52.2097,76.4579
52.1048,76.3386
52.0515,76.2771
51.9983,76.2140
51.9456,76.1494
51.8934,76.0843
51.8423,76.0177
51.7926,75.9505
51.7451,75.8828
51.6986,75.8130
51.6531,75.7417
51.6097,75.6678
51.5678,75.5918
51.5477,75.5526
51.5281,75.5133
51.5095,75.4730
51.4914,75.4327
51.4738,75.3913
51.4567,75.3495
51.4407,75.3071
51.4257,75.2642
51.4113,75.2208
51.3978,75.1769
51.3854,75.1324
51.3741,75.0880
51.3637,75.0425
51.3539,74.9970
51.3456,74.9505
51.3384,74.9040
51.3317,74.8565
51.3265,74.8089
51.3224,74.7604
51.3198,74.7118
51.3177,74.6622
51.3172,74.6126
51.3198,74.0684
51.3260,73.5253
51.3431,72.5285
51.3529,72.0200
51.3653,71.2319
51.3689,70.6211
51.3694,70.5829
51.3704,70.5451
51.3756,70.4687
51.3839,70.3922
51.3947,70.3157
51.4092,70.2392
51.4262,70.1628
51.4459,70.0858
51.4686,70.0093
51.4908,69.9416
51.5151,69.8734
51.5415,69.8041
51.5704,69.7344
51.6014,69.6641
51.6345,69.5928
51.6702,69.5209
51.7079,69.4481
51.7720,69.3318
51.8422,69.2135
51.9187,69.0931
52.0009,68.9696
52.0897,68.8440
52.1843,68.7163
52.2856,68.5856
52.3931,68.4528
52.4654,68.3660
52.5398,68.2797
52.6158,68.1929
52.6933,68.1065
52.7951,67.9954
52.8980,67.8869
53.0008,67.7799
53.1036,67.6761
53.1775,67.6027
53.2473,67.5335
53.3139,67.4689
53.3765,67.4089
53.4741,67.3154
53.5103,67.2808
53.5243,67.2678
53.5356,67.2565
53.5909,67.2022
53.6214,67.1717
53.6540,67.1387
53.6865,67.1051
53.7212,67.0684
53.7578,67.0296
53.7764,67.0090
53.7956,66.9878
53.8317,66.9464
53.8684,66.9030
53.9067,66.8560
53.9454,66.8069
53.9847,66.7552
54.0240,66.7004
54.0632,66.6436
54.1020,66.5842
54.1371,66.5273
54.1718,66.4679
54.2053,66.4064
54.2379,66.3423
54.2694,66.2762
54.2989,66.2080
54.3133,66.1728
54.3268,66.1372
54.3402,66.1015
54.3526,66.0648
54.3743,65.9951
54.3945,65.9232
54.4120,65.8493
54.4198,65.8116
54.4265,65.7734
54.4332,65.7341
54.4389,65.6943
54.4436,65.6545
54.4477,65.6137
54.4508,65.5729
54.4529,65.5310
54.4545,65.4887
54.4551,65.4458
54.4545,65.4065
54.4529,65.3667
54.4508,65.3269
54.4472,65.2871
54.4431,65.2468
54.4374,65.2065
54.4312,65.1662
54.4240,65.1259
54.4157,65.0856
54.4059,65.0453
54.3956,65.0049
54.3842,64.9646
54.3718,64.9243
54.3584,64.8840
54.3439,64.8437
54.3284,64.8039
54.3129,64.7657
54.2959,64.7284
54.2788,64.6907
54.2602,64.6535
54.2406,64.6168
54.2204,64.5801
54.1993,64.5440
54.1770,64.5083
54.1543,64.4727
54.1305,64.4375
54.1057,64.4029
54.0799,64.3688
54.0535,64.3352
54.0256,64.3026
53.9977,64.2701
53.9682,64.2380
53.9393,64.2080
53.9099,64.1786
53.8799,64.1502
53.8489,64.1218
53.8168,64.0944
53.7843,64.0680
53.7512,64.0417
53.7171,64.0168
53.6820,63.9920
53.6463,63.9683
53.6101,63.9455
53.5729,63.9233
53.5352,63.9021
53.4970,63.8820
53.4577,63.8623
53.4179,63.8443
53.3791,63.8272
53.3393,63.8112
53.2990,63.7962
53.2577,63.7822
53.2158,63.7688
53.1730,63.7564
53.1295,63.7456
53.0856,63.7352
53.0407,63.7264
52.9947,63.7181
52.9487,63.7114
52.9011,63.7057
52.8536,63.7010
52.8050,63.6979
52.7554,63.6958
52.7053,63.6953
52.4423,63.6974
52.2030,63.7036
51.9854,63.7129
51.7860,63.7243
51.6072,63.7362
51.4387,63.7486
51.2785,63.7604
51.1219,63.7697
51.0465,63.7728
50.9705,63.7754
50.8940,63.7770
50.8170,63.7770
50.7395,63.7749
50.6605,63.7713
50.5798,63.7656
50.4982,63.7578
50.4165,63.7475
50.3339,63.7346
50.2507,63.7196
50.1654,63.7015
50.0786,63.6808
49.9897,63.6576
49.8982,63.6312
49.8037,63.6018
49.7463,63.5821
49.6889,63.5604
49.6316,63.5372
49.5737,63.5113
49.5163,63.4845
49.4590,63.4555
49.4021,63.4245
49.3448,63.3920
49.2879,63.3573
49.2316,63.3217
49.1753,63.2845
49.1195,63.2452
49.0637,63.2049
49.0084,63.1630
48.9536,63.1196
48.8993,63.0752
48.8461,63.0297
48.7924,62.9822
48.7391,62.9336
48.6864,62.8834
48.6337,62.8313
48.5815,62.7780
48.5298,62.7232
48.4782,62.6674
48.4270,62.6096
48.3764,62.5507
48.3262,62.4902
48.2771,62.4282
48.2280,62.3646
48.1800,62.3000
48.1324,62.2344
48.0854,62.1672
47.9955,62.0308
47.9087,61.8892
47.8250,61.7419
47.7454,61.5900
47.6699,61.4324
47.6338,61.3523
47.5986,61.2701
47.5650,61.1874
47.5325,61.1032
47.5015,61.0179
47.4720,60.9316
47.4177,60.7580
47.3697,60.5797
47.3273,60.3973
47.2922,60.2102
47.2772,60.1157
47.2643,60.0195
47.2529,59.9229
47.2436,59.8252
47.2364,59.7265
47.2307,59.6268
47.2276,59.5265
47.2266,59.4253
47.2276,59.3250
47.2307,59.2258
47.2431,59.0294
47.2632,58.8361
47.2911,58.6460
47.3263,58.4589
47.3687,58.2755
47.4172,58.0956
47.4720,57.9194
47.5319,57.7494
47.5971,57.5840
47.6679,57.4223
47.7428,57.2652
47.8229,57.1127
47.9066,56.9644
47.9945,56.8213
48.0854,56.6833
48.1314,56.6167
48.1784,56.5516
48.2745,56.4249
48.3738,56.3035
48.4750,56.1867
48.5784,56.0756
48.6838,55.9697
48.7913,55.8699
48.8993,55.7759
48.9525,55.7320
49.0068,55.6891
49.0616,55.6477
49.1169,55.6074
49.1722,55.5687
49.2285,55.5309
49.2848,55.4953
49.3417,55.4607
49.3985,55.4281
49.4559,55.3971
49.5132,55.3676
49.5711,55.3397
49.6295,55.3144
49.6874,55.2901
49.7453,55.2684
49.8036,55.2488
49.8967,55.2199
49.9876,55.1935
50.0760,55.1703
50.1628,55.1496
50.2481,55.1315
50.3323,55.1165
50.4155,55.1036
50.4982,55.0932
50.5793,55.0849
50.6584,55.0792
50.7369,55.0756
50.8144,55.0740
50.8914,55.0740
50.9684,55.0750
51.0449,55.0776
51.1219,55.0812
51.2764,55.0905
51.4361,55.1014
51.6046,55.1138
51.7859,55.1262
51.9823,55.1370
52.1988,55.1463
52.4391,55.1525
52.5688,55.1546
52.7053,55.1552
52.7544,55.1542
52.8029,55.1527
52.8510,55.1496
52.8985,55.1449
52.9450,55.1397
52.9915,55.1330
53.0370,55.1252
53.0820,55.1164
53.1259,55.1060
53.1698,55.0952
53.2127,55.0828
53.2551,55.0693
53.2969,55.0554
53.3378,55.0399
53.3781,55.0239
53.4179,55.0068
53.4571,54.9887
53.4954,54.9696
53.5331,54.9495
53.5708,54.9288
53.6075,54.9071
53.6437,54.8844
53.6788,54.8606
53.7140,54.8363
53.7481,54.8110
53.7817,54.7846
53.8142,54.7583
53.8468,54.7304
53.8778,54.7019
53.9088,54.6730
53.9388,54.6430
53.9682,54.6125
53.9966,54.5810
54.0245,54.5495
54.0514,54.5169
54.0778,54.4839
54.1031,54.4503
54.1279,54.4162
54.1516,54.3810
54.1749,54.3459
54.1971,54.3102
54.2183,54.2741
54.2390,54.2374
54.2586,54.2002
54.2772,54.1625
54.2953,54.1242
54.3124,54.0860
54.3284,54.0472
54.3434,54.0079
54.3578,53.9687
54.3713,53.9294
54.3832,53.8896
54.3945,53.8498
54.4049,53.8100
54.4147,53.7697
54.4230,53.7294
54.4302,53.6891
54.4369,53.6488
54.4426,53.6080
54.4467,53.5677
54.4503,53.5268
54.4529,53.4865
54.4545,53.4457
54.4550,53.4054
54.4586,51.3053
54.4550,49.3442
54.4545,49.3033
54.4529,49.2630
54.4503,49.2222
54.4467,49.1819
54.4426,49.1411
54.4369,49.1008
54.4302,49.0600
54.4230,49.0196
54.4147,48.9793
54.4049,48.9395
54.3945,48.8992
54.3832,48.8594
54.3713,48.8197
54.3578,48.7804
54.3434,48.7411
54.3284,48.7024
54.3124,48.6636
54.2953,48.6248
54.2772,48.5871
54.2586,48.5494
54.2385,48.5122
54.2183,48.4750
54.1966,48.4388
54.1744,48.4031
54.1517,48.3675
54.1274,48.3329
54.1031,48.2988
54.0772,48.2646
54.0509,48.2316
54.0240,48.1995
53.9961,48.1675
53.9677,48.1365
53.9382,48.1060
53.9083,48.0760
53.8778,48.0466
53.8463,48.0182
53.8137,47.9908
53.7811,47.9639
53.7476,47.9381
53.7134,47.9127
53.6788,47.8885
53.6432,47.8652
53.6070,47.8425
53.5703,47.8208
53.5331,47.7996
53.4954,47.7799
53.4571,47.7608
53.4179,47.7427
53.3781,47.7252
53.3378,47.7091
53.2964,47.6941
53.2551,47.6797
53.2127,47.6662
53.1698,47.6544
53.1259,47.6430
53.0820,47.6326
53.0370,47.6238
52.9915,47.6160
52.9450,47.6093
52.8985,47.6036
52.8510,47.5995
52.8029,47.5964
52.7544,47.5943
52.7053,47.5938
52.4386,47.5959
52.1983,47.6026
51.9818,47.6119
51.7854,47.6233
51.4356,47.6476
51.2759,47.6589
51.1219,47.6683
51.0449,47.6719
50.9684,47.6740
50.8914,47.6756
50.8144,47.6756
50.7369,47.6734
50.6584,47.6698
50.5793,47.6641
50.4982,47.6563
50.4155,47.6460
50.3318,47.6331
50.2476,47.6176
50.1623,47.5995
50.0755,47.5793
49.9871,47.5556
49.8962,47.5297
49.8031,47.5008
49.7447,47.4807
49.6869,47.4589
49.6290,47.4352
49.5706,47.4093
49.5132,47.3819
49.4553,47.3525
49.3980,47.3210
49.3411,47.2884
49.2843,47.2543
49.2280,47.2181
49.1722,47.1809
49.1164,47.1422
49.0616,47.1018
49.0068,47.0600
48.9525,47.0176
48.8993,46.9737
48.8451,46.9272
48.7908,46.8796
48.7371,46.8300
48.6838,46.7794
48.6311,46.7272
48.5784,46.6735
48.5267,46.6187
48.4750,46.5624
48.4239,46.5045
48.3738,46.4456
48.3236,46.3851
48.2745,46.3236
48.2265,46.2611
48.1784,46.1970
48.1314,46.1319
48.0854,46.0657
47.9939,45.9273
47.9066,45.7841
47.8229,45.6363
47.7428,45.4839
47.6678,45.3268
47.6317,45.2467
47.5971,45.1650
47.5640,45.0829
47.5319,44.9997
47.5015,44.9154
47.4720,44.8302
47.4172,44.6540
47.3686,44.4736
47.3263,44.2901
47.2911,44.1031
47.2767,44.0085
47.2632,43.9129
47.2524,43.8163
47.2431,43.7196
47.2359,43.6215
47.2307,43.5227
47.2276,43.4235
47.2266,43.3238
47.2276,43.2225
47.2307,43.1217
47.2436,42.9238
47.2643,42.7290
47.2922,42.5383
47.3273,42.3518
47.3697,42.1693
47.4177,41.9916
47.4720,41.8179
47.5330,41.6459
47.5986,41.4789
47.6699,41.3167
47.7454,41.1591
47.8249,41.0066
47.9087,40.8599
47.9955,40.7178
48.0854,40.5818
48.1324,40.5147
48.1800,40.4485
48.2280,40.3839
48.2771,40.3209
48.3763,40.1984
48.4781,40.0816
48.5815,39.9710
48.6864,39.8661
48.7923,39.7669
48.8993,39.6744
48.9536,39.6294
49.0083,39.5865
49.0636,39.5442
49.1194,39.5039
49.1753,39.4646
49.2316,39.4274
49.2884,39.3912
49.3453,39.3571
49.4021,39.3245
49.4595,39.2935
49.5168,39.2646
49.5742,39.2372
49.6315,39.2119
49.6889,39.1881
49.7463,39.1669
49.8036,39.1473
49.8982,39.1178
49.9897,39.0915
50.0785,39.0682
50.1654,39.0476
50.2506,39.0295
50.3343,39.0145
50.4165,39.0021
50.4982,38.9917
50.5798,38.9834
50.6604,38.9777
50.7395,38.9741
50.8175,38.9725
50.8945,38.9725
50.9705,38.9735
51.0464,38.9761
51.1219,38.9797
51.2785,38.9890
51.4392,39.0004
51.6071,39.0123
51.7859,39.0247
51.9854,39.0361
52.2035,39.0454
52.4422,39.0516
52.5704,39.0537
52.7053,39.0542
52.7554,39.0537
52.8050,39.0516
52.8536,39.0480
52.9016,39.0439
52.9486,39.0382
52.9952,39.0315
53.0406,39.0232
53.0856,39.0139
53.1300,39.0041
53.1734,38.9927
53.2158,38.9803
53.2582,38.9674
53.2990,38.9529
53.3393,38.9379
53.3791,38.9219
53.4179,38.9054
53.4576,38.8868
53.4969,38.8671
53.5357,38.8470
53.5734,38.8258
53.6101,38.8036
53.6468,38.7808
53.6824,38.7570
53.7171,38.7322
53.7512,38.7069
53.7847,38.6811
53.8168,38.6542
53.8488,38.6268
53.8798,38.5989
53.9103,38.5700
53.9393,38.5410
53.9682,38.5111
53.9977,38.4790
54.0261,38.4465
54.0535,38.4134
54.0798,38.3798
54.1057,38.3457
54.1305,38.3111
54.1543,38.2760
54.1775,38.2408
54.1992,38.2046
54.2204,38.1685
54.2411,38.1323
54.2602,38.0951
54.2788,38.0584
54.2964,38.0212
54.3129,37.9835
54.3284,37.9458
54.3439,37.9054
54.3584,37.8651
54.3718,37.8248
54.3847,37.7845
54.3961,37.7442
54.4064,37.7034
54.4157,37.6631
54.4240,37.6228
54.4312,37.5825
54.4374,37.5421
54.4431,37.5024
54.4472,37.4620
54.4508,37.4223
54.4529,37.3825
54.4545,37.3432
54.4550,37.3039
54.4545,37.2652
54.4529,37.2274
54.4498,37.1897
54.4457,37.1525
54.4410,37.1158
54.4353,37.0797
54.4281,37.0440
54.4203,37.0083
54.4115,36.9737
54.4022,36.9391
54.3919,36.9050
54.3811,36.8714
54.3692,36.8383
54.3568,36.8058
54.3299,36.7422
54.3144,36.7081
54.2978,36.6745
54.2813,36.6414
54.2637,36.6094
54.2462,36.5774
54.2276,36.5464
54.1898,36.4859
54.1506,36.4275
54.1108,36.3722
54.0705,36.3195
54.0297,36.2694
53.9821,36.2136
53.9361,36.1624
53.8917,36.1149
53.8498,36.0720
53.8095,36.0327
53.7718,35.9981
53.7051,35.9397
53.6519,35.8963
53.6137,35.8679
53.5909,35.8529
53.5739,35.8410
53.5573,35.8281
53.5418,35.8152
53.5263,35.8017
53.5119,35.7872
53.4979,35.7728
53.4840,35.7578
53.4711,35.7423
53.4592,35.7263
53.4473,35.7097
53.4364,35.6932
53.4261,35.6761
53.4163,35.6586
53.4070,35.6410
53.3987,35.6229
53.3909,35.6043
53.3837,35.5857
53.3770,35.5671
53.3713,35.5480
53.3661,35.5283
53.3579,35.4891
53.3553,35.4694
53.3527,35.4493
53.3511,35.4291
53.3506,35.4090
53.3506,35.3888
53.3511,35.3681
53.3527,35.3480
53.3553,35.3273
53.3584,35.3072
53.3620,35.2865
53.3666,35.2664
53.3718,35.2462
53.3847,35.2074
53.4002,35.1697
53.4183,35.1336
53.4390,35.0989
53.4617,35.0664
53.4870,35.0354
53.5144,35.0064
53.5439,34.9796
53.5754,34.9547
53.6085,34.9320
53.6436,34.9119
53.6798,34.8943
53.7175,34.8793
53.7568,34.8674
53.7769,34.8622
53.7971,34.8581
53.8239,34.8535
53.8508,34.8504
53.8777,34.8488
53.9051,34.8483
Z" /> 
<path style="fill:none; 
stroke:#D0D2CD; stroke-width:0.0529; stroke-opacity:1; 
stroke-linecap:round; stroke-linejoin:round;fill:none"
d="M 22.4200,13.4764
22.4796,13.4790
22.5390,13.4832
22.5983,13.4891
22.6574,13.4966
22.7163,13.5059
22.7749,13.5167
22.8332,13.5292
22.8911,13.5433
22.9486,13.5590
23.0056,13.5763
23.0621,13.5952
23.1181,13.6156
23.1734,13.6376
23.2282,13.6612
23.2823,13.6863
23.3357,13.7130
23.3882,13.7411
23.4400,13.7706
23.4909,13.8016
23.5409,13.8340
23.5900,13.8678
23.6382,13.9030
23.6853,13.9395
23.7314,13.9774
23.7764,14.0165
23.8203,14.0568
23.8630,14.0983
23.9045,14.1410
23.9448,14.1849
23.9839,14.2299
24.0218,14.2760
24.0583,14.3231
24.0935,14.3711
24.1273,14.4202
24.1597,14.4701
24.1907,14.5210
24.2202,14.5727
24.2483,14.6252
24.2750,14.6785
24.3001,14.7327
24.3237,14.7875
24.3457,14.8429
24.3662,14.8989
24.3850,14.9554
24.4023,15.0125
24.4180,15.0701
24.4321,15.1281
24.4445,15.1864
24.4553,15.2450
24.4645,15.3039
24.4720,15.3630
24.4778,15.4223
24.4820,15.4817
24.4845,15.5413
24.4853,15.6009
24.4841,15.6708
24.4807,15.7404
24.4750,15.8098
24.4670,15.8788
24.4568,15.9475
24.4444,16.0158
24.4297,16.0836
24.4129,16.1508
24.3939,16.2175
24.3726,16.2835
24.3493,16.3489
24.3238,16.4135
24.2961,16.4773
24.2664,16.5402
24.2345,16.6023
24.2006,16.6633
24.1647,16.7233
24.1269,16.7819
24.0872,16.8391
24.0458,16.8949
24.0026,16.9493
23.9577,17.0022
23.9111,17.0536
23.8629,17.1035
23.8131,17.1517
23.7617,17.1983
23.7088,17.2432
23.6544,17.2864
23.5986,17.3278
23.5413,17.3674
23.4827,17.4052
23.4228,17.4411
23.3618,17.4751
23.2997,17.5069
23.2368,17.5367
23.1730,17.5643
23.1084,17.5898
23.0431,17.6132
22.9770,17.6344
22.9103,17.6534
22.8431,17.6703
22.7753,17.6849
22.7070,17.6974
22.6383,17.7076
22.5692,17.7156
22.4999,17.7213
22.4302,17.7247
22.3604,17.7259
22.2905,17.7247
22.2209,17.7213
22.1515,17.7156
22.0824,17.7076
22.0137,17.6974
21.9454,17.6850
21.8776,17.6703
21.8104,17.6534
21.7437,17.6344
21.6777,17.6132
21.6123,17.5898
21.5477,17.5643
21.4839,17.5367
21.4210,17.5069
21.3590,17.4751
21.2979,17.4411
21.2380,17.4052
21.1794,17.3674
21.1222,17.3278
21.0663,17.2864
21.0119,17.2432
20.9590,17.1983
20.9077,17.1517
20.8578,17.1035
20.8096,17.0537
20.7630,17.0023
20.7181,16.9494
20.6749,16.8950
20.6335,16.8392
20.5939,16.7819
20.5561,16.7233
20.5202,16.6634
20.4862,16.6023
20.4544,16.5403
20.4246,16.4774
20.3970,16.4136
20.3715,16.3490
20.3481,16.2836
20.3269,16.2176
20.3079,16.1509
20.2910,16.0837
20.2763,16.0159
20.2639,15.9476
20.2537,15.8789
20.2457,15.8098
20.2400,15.7404
20.2366,15.6708
20.2354,15.6009
20.2366,15.5311
20.2400,15.4615
20.2457,15.3921
20.2537,15.3231
20.2639,15.2544
20.2763,15.1861
20.2910,15.1183
20.3078,15.0511
20.3269,14.9844
20.3481,14.9183
20.3714,14.8530
20.3969,14.7884
20.4246,14.7246
20.4543,14.6617
20.4862,14.5996
20.5201,14.5386
20.5560,14.4786
20.5938,14.4200
20.6334,14.3627
20.6749,14.3068
20.7181,14.2524
20.7630,14.1994
20.8095,14.1480
20.8578,14.0982
20.9076,14.0499
20.9590,14.0033
21.0119,13.9583
21.0663,13.9151
21.1221,13.8737
21.1794,13.8340
21.2380,13.7962
21.2979,13.7602
21.3590,13.7263
21.4210,13.6944
21.4839,13.6647
21.5477,13.6371
21.6123,13.6115
21.6777,13.5882
21.7437,13.5670
21.8104,13.5479
21.8776,13.5311
21.9454,13.5164
22.0137,13.5040
22.0824,13.4938
22.1515,13.4858
22.2209,13.4801
22.2905,13.4767
22.3604,13.4755
22.3604,13.4755
Z" /> 
</g>
<g style="fill:none; 
stroke:#D0D2CD; stroke-width:0.0100; stroke-opacity:1; 
stroke-linecap:round; stroke-linejoin:round;">
<circle cx="46.3200" cy="78.5964" r="0.2700" /> 
<circle cx="46.3200" cy="86.0964" r="0.2700" /> 
</g>
<g style="fill:none; 
stroke:#D0D2CD; stroke-width:0.1000; stroke-opacity:1; 
stroke-linecap:round; stroke-linejoin:round;">
<circle cx="59.0700" cy="79.6014" r="2.0616" /> 
</g> 
</svg>
