<?xml version="1.0" encoding="UTF-8" standalone="no"?>
<!-- Created with Inkscape (http://www.inkscape.org/) -->

<svg
   width="93.159187mm"
   height="91.45903mm"
   viewBox="0 0 93.159187 91.459032"
   version="1.1"
   id="svg1"
   xml:space="preserve"
   inkscape:version="1.3 (0e150ed6c4, 2023-07-21)"
   sodipodi:docname="new-edge-cuts.svg"
   xmlns:inkscape="http://www.inkscape.org/namespaces/inkscape"
   xmlns:sodipodi="http://sodipodi.sourceforge.net/DTD/sodipodi-0.dtd"
   xmlns="http://www.w3.org/2000/svg"
   xmlns:svg="http://www.w3.org/2000/svg"><sodipodi:namedview
     id="namedview1"
     pagecolor="#505050"
     bordercolor="#eeeeee"
     borderopacity="1"
     inkscape:showpageshadow="0"
     inkscape:pageopacity="0"
     inkscape:pagecheckerboard="0"
     inkscape:deskcolor="#505050"
     inkscape:document-units="mm"
     inkscape:zoom="2.5003327"
     inkscape:cx="468.13771"
     inkscape:cy="332.35577"
     inkscape:window-width="3840"
     inkscape:window-height="2054"
     inkscape:window-x="-11"
     inkscape:window-y="-11"
     inkscape:window-maximized="1"
     inkscape:current-layer="layer1" /><defs
     id="defs1" /><g
     inkscape:label="edge.cuts"
     inkscape:groupmode="layer"
     id="layer1"
     style="display:inline"
     transform="translate(6.603337,-66.39136)"><path
       style="fill:none;fill-opacity:0.807843;stroke:#50df07;stroke-width:0.05291667;stroke-linecap:round;stroke-dasharray:none;stroke-opacity:1"
       d="m 42.041503,101.28717 0.02687,0.0145 0.02687,0.002 0.02636,0.004 0.02635,0.005 0.02636,0.006 0.02584,0.007 0.02532,0.008 0.0248,0.0103 0.02481,0.0109 0.02377,0.0124 0.02377,0.0134 0.02274,0.0145 0.02015,0.0134 0.04186,0.0279 0.02842,0.0207 0.03307,0.0248 0.03772,0.0294 0.04237,0.0341 0.04599,0.0393 0.04961,0.045 0.05374,0.0496 0.05684,0.0558 0.05994,0.0615 0.06305,0.0677 0.06563,0.0734 0.03411,0.0393 0.03411,0.0408 0.05839,0.0718 0.05943,0.0775 0.05994,0.0832 0.02945,0.0434 0.02997,0.045 0.02946,0.0465 0.02946,0.0481 0.02842,0.0486 0.02842,0.0506 0.02791,0.0517 0.02687,0.0532 0.02636,0.0543 0.02532,0.0553 0.02325,0.0532 0.02222,0.0548 0.02119,0.0558 0.02067,0.0574 0.01912,0.0584 0.01809,0.0605 0.01705,0.061 0.0155,0.0625 0.01395,0.0641 0.0124,0.0651 0.01085,0.0661 0.0093,0.0677 0.0072,0.0687 0.0052,0.0703 0.0031,0.0713 10e-4,0.0724 -5.17e-4,0.0661 -0.0026,0.0661 -0.0041,0.0662 -0.0057,0.0661 -0.0067,0.0662 -0.0088,0.0667 -0.01085,0.0661 -0.01189,0.0661 -0.01395,0.0661 -0.01499,0.0656 -0.01705,0.0661 -0.0186,0.0651 -0.02015,0.0656 -0.0217,0.0646 -0.02325,0.0651 -0.02532,0.0641 -0.02481,0.0605 -0.02687,0.0605 -0.02791,0.06 -0.02945,0.0594 -0.03101,0.0589 -0.03256,0.0584 -0.03411,0.0579 -0.03566,0.0574 -0.03669,0.0568 -0.03824,0.0563 -0.03979,0.0553 -0.04186,0.0548 -0.04237,0.0543 -0.04444,0.0532 -0.04548,0.0527 -0.04754,0.0512 -0.04599,0.0486 -0.04806,0.0476 -0.04909,0.0465 -0.05013,0.0455 -0.05219,0.0444 -0.05271,0.0439 -0.05478,0.0424 -0.05581,0.0413 -0.05684,0.0403 -0.05891,0.0393 -0.05943,0.0377 -0.0615,0.0362 -0.06201,0.0351 -0.06408,0.0341 -0.0646,0.032 -0.06666,0.0305 -0.0646,0.0284 -0.06615,0.0263 -0.06718,0.0253 -0.0677,0.0233 -0.06925,0.0217 -0.07028,0.0202 -0.07131,0.0186 -0.07235,0.0165 -0.07338,0.0145 -0.07441,0.0134 -0.07493,0.0109 -0.07648,0.009 -0.077,0.007 -0.07803,0.005 -0.07906,0.003 -0.0801,10e-4 -0.28267,-0.002 -0.257349,-0.007 -0.234094,-0.01 -0.214457,-0.0124 -0.357601,-0.0248 -0.153996,-0.0109 -0.139526,-0.009 -0.06253,-0.003 -0.05943,-0.002 -0.05736,-0.001 h -0.05529 l -0.05374,0.001 -0.05271,0.002 -0.05219,0.004 -0.05219,0.005 -0.05064,0.006 -0.05219,0.008 -0.05529,0.01 -0.05736,0.0124 -0.06046,0.0145 -0.06356,0.0165 -0.06718,0.0196 -0.07183,0.0222 -0.02584,0.009 -0.02739,0.01 -0.02842,0.0119 -0.02946,0.0134 -0.03049,0.0145 -0.03152,0.016 -0.03256,0.0176 -0.03359,0.0191 -0.03462,0.0207 -0.03514,0.0222 -0.03617,0.0243 -0.03669,0.0253 -0.03772,0.0274 -0.03824,0.0289 -0.03876,0.0305 -0.03979,0.0326 -0.03824,0.0331 -0.03876,0.0341 -0.03876,0.0357 -0.03876,0.0367 -0.03876,0.0382 -0.03927,0.0398 -0.03876,0.0408 -0.03876,0.0424 -0.03824,0.0439 -0.03876,0.0444 -0.03824,0.0465 -0.03772,0.0475 -0.03772,0.0486 -0.03721,0.0501 -0.03721,0.0512 -0.03669,0.0522 -0.06976,0.10645 -0.0677,0.11007 -0.06511,0.11472 -0.06201,0.11834 -0.05891,0.12248 -0.02791,0.0625 -0.02739,0.0636 -0.02636,0.0646 -0.0248,0.0656 -0.02429,0.0661 -0.02325,0.0672 -0.04186,0.13436 -0.03721,0.13797 -0.03256,0.14056 -0.02687,0.14366 -0.01137,0.0729 -0.01034,0.0739 -0.0088,0.0744 -0.0067,0.0749 -0.0057,0.0755 -0.0041,0.0765 -0.0026,0.077 -10e-4,0.0775 10e-4,0.0765 0.0026,0.0765 0.0093,0.15038 0.0155,0.14831 0.02119,0.14676 0.02739,0.14366 0.03256,0.1416 0.03721,0.13901 0.04237,0.13642 0.04703,0.13178 0.05064,0.12919 0.05478,0.12557 0.05839,0.12196 0.06201,0.11937 0.06563,0.11524 0.06821,0.11162 0.0708,0.10749 0.03617,0.0517 0.03669,0.0507 0.0739,0.0982 0.07596,0.093 0.077,0.0884 0.07752,0.0837 0.07803,0.0785 0.07855,0.0729 0.07803,0.0682 0.03927,0.032 0.03824,0.0305 0.03824,0.0284 0.03721,0.0274 0.03617,0.0253 0.03617,0.0238 0.03514,0.0227 0.03411,0.0207 0.03359,0.0191 0.03256,0.0176 0.03204,0.0165 0.03101,0.015 0.02946,0.0129 0.02894,0.0119 0.0279,0.0109 0.02636,0.009 0.0708,0.0222 0.06666,0.0191 0.06356,0.0165 0.05994,0.0145 0.05788,0.0119 0.05529,0.0103 0.05323,0.008 0.05116,0.007 0.05168,0.005 0.05116,0.004 0.05271,0.002 0.05323,0.001 h 0.05529 l 0.05788,-0.001 0.05994,-0.002 0.06356,-0.003 0.136942,-0.008 0.152962,-0.0109 0.170533,-0.0124 0.190169,-0.0129 0.21084,-0.0119 0.23306,-0.01 0.258899,-0.007 0.139527,-0.002 0.146761,-5.2e-4 0.07855,0.001 0.07751,0.003 0.077,0.005 0.07596,0.007 0.07596,0.009 0.07441,0.0108 0.07441,0.0129 0.07286,0.0145 0.07235,0.0165 0.07183,0.0181 0.0708,0.0202 0.06976,0.0222 0.06925,0.0233 0.06821,0.0253 0.06718,0.0269 0.06615,0.0289 0.06511,0.03 0.06356,0.0315 0.06304,0.0331 0.0615,0.0346 0.06046,0.0357 0.05943,0.0377 0.05839,0.0388 0.05684,0.0398 0.05633,0.0413 0.05478,0.0424 0.05374,0.0439 0.05219,0.0455 0.05116,0.046 0.05013,0.047 0.04858,0.0486 0.04754,0.0496 0.04599,0.0501 0.04496,0.0512 0.04341,0.0522 0.04237,0.0532 0.04082,0.0543 0.03927,0.0548 0.03876,0.0558 0.03669,0.0568 0.03566,0.0574 0.03411,0.0579 0.03307,0.0589 0.03152,0.0599 0.02997,0.0605 0.02894,0.0605 0.02687,0.062 0.02584,0.062 0.02429,0.0625 0.02326,0.063 0.02119,0.0636 0.02015,0.0641 0.01809,0.0646 0.01705,0.0651 0.0155,0.0656 0.01395,0.0656 0.0124,0.0667 0.01085,0.0667 0.0093,0.0667 0.0072,0.0677 0.0062,0.0672 0.0041,0.0677 0.0026,0.0677 5.17e-4,0.0682 0.0036,1.9606 -0.0036,2.10065 -5.17e-4,0.0677 -0.0026,0.0682 -0.0041,0.0677 -0.0062,0.0672 -0.0072,0.0672 -0.0093,0.0672 -0.01085,0.0661 -0.01189,0.0667 -0.01395,0.0656 -0.0155,0.0656 -0.01705,0.0651 -0.01809,0.0646 -0.02015,0.0641 -0.02119,0.0636 -0.02325,0.063 -0.02429,0.0625 -0.02584,0.062 -0.02687,0.0615 -0.02894,0.061 -0.02997,0.0605 -0.03152,0.0594 -0.03307,0.0589 -0.03411,0.0584 -0.03566,0.0574 -0.03721,0.0568 -0.03824,0.0558 -0.03979,0.0548 -0.04082,0.0543 -0.04237,0.0527 -0.04341,0.0522 -0.04496,0.0517 -0.04599,0.0501 -0.04754,0.0496 -0.04858,0.0481 -0.05013,0.0475 -0.05116,0.046 -0.05219,0.045 -0.05374,0.0439 -0.05478,0.0429 -0.05633,0.0413 -0.05684,0.0398 -0.05839,0.0388 -0.05943,0.0372 -0.06046,0.0362 -0.0615,0.0346 -0.06304,0.0331 -0.06356,0.0315 -0.06511,0.03 -0.06615,0.0284 -0.06718,0.0274 -0.06821,0.0253 -0.06925,0.0233 -0.06976,0.0222 -0.0708,0.0202 -0.07183,0.0181 -0.07235,0.0165 -0.07286,0.0145 -0.07441,0.0129 -0.07441,0.0109 -0.07545,0.009 -0.07648,0.007 -0.077,0.005 -0.07751,0.003 -0.07855,0.001 -0.286288,-0.002 -0.258382,-0.007 -0.233061,-0.01 -0.210839,-0.0119 -0.360702,-0.0253 -0.152962,-0.0109 -0.137459,-0.008 -0.06356,-0.003 -0.05994,-0.002 -0.05788,-0.001 h -0.05529 l -0.05323,0.001 -0.05219,0.002 -0.05168,0.004 -0.05168,0.005 -0.05116,0.007 -0.05323,0.008 -0.05529,0.0103 -0.05788,0.0119 -0.05994,0.0145 -0.06356,0.0171 -0.06666,0.0191 -0.0708,0.0222 -0.02636,0.009 -0.0279,0.0109 -0.02894,0.0119 -0.02946,0.0134 -0.03101,0.0145 -0.03204,0.0165 -0.03256,0.0176 -0.03359,0.0191 -0.03411,0.0207 -0.03514,0.0222 -0.03617,0.0243 -0.03617,0.0253 -0.03721,0.0269 -0.03824,0.0289 -0.03824,0.0305 -0.03927,0.032 -0.03876,0.0331 -0.03927,0.0346 -0.03927,0.0362 -0.03927,0.0372 -0.03927,0.0388 -0.03876,0.0398 -0.03876,0.0413 -0.03876,0.0424 -0.03876,0.0434 -0.03824,0.045 -0.03824,0.046 -0.03772,0.047 -0.03721,0.0486 -0.03669,0.0491 -0.03669,0.0511 -0.03617,0.0517 -0.0708,0.10749 -0.06821,0.11162 -0.06563,0.11524 -0.06201,0.11885 -0.05839,0.12196 -0.02791,0.0625 -0.02687,0.063 -0.02584,0.0641 -0.02481,0.0651 -0.02429,0.0651 -0.02274,0.0667 -0.04237,0.13643 -0.03721,0.13901 -0.03256,0.14107 -0.02687,0.14418 -0.0217,0.14624 -0.0083,0.0739 -0.0072,0.0749 -0.0057,0.0749 -0.0036,0.0755 -0.0026,0.076 -10e-4,0.077 10e-4,0.0775 0.0026,0.077 0.0098,0.15193 0.0155,0.14935 0.0217,0.14676 0.02687,0.14366 0.03256,0.14056 0.03721,0.13798 0.04186,0.13435 0.04754,0.13333 0.05116,0.13022 0.05529,0.12609 0.05891,0.12248 0.06201,0.11885 0.06511,0.11421 0.0677,0.11059 0.06976,0.10645 0.03669,0.0522 0.03721,0.0512 0.03721,0.0501 0.03772,0.0486 0.07596,0.0935 0.077,0.0884 0.07751,0.0837 0.07803,0.0775 0.07751,0.0729 0.077,0.0672 0.03979,0.032 0.03876,0.031 0.03824,0.0289 0.03772,0.0274 0.03669,0.0253 0.03617,0.0238 0.03514,0.0227 0.03462,0.0207 0.03307,0.0191 0.03256,0.0176 0.03152,0.016 0.03101,0.0145 0.02946,0.0134 0.02842,0.0114 0.02739,0.0103 0.02584,0.009 0.07131,0.0222 0.0677,0.0191 0.06356,0.0171 0.06046,0.0145 0.05736,0.0119 0.05478,0.01 0.05271,0.008 0.05064,0.006 0.05219,0.005 0.05219,0.004 0.05271,0.002 0.05374,0.001 h 0.05529 l 0.05736,-0.001 0.05943,-0.002 0.06253,-0.003 0.139526,-0.008 0.153479,-0.0108 0.170532,-0.0124 0.187586,-0.0129 0.214457,-0.0124 0.234094,-0.01 0.257349,-0.007 0.137976,-0.002 0.144694,-10e-4 0.0801,10e-4 0.07855,0.003 0.07803,0.005 0.07751,0.007 0.07597,0.009 0.07493,0.0109 0.07441,0.0129 0.07338,0.015 0.07235,0.0165 0.07131,0.0186 0.07028,0.0202 0.06925,0.0217 0.06821,0.0232 0.06718,0.0253 0.06615,0.0264 0.0646,0.0284 0.06614,0.0305 0.06511,0.032 0.06356,0.0336 0.06253,0.0351 0.06098,0.0367 0.05994,0.0377 0.0584,0.0388 0.05736,0.0403 0.05529,0.0413 0.05478,0.0424 0.05323,0.0439 0.05168,0.0444 0.05064,0.046 0.04909,0.0465 0.04806,0.0475 0.04599,0.0481 0.04754,0.0517 0.04548,0.0522 0.04392,0.0532 0.04289,0.0543 0.04134,0.0543 0.03979,0.0558 0.03824,0.0563 0.03721,0.0568 0.03514,0.0574 0.03411,0.0579 0.03256,0.0584 0.03101,0.0589 0.02997,0.0599 0.02791,0.0594 0.02687,0.0605 0.02481,0.0605 0.02532,0.0646 0.02325,0.0646 0.0217,0.0646 0.02015,0.0656 0.0186,0.0651 0.01654,0.0661 0.0155,0.0656 0.01395,0.0661 0.01189,0.0661 0.01033,0.0661 0.0088,0.0667 0.0072,0.0661 0.0057,0.0667 0.0041,0.0661 0.0026,0.0661 5.17e-4,0.0667 -5.17e-4,0.0677 -0.0021,0.0667 -0.0041,0.0662 -0.0047,0.0646 -0.01395,0.12712 -0.01912,0.12351 -0.02325,0.11885 -0.02687,0.11524 -0.03049,0.11111 -0.03411,0.10697 -0.03876,0.10955 -0.04186,0.10594 -0.04392,0.1018 -0.04599,0.0971 -0.04754,0.093 -0.04858,0.0884 -0.04909,0.0842 -0.04961,0.0801 -0.05374,0.0822 -0.05374,0.0786 -0.05374,0.0744 -0.05323,0.0703 -0.05219,0.0661 -0.05064,0.0615 -0.04909,0.0579 -0.04651,0.0527 -0.04857,0.0543 -0.04599,0.0496 -0.04341,0.046 -0.04031,0.0413 -0.03876,0.0393 -0.03566,0.0357 -0.05736,0.0568 -0.01654,0.016 -0.01809,0.0176 -0.03927,0.0377 -0.09663,0.0915 -0.05891,0.0568 -0.06253,0.0605 -0.06511,0.0641 -0.06821,0.0682 -0.09457,0.0956 -0.09405,0.0977 -0.09302,0.0987 -0.0925,0.10077 -0.06925,0.0775 -0.0677,0.077 -0.06615,0.0765 -0.06356,0.0765 -0.09405,0.11576 -0.08682,0.11214 -0.07958,0.108 -0.07286,0.10335 -0.06666,0.0997 -0.06046,0.0951 -0.05374,0.0915 -0.04858,0.0873 -0.02739,0.0527 -0.02532,0.0512 -0.02274,0.0491 -0.02067,0.047 -0.0186,0.0455 -0.01705,0.0434 -0.01447,0.0419 -0.01344,0.0398 -0.0124,0.0429 -0.01085,0.0413 -0.0088,0.0387 -0.0067,0.0367 -0.0052,0.0341 -0.0036,0.0326 -0.0016,0.03 -0.001,0.0284 -10e-4,0.29662 -0.0026,0.32712 -0.01292,0.79478 -0.0098,0.50953 -0.01705,0.99167 -0.0062,0.53588 -0.0026,0.53589 5.17e-4,0.0222 10e-4,0.0222 10e-4,0.0217 0.0021,0.0217 0.0021,0.0217 0.0031,0.0212 0.0031,0.0212 0.0041,0.0212 0.0041,0.0207 0.0052,0.0207 0.0052,0.0207 0.0057,0.0207 0.0062,0.0202 0.0072,0.0207 0.01447,0.0403 0.0088,0.0212 0.0088,0.0217 0.01964,0.0429 0.02222,0.0434 0.02429,0.0439 0.02636,0.0445 0.02842,0.046 0.03152,0.0465 0.03307,0.047 0.03721,0.0501 0.03876,0.0506 0.04082,0.0506 0.04237,0.0522 0.04392,0.0522 0.04599,0.0532 0.09612,0.10955 0.216525,0.23978 0.112654,0.12557 0.112655,0.12868 0.137976,0.16278 0.130741,0.16226 0.123507,0.16278 0.05891,0.0822 0.05684,0.0827 0.05581,0.0832 0.05323,0.0842 0.05219,0.0853 0.05013,0.0863 0.04858,0.0879 0.04651,0.0889 0.04496,0.0909 0.04341,0.0925 0.06615,0.15142 0.05736,0.14727 0.05064,0.14263 0.04341,0.13746 0.03721,0.13178 0.03152,0.12557 0.02635,0.11834 0.02222,0.1111 0.02739,0.16692 0.02119,0.15813 0.0155,0.14779 0.01034,0.13591 0.0067,0.12092 0.0036,0.10491 0.0016,0.15244 -10e-4,0.0274 -0.0026,0.0274 -0.0041,0.0274 -0.0057,0.0264 -0.0062,0.0258 -0.0083,0.0258 -0.0088,0.0248 -0.0098,0.0243 -0.01137,0.0238 -0.0124,0.0233 -0.01344,0.0227 -0.01447,0.0217 -0.0155,0.0212 -0.01654,0.0202 -0.01705,0.0191 -0.01809,0.0186 -0.01912,0.0181 -0.01964,0.0165 -0.02067,0.016 -0.0217,0.015 -0.02171,0.014 -0.02325,0.0124 -0.02325,0.0119 -0.02429,0.0109 -0.02429,0.01 -0.02532,0.008 -0.02584,0.007 -0.02636,0.006 -0.02636,0.005 -0.02739,0.003 -0.02739,0.002 -0.02791,0.001 -0.02739,-0.001 -0.0279,-0.002 -0.02687,-0.003 -0.02687,-0.005 -0.02584,-0.006 -0.02584,-0.007 -0.02532,-0.008 -0.02481,-0.01 -0.02377,-0.0109 -0.02325,-0.0119 -0.02325,-0.0124 -0.0217,-0.014 -0.0217,-0.015 -0.02067,-0.016 -0.01964,-0.0165 -0.01912,-0.0181 -0.01809,-0.0186 -0.01757,-0.0191 -0.01602,-0.0202 -0.0155,-0.0212 -0.01447,-0.0217 -0.01344,-0.0227 -0.0124,-0.0233 -0.01137,-0.0238 -0.0098,-0.0243 -0.0093,-0.0248 -0.0078,-0.0258 -0.0062,-0.0258 -0.0057,-0.0264 -0.0041,-0.0274 -0.0026,-0.0274 -0.0015,-0.0274 -0.001,-0.12557 -0.0031,-0.0848 -0.0057,-0.0971 -0.0083,-0.10749 -0.01189,-0.11679 -0.0078,-0.0615 -0.0093,-0.0625 -0.0098,-0.0646 -0.01189,-0.0661 -0.01654,-0.0853 -0.02015,-0.091 -0.02429,-0.0961 -0.02842,-0.0997 -0.03307,-0.10439 -0.03772,-0.108 -0.02119,-0.0548 -0.02274,-0.0563 -0.02377,-0.0568 -0.02584,-0.0568 -0.03256,-0.0698 -0.03359,-0.0682 -0.03566,-0.0677 -0.03721,-0.0677 -0.03876,-0.0667 -0.04031,-0.0667 -0.04237,-0.0661 -0.04392,-0.0667 -0.04599,-0.0667 -0.04806,-0.0667 -0.102319,-0.1354 -0.111104,-0.13797 -0.120923,-0.14211 -0.103353,-0.11834 -0.10697,-0.11886 -0.221175,-0.24494 -0.104903,-0.11886 -0.05323,-0.0615 -0.05323,-0.0631 -0.05271,-0.0646 -0.05168,-0.0651 -0.05116,-0.0667 -0.05013,-0.0672 -0.04754,-0.0677 -0.04651,-0.0698 -0.04496,-0.0713 -0.04393,-0.0739 -0.04186,-0.0765 -0.02015,-0.0388 -0.01912,-0.0393 -0.01912,-0.0403 -0.01809,-0.0408 -0.01757,-0.0408 -0.01705,-0.0419 -0.01602,-0.0429 -0.01499,-0.0429 -0.01447,-0.0429 -0.01292,-0.0439 -0.0124,-0.0445 -0.01137,-0.0444 -0.01085,-0.0455 -0.0093,-0.0455 -0.0083,-0.0465 -0.0078,-0.0465 -0.0062,-0.0475 -0.0052,-0.0475 -0.0041,-0.0486 -0.0031,-0.0486 -0.0016,-0.0496 -10e-4,-0.0496 0.0026,-0.54467 0.0062,-0.5426 0.01757,-0.99684 0.0093,-0.5085 0.0124,-0.78806 0.0036,-0.61082 5.17e-4,-0.0382 0.0016,-0.0382 0.0047,-0.076 0.0083,-0.0765 0.01137,-0.0765 0.01395,-0.0765 0.01705,-0.077 0.02015,-0.0765 0.02222,-0.0765 0.02222,-0.0677 0.02429,-0.0682 0.02635,-0.0692 0.02894,-0.0698 0.03101,-0.0703 0.03307,-0.0713 0.03566,-0.0724 0.03772,-0.0729 0.06459,-0.11576 0.07028,-0.11834 0.07596,-0.12092 0.08217,-0.12299 0.08888,-0.12557 0.09457,-0.12764 0.101286,-0.13074 0.107487,-0.13281 0.07235,-0.0868 0.07441,-0.0863 0.07596,-0.0868 0.07751,-0.0868 0.102319,-0.11059 0.10232,-0.10852 0.102836,-0.10697 0.102836,-0.10387 0.0739,-0.0734 0.07028,-0.0693 0.06615,-0.0646 0.06253,-0.0599 0.09767,-0.0935 0.03617,-0.0346 0.01395,-0.0134 0.01137,-0.0109 0.05529,-0.0543 0.03049,-0.031 0.03256,-0.0326 0.03307,-0.0336 0.03462,-0.0367 0.03617,-0.0388 0.01912,-0.0207 0.0186,-0.0212 0.03617,-0.0413 0.03721,-0.0439 0.03772,-0.0465 0.03876,-0.0491 0.03927,-0.0522 0.03927,-0.0543 0.03927,-0.0568 0.03876,-0.0594 0.03514,-0.0574 0.03462,-0.0589 0.03411,-0.062 0.03256,-0.0636 0.03101,-0.0661 0.02997,-0.0687 0.01395,-0.0346 0.01395,-0.0357 0.01292,-0.0362 0.0124,-0.0362 0.02222,-0.0698 0.01964,-0.0718 0.01757,-0.0739 0.0078,-0.0377 0.0072,-0.0388 0.0062,-0.0388 0.0057,-0.0398 0.0047,-0.0398 0.0041,-0.0408 0.0031,-0.0413 0.0026,-0.0413 10e-4,-0.0424 5.17e-4,-0.0429 -5.17e-4,-0.0398 -10e-4,-0.0393 -0.0026,-0.0398 -0.0031,-0.0403 -0.0047,-0.0398 -0.0052,-0.0403 -0.0067,-0.0403 -0.0072,-0.0403 -0.0083,-0.0403 -0.0093,-0.0403 -0.01034,-0.0403 -0.01137,-0.0403 -0.0124,-0.0403 -0.01395,-0.0403 -0.01447,-0.0403 -0.0155,-0.0398 -0.0155,-0.0382 -0.01654,-0.0377 -0.01757,-0.0372 -0.0186,-0.0372 -0.01912,-0.0367 -0.02067,-0.0367 -0.02119,-0.0362 -0.0217,-0.0357 -0.02325,-0.0357 -0.02377,-0.0351 -0.02481,-0.0346 -0.02584,-0.0341 -0.02635,-0.0336 -0.02739,-0.0331 -0.02842,-0.0326 -0.02945,-0.0315 -0.02842,-0.03 -0.02946,-0.0295 -0.03049,-0.0284 -0.03101,-0.0284 -0.03204,-0.0274 -0.03256,-0.0264 -0.03307,-0.0264 -0.03411,-0.0253 -0.03462,-0.0243 -0.03566,-0.0238 -0.03669,-0.0227 -0.03669,-0.0222 -0.03772,-0.0212 -0.03876,-0.0202 -0.03876,-0.0196 -0.04031,-0.0181 -0.03876,-0.0171 -0.03979,-0.016 -0.04031,-0.015 -0.04134,-0.0145 -0.04186,-0.0129 -0.04237,-0.0124 -0.04341,-0.0109 -0.04444,-0.0103 -0.04496,-0.009 -0.04548,-0.008 -0.04651,-0.007 -0.04703,-0.006 -0.04806,-0.005 -0.04858,-0.003 -0.04961,-0.002 -0.05013,-5.2e-4 -0.263033,0.002 -0.238745,0.006 -0.218075,0.009 -0.199471,0.0114 -0.1788,0.0124 -0.167949,0.0124 -0.160714,0.0114 -0.156579,0.009 -0.07545,0.004 -0.07596,0.002 -0.07596,0.001 h -0.077 l -0.07803,-0.002 -0.07906,-0.004 -0.0801,-0.006 -0.08217,-0.008 -0.08165,-0.0103 -0.08217,-0.0124 -0.08372,-0.0155 -0.08475,-0.0181 -0.08733,-0.0207 -0.08888,-0.0233 -0.09147,-0.0264 -0.09457,-0.0295 -0.05736,-0.0196 -0.05736,-0.0217 -0.05736,-0.0233 -0.05736,-0.0253 -0.05736,-0.0274 -0.05736,-0.0289 -0.05736,-0.031 -0.05684,-0.0326 -0.05684,-0.0341 -0.05684,-0.0362 -0.05633,-0.0372 -0.05581,-0.0393 -0.05581,-0.0403 -0.05478,-0.0419 -0.05478,-0.0434 -0.05478,-0.0444 -0.05323,-0.0455 -0.05323,-0.0475 -0.05323,-0.0486 -0.05323,-0.0501 -0.05219,-0.0517 -0.05271,-0.0532 -0.05168,-0.0548 -0.05168,-0.0563 -0.05064,-0.0579 -0.05064,-0.0589 -0.05013,-0.0605 -0.04961,-0.062 -0.04909,-0.0631 -0.04806,-0.0646 -0.04754,-0.0661 -0.04702,-0.0672 -0.08992,-0.13642 -0.08682,-0.1416 -0.0832,-0.14727 -0.0801,-0.15193 -0.07545,-0.15762 -0.03617,-0.0801 -0.03462,-0.0817 -0.03411,-0.0832 -0.03204,-0.0842 -0.03101,-0.0853 -0.02997,-0.0863 -0.05374,-0.17363 -0.04858,-0.17829 -0.04186,-0.18242 -0.03514,-0.18655 -0.01499,-0.0951 -0.01344,-0.0956 -0.01137,-0.0971 -0.0093,-0.0977 -0.0072,-0.0987 -0.0052,-0.0997 -0.0031,-0.10025 -0.0016,-0.10129 0.0016,-0.10025 0.0031,-0.0992 0.0124,-0.19637 0.02015,-0.19327 0.02791,-0.19017 0.03514,-0.18707 0.04186,-0.18345 0.04857,-0.17983 0.05478,-0.17622 0.05995,-0.1695 0.06563,-0.16588 0.07028,-0.16123 0.07545,-0.15761 0.07958,-0.15245 0.08372,-0.14779 0.08785,-0.14366 0.09095,-0.13798 0.04651,-0.0662 0.04703,-0.0651 0.09612,-0.12712 0.0987,-0.12144 0.101286,-0.11679 0.10387,-0.11111 0.10542,-0.10542 0.10697,-0.10025 0.108003,-0.0941 0.05374,-0.0439 0.05426,-0.0429 0.05426,-0.0413 0.05529,-0.0403 0.05581,-0.0388 0.05581,-0.0372 0.05633,-0.0362 0.05684,-0.0341 0.05684,-0.0331 0.05736,-0.031 0.05788,-0.0294 0.05788,-0.0274 0.05788,-0.0258 0.05788,-0.0238 0.05839,-0.0222 0.05788,-0.0196 0.09353,-0.0289 0.09043,-0.0263 0.08837,-0.0233 0.08682,-0.0207 0.08527,-0.0176 0.08423,-0.0155 0.0832,-0.0129 0.08268,-0.0103 0.08113,-0.008 0.07958,-0.006 0.07803,-0.004 0.07803,-0.002 h 0.077 l 0.07648,0.001 0.077,0.002 0.07648,0.004 0.154512,0.009 0.159681,0.0114 0.168465,0.0119 0.181384,0.0124 0.19637,0.0114 0.216525,0.009 0.240295,0.006 0.129708,0.002 0.136426,5.2e-4 0.04961,-5.2e-4 0.04858,-0.002 0.04806,-0.003 0.04703,-0.004 0.04702,-0.006 0.04599,-0.007 0.04547,-0.008 0.04496,-0.009 0.04444,-0.01 0.04341,-0.0114 0.04289,-0.0119 0.04237,-0.0134 0.04186,-0.0145 0.04082,-0.015 0.04031,-0.016 0.03979,-0.0176 0.03927,-0.0181 0.03824,-0.0186 0.03824,-0.0202 0.03721,-0.0212 0.03669,-0.0217 0.03617,-0.0227 0.03514,-0.0233 0.03514,-0.0248 0.03411,-0.0253 0.03359,-0.0258 0.03307,-0.0269 0.03204,-0.0274 0.03152,-0.0284 0.03049,-0.0295 0.03049,-0.0295 0.02894,-0.031 0.02894,-0.031 0.02739,-0.032 0.02739,-0.032 0.02584,-0.0331 0.02584,-0.0336 0.02429,-0.0346 0.02377,-0.0346 0.02325,-0.0351 0.02222,-0.0357 0.02119,-0.0367 0.02067,-0.0367 0.01964,-0.0372 0.01912,-0.0377 0.01757,-0.0377 0.01705,-0.0388 0.01602,-0.0388 0.0155,-0.0388 0.01395,-0.0393 0.01344,-0.0393 0.0124,-0.0398 0.01137,-0.0398 0.01033,-0.0403 0.0093,-0.0398 0.0083,-0.0403 0.0078,-0.0403 0.0062,-0.0408 0.0057,-0.0403 0.0047,-0.0408 0.0036,-0.0403 0.0026,-0.0408 10e-4,-0.0403 5.17e-4,-0.0408 0.0036,-2.10013 -0.0036,-1.96112 -5.17e-4,-0.0403 -10e-4,-0.0408 -0.0026,-0.0403 -0.0036,-0.0408 -0.0047,-0.0403 -0.0057,-0.0408 -0.0062,-0.0403 -0.0078,-0.0403 -0.0083,-0.0403 -0.0093,-0.0403 -0.01033,-0.0398 -0.01137,-0.0398 -0.0124,-0.0398 -0.01344,-0.0393 -0.01395,-0.0393 -0.0155,-0.0393 -0.01602,-0.0388 -0.01705,-0.0382 -0.01809,-0.0382 -0.0186,-0.0377 -0.01964,-0.0372 -0.02067,-0.0367 -0.02119,-0.0362 -0.02222,-0.0362 -0.02325,-0.0351 -0.02377,-0.0346 -0.02481,-0.0346 -0.02532,-0.0336 -0.02636,-0.0331 -0.02739,-0.0326 -0.02739,-0.0315 -0.02894,-0.0315 -0.02894,-0.0305 -0.03049,-0.03 -0.03049,-0.0289 -0.03152,-0.0284 -0.03204,-0.0274 -0.03307,-0.0269 -0.03359,-0.0258 -0.03411,-0.0253 -0.03462,-0.0243 -0.03566,-0.0238 -0.03566,-0.0227 -0.03669,-0.0217 -0.03721,-0.0207 -0.03824,-0.0202 -0.03824,-0.0191 -0.03927,-0.0181 -0.03979,-0.0171 -0.04031,-0.016 -0.04082,-0.0155 -0.04186,-0.0139 -0.04237,-0.0134 -0.04289,-0.0124 -0.04341,-0.0109 -0.04444,-0.0103 -0.04496,-0.009 -0.04547,-0.008 -0.04599,-0.007 -0.04702,-0.006 -0.04754,-0.004 -0.04754,-0.003 -0.04858,-0.002 -0.04961,-0.001 -0.266134,0.002 -0.240295,0.007 -0.217041,0.009 -0.196371,0.0114 -0.349849,0.0243 -0.159164,0.0114 -0.154512,0.009 -0.07648,0.004 -0.077,0.002 -0.07648,10e-4 h -0.077 l -0.07803,-0.002 -0.07803,-0.004 -0.07958,-0.006 -0.08113,-0.008 -0.08268,-0.0103 -0.0832,-0.0129 -0.08423,-0.0155 -0.08527,-0.0176 -0.08733,-0.0207 -0.08837,-0.0233 -0.09043,-0.0264 -0.09354,-0.0289 -0.05788,-0.0196 -0.0584,-0.0222 -0.05788,-0.0238 -0.05788,-0.0258 -0.05788,-0.0274 -0.05736,-0.0295 -0.05736,-0.031 -0.05736,-0.0331 -0.05684,-0.0341 -0.05633,-0.0362 -0.05581,-0.0372 -0.05529,-0.0388 -0.05529,-0.0403 -0.05478,-0.0413 -0.05374,-0.0429 -0.05374,-0.0439 -0.05426,-0.0465 -0.05374,-0.0476 -0.05374,-0.0496 -0.05323,-0.0506 -0.05323,-0.0522 -0.05219,-0.0537 -0.05219,-0.0548 -0.05168,-0.0563 -0.05064,-0.0574 -0.05064,-0.0594 -0.04961,-0.0599 -0.04909,-0.0615 -0.04858,-0.063 -0.04754,-0.0641 -0.04703,-0.0651 -0.04651,-0.0661 -0.09095,-0.13849 -0.08785,-0.14315 -0.08372,-0.14779 -0.07958,-0.15245 -0.07545,-0.15709 -0.03566,-0.0801 -0.03462,-0.0811 -0.03359,-0.0822 -0.03204,-0.0837 -0.03049,-0.0842 -0.02946,-0.0853 -0.05478,-0.17622 -0.04857,-0.17984 -0.04186,-0.18345 -0.03514,-0.18707 -0.01499,-0.0951 -0.01292,-0.0956 -0.01137,-0.0961 -0.0088,-0.0971 -0.0072,-0.0982 -0.0052,-0.0982 -0.0031,-0.0992 -0.0016,-0.10025 0.0016,-0.10129 0.0031,-0.10025 0.0124,-0.19844 0.02067,-0.19482 0.02842,-0.19017 0.03514,-0.18655 0.04186,-0.18242 0.04858,-0.17828 0.05374,-0.17363 0.06098,-0.17157 0.06614,-0.16743 0.0708,-0.16227 0.07545,-0.15761 0.0801,-0.15193 0.0832,-0.14727 0.08733,-0.1416 0.0894,-0.13642 0.04702,-0.0672 0.04754,-0.0662 0.04806,-0.0646 0.04909,-0.0631 0.09974,-0.12247 0.101802,-0.11679 0.103353,-0.11059 0.104903,-0.1049 0.105937,-0.0992 0.106453,-0.0925 0.05478,-0.0444 0.05478,-0.0434 0.05529,-0.0419 0.05529,-0.0408 0.05633,-0.0388 0.05633,-0.0377 0.05633,-0.0357 0.05684,-0.0346 0.05684,-0.0326 0.05736,-0.0305 0.05736,-0.0295 0.05736,-0.0274 0.05736,-0.0253 0.05736,-0.0232 0.05736,-0.0217 0.05736,-0.0196 0.09457,-0.0295 0.09147,-0.0263 0.0894,-0.0233 0.08682,-0.0207 0.08475,-0.0176 0.08372,-0.0155 0.08217,-0.0124 0.08165,-0.0103 0.08217,-0.008 0.0801,-0.006 0.07906,-0.004 0.07803,-0.002 h 0.077 l 0.07648,0.001 0.07545,0.002 0.07545,0.004 0.156579,0.009 0.160714,0.0114 0.167949,0.0124 0.1788,0.0119 0.199988,0.0114 0.217558,0.009 0.238745,0.006 0.128674,0.002 0.134359,5.1e-4 0.05013,-5.1e-4 0.04961,-0.002 0.04858,-0.003 0.04806,-0.005 0.04703,-0.006 0.04651,-0.007 0.04599,-0.008 0.04496,-0.009 0.04393,-0.01 0.04341,-0.0114 0.04289,-0.0124 0.04186,-0.0129 0.04082,-0.0145 0.04082,-0.015 0.03927,-0.016 0.03876,-0.0165 0.04031,-0.0186 0.03927,-0.0196 0.03824,-0.0202 0.03772,-0.0212 0.03721,-0.0222 0.03617,-0.0233 0.03566,-0.0238 0.03462,-0.0243 0.03411,-0.0253 0.03359,-0.0258 0.03256,-0.0269 0.03152,-0.0274 0.03152,-0.0279 0.02997,-0.0289 0.02946,-0.0295 0.02842,-0.0295 0.02945,-0.032 0.02842,-0.0326 0.02739,-0.0331 0.02687,-0.0336 0.02532,-0.0341 0.02481,-0.0346 0.02429,-0.0351 0.02274,-0.0357 0.02222,-0.0357 0.02119,-0.0362 0.02015,-0.0362 0.01912,-0.0372 0.0186,-0.0367 0.01757,-0.0372 0.01654,-0.0377 0.0155,-0.0377 0.01602,-0.0403 0.01447,-0.0403 0.01343,-0.0403 0.0124,-0.0403 0.01137,-0.0403 0.01034,-0.0403 0.0093,-0.0408 0.0083,-0.0403 0.0078,-0.0403 0.0062,-0.0403 0.0052,-0.0398 0.0047,-0.0403 0.0031,-0.0398 0.0026,-0.0398 10e-4,-0.0393 5.17e-4,-0.0393 -5.17e-4,-0.0388 -0.0015,-0.0377 -0.0031,-0.0377 -0.0036,-0.0372 -0.0052,-0.0367 -0.0057,-0.0362 -0.0067,-0.0357 -0.0083,-0.0357 -0.0083,-0.0346 -0.0098,-0.0346 -0.0098,-0.0341 -0.01137,-0.0336 -0.01188,-0.0331 -0.0124,-0.0326 -0.02687,-0.0636 -0.0155,-0.0341 -0.01602,-0.0336 -0.01705,-0.0331 -0.01705,-0.032 -0.01809,-0.032 -0.0186,-0.031 -0.03772,-0.0605 -0.03876,-0.0584 -0.04031,-0.0553 -0.04031,-0.0527 -0.04082,-0.0501 -0.04754,-0.0558 -0.04599,-0.0512 -0.04392,-0.0475 -0.04237,-0.0429 -0.04031,-0.0393 -0.03721,-0.0351 -0.06666,-0.0579 -0.05374,-0.0434 -0.03824,-0.0284 -0.02274,-0.015 -0.01654,-0.0119 -0.01654,-0.0129 -0.01602,-0.0129 -0.01499,-0.0139 -0.01499,-0.014 -0.01395,-0.0145 -0.01344,-0.015 -0.01292,-0.0155 -0.0124,-0.016 -0.01137,-0.0165 -0.01137,-0.0165 -0.01033,-0.017 -0.0098,-0.0176 -0.0093,-0.0176 -0.0083,-0.0181 -0.0078,-0.0186 -0.0072,-0.0186 -0.0062,-0.0191 -0.0062,-0.0191 -0.0052,-0.0191 -0.0041,-0.0196 -0.0036,-0.0196 -0.0031,-0.0196 -0.0021,-0.0202 -0.0016,-0.0201 -0.001,-0.0202 v -0.0202 l 0.001,-0.0207 0.0016,-0.0202 0.0021,-0.0207 0.0031,-0.0202 0.0036,-0.0207 0.0047,-0.0202 0.0052,-0.0202 0.01292,-0.0388 0.0155,-0.0377 0.01809,-0.0362 0.02067,-0.0346 0.02325,-0.0326 0.02532,-0.031 0.02739,-0.0289 0.02946,-0.0269 0.03101,-0.0248 0.03359,-0.0227 0.03462,-0.0202 0.03617,-0.0176 0.03772,-0.015 0.03927,-0.0119 0.02015,-0.005 0.02015,-0.004 0.02687,-0.004 0.02739,-0.003 0.02687,-0.002 z"
       id="path22" /><path
       style="fill:none;fill-opacity:0.807843;stroke:#50df07;stroke-width:0.05291667;stroke-linecap:round;stroke-dasharray:none;stroke-opacity:1"
       d="m 10.556604,79.928783 a 2.125,2.125 0 0 1 0.472839,0.05374 2.125,2.125 0 0 1 0.449068,0.157096 2.125,2.125 0 0 1 0.403076,0.253215 2.125,2.125 0 0 1 0.336414,0.336414 2.125,2.125 0 0 1 0.253214,0.402559 2.125,2.125 0 0 1 0.157097,0.449585 2.125,2.125 0 0 1 0.05323,0.472839 2.125,2.125 0 0 1 -0.284737,1.062468 2.125,2.125 0 0 1 -0.77773,0.77773 2.125,2.125 0 0 1 -1.062467,0.284737 A 2.125,2.125 0 0 1 9.4941361,83.894432 2.125,2.125 0 0 1 8.7164058,83.116702 2.125,2.125 0 0 1 8.4316687,82.054234 2.125,2.125 0 0 1 8.7164058,80.991767 2.125,2.125 0 0 1 9.4941361,80.21352 2.125,2.125 0 0 1 10.556604,79.928783 Z"
       id="path21"
       inkscape:label="screw-circle" /><path
       style="fill:none;fill-opacity:0.807843;stroke:#50df07;stroke-width:0.05291667;stroke-linecap:round;stroke-dasharray:none;stroke-opacity:1"
       d="m -6.503337,66.49136 v 38.76249 h 3.0597615 c 0.1467005,0 0.2900654,0.0151 0.4283976,0.0434 0.1383323,0.0283 0.2718265,0.0703 0.3989421,0.12402 0.1271156,0.0538 0.2476509,0.11948 0.3607015,0.19586 0.1130506,0.0764 0.2185722,0.16328 0.3147095,0.25941 0.096137,0.0961 0.1830402,0.20114 0.2594157,0.3142 0.076375,0.11305 0.1420883,0.2341 0.1958536,0.36121 0.053765,0.12712 0.095717,0.26061 0.1240235,0.39895 0.028307,0.13833 0.042891,0.28118 0.042891,0.42788 0,0.1467 -0.014585,0.29006 -0.042891,0.42839 -0.028307,0.13834 -0.070258,0.27183 -0.1240235,0.39895 -0.053765,0.12711 -0.1194781,0.24816 -0.1958536,0.36121 -0.076375,0.11306 -0.1632785,0.21806 -0.2594157,0.3142 -0.096137,0.0961 -0.2016589,0.18304 -0.3147095,0.25941 -0.1130506,0.0764 -0.2335859,0.14209 -0.3607015,0.19586 -0.1271156,0.0538 -0.2606098,0.0957 -0.3989421,0.12402 -0.1383322,0.0283 -0.2816971,0.0434 -0.4283976,0.0434 H -6.503337 v 0.0114 46.09227 h 4.3335856 v -0.99993 l 5.167e-4,-0.0207 0.00103,-0.0207 0.0031,-0.0196 0.0031,-0.0202 0.00465,-0.0191 0.00517,-0.0191 0.0062,-0.0186 0.00723,-0.0181 0.00827,-0.0181 0.00879,-0.0171 0.0093,-0.0165 0.010335,-0.0165 0.011369,-0.0155 0.011886,-0.015 0.012402,-0.0145 0.013436,-0.0139 0.013953,-0.0134 0.014469,-0.0124 0.014986,-0.0119 0.015503,-0.0108 0.016536,-0.0109 0.016536,-0.01 0.017053,-0.009 0.018087,-0.008 0.018087,-0.007 0.018603,-0.006 0.01912,-0.005 0.01912,-0.004 0.019637,-0.004 0.020154,-0.003 0.020671,-0.001 0.020154,-5.2e-4 h 3.600297 l 0.021187,5.2e-4 0.020154,0.001 0.020154,0.003 0.019637,0.004 0.01912,0.004 0.01912,0.005 0.018603,0.006 0.018087,0.007 0.018087,0.008 0.017053,0.009 0.016536,0.01 0.016536,0.0109 0.015503,0.0108 0.014986,0.0119 0.014469,0.0124 0.013953,0.0134 0.013436,0.0139 0.012402,0.0145 0.011886,0.015 0.011369,0.0155 0.010335,0.0165 0.0093,0.0165 0.00879,0.0171 0.00827,0.0181 0.00723,0.0181 0.0062,0.0186 0.00517,0.0191 0.00465,0.0191 0.00362,0.0202 0.00258,0.0196 0.00155,0.0207 5.168e-4,0.0207 v 0.99993 h 8.2594439 v -1.00407 l 5.17e-4,-0.0207 0.0015,-0.0207 0.0021,-0.0202 0.0036,-0.0196 0.0047,-0.0191 0.0052,-0.0191 0.0062,-0.0186 0.0072,-0.0181 0.0083,-0.0176 0.0088,-0.0176 0.0093,-0.0165 0.01033,-0.0165 0.01137,-0.0155 0.01188,-0.015 0.0124,-0.0145 0.01344,-0.014 0.01395,-0.0134 0.01447,-0.0124 0.01499,-0.0119 0.0155,-0.0109 0.01654,-0.0109 0.01654,-0.01 0.01705,-0.009 0.01809,-0.008 0.01809,-0.007 0.0186,-0.006 0.01912,-0.005 0.01912,-0.004 0.01964,-0.004 0.02015,-0.002 0.02067,-0.002 0.02015,-5.1e-4 h 3.600297 l 0.02067,5.1e-4 0.02015,0.002 0.02015,0.002 0.01964,0.004 0.01912,0.004 0.01912,0.005 0.0186,0.006 0.01809,0.007 0.01809,0.008 0.01705,0.009 0.01654,0.01 0.01654,0.0109 0.0155,0.0109 0.01499,0.0119 0.01447,0.0124 0.01395,0.0134 0.01344,0.014 0.0124,0.0145 0.01189,0.015 0.01137,0.0155 0.01033,0.0165 0.0098,0.0165 0.0088,0.0176 0.0078,0.0176 0.0072,0.0181 0.0062,0.0186 0.0052,0.0191 0.0047,0.0191 0.0036,0.0196 0.0026,0.0202 0.0016,0.0207 5.16e-4,0.0207 v 1.00407 h 8.340577 v -1.00407 l 5.16e-4,-0.0207 0.001,-0.0207 0.0031,-0.0202 0.0031,-0.0196 0.0047,-0.0191 0.0052,-0.0191 0.0062,-0.0186 0.0072,-0.0181 0.0083,-0.0176 0.0088,-0.0176 0.0093,-0.0165 0.01034,-0.0165 0.01137,-0.0155 0.01188,-0.015 0.0124,-0.0145 0.01344,-0.014 0.01395,-0.0134 0.01447,-0.0124 0.01499,-0.0119 0.0155,-0.0109 0.01654,-0.0109 0.01654,-0.01 0.01705,-0.009 0.01809,-0.008 0.01809,-0.007 0.0186,-0.006 0.01912,-0.005 0.01912,-0.004 0.01964,-0.004 0.02015,-0.002 0.02067,-0.002 0.02015,-5.1e-4 h 3.600297 l 0.02119,5.1e-4 0.02015,0.002 0.02015,0.002 0.01964,0.004 0.01912,0.004 0.01912,0.005 0.0186,0.006 0.01809,0.007 0.01809,0.008 0.01705,0.009 0.01654,0.01 0.01654,0.0109 0.0155,0.0109 0.01499,0.0119 0.01447,0.0124 0.01395,0.0134 0.01344,0.014 0.0124,0.0145 0.01189,0.015 0.01137,0.0155 0.01034,0.0165 0.0093,0.0165 0.0088,0.0176 0.0083,0.0176 0.0072,0.0181 0.0062,0.0186 0.0052,0.0191 0.0047,0.0191 0.0036,0.0196 0.0026,0.0202 0.0015,0.0207 5.17e-4,0.0207 v 1.00407 h 4.359424 v 0.002 l 0.01964,0.002 0.01912,0.003 0.01912,0.004 0.01809,0.004 0.01809,0.005 0.01809,0.006 0.01705,0.007 0.01705,0.008 0.01654,0.008 0.01602,0.009 0.0155,0.01 0.01499,0.0109 0.01499,0.0109 0.01395,0.0119 0.01344,0.0129 0.01292,0.0129 0.0124,0.0134 0.01137,0.0145 0.01085,0.0145 0.01033,0.0155 0.0098,0.0155 0.0088,0.0165 0.0078,0.0165 0.0078,0.017 0.0067,0.0176 0.0057,0.0181 0.0047,0.0181 0.0041,0.0186 0.0031,0.0191 0.0026,0.0191 0.0016,0.0196 5.17e-4,0.0196 v 1.74201 h 9.491927 v -7.09414 l 5.17e-4,-0.0258 0.0021,-0.0253 0.0031,-0.0253 0.0041,-0.0248 0.0057,-0.0238 0.0067,-0.0243 0.0078,-0.0227 0.0093,-0.0227 0.0098,-0.0222 0.01085,-0.0217 0.0124,-0.0212 0.01292,-0.0202 0.01395,-0.0196 0.01447,-0.0186 0.01602,-0.0181 0.01654,-0.0176 0.01705,-0.0165 0.01809,-0.0155 0.01912,-0.015 0.01964,-0.0139 0.02015,-0.0129 0.02119,-0.0119 0.02119,-0.0108 0.02222,-0.0103 0.02274,-0.009 0.02325,-0.008 0.02377,-0.007 0.02429,-0.006 0.02481,-0.004 0.02532,-0.003 0.02532,-0.002 0.02584,-5.2e-4 h 0.09973 l 0.02584,5.2e-4 0.02532,0.002 0.02532,0.003 0.02429,0.004 0.02429,0.006 0.02377,0.007 0.02325,0.008 0.02274,0.009 0.02222,0.0103 0.0217,0.0108 0.02067,0.0119 0.02067,0.0129 0.01912,0.0139 0.01912,0.015 0.01809,0.0155 0.01757,0.0165 0.01654,0.0176 0.0155,0.0181 0.01499,0.0186 0.01395,0.0196 0.01292,0.0202 0.01189,0.0212 0.01085,0.0217 0.01033,0.0222 0.0088,0.0227 0.0078,0.0227 0.0067,0.0243 0.0057,0.0238 0.0047,0.0248 0.0031,0.0253 0.0021,0.0253 5.17e-4,0.0258 v 7.09414 H 86.455847 V 66.49136 H 39.717614 v 18.434017 l -5.16e-4,0.02584 -0.0021,0.02532 -0.0031,0.02532 -0.0047,0.02429 -0.0057,0.02429 -0.0067,0.02377 -0.0078,0.02325 -0.0088,0.02274 -0.01033,0.02222 -0.01085,0.0217 -0.01189,0.02067 -0.01292,0.02015 -0.01395,0.01964 -0.01499,0.01912 -0.0155,0.01809 -0.01654,0.01705 -0.01757,0.01654 -0.01809,0.01602 -0.0186,0.01447 -0.01964,0.01395 -0.02067,0.01292 -0.02067,0.0124 -0.0217,0.01085 -0.02222,0.0098 -0.02274,0.0088 -0.02325,0.0083 -0.02377,0.0067 -0.02429,0.0052 -0.0248,0.0047 -0.02481,0.0031 -0.02532,0.0021 -0.02584,5.17e-4 h -0.09973 l -0.02584,-5.17e-4 -0.02532,-0.0021 -0.02532,-0.0031 -0.02481,-0.0047 -0.02429,-0.0052 -0.02377,-0.0067 -0.02325,-0.0083 -0.02274,-0.0088 -0.0217,-0.0098 -0.0217,-0.01085 -0.02119,-0.0124 -0.02015,-0.01292 -0.01964,-0.01395 -0.01912,-0.01447 -0.01809,-0.01602 -0.01705,-0.01654 -0.01654,-0.01705 -0.01602,-0.01809 -0.01447,-0.01912 -0.01395,-0.01964 -0.01292,-0.02015 -0.0124,-0.02067 -0.01085,-0.0217 -0.0098,-0.02222 -0.0093,-0.02274 -0.0078,-0.02325 -0.0067,-0.02377 -0.0057,-0.02429 -0.0041,-0.02429 -0.0031,-0.02532 -0.0021,-0.02532 -5.17e-4,-0.02584 V 66.49136 Z"
       id="path20"
       inkscape:label="main-shape" /></g></svg>
