<?xml version="1.0" encoding="UTF-8" standalone="no"?>
<svg
   version="1.1"
   width="94.352997mm"
   height="94.343086mm"
   viewBox="0 0 94.353496 94.343585"
   id="svg5"
   sodipodi:docname="edge_cuts.multilayer.svg"
   inkscape:version="1.3 (0e150ed6c4, 2023-07-21)"
   xml:space="preserve"
   inkscape:export-filename="..\..\..\..\..\Users\crice\Downloads\layout.b141.png"
   inkscape:export-xdpi="1000"
   inkscape:export-ydpi="1000"
   xmlns:inkscape="http://www.inkscape.org/namespaces/inkscape"
   xmlns:sodipodi="http://sodipodi.sourceforge.net/DTD/sodipodi-0.dtd"
   xmlns="http://www.w3.org/2000/svg"
   xmlns:svg="http://www.w3.org/2000/svg"
   xmlns:rdf="http://www.w3.org/1999/02/22-rdf-syntax-ns#"
   xmlns:cc="http://creativecommons.org/ns#"
   xmlns:dc="http://purl.org/dc/elements/1.1/"><defs
     id="defs5"><inkscape:path-effect
       effect="offset"
       id="path-effect1962"
       is_visible="true"
       lpeversion="1.2"
       linejoin_type="miter"
       unit="mm"
       offset="0.2"
       miter_limit="4"
       attempt_force_join="false"
       update_on_knot_move="true" /><inkscape:path-effect
       effect="offset"
       id="path-effect1861"
       is_visible="true"
       lpeversion="1.2"
       linejoin_type="miter"
       unit="mm"
       offset="0.2"
       miter_limit="4"
       attempt_force_join="false"
       update_on_knot_move="true" /><inkscape:path-effect
       effect="offset"
       id="path-effect1240"
       is_visible="true"
       lpeversion="1.2"
       linejoin_type="miter"
       unit="mm"
       offset="0.2"
       miter_limit="4"
       attempt_force_join="false"
       update_on_knot_move="true" /><inkscape:path-effect
       effect="offset"
       id="path-effect6444"
       is_visible="true"
       lpeversion="1.2"
       linejoin_type="miter"
       unit="mm"
       offset="0.25"
       miter_limit="4"
       attempt_force_join="false"
       update_on_knot_move="true" /><inkscape:path-effect
       effect="offset"
       id="path-effect6443"
       is_visible="true"
       lpeversion="1.2"
       linejoin_type="miter"
       unit="mm"
       offset="0"
       miter_limit="4"
       attempt_force_join="false"
       update_on_knot_move="true" /><inkscape:path-effect
       effect="offset"
       id="path-effect6439"
       is_visible="true"
       lpeversion="1.2"
       linejoin_type="miter"
       unit="mm"
       offset="0.25"
       miter_limit="4"
       attempt_force_join="false"
       update_on_knot_move="true" /><inkscape:path-effect
       effect="offset"
       id="path-effect6438"
       is_visible="true"
       lpeversion="1.2"
       linejoin_type="miter"
       unit="mm"
       offset="0"
       miter_limit="4"
       attempt_force_join="false"
       update_on_knot_move="true" /><inkscape:path-effect
       effect="offset"
       id="path-effect368"
       is_visible="true"
       lpeversion="1.2"
       linejoin_type="miter"
       unit="px"
       offset="1"
       miter_limit="4"
       attempt_force_join="false"
       update_on_knot_move="true" /><inkscape:path-effect
       effect="offset"
       id="path-effect366"
       is_visible="true"
       lpeversion="1.2"
       linejoin_type="miter"
       unit="px"
       offset="1"
       miter_limit="4"
       attempt_force_join="false"
       update_on_knot_move="true" /><inkscape:path-effect
       effect="offset"
       id="path-effect1239"
       is_visible="true"
       lpeversion="1.2"
       linejoin_type="miter"
       unit="mm"
       offset="0.3"
       miter_limit="4"
       attempt_force_join="false"
       update_on_knot_move="true" /><inkscape:path-effect
       effect="offset"
       id="path-effect1235"
       is_visible="true"
       lpeversion="1.2"
       linejoin_type="miter"
       unit="mm"
       offset="0.3"
       miter_limit="4"
       attempt_force_join="false"
       update_on_knot_move="true" /><inkscape:path-effect
       effect="offset"
       id="path-effect1229"
       is_visible="true"
       lpeversion="1.2"
       linejoin_type="miter"
       unit="mm"
       offset="0.3"
       miter_limit="4"
       attempt_force_join="false"
       update_on_knot_move="true" /><inkscape:path-effect
       effect="offset"
       id="path-effect1211"
       is_visible="true"
       lpeversion="1.2"
       linejoin_type="miter"
       unit="mm"
       offset="0.3"
       miter_limit="4"
       attempt_force_join="false"
       update_on_knot_move="true" /></defs><sodipodi:namedview
     id="namedview5"
     pagecolor="#505050"
     bordercolor="#eeeeee"
     borderopacity="1"
     inkscape:showpageshadow="0"
     inkscape:pageopacity="0"
     inkscape:pagecheckerboard="0"
     inkscape:deskcolor="#505050"
     inkscape:document-units="mm"
     inkscape:zoom="2.8284271"
     inkscape:cx="205.94485"
     inkscape:cy="225.56706"
     inkscape:window-width="3840"
     inkscape:window-height="2054"
     inkscape:window-x="-11"
     inkscape:window-y="-11"
     inkscape:window-maximized="1"
     inkscape:current-layer="svg5"
     inkscape:export-bgcolor="#3a3a3aff"
     showgrid="false" /><title
     id="title1">SVG Image created as wing-combo-Edge_Cuts.svg date 2025/09/21 13:42:34 </title><desc
     id="desc1">Image generated by PCBNEW </desc><metadata
     id="metadata6"><rdf:RDF><cc:Work
         rdf:about=""><dc:title>SVG Image created as wing-combo-Edge_Cuts.svg date 2025/09/21 13:42:34 </dc:title></cc:Work></rdf:RDF></metadata><style
     type="text/css"
     id="style2">&#10;	.st0{fill:#981B1F;}&#10;	.st1{fill-rule:evenodd;clip-rule:evenodd;fill:#981B1F;}&#10;	.st2{fill:#FFFFFF;}&#10;	.st3{fill:none;}&#10;	.st4{fill:none;stroke:#8A1919;stroke-width:5;stroke-miterlimit:10;}&#10;</style><path
     style="fill:none;fill-opacity:0.0502666;stroke:#0ffa01;stroke-width:0.10000053;stroke-dasharray:none"
     d="m 42.763508,87.340352 h 0.01395 0.01395 l 0.01395,0.0016 0.01344,0.0015 0.01292,0.0026 0.01344,0.0026 0.01292,0.0036 0.0124,0.0047 0.0124,0.0047 0.01189,0.0052 0.01137,0.0062 0.01137,0.0067 0.01085,0.0067 0.01085,0.0078 0.0098,0.0078 0.0098,0.0088 0.0098,0.0088 0.0088,0.0093 0.0083,0.0098 0.0083,0.01034 0.0072,0.01033 0.0072,0.01085 0.0067,0.01137 0.0057,0.01189 0.0057,0.01189 0.0047,0.0124 0.0041,0.0124 0.0036,0.01292 0.0031,0.01292 0.0026,0.01344 0.0016,0.01344 0.001,0.01344 5.17e-4,0.01395 -5.17e-4,0.01395 -0.001,0.01395 -0.0016,0.01344 -0.0026,0.01344 -0.0031,0.01292 -0.0036,0.01292 -0.0041,0.0124 -0.0047,0.0124 -0.0057,0.01189 -0.0057,0.01137 -0.0067,0.01137 -0.0072,0.01085 -0.0072,0.01085 -0.0083,0.01033 -0.0083,0.0098 -0.0088,0.0093 -0.0098,0.0088 -0.0098,0.0083 -0.0098,0.0083 -0.01085,0.0078 -0.01085,0.0067 -0.01137,0.0067 -0.01137,0.0057 -0.01189,0.0057 -0.0124,0.0047 -0.0124,0.0041 -0.01292,0.0036 -0.01344,0.0031 -0.01292,0.0026 -0.01344,0.0016 -0.01395,0.001 -0.01395,5.17e-4 -0.01395,-5.17e-4 -0.01344,-0.001 -0.01344,-0.0016 -0.01344,-0.0026 -0.01292,-0.0031 -0.01292,-0.0036 -0.01292,-0.0041 -0.01189,-0.0047 -0.01189,-0.0057 -0.01188,-0.0057 -0.01137,-0.0067 -0.01085,-0.0067 -0.01085,-0.0078 -0.0098,-0.0083 -0.0098,-0.0083 -0.0093,-0.0088 -0.0093,-0.0093 -0.0083,-0.0098 -0.0083,-0.01033 -0.0072,-0.01085 -0.0072,-0.01085 -0.0062,-0.01137 -0.0062,-0.01137 -0.0052,-0.01189 -0.0052,-0.0124 -0.0041,-0.0124 -0.0036,-0.01292 -0.0031,-0.01292 -0.0021,-0.01344 -0.0021,-0.01344 -0.001,-0.01395 v -0.01395 -0.01395 l 0.001,-0.01344 0.0021,-0.01344 0.0021,-0.01344 0.0031,-0.01292 0.0036,-0.01292 0.0041,-0.0124 0.0052,-0.0124 0.0052,-0.01189 0.0062,-0.01189 0.0062,-0.01137 0.0072,-0.01085 0.0072,-0.01033 0.0083,-0.01034 0.0083,-0.0098 0.0093,-0.0093 0.0093,-0.0088 0.0098,-0.0088 0.0098,-0.0078 0.01085,-0.0078 0.01085,-0.0067 0.01137,-0.0067 0.01188,-0.0062 0.01189,-0.0052 0.01189,-0.0047 0.01292,-0.0047 0.01292,-0.0036 0.01292,-0.0026 0.01292,-0.0026 0.01395,-0.0015 z"
     id="path9" /><path
     style="fill:none;fill-opacity:0.0502666;stroke:#0ffa01;stroke-width:0.10000053;stroke-dasharray:none"
     d="m 42.763508,79.840511 h 0.01395 0.01395 l 0.01395,0.001 0.01344,0.0021 0.01292,0.0021 0.01344,0.0031 0.01292,0.0036 0.0124,0.0041 0.0124,0.0052 0.01189,0.0052 0.01137,0.0062 0.0067,0.0036 0.0047,0.0026 0.01085,0.0072 0.01085,0.0072 0.0098,0.0083 0.0098,0.0083 0.0098,0.0093 0.0088,0.0093 0.0083,0.0098 0.0083,0.01033 0.0072,0.01034 0.0072,0.01085 0.0031,0.0052 0.0036,0.0062 0.0057,0.01189 0.0057,0.01189 0.0047,0.01189 0.0041,0.01292 0.0036,0.0124 0.0031,0.01344 0.0026,0.01344 0.0016,0.01344 0.001,0.01344 5.17e-4,0.01395 a 0.27000001,0.27000001 0 0 1 0,5.16e-4 l -5.17e-4,0.01344 -0.001,0.01344 -0.0016,0.01395 -0.0026,0.01292 -0.0031,0.01344 -0.0036,0.0124 -0.0041,0.01292 -0.0047,0.01188 -0.0057,0.0124 -0.0057,0.01137 -0.0067,0.01137 -0.0072,0.01085 -0.0072,0.01085 -0.0083,0.01033 -0.0083,0.0093 -0.0083,0.0088 -5.17e-4,5.17e-4 a 0.27000001,0.27000001 0 0 1 -0.001,0.001 l -0.0088,0.0083 -0.0098,0.0083 -0.0098,0.0083 -0.01085,0.0072 -0.01085,0.0072 -0.01137,0.0062 -0.01137,0.0062 -0.01189,0.0057 -0.0124,0.0047 -0.0124,0.0041 -0.01292,0.0036 -0.01344,0.0031 -0.01292,0.0026 -0.01344,0.0015 -0.01395,0.001 -0.01395,5.17e-4 -0.01395,-5.17e-4 -0.01344,-0.001 -0.01344,-0.0015 -0.01344,-0.0026 -0.01292,-0.0031 -0.01292,-0.0036 -0.01292,-0.0041 -0.01189,-0.0047 -0.01189,-0.0057 -0.01188,-0.0062 -0.01137,-0.0062 -0.01085,-0.0072 -0.01085,-0.0072 -0.0098,-0.0083 -0.0098,-0.0083 -0.0093,-0.0093 -0.0093,-0.0093 -0.0083,-0.0093 -0.0083,-0.01033 -0.0072,-0.01085 -0.0072,-0.01085 -0.0062,-0.01137 -0.0062,-0.01137 -0.0052,-0.0124 -0.0052,-0.01188 -0.0041,-0.01292 -0.0036,-0.0124 -0.0031,-0.01344 -0.0021,-0.01292 -0.0021,-0.01395 -0.001,-0.01344 v -0.01344 a 0.27000001,0.27000001 0 0 1 0,-5.16e-4 v -0.01395 l 0.001,-0.01344 0.0021,-0.01344 0.0021,-0.01344 0.0031,-0.01344 0.0036,-0.0124 0.0041,-0.01292 0.0052,-0.01189 0.0052,-0.01189 0.0062,-0.01189 0.0062,-0.01137 0.0072,-0.01085 0.0072,-0.01034 0.0083,-0.01033 0.0083,-0.0098 0.0093,-0.0093 0.0093,-0.0093 0.0098,-0.0083 0.0098,-0.0083 0.01085,-0.0072 0.01085,-0.0072 0.01137,-0.0062 0.01188,-0.0062 0.01189,-0.0052 0.01189,-0.0052 0.01292,-0.0041 0.01292,-0.0036 0.01292,-0.0031 0.01292,-0.0021 0.01395,-0.0021 z"
     id="path8" /><path
     style="fill:none;fill-opacity:0.0502666;stroke:#0ffa01;stroke-width:0.10000053;stroke-dasharray:none"
     d="m 55.527654,79.053992 a 2.0616,2.0616 0 0 1 2.061384,2.0619 2.0616,2.0616 0 0 1 -2.061384,2.061384 2.0616,2.0616 0 0 1 -2.061383,-2.061384 2.0616,2.0616 0 0 1 2.061383,-2.0619 z"
     id="path7" /><path
     style="fill:none;fill-opacity:0.0502666;stroke:#0ffa01;stroke-width:0.10000053;stroke-dasharray:none"
     d="m 50.362568,36.362314 0.02687,0.0021 0.02636,0.0021 0.02687,0.0031 0.02636,0.0052 0.02584,0.0057 0.02584,0.0072 0.02584,0.0088 0.0248,0.0098 0.02481,0.01085 0.02377,0.0124 0.02377,0.01344 0.02274,0.01499 0.02015,0.01292 0.04186,0.02842 0.02842,0.02015 0.03307,0.0248 0.03772,0.02946 0.04186,0.03462 0.04599,0.03928 0.05013,0.04444 0.05323,0.05013 0.05684,0.05529 0.06046,0.0615 0.06305,0.0677 0.06563,0.0739 0.03359,0.03927 0.03462,0.04082 0.0584,0.07131 0.05891,0.07752 0.05994,0.0832 0.02997,0.04341 0.02997,0.04548 0.02946,0.04651 0.02894,0.04703 0.02894,0.04909 0.02842,0.05013 0.02739,0.05168 0.02739,0.05323 0.02635,0.05426 0.02532,0.05581 0.02325,0.05323 0.02222,0.05426 0.02119,0.05633 0.02015,0.05736 0.01964,0.0584 0.01809,0.05994 0.01654,0.0615 0.01602,0.06201 0.01395,0.06408 0.0124,0.06511 0.01085,0.06666 0.0088,0.0677 0.0072,0.06873 0.0057,0.07028 0.0031,0.0708 0.001,0.07286 -5.17e-4,0.06615 -0.0026,0.06563 -0.0041,0.06666 -0.0057,0.06615 -0.0072,0.06615 -0.0088,0.06615 -0.01033,0.06666 -0.01189,0.06563 -0.01395,0.06666 -0.0155,0.06563 -0.01654,0.06563 -0.0186,0.06615 -0.02015,0.0646 -0.0217,0.06511 -0.02377,0.0646 -0.02481,0.0646 -0.02532,0.06098 -0.02635,0.05943 -0.02791,0.05994 -0.02997,0.05994 -0.03101,0.05839 -0.03256,0.05891 -0.03359,0.05839 -0.03566,0.05685 -0.03669,0.05736 -0.03876,0.05529 -0.03979,0.05581 -0.04134,0.05529 -0.04289,0.05374 -0.04393,0.05323 -0.04599,0.05219 -0.04703,0.05168 -0.04651,0.04806 -0.04754,0.04754 -0.04909,0.04651 -0.05064,0.04599 -0.05168,0.04444 -0.05323,0.04341 -0.05426,0.04289 -0.05581,0.04134 -0.05736,0.04031 -0.0584,0.03876 -0.05994,0.03772 -0.06098,0.03669 -0.06253,0.03514 -0.06356,0.03359 -0.06511,0.03204 -0.06615,0.03101 -0.0646,0.02791 -0.06615,0.02636 -0.06718,0.02532 -0.06821,0.02325 -0.06925,0.0217 -0.07028,0.02015 -0.07131,0.0186 -0.07235,0.01654 -0.07286,0.01499 -0.07441,0.01292 -0.07545,0.01137 -0.07596,0.0093 -0.07752,0.0072 -0.07803,0.0052 -0.07855,0.0031 -0.0801,0.001 -0.282671,-0.0026 -0.25735,-0.0067 -0.234096,-0.0098 -0.214458,-0.01188 -0.358119,-0.02532 -0.153997,-0.01085 -0.13901,-0.0083 -0.06253,-0.0031 -0.05994,-0.0021 -0.05684,-0.001 h -0.05529 l -0.05374,0.001 -0.05271,0.0026 -0.05219,0.0036 -0.05219,0.0052 -0.05064,0.0062 -0.05271,0.0083 -0.05478,0.0098 -0.05736,0.0124 -0.06046,0.01395 -0.06356,0.01705 -0.0677,0.01964 -0.07131,0.02222 -0.02636,0.0088 -0.02687,0.01034 -0.02842,0.01188 -0.02946,0.01292 -0.03101,0.01447 -0.03152,0.01602 -0.03256,0.01809 -0.03359,0.01912 -0.03411,0.02067 -0.03514,0.02222 -0.03617,0.02377 -0.03669,0.02584 -0.03772,0.02739 -0.03824,0.02894 -0.03876,0.03049 -0.03979,0.03256 -0.03824,0.03256 -0.03876,0.03462 -0.03876,0.03514 -0.03876,0.03721 -0.03928,0.03824 -0.03876,0.03979 -0.03876,0.04082 -0.03876,0.04237 -0.03876,0.04341 -0.03824,0.04496 -0.03824,0.04599 -0.03824,0.04754 -0.03772,0.04858 -0.03721,0.05013 -0.03669,0.05116 -0.03669,0.05271 -0.06976,0.105937 -0.0677,0.110588 -0.06511,0.114206 -0.06201,0.118856 -0.05891,0.122474 -0.02842,0.06253 -0.02687,0.06356 -0.02635,0.0646 -0.02532,0.06511 -0.02377,0.06666 -0.02325,0.06718 -0.04186,0.13436 -0.03721,0.13746 -0.03256,0.14056 -0.02687,0.144178 -0.01188,0.07286 -0.0098,0.07338 -0.0088,0.07442 -0.0072,0.07493 -0.0057,0.07596 -0.0041,0.07648 -0.0021,0.077 -0.001,0.07751 0.001,0.07648 0.0021,0.07597 0.0098,0.150896 0.0155,0.148312 0.02119,0.146245 0.02687,0.144178 0.03256,0.141594 0.03772,0.139011 0.04237,0.136426 0.04651,0.131776 0.05064,0.128675 0.05529,0.125574 0.05839,0.122474 0.06201,0.118856 0.06511,0.115239 0.06873,0.111622 0.0708,0.108004 0.03617,0.05168 0.03617,0.05064 0.07442,0.09767 0.07545,0.09302 0.077,0.08837 0.07751,0.08372 0.07855,0.07855 0.07803,0.07338 0.07855,0.06821 0.03927,0.03204 0.03824,0.03049 0.03772,0.02842 0.03721,0.02739 0.03669,0.02532 0.03617,0.02377 0.03462,0.02222 0.03462,0.02067 0.03359,0.01912 0.03256,0.01809 0.03152,0.01602 0.03101,0.01499 0.02997,0.01344 0.02894,0.01189 0.02739,0.01033 0.02687,0.0093 0.0708,0.0217 0.06666,0.01964 0.06305,0.01654 0.06046,0.01447 0.05736,0.01189 0.05529,0.0098 0.05323,0.0083 0.05168,0.0067 0.05116,0.0052 0.05168,0.0036 0.05219,0.0026 0.05374,0.001 h 0.05529 l 0.05736,-0.001 0.06046,-0.0021 0.06356,-0.0026 0.136943,-0.0083 0.152963,-0.01085 0.170533,-0.0124 0.19017,-0.01292 0.210325,-0.01189 0.233578,-0.0098 0.258384,-0.0067 0.140044,-0.0021 0.146761,-5.16e-4 0.07855,0.001 0.07751,0.0031 0.077,0.0047 0.07596,0.0072 0.07545,0.0088 0.07493,0.01085 0.0739,0.01292 0.07338,0.01447 0.07235,0.01654 0.07131,0.01809 0.0708,0.02015 0.07028,0.0217 0.06873,0.02377 0.06821,0.02532 0.0677,0.02687 0.06615,0.02894 0.06511,0.02997 0.06356,0.03152 0.06253,0.03307 0.06201,0.03462 0.06046,0.03566 0.05943,0.03772 0.05788,0.03824 0.05736,0.04031 0.05581,0.04134 0.05478,0.04237 0.05374,0.04393 0.05271,0.04496 0.05116,0.04651 0.05013,0.04703 0.04858,0.04858 0.04754,0.04961 0.04599,0.05013 0.04496,0.05116 0.04341,0.05219 0.04186,0.05323 0.04134,0.05426 0.03927,0.05478 0.03824,0.05581 0.03721,0.05633 0.03566,0.05788 0.03411,0.05788 0.03307,0.05891 0.03152,0.05994 0.02997,0.05994 0.02842,0.06098 0.02739,0.0615 0.02584,0.06253 0.02429,0.06253 0.02274,0.06305 0.0217,0.06356 0.01964,0.06408 0.0186,0.0646 0.01705,0.06511 0.0155,0.06563 0.01395,0.06563 0.0124,0.06666 0.01034,0.06666 0.0093,0.06666 0.0078,0.06718 0.0057,0.0677 0.0041,0.0677 0.0026,0.0677 0.001,0.06821 0.0036,1.960614 -0.0036,2.100658 -0.001,0.0677 -0.0026,0.06821 -0.0041,0.0677 -0.0057,0.06718 -0.0078,0.06718 -0.0088,0.06666 -0.01085,0.06666 -0.0124,0.06615 -0.01344,0.06615 -0.0155,0.06563 -0.01705,0.06511 -0.0186,0.0646 -0.01964,0.06408 -0.0217,0.06356 -0.02274,0.06305 -0.02429,0.06253 -0.02584,0.06201 -0.02739,0.0615 -0.02842,0.06098 -0.03049,0.06046 -0.03152,0.05943 -0.03256,0.05891 -0.03462,0.0584 -0.03566,0.05736 -0.03669,0.05684 -0.03824,0.05581 -0.03979,0.05478 -0.04082,0.05374 -0.04237,0.05323 -0.04341,0.05219 -0.04496,0.05116 -0.04599,0.05064 -0.04754,0.04909 -0.04858,0.04858 -0.05013,0.04754 -0.05116,0.04599 -0.05271,0.04496 -0.05374,0.04393 -0.05478,0.04237 -0.05581,0.04134 -0.05684,0.04031 -0.05839,0.03876 -0.05943,0.03721 -0.06046,0.03617 -0.06201,0.03411 -0.06253,0.03359 -0.06356,0.03101 -0.06511,0.03049 -0.06615,0.02842 -0.06718,0.02739 -0.06821,0.02481 -0.06925,0.02377 -0.06976,0.02222 -0.0708,0.01964 -0.07183,0.0186 -0.07235,0.01654 -0.07338,0.01447 -0.0739,0.01292 -0.07493,0.01085 -0.07545,0.0088 -0.07596,0.0072 -0.077,0.0052 -0.07751,0.0031 -0.07855,0.001 -0.286288,-0.0026 -0.258901,-0.0067 -0.233062,-0.0098 -0.210324,-0.01188 -0.36122,-0.02532 -0.152963,-0.01085 -0.136943,-0.0083 -0.06356,-0.0031 -0.06046,-0.0021 -0.05736,-0.001 h -0.05529 l -0.05374,0.001 -0.05219,0.0026 -0.05168,0.0036 -0.05116,0.0052 -0.05168,0.0062 -0.05323,0.0083 -0.05529,0.01034 -0.05736,0.01188 -0.06046,0.01447 -0.06305,0.01705 -0.06666,0.01912 -0.0708,0.02222 -0.02687,0.0088 -0.02739,0.01085 -0.02894,0.01188 -0.02997,0.01344 -0.03049,0.01447 -0.03204,0.01654 -0.03256,0.01757 -0.03359,0.01912 -0.03411,0.02067 -0.03514,0.02274 -0.03617,0.02377 -0.03669,0.02532 -0.03721,0.02687 -0.03772,0.02894 -0.03824,0.03049 -0.03927,0.03204 -0.03927,0.03307 -0.03876,0.03462 -0.03927,0.03617 -0.03927,0.03721 -0.03927,0.03876 -0.03876,0.03979 -0.03927,0.04134 -0.03876,0.04237 -0.03824,0.04341 -0.03824,0.04496 -0.03824,0.04599 -0.03772,0.04703 -0.03721,0.04858 -0.03721,0.04961 -0.03617,0.05064 -0.03617,0.05168 -0.0708,0.107487 -0.06873,0.111622 -0.06511,0.115239 -0.06201,0.118857 -0.05839,0.121957 -0.0279,0.06253 -0.02739,0.06305 -0.02584,0.06408 -0.0248,0.06511 -0.02377,0.06511 -0.02274,0.06666 -0.04237,0.136427 -0.03772,0.13901 -0.03256,0.141594 -0.02687,0.143662 -0.02119,0.146245 -0.0088,0.0739 -0.0067,0.07493 -0.0057,0.07493 -0.0041,0.07545 -0.0021,0.07648 -0.001,0.07648 0.001,0.07751 0.0021,0.077 0.0098,0.15193 0.01602,0.149345 0.0217,0.146245 0.02687,0.144178 0.03256,0.140561 0.03721,0.137977 0.04186,0.134359 0.04703,0.133326 0.05168,0.129709 0.05529,0.126608 0.05839,0.122474 0.06253,0.118856 0.06511,0.114205 0.0677,0.110589 0.06976,0.106454 0.03669,0.05219 0.03669,0.05116 0.03721,0.05013 0.03772,0.04858 0.07648,0.09353 0.077,0.08837 0.07752,0.0832 0.07751,0.07855 0.07803,0.07235 0.077,0.06718 0.03979,0.03256 0.03876,0.03049 0.03824,0.02894 0.03772,0.02739 0.03669,0.02532 0.03617,0.02429 0.03514,0.02222 0.03411,0.02067 0.03359,0.01912 0.03256,0.01757 0.03152,0.01602 0.03049,0.01447 0.02946,0.01344 0.02894,0.01137 0.02687,0.01033 0.02636,0.0093 0.07131,0.02222 0.0677,0.0186 0.06356,0.01757 0.06046,0.01344 0.05736,0.0124 0.05478,0.0098 0.05271,0.0083 0.05064,0.0062 0.05219,0.0057 0.05219,0.0036 0.05271,0.0026 0.05374,5.16e-4 h 0.05529 l 0.05684,-5.16e-4 0.05994,-0.0026 0.06253,-0.0026 0.13901,-0.0088 0.153997,-0.01033 0.170533,-0.0124 0.187586,-0.0124 0.213942,-0.0124 0.234095,-0.0098 0.25735,-0.0067 0.137977,-0.0021 0.145211,-5.17e-4 0.07958,0.001 0.07906,0.0031 0.07803,0.0052 0.077,0.0072 0.07596,0.0093 0.07545,0.01034 0.07441,0.01292 0.07338,0.01499 0.07235,0.01705 0.07131,0.0186 0.07028,0.01964 0.06925,0.0217 0.06821,0.02326 0.06666,0.02532 0.06615,0.02687 0.06511,0.02791 0.06615,0.03101 0.06511,0.03152 0.06356,0.03359 0.06201,0.03514 0.0615,0.03669 0.05943,0.03772 0.0584,0.03876 0.05736,0.04031 0.05581,0.04186 0.05478,0.04289 0.05323,0.04341 0.05168,0.04444 0.05064,0.04547 0.04909,0.04651 0.04754,0.04806 0.04651,0.04806 0.04703,0.05116 0.04548,0.05271 0.04444,0.05271 0.04289,0.05478 0.04082,0.05478 0.04031,0.05478 0.03824,0.05684 0.03669,0.05633 0.03566,0.05788 0.03411,0.05736 0.03256,0.0584 0.03101,0.05994 0.02946,0.05891 0.02842,0.05994 0.02635,0.05994 0.02532,0.06098 0.02481,0.06408 0.02377,0.0646 0.0217,0.06511 0.02015,0.06511 0.01809,0.06511 0.01705,0.06615 0.0155,0.06563 0.01344,0.06615 0.0124,0.06615 0.01033,0.06615 0.0088,0.06666 0.0072,0.06615 0.0057,0.06666 0.0041,0.06615 0.0026,0.06666 5.17e-4,0.06615 -5.17e-4,0.0677 -0.0026,0.06666 -0.0036,0.06615 -0.0052,0.06511 -0.01395,0.126608 -0.0186,0.123507 -0.02325,0.118856 -0.02739,0.115239 -0.03049,0.111105 -0.03359,0.106971 -0.03876,0.109555 -0.04186,0.105937 -0.04444,0.101803 -0.04599,0.09715 -0.04754,0.09302 -0.04806,0.08837 -0.04961,0.08423 -0.04909,0.0801 -0.05374,0.08217 -0.05426,0.07855 -0.05374,0.07441 -0.05323,0.07028 -0.05219,0.06615 -0.05064,0.06201 -0.04858,0.05736 -0.04651,0.05323 -0.04858,0.05374 -0.04599,0.04961 -0.04341,0.04599 -0.04031,0.04134 -0.03876,0.03927 -0.03566,0.03566 -0.05736,0.05685 -0.01654,0.01602 -0.01809,0.01757 -0.03927,0.03772 -0.09663,0.09147 -0.05943,0.05684 -0.06201,0.06046 -0.06511,0.06408 -0.06821,0.06821 -0.09457,0.0956 -0.09405,0.09767 -0.09353,0.09922 -0.09199,0.100253 -0.06976,0.07752 -0.0677,0.077 -0.06563,0.077 -0.06356,0.07596 -0.09405,0.116273 -0.08682,0.111622 -0.07958,0.108004 -0.07338,0.10387 -0.06615,0.09922 -0.06046,0.0956 -0.05426,0.09095 -0.04806,0.08733 -0.02739,0.05271 -0.02532,0.05116 -0.02325,0.04909 -0.02067,0.04703 -0.0186,0.04547 -0.01654,0.04341 -0.01499,0.04186 -0.01292,0.03979 -0.01292,0.04341 -0.01033,0.04083 -0.0088,0.03876 -0.0067,0.03669 -0.0052,0.03411 -0.0036,0.03256 -0.0021,0.02997 -5.17e-4,0.02842 -0.001,0.297142 -0.0031,0.326596 -0.0124,0.795305 -0.0098,0.509015 -0.01705,0.991676 -0.0062,0.535888 -0.0026,0.535887 5.17e-4,0.02222 5.17e-4,0.02222 0.0016,0.0217 0.0016,0.02171 0.0052,0.04341 0.0036,0.02067 0.0036,0.02119 0.0047,0.02067 0.0047,0.02067 0.0057,0.02067 0.0057,0.02067 0.0062,0.02067 0.0067,0.02015 0.01499,0.04082 0.0088,0.02119 0.0088,0.02119 0.01964,0.04289 0.0217,0.04341 0.02429,0.04393 0.02687,0.04496 0.02842,0.04548 0.03101,0.04651 0.03359,0.04754 0.03669,0.05013 0.03876,0.05013 0.04082,0.05116 0.04237,0.05168 0.04444,0.05219 0.04548,0.05323 0.09663,0.109555 0.216525,0.23978 0.112139,0.125574 0.113172,0.128675 0.137977,0.162782 0.130742,0.162265 0.12299,0.162781 0.05891,0.08217 0.05736,0.08268 0.05529,0.0832 0.05374,0.08423 0.05168,0.08527 0.0047,0.0072 0.01137,0.01809 0.0067,0.01085 0.0067,0.01137 0.0057,0.01085 0.0052,0.0098 0.02326,0.05581 0.01602,0.05426 0.0088,0.05323 0.0026,0.05116 -0.0041,0.04909 -0.0098,0.04806 -0.01447,0.04548 -0.02015,0.04341 -0.02481,0.04134 -0.02842,0.03927 -0.03256,0.03669 -0.03617,0.03462 -0.03876,0.03152 -0.04186,0.02894 -0.04393,0.02636 -0.04547,0.02377 -0.04703,0.02015 -0.04806,0.01757 -0.04909,0.01395 -0.04858,0.01085 -0.04909,0.0078 -0.04806,0.0036 -0.04754,5.17e-4 -0.04599,-0.0036 -0.04444,-0.0067 -0.04186,-0.01137 -0.03979,-0.01499 -0.03669,-0.01912 -0.03359,-0.02326 -0.02945,-0.02739 -0.02584,-0.03204 -0.02119,-0.03669 -0.0021,-0.0047 -0.0026,-0.0052 -0.0062,-0.01033 -0.0062,-0.01137 -0.0067,-0.01085 -0.01033,-0.01757 -0.0047,-0.0072 -0.04031,-0.06666 -0.04237,-0.06615 -0.04444,-0.06666 -0.04599,-0.06615 -0.04806,-0.06718 -0.10232,-0.135393 -0.111105,-0.137977 -0.120407,-0.142111 -0.10387,-0.117823 -0.106971,-0.119373 -0.220659,-0.244431 -0.104904,-0.119373 -0.05323,-0.06149 -0.05323,-0.06305 -0.05271,-0.0646 -0.05219,-0.06511 -0.05116,-0.06666 -0.04961,-0.06718 -0.04754,-0.0677 -0.04651,-0.06976 -0.04547,-0.07131 -0.04341,-0.0739 -0.04186,-0.07597 -0.02015,-0.03927 -0.01964,-0.03928 -0.0186,-0.04031 -0.01809,-0.04031 -0.01757,-0.04134 -0.01705,-0.04186 -0.01602,-0.04238 -0.01499,-0.04289 -0.01447,-0.04341 -0.01344,-0.04393 -0.0124,-0.04444 -0.01137,-0.04444 -0.01034,-0.04548 -0.0098,-0.04547 -0.0083,-0.04651 -0.0072,-0.04651 -0.0067,-0.04754 -0.0052,-0.04754 -0.0041,-0.04858 -0.0026,-0.04858 -0.0021,-0.04961 -5.17e-4,-0.04961 0.0026,-0.544155 0.0062,-0.543123 0.01705,-0.996843 0.0098,-0.508499 0.0124,-0.78807 0.0036,-0.610819 5.17e-4,-0.03824 0.001,-0.03772 0.0052,-0.07648 0.0083,-0.07648 0.01085,-0.07648 0.01447,-0.07648 0.01705,-0.07648 0.01964,-0.077 0.02274,-0.07648 0.02222,-0.0677 0.02429,-0.06821 0.02635,-0.06925 0.02894,-0.06976 0.03101,-0.07028 0.03307,-0.07131 0.03566,-0.07183 0.03772,-0.07286 0.06408,-0.116272 0.07028,-0.11834 0.07648,-0.120407 0.08217,-0.123507 0.08888,-0.125574 0.09457,-0.127642 0.101287,-0.130742 0.107487,-0.132809 0.07235,-0.08682 0.07441,-0.0863 0.07596,-0.08682 0.07751,-0.0863 0.101803,-0.111105 0.102837,-0.108521 0.102836,-0.106971 0.102837,-0.10387 0.0739,-0.07338 0.06976,-0.06925 0.06666,-0.0646 0.06253,-0.05994 0.09767,-0.09353 0.03617,-0.03462 0.01395,-0.01292 0.01137,-0.01137 0.05529,-0.05426 0.03049,-0.03049 0.03256,-0.03307 0.03256,-0.03359 0.03462,-0.03669 0.03669,-0.03876 0.0186,-0.02067 0.01912,-0.02119 0.03617,-0.04134 0.03669,-0.04341 0.03824,-0.04703 0.03876,-0.04909 0.03927,-0.05168 0.03927,-0.05478 0.03927,-0.05684 0.03876,-0.05943 0.03514,-0.05684 0.03462,-0.05943 0.03359,-0.0615 0.03256,-0.06408 0.03152,-0.06615 0.02946,-0.06821 0.01447,-0.03514 0.01344,-0.03566 0.01344,-0.03566 0.0124,-0.03669 0.0217,-0.06976 0.02015,-0.07183 0.01757,-0.0739 0.0078,-0.03772 0.0067,-0.03824 0.0067,-0.03928 0.0057,-0.03979 0.0047,-0.03979 0.0041,-0.04082 0.0031,-0.04083 0.0021,-0.04186 0.0015,-0.04238 5.17e-4,-0.04289 -5.17e-4,-0.03927 -0.0015,-0.03979 -0.0021,-0.03979 -0.0036,-0.03979 -0.0041,-0.04031 -0.0057,-0.04031 -0.0062,-0.04031 -0.0072,-0.04031 -0.0083,-0.04031 -0.0098,-0.04031 -0.01033,-0.04031 -0.01137,-0.04031 -0.0124,-0.04031 -0.01344,-0.04031 -0.01447,-0.04031 -0.0155,-0.03979 -0.0155,-0.03824 -0.01705,-0.03721 -0.01705,-0.03772 -0.0186,-0.03721 -0.01964,-0.03669 -0.02015,-0.03669 -0.02119,-0.03617 -0.02222,-0.03566 -0.02274,-0.03566 -0.02377,-0.03514 -0.02481,-0.03462 -0.02584,-0.03411 -0.02636,-0.03359 -0.02791,-0.03256 -0.0279,-0.03256 -0.02946,-0.03204 -0.02894,-0.02997 -0.02946,-0.02946 -0.02997,-0.02842 -0.03101,-0.02842 -0.03204,-0.02739 -0.03256,-0.02635 -0.03307,-0.02635 -0.03411,-0.02481 -0.03514,-0.0248 -0.03566,-0.02377 -0.03617,-0.02274 -0.03721,-0.02222 -0.03772,-0.02119 -0.03824,-0.02015 -0.03927,-0.01964 -0.03979,-0.01809 -0.03876,-0.01705 -0.03979,-0.01602 -0.04031,-0.01499 -0.04134,-0.01395 -0.04186,-0.01344 -0.04289,-0.0124 -0.04341,-0.01085 -0.04393,-0.01034 -0.04496,-0.0088 -0.04599,-0.0083 -0.04599,-0.0067 -0.04754,-0.0057 -0.04754,-0.0047 -0.04858,-0.0031 -0.04961,-0.0021 -0.05013,-5.17e-4 -0.263034,0.0021 -0.239263,0.0062 -0.217559,0.0093 -0.199472,0.01137 -0.178802,0.01189 -0.168466,0.0124 -0.160197,0.01189 -0.156581,0.0093 -0.07545,0.0031 -0.07597,0.0026 -0.07648,0.0015 h -0.077 l -0.07752,-0.0021 -0.07855,-0.0036 -0.08113,-0.0057 -0.08165,-0.0078 -0.08165,-0.01034 -0.08217,-0.01292 -0.0832,-0.01499 -0.08578,-0.01809 -0.08682,-0.02067 -0.08888,-0.02326 -0.09147,-0.02635 -0.09405,-0.02946 -0.05788,-0.01964 -0.05736,-0.0217 -0.05736,-0.02325 -0.05788,-0.02584 -0.05736,-0.02687 -0.05736,-0.02894 -0.05684,-0.03101 -0.05736,-0.03256 -0.05684,-0.03462 -0.05633,-0.03566 -0.05633,-0.03721 -0.05529,-0.03927 -0.05581,-0.04031 -0.05529,-0.04186 -0.05529,-0.04341 -0.05426,-0.04444 -0.05323,-0.04548 -0.05323,-0.04754 -0.05374,-0.04858 -0.05271,-0.05013 -0.05271,-0.05219 -0.05219,-0.05323 -0.05168,-0.05478 -0.05116,-0.05581 -0.05168,-0.05788 -0.05013,-0.05891 -0.05064,-0.06046 -0.04909,-0.06201 -0.04909,-0.06356 -0.04806,-0.0646 -0.04754,-0.06563 -0.04703,-0.06718 -0.08992,-0.136426 -0.08682,-0.141595 -0.0832,-0.147278 -0.0801,-0.15193 -0.07545,-0.157614 -0.03566,-0.0801 -0.03566,-0.08217 -0.03359,-0.08268 -0.03204,-0.08423 -0.03101,-0.08527 -0.02997,-0.0863 -0.05426,-0.173634 -0.04806,-0.178284 -0.04237,-0.182419 -0.03514,-0.18707 -0.01499,-0.09457 -0.0124,-0.09612 -0.01189,-0.09663 -0.0093,-0.09767 -0.0067,-0.0987 -0.0062,-0.09974 -0.0031,-0.100253 -5.17e-4,-0.101286 5.17e-4,-0.100253 0.0031,-0.09922 0.0124,-0.196372 0.02015,-0.19327 0.02791,-0.190171 0.03514,-0.187069 0.04289,-0.183453 0.04806,-0.179835 0.05478,-0.176217 0.05995,-0.170017 0.06563,-0.165365 0.0708,-0.161748 0.07441,-0.157097 0.0801,-0.152447 0.08372,-0.148312 0.08837,-0.143144 0.09043,-0.137977 0.04599,-0.06666 0.04703,-0.06511 0.09612,-0.126608 0.09974,-0.12144 0.100769,-0.116789 0.103354,-0.111105 0.10542,-0.105937 0.107488,-0.09974 0.108004,-0.09405 0.05323,-0.04393 0.05426,-0.04289 0.05478,-0.04134 0.05529,-0.04031 0.05529,-0.03876 0.05633,-0.03772 0.05633,-0.03566 0.05684,-0.03462 0.05684,-0.03256 0.05736,-0.03101 0.05736,-0.02946 0.05788,-0.0279 0.0584,-0.02532 0.05788,-0.02429 0.0584,-0.0217 0.05788,-0.01964 0.09302,-0.02894 0.09095,-0.02636 0.08837,-0.02325 0.08682,-0.02067 0.08527,-0.01809 0.08423,-0.01499 0.0832,-0.01292 0.08268,-0.01034 0.08113,-0.0083 0.07906,-0.0057 0.07855,-0.0036 0.07751,-0.0016 h 0.077 l 0.077,0.001 0.07648,0.0026 0.077,0.0036 0.154514,0.0093 0.159681,0.01085 0.168466,0.0124 0.181385,0.0124 0.196371,0.01085 0.216526,0.0093 0.240296,0.0062 0.129709,0.0021 0.136426,5.17e-4 0.04909,-0.001 0.04858,-0.0016 0.04806,-0.0031 0.04754,-0.0047 0.04651,-0.0052 0.04651,-0.0067 0.04548,-0.0078 0.04496,-0.0088 0.04393,-0.01033 0.04393,-0.01085 0.04289,-0.0124 0.04237,-0.01344 0.04186,-0.01395 0.04082,-0.0155 0.04031,-0.01602 0.03979,-0.01705 0.03927,-0.01809 0.03824,-0.01912 0.03772,-0.02015 0.03772,-0.02067 0.03669,-0.0217 0.03617,-0.02274 0.03514,-0.02377 0.03514,-0.02429 0.03411,-0.02532 0.03359,-0.02636 0.03256,-0.02636 0.03256,-0.02791 0.03101,-0.02842 0.03101,-0.02894 0.02997,-0.02997 0.02946,-0.03049 0.02842,-0.03152 0.02791,-0.03152 0.02687,-0.03256 0.02635,-0.03307 0.02532,-0.03359 0.02481,-0.03411 0.02377,-0.03514 0.02325,-0.03514 0.02222,-0.03566 0.02119,-0.03617 0.02067,-0.03669 0.01964,-0.03721 0.0186,-0.03772 0.01809,-0.03824 0.01705,-0.03824 0.01602,-0.03876 0.01499,-0.03927 0.01447,-0.03927 0.01344,-0.03927 0.01189,-0.03979 0.01137,-0.03979 0.01034,-0.03979 0.0098,-0.04031 0.0083,-0.04031 0.0072,-0.04031 0.0067,-0.04031 0.0057,-0.04082 0.0041,-0.04031 0.0036,-0.04082 0.0026,-0.04031 0.0015,-0.04082 5.17e-4,-0.04031 0.0036,-2.100142 -0.0036,-1.961131 -5.17e-4,-0.04082 -0.0015,-0.04031 -0.0026,-0.04082 -0.0036,-0.04031 -0.0041,-0.04082 -0.0057,-0.04031 -0.0067,-0.04082 -0.0072,-0.04031 -0.0083,-0.04031 -0.0098,-0.03979 -0.01034,-0.04031 -0.01137,-0.03979 -0.01189,-0.03979 -0.01344,-0.03928 -0.01447,-0.03927 -0.01499,-0.03876 -0.01602,-0.03876 -0.01705,-0.03876 -0.01809,-0.03772 -0.0186,-0.03772 -0.02015,-0.03721 -0.02015,-0.03721 -0.0217,-0.03617 -0.02222,-0.03566 -0.02274,-0.03566 -0.02429,-0.03462 -0.02429,-0.03411 -0.02584,-0.03411 -0.02635,-0.03307 -0.02687,-0.03204 -0.0279,-0.03204 -0.02842,-0.03101 -0.02946,-0.03049 -0.02997,-0.02997 -0.03049,-0.02946 -0.03152,-0.02842 -0.03256,-0.02739 -0.03256,-0.02687 -0.03359,-0.02584 -0.03411,-0.02532 -0.03462,-0.02429 -0.03566,-0.02325 -0.03617,-0.02274 -0.03669,-0.0217 -0.03721,-0.02119 -0.03772,-0.01964 -0.03824,-0.01912 -0.03927,-0.01809 -0.03979,-0.01757 -0.04031,-0.01602 -0.04134,-0.01499 -0.04134,-0.01447 -0.04237,-0.01344 -0.04289,-0.01189 -0.04393,-0.01137 -0.04393,-0.01034 -0.04496,-0.0088 -0.04548,-0.0078 -0.04651,-0.0067 -0.04651,-0.0057 -0.04754,-0.0041 -0.04806,-0.0031 -0.04858,-0.0021 -0.04909,-5.17e-4 -0.266651,0.0021 -0.240297,0.0067 -0.216525,0.0093 -0.196372,0.01137 -0.349851,0.02429 -0.159681,0.01137 -0.153997,0.0093 -0.077,0.0036 -0.07648,0.0021 -0.077,0.0016 h -0.077 l -0.07751,-0.0021 -0.07855,-0.0036 -0.07906,-0.0057 -0.08113,-0.0078 -0.08268,-0.01033 -0.08372,-0.01292 -0.08372,-0.0155 -0.08578,-0.01809 -0.08682,-0.02015 -0.08837,-0.02377 -0.09043,-0.02584 -0.09353,-0.02894 -0.0584,-0.02015 -0.05788,-0.0217 -0.05788,-0.02377 -0.05839,-0.02584 -0.05736,-0.02739 -0.05788,-0.02946 -0.05736,-0.03152 -0.05684,-0.03256 -0.05684,-0.03411 -0.05633,-0.03617 -0.05581,-0.03721 -0.05529,-0.03876 -0.05529,-0.04031 -0.05478,-0.04186 -0.05426,-0.04237 -0.05323,-0.04392 -0.05374,-0.04651 -0.05478,-0.04754 -0.05323,-0.04961 -0.05374,-0.05064 -0.05271,-0.05219 -0.05271,-0.05374 -0.05168,-0.05478 -0.05168,-0.05633 -0.05116,-0.05788 -0.04961,-0.05891 -0.05064,-0.06046 -0.04909,-0.0615 -0.04806,-0.06253 -0.04806,-0.06408 -0.04703,-0.06511 -0.04599,-0.06615 -0.09147,-0.138494 -0.08733,-0.143144 -0.08372,-0.147795 -0.0801,-0.152447 -0.07493,-0.157097 -0.03617,-0.0801 -0.03411,-0.08165 -0.03359,-0.08217 -0.03204,-0.0832 -0.02997,-0.08423 -0.02997,-0.08527 -0.05478,-0.176218 -0.04858,-0.180351 -0.04237,-0.183453 -0.03514,-0.187069 -0.01395,-0.09457 -0.01395,-0.0956 -0.01085,-0.09663 -0.0093,-0.09664 -0.0067,-0.09819 -0.0057,-0.0987 -0.0031,-0.09922 -5.17e-4,-0.09974 5.17e-4,-0.101286 0.0031,-0.10077 0.01292,-0.197922 0.02119,-0.194821 0.02739,-0.190687 0.03514,-0.186553 0.04237,-0.182419 0.04806,-0.177768 0.05426,-0.173633 0.06098,-0.172084 0.06563,-0.166915 0.07131,-0.162265 0.07545,-0.157614 0.07958,-0.152447 0.08372,-0.146761 0.08682,-0.142111 0.08992,-0.13591 0.04703,-0.06718 0.04754,-0.06615 0.04806,-0.0646 0.04909,-0.06304 0.09922,-0.122474 0.101803,-0.11679 0.103353,-0.110588 0.104904,-0.104903 0.105937,-0.09922 0.106971,-0.0925 0.05426,-0.04496 0.05478,-0.04289 0.05529,-0.04237 0.05581,-0.04031 0.05581,-0.03927 0.05633,-0.03721 0.05684,-0.03617 0.05684,-0.03411 0.05684,-0.03256 0.05736,-0.03101 0.05736,-0.02894 0.05736,-0.02739 0.05736,-0.02532 0.05736,-0.02377 0.05736,-0.02119 0.05736,-0.01964 0.09457,-0.02946 0.09147,-0.02636 0.08888,-0.02325 0.08682,-0.02067 0.08527,-0.01809 0.08372,-0.01499 0.08217,-0.0124 0.08165,-0.01034 0.08165,-0.0083 0.08062,-0.0057 0.07907,-0.0036 0.07803,-0.0016 h 0.077 l 0.07596,0.001 0.07597,0.0026 0.07545,0.0036 0.156581,0.0093 0.160714,0.01137 0.167949,0.01188 0.178802,0.0124 0.199472,0.01137 0.218076,0.0093 0.238746,0.0062 0.128158,0.0021 0.134876,5.16e-4 0.05013,-5.16e-4 0.04961,-0.0021 0.04858,-0.0036 0.04806,-0.0041 0.04703,-0.0057 0.04651,-0.0067 0.04548,-0.0083 0.04496,-0.0093 0.04444,-0.0098 0.04341,-0.01137 0.04237,-0.0124 0.04237,-0.01292 0.04082,-0.01447 0.04031,-0.01499 0.03979,-0.01602 0.03876,-0.01654 0.03979,-0.0186 0.03927,-0.01964 0.03876,-0.02015 0.03772,-0.02119 0.03669,-0.02222 0.03669,-0.02274 0.03566,-0.02377 0.03462,-0.0248 0.03411,-0.02532 0.03359,-0.02584 0.03204,-0.02687 0.03204,-0.02739 0.03101,-0.0279 0.03049,-0.02894 0.02894,-0.02894 0.02894,-0.02997 0.02946,-0.03204 0.02842,-0.03256 0.02739,-0.03307 0.02636,-0.03359 0.02584,-0.03411 0.02481,-0.03462 0.02377,-0.03514 0.02325,-0.03514 0.0217,-0.03617 0.02119,-0.03617 0.02067,-0.03617 0.01912,-0.03721 0.0186,-0.03669 0.01757,-0.03721 0.01654,-0.03772 0.0155,-0.03772 0.0155,-0.04031 0.01447,-0.04031 0.01344,-0.04031 0.01292,-0.04031 0.01137,-0.04031 0.01034,-0.04082 0.0093,-0.04031 0.0083,-0.04031 0.0072,-0.04031 0.0062,-0.04031 0.0057,-0.03979 0.0041,-0.04031 0.0036,-0.03979 0.0021,-0.03979 0.0015,-0.03927 5.17e-4,-0.03928 -5.17e-4,-0.03876 -0.0015,-0.03772 -0.0031,-0.03772 -0.0041,-0.03721 -0.0047,-0.03669 -0.0057,-0.03617 -0.0072,-0.03566 -0.0078,-0.03566 -0.0088,-0.03462 -0.0093,-0.03462 -0.01034,-0.03411 -0.01085,-0.03359 -0.01189,-0.03307 -0.0124,-0.03256 -0.02687,-0.06356 -0.0155,-0.03411 -0.01654,-0.03359 -0.01654,-0.03307 -0.01757,-0.03204 -0.01757,-0.03204 -0.0186,-0.03101 -0.03772,-0.06046 -0.03927,-0.0584 -0.03979,-0.05529 -0.04031,-0.05271 -0.04082,-0.05013 -0.04754,-0.05581 -0.04599,-0.05116 -0.04444,-0.04754 -0.04186,-0.04289 -0.04031,-0.03928 -0.03772,-0.03462 -0.06666,-0.05839 -0.05323,-0.04341 -0.03824,-0.02842 -0.02274,-0.01499 -0.01705,-0.01189 -0.01654,-0.01292 -0.0155,-0.01292 -0.0155,-0.01344 -0.01447,-0.01447 -0.01395,-0.01447 -0.01395,-0.01499 -0.01292,-0.0155 -0.01188,-0.01602 -0.01189,-0.01654 -0.01085,-0.01654 -0.01033,-0.01705 -0.0098,-0.01757 -0.0093,-0.01757 -0.0083,-0.01809 -0.0078,-0.0186 -0.0072,-0.0186 -0.0067,-0.0186 -0.0057,-0.01912 -0.0052,-0.01964 -0.0083,-0.03928 -0.0026,-0.01964 -0.0026,-0.02015 -0.0016,-0.02015 -5.16e-4,-0.02015 v -0.02015 l 5.16e-4,-0.02067 0.0016,-0.02015 0.0026,-0.02067 0.0031,-0.02015 0.0036,-0.02067 0.0047,-0.02015 0.0052,-0.02015 0.01292,-0.03876 0.0155,-0.03772 0.01809,-0.03617 0.02067,-0.03462 0.02274,-0.03256 0.02532,-0.03101 0.02739,-0.02894 0.02946,-0.02687 0.03152,-0.02481 0.03307,-0.02274 0.03514,-0.02015 0.03617,-0.01757 0.03772,-0.01499 0.03927,-0.01188 0.02015,-0.0052 0.02015,-0.0041 0.02687,-0.0047 0.02687,-0.0031 0.02687,-0.0016 z"
     id="path6" /><path
     style="fill:none;fill-opacity:0.0502666;stroke:#0ffa01;stroke-width:0.10000053;stroke-dasharray:none"
     d="m 18.818073,14.989862 0.05943,0.001 0.05995,0.0021 0.05943,0.0047 0.05891,0.0057 0.05943,0.0078 0.05891,0.0088 0.0584,0.01137 0.05839,0.0124 0.05788,0.01395 0.05736,0.0155 0.05684,0.01757 0.05684,0.0186 0.05581,0.02067 0.05529,0.02222 0.05478,0.02326 0.05426,0.02532 0.05323,0.02635 0.05271,0.02842 0.05168,0.02946 0.05116,0.03101 0.04961,0.03256 0.04909,0.03359 0.04858,0.03514 0.04703,0.03669 0.04599,0.03772 0.04496,0.03927 0.04393,0.04031 0.04289,0.04134 0.04134,0.04289 0.04031,0.04392 0.03927,0.04496 0.03772,0.04599 0.03669,0.04703 0.03514,0.04806 0.03359,0.04909 0.03256,0.05013 0.03101,0.05064 0.02946,0.05168 0.02791,0.05271 0.02687,0.05323 0.0248,0.05374 0.02377,0.05529 0.02222,0.05529 0.02015,0.05581 0.01912,0.05684 0.01705,0.05684 0.01602,0.05788 0.01395,0.05788 0.0124,0.0584 0.01085,0.0584 0.0093,0.05891 0.0072,0.05891 0.0057,0.05943 0.0041,0.05943 0.0026,0.05943 0.001,0.05994 -0.001,0.06976 -0.0036,0.06976 -0.0057,0.06925 -0.0083,0.06925 -0.0098,0.06821 -0.0124,0.06873 -0.01499,0.0677 -0.01654,0.06718 -0.01912,0.06666 -0.02119,0.06615 -0.02325,0.06511 -0.02584,0.0646 -0.02739,0.06408 -0.02997,0.06253 -0.03152,0.06201 -0.03411,0.0615 -0.03617,0.05994 -0.03772,0.0584 -0.03927,0.05736 -0.04186,0.05581 -0.04289,0.05426 -0.04496,0.05271 -0.04651,0.05168 -0.04858,0.04961 -0.04961,0.04858 -0.05116,0.04651 -0.05323,0.04496 -0.05426,0.04289 -0.05581,0.04134 -0.05736,0.03979 -0.05839,0.03772 -0.05995,0.03617 -0.06098,0.03411 -0.06201,0.03152 -0.06304,0.02997 -0.06408,0.02739 -0.0646,0.02532 -0.06511,0.02377 -0.06615,0.02119 -0.06666,0.01912 -0.06718,0.01654 -0.0677,0.01499 -0.06821,0.0124 -0.06873,0.0098 -0.06925,0.0083 -0.06925,0.0057 -0.06976,0.0036 -0.06976,0.001 -0.06976,-0.001 -0.06976,-0.0036 -0.06925,-0.0057 -0.06925,-0.0083 -0.06873,-0.0098 -0.06821,-0.0124 -0.0677,-0.01499 -0.06718,-0.01654 -0.06666,-0.01912 -0.06615,-0.02119 -0.06563,-0.02377 -0.0646,-0.02532 -0.06356,-0.02739 -0.06305,-0.02997 -0.06201,-0.03152 -0.06098,-0.03411 -0.05994,-0.03617 -0.05839,-0.03772 -0.05736,-0.03979 -0.05581,-0.04134 -0.05478,-0.04289 -0.05271,-0.04496 -0.05116,-0.04651 -0.05013,-0.04858 -0.04806,-0.04961 -0.04651,-0.05116 -0.04496,-0.05323 -0.04341,-0.05426 -0.04134,-0.05581 -0.03927,-0.05736 -0.03824,-0.0584 -0.03566,-0.05994 -0.03411,-0.06098 -0.03152,-0.06201 -0.02997,-0.06305 -0.02739,-0.06408 -0.02584,-0.0646 -0.02325,-0.06511 -0.02119,-0.06615 -0.01912,-0.06666 -0.01705,-0.06718 -0.01447,-0.0677 -0.0124,-0.06821 -0.01034,-0.06873 -0.0078,-0.06925 -0.0057,-0.06925 -0.0036,-0.06976 -0.001,-0.06976 0.001,-0.06976 0.0036,-0.06976 0.0057,-0.06925 0.0078,-0.06925 0.01034,-0.06873 0.0124,-0.06821 0.01447,-0.0677 0.01705,-0.06718 0.01912,-0.06666 0.02119,-0.06615 0.02325,-0.06563 0.02532,-0.06459 0.0279,-0.06356 0.02946,-0.06304 0.03204,-0.06201 0.03411,-0.06098 0.03566,-0.05995 0.03772,-0.05891 0.03979,-0.05685 0.04134,-0.05581 0.04341,-0.05478 0.04496,-0.05271 0.04651,-0.05168 0.04806,-0.04961 0.05013,-0.04858 0.05116,-0.04651 0.05271,-0.04496 0.05478,-0.04289 0.05581,-0.04186 0.05736,-0.03927 0.05839,-0.03824 0.05994,-0.03566 0.06098,-0.03411 0.06201,-0.03204 0.06305,-0.02946 0.06356,-0.02791 0.0646,-0.02532 0.06563,-0.02325 0.06615,-0.02119 0.06666,-0.01912 0.06718,-0.01705 0.0677,-0.01447 0.06821,-0.0124 0.06873,-0.01033 0.06925,-0.0078 0.06925,-0.0057 0.06976,-0.0036 z"
     id="path5" /><path
     style="fill:none;fill-opacity:0.05026658;stroke:#0ffa01;stroke-width:0.10000053;stroke-dasharray:none"
     d="m 73.4357,1.5161946 v 0.029456 l -25.456979,0.00672 V 15.223441 l -5.17e-4,0.02636 -0.0021,0.02532 -0.0031,0.02532 -0.0047,0.02429 -0.0057,0.02429 -0.0067,0.02377 -0.0083,0.02325 -0.0088,0.02274 -0.0098,0.02222 -0.01137,0.0217 -0.01189,0.02015 -0.01292,0.02067 -0.01344,0.01912 -0.0155,0.01964 -0.01499,0.01757 -0.01705,0.01757 -0.01705,0.01602 -0.0186,0.01654 -0.0186,0.01395 -0.01964,0.01447 -0.02067,0.01292 -0.02067,0.0124 -0.0217,0.01034 -0.02222,0.0098 -0.02274,0.0088 -0.02325,0.0083 -0.02377,0.0067 -0.02429,0.0057 -0.0248,0.0047 -0.02481,0.0031 -0.02532,0.0021 -0.02584,5.16e-4 h -0.09974 l -0.02584,-5.16e-4 -0.02532,-0.0021 -0.02532,-0.0031 -0.02481,-0.0047 -0.02429,-0.0057 -0.02377,-0.0067 -0.02325,-0.0083 -0.02274,-0.0088 -0.0217,-0.0098 -0.0217,-0.01034 -0.02119,-0.0124 -0.02015,-0.01292 -0.01964,-0.01447 -0.01912,-0.01395 -0.01809,-0.01654 -0.01705,-0.01602 -0.01654,-0.01757 -0.01602,-0.01757 -0.01447,-0.01964 -0.01395,-0.01912 -0.01292,-0.02067 -0.0124,-0.02015 -0.01085,-0.0217 -0.0098,-0.02222 -0.0093,-0.02274 -0.0078,-0.02325 -0.0067,-0.02377 -0.0057,-0.02429 -0.0036,-0.02429 -0.0036,-0.02532 -0.0021,-0.02532 -5.17e-4,-0.02636 V 1.5523683 H 2.1926426 C 1.9502737,1.5846243 1.7620526,1.780933 1.7580415,2.0314113 V 38.880003 h 3.0597778 l 0.054777,0.001 0.054777,0.0021 0.054261,0.0036 0.053744,0.0047 0.053227,0.0062 0.053227,0.0072 0.052193,0.0088 0.052193,0.0098 0.051677,0.01137 0.05116,0.01292 0.050643,0.01344 0.050126,0.01499 0.04961,0.01602 0.049093,0.01757 0.048576,0.0186 0.048059,0.01964 0.047543,0.02067 0.046509,0.0217 0.045992,0.02274 0.045476,0.02429 0.044959,0.02481 0.043925,0.02636 0.043925,0.02687 0.042375,0.02842 0.042375,0.02894 0.041341,0.02997 0.040308,0.03101 0.039791,0.03204 0.038758,0.03307 0.038241,0.03359 0.037207,0.03514 0.03669,0.03514 0.035657,0.03669 0.034623,0.03721 0.034107,0.03824 0.032556,0.03876 0.03204,0.03979 0.031523,0.04031 0.029972,0.04134 0.028939,0.04186 0.028422,0.04289 0.026872,0.04341 0.026355,0.04444 0.024805,0.04496 0.023771,0.04547 0.023255,0.04599 0.021704,0.04703 0.020671,0.04703 0.019637,0.04806 0.018604,0.04858 0.017053,0.04909 0.016536,0.04961 0.014986,0.05064 0.013436,0.05064 0.012402,0.05116 0.011369,0.05168 0.00982,0.05168 0.00879,0.05271 0.00723,0.05271 0.0062,0.05323 0.00465,0.05374 0.00362,0.05426 0.00207,0.05426 5.168e-4,0.05529 -5.168e-4,0.05478 -0.00207,0.05426 -0.00362,0.05426 -0.00465,0.05374 -0.0062,0.05323 -0.00723,0.05323 -0.00879,0.05271 -0.00982,0.05219 -0.011369,0.05116 -0.012402,0.05168 -0.013436,0.05064 -0.014986,0.05013 -0.016536,0.04961 -0.017053,0.04909 -0.018604,0.04858 -0.019637,0.04754 -0.020671,0.04754 -0.021704,0.04703 -0.023255,0.04599 -0.023771,0.04548 -0.024805,0.04496 -0.026355,0.04444 -0.026872,0.04341 -0.028422,0.04237 -0.028939,0.04237 -0.029972,0.04134 -0.031523,0.04031 -0.03204,0.03979 -0.032556,0.03876 -0.034107,0.03824 -0.034623,0.03721 -0.035657,0.03617 -0.03669,0.03566 -0.037207,0.03514 -0.038241,0.03359 -0.038758,0.03307 -0.039791,0.03204 -0.040308,0.03101 -0.041341,0.02997 -0.042375,0.02894 -0.042375,0.02842 -0.043925,0.02687 -0.043925,0.02636 -0.044959,0.02532 -0.045476,0.02377 -0.045992,0.02274 -0.046509,0.0217 -0.047543,0.02119 -0.048059,0.01912 -0.048576,0.0186 -0.049093,0.01757 -0.04961,0.01602 -0.050126,0.01499 -0.050643,0.01395 -0.05116,0.0124 -0.051677,0.01085 -0.052193,0.01033 -0.052193,0.0088 -0.053227,0.0072 -0.053227,0.0062 -0.053744,0.0047 -0.054261,0.0036 -0.054777,0.0021 -0.054777,5.17e-4 H 1.7580415 v 47.537918 h 4.3336086 v -0.999944 l 5.168e-4,-0.02067 0.00103,-0.02067 0.0031,-0.01964 0.0031,-0.02067 0.00465,-0.0186 0.00517,-0.01912 0.0062,-0.0186 0.00723,-0.01809 0.00827,-0.01809 0.00879,-0.01757 0.0093,-0.01654 0.010335,-0.01602 0.011369,-0.0155 0.011886,-0.01499 0.012402,-0.01447 0.013436,-0.01395 0.013953,-0.01344 0.01447,-0.0124 0.014986,-0.01188 0.015503,-0.01085 0.016537,-0.01085 0.016536,-0.01034 0.017053,-0.0088 0.018087,-0.0078 0.018087,-0.0072 0.018604,-0.0062 0.01912,-0.0047 0.01912,-0.0041 0.019637,-0.0041 0.020154,-0.0031 0.020671,-0.001 0.020154,-5.16e-4 h 3.6003159 l 0.02119,5.16e-4 0.02015,0.001 0.02015,0.0031 0.01964,0.0041 0.01912,0.0041 0.01912,0.0047 0.0186,0.0062 0.01809,0.0072 0.01809,0.0078 0.01705,0.0088 0.01654,0.01034 0.01654,0.01085 0.0155,0.01085 0.01499,0.01188 0.01447,0.0124 0.01395,0.01344 0.01344,0.01395 0.0124,0.01447 0.01189,0.01499 0.01137,0.0155 0.01034,0.01602 0.0093,0.01654 0.0088,0.01757 0.0083,0.01809 0.0072,0.01809 0.0062,0.0186 0.0052,0.01912 0.0047,0.0186 0.0036,0.02067 0.0026,0.01964 0.0015,0.02067 5.17e-4,0.02067 v 0.999944 h 8.259488 v -1.004078 l 5.16e-4,-0.02067 0.0016,-0.02067 0.0021,-0.02067 0.0036,-0.01912 0.0047,-0.01912 0.0057,-0.01912 0.0062,-0.0186 0.0067,-0.01809 0.0088,-0.01757 0.0088,-0.01809 0.0093,-0.01602 0.01034,-0.01654 0.01137,-0.0155 0.01189,-0.01499 0.0124,-0.01447 0.01292,-0.01447 0.01447,-0.01292 0.01447,-0.0124 0.01447,-0.0124 0.0155,-0.01085 0.01705,-0.01085 0.01654,-0.0098 0.01705,-0.0088 0.01809,-0.0083 0.01809,-0.0067 0.0186,-0.0062 0.01912,-0.0052 0.01912,-0.0041 0.01964,-0.0036 0.02015,-0.0021 0.02067,-0.0021 0.02015,-5.16e-4 h 3.600316 l 0.02067,5.16e-4 0.04031,0.0041 0.01912,0.0036 0.01912,0.0041 0.01912,0.0052 0.0186,0.0062 0.01809,0.0067 0.01809,0.0083 0.01757,0.0088 0.01602,0.0098 0.01705,0.01085 0.0155,0.01085 0.01447,0.0124 0.01447,0.0124 0.01447,0.01292 0.01344,0.01447 0.0124,0.01447 0.01189,0.01499 0.01137,0.0155 0.01034,0.01654 0.0093,0.01602 0.0093,0.01809 0.0078,0.01757 0.0072,0.01809 0.0062,0.0186 0.0052,0.01912 0.0047,0.01912 0.0036,0.01912 0.0026,0.02067 0.0016,0.02067 5.17e-4,0.02067 v 1.004078 h 8.340621 v -1.004078 l 5.16e-4,-0.02067 0.001,-0.02067 0.0031,-0.02067 0.0031,-0.01912 0.0047,-0.01912 0.0052,-0.01912 0.0062,-0.0186 0.0072,-0.01809 0.0083,-0.01757 0.0088,-0.01809 0.0093,-0.01602 0.01034,-0.01654 0.01137,-0.0155 0.01189,-0.01499 0.0124,-0.01447 0.01344,-0.01447 0.01395,-0.01292 0.01447,-0.0124 0.01499,-0.0124 0.0155,-0.01085 0.01654,-0.01085 0.01654,-0.0098 0.01705,-0.0088 0.01809,-0.0083 0.01809,-0.0067 0.0186,-0.0062 0.01912,-0.0052 0.01912,-0.0041 0.01964,-0.0036 0.02015,-0.0021 0.02067,-0.0021 0.02015,-5.16e-4 h 3.600317 l 0.02119,5.16e-4 0.04031,0.0041 0.01964,0.0036 0.01912,0.0041 0.01912,0.0052 0.0186,0.0062 0.01809,0.0067 0.01809,0.0083 0.01705,0.0088 0.01654,0.0098 0.01654,0.01085 0.0155,0.01085 0.01499,0.0124 0.01447,0.0124 0.01395,0.01292 0.01344,0.01447 0.0124,0.01447 0.01189,0.01499 0.01137,0.0155 0.01034,0.01654 0.0093,0.01602 0.0088,0.01809 0.0083,0.01757 0.0072,0.01809 0.0062,0.0186 0.0052,0.01912 0.0047,0.01912 0.0036,0.01912 0.0026,0.02067 0.0015,0.02067 5.17e-4,0.02067 v 1.004078 h 4.359447 v 0.0021 l 0.01964,0.0016 0.01912,0.0031 0.01912,0.0041 0.01809,0.0041 0.01809,0.0047 0.01809,0.0062 0.01705,0.0072 0.01705,0.0078 0.01654,0.0083 0.01602,0.0088 0.0155,0.0098 0.01499,0.01085 0.01499,0.01085 0.01395,0.0124 0.01344,0.0124 0.01292,0.01292 0.0124,0.01344 0.01137,0.01447 0.01085,0.01447 0.01033,0.0155 0.0098,0.0155 0.0088,0.01654 0.0078,0.01654 0.0078,0.01705 0.0067,0.01757 0.0057,0.01809 0.0047,0.01809 0.0041,0.0186 0.0031,0.01912 0.0026,0.01912 0.0015,0.01964 5.17e-4,0.01964 v 1.742022 h 9.491977 V 84.65833 l 5.17e-4,-0.02584 0.0021,-0.02532 0.0031,-0.02532 0.0041,-0.02481 0.0057,-0.02377 0.0067,-0.02429 0.0078,-0.02274 0.0093,-0.02274 0.0098,-0.02222 0.01085,-0.0217 0.0124,-0.02119 0.01292,-0.02015 0.01395,-0.01964 0.01447,-0.0186 0.01602,-0.01809 0.01654,-0.01757 0.01705,-0.01654 0.01809,-0.0155 0.01912,-0.01499 0.01964,-0.01395 0.02015,-0.01292 0.02119,-0.01188 0.02119,-0.01034 0.02222,-0.01033 0.02274,-0.0093 0.02325,-0.0078 0.02377,-0.0072 0.02429,-0.0057 0.0248,-0.0041 0.02532,-0.0031 0.02532,-0.0021 0.02584,-5.17e-4 h 0.09974 l 0.02584,5.17e-4 0.02532,0.0021 0.02532,0.0031 0.02429,0.0041 0.02429,0.0057 0.02377,0.0072 0.02325,0.0078 0.02274,0.0093 0.02222,0.01033 0.0217,0.01034 0.02067,0.01188 0.02067,0.01292 0.01912,0.01395 0.01912,0.01499 0.01809,0.0155 0.01757,0.01654 0.01654,0.01757 0.0155,0.01809 0.01499,0.0186 0.01395,0.01964 0.01292,0.02015 0.01189,0.02119 0.01085,0.0217 0.01033,0.02222 0.0088,0.02274 0.0078,0.02274 0.0067,0.02429 0.0057,0.02377 0.0047,0.02481 0.0031,0.02532 0.0026,0.02532 5.16e-4,0.02584 v 8.152518 l 13.569787,0.0062 h 27.768994 5.17e-4 c 0.276581,-2.83e-4 0.499431,-0.223134 0.499714,-0.499714 V 92.316818 89.406386 2.0159083 c 0,-0.2770012 -0.223229,-0.4997137 -0.500231,-0.4997137 z"
     id="rect1" /></svg>
