<?xml version="1.0" encoding="UTF-8" standalone="no"?>
<!-- Created with Inkscape (http://www.inkscape.org/) -->

<svg
   width="210mm"
   height="297mm"
   viewBox="0 0 210 297"
   version="1.1"
   id="svg1"
   xml:space="preserve"
   inkscape:version="1.3 (0e150ed6c4, 2023-07-21)"
   sodipodi:docname="usb-layout-guide.flattened.svg"
   xmlns:inkscape="http://www.inkscape.org/namespaces/inkscape"
   xmlns:sodipodi="http://sodipodi.sourceforge.net/DTD/sodipodi-0.dtd"
   xmlns="http://www.w3.org/2000/svg"
   xmlns:svg="http://www.w3.org/2000/svg"><sodipodi:namedview
     id="namedview1"
     pagecolor="#505050"
     bordercolor="#eeeeee"
     borderopacity="1"
     inkscape:showpageshadow="0"
     inkscape:pageopacity="0"
     inkscape:pagecheckerboard="0"
     inkscape:deskcolor="#505050"
     inkscape:document-units="mm"
     inkscape:zoom="7.22"
     inkscape:cx="489.12742"
     inkscape:cy="354.15513"
     inkscape:window-width="3840"
     inkscape:window-height="2054"
     inkscape:window-x="-11"
     inkscape:window-y="-11"
     inkscape:window-maximized="1"
     inkscape:current-layer="svg1" /><defs
     id="defs1" /><path
     id="circle396"
     style="display:inline;fill:none;fill-opacity:0.884996;stroke:#fffccf;stroke-width:0.15;stroke-opacity:0.978294;stroke-dasharray:none"
     inkscape:label="path2"
     d="m 106.62967,66.432223 a 0.96481299,0.96481299 0 0 1 0.96481,0.96482 0.96481299,0.96481299 0 0 1 -0.96481,0.96481 0.96481299,0.96481299 0 0 1 -0.96481,-0.96481 0.96481299,0.96481299 0 0 1 0.96481,-0.96482 z m 0,2.54002 a 0.96481299,0.96481299 0 0 1 0.96481,0.96481 0.96481299,0.96481299 0 0 1 -0.96481,0.96482 0.96481299,0.96481299 0 0 1 -0.96481,-0.96482 0.96481299,0.96481299 0 0 1 0.96481,-0.96481 z m 0,2.54079 a 0.96481299,0.96481299 0 0 1 0.96481,0.96482 0.96481299,0.96481299 0 0 1 -0.96481,0.96481 0.96481299,0.96481299 0 0 1 -0.96481,-0.96481 0.96481299,0.96481299 0 0 1 0.96481,-0.96482 z m 20.33119,5.08001 a 0.96481299,0.96481299 0 0 1 0.96481,0.96482 0.96481299,0.96481299 0 0 1 -0.96481,0.96481 0.96481299,0.96481299 0 0 1 -0.96481,-0.96481 0.96481299,0.96481299 0 0 1 0.96481,-0.96482 z m 0,2.54 a 0.96481299,0.96481299 0 0 1 0.96481,0.96482 0.96481299,0.96481299 0 0 1 -0.96481,0.96481 0.96481299,0.96481299 0 0 1 -0.96481,-0.96481 0.96481299,0.96481299 0 0 1 0.96481,-0.96482 z m 0,2.54081 a 0.96481299,0.96481299 0 0 1 0.96481,0.96482 0.96481299,0.96481299 0 0 1 -0.96481,0.96481 0.96481299,0.96481299 0 0 1 -0.96481,-0.96481 0.96481299,0.96481299 0 0 1 0.96481,-0.96482 z m -21.55482,-15.74796 v 20.47162 c 0,1.40714 1.13274,2.54041 2.53989,2.54041 h 17.69815 c 1.40716,0 2.54041,-1.13327 2.54041,-2.54041 v -10.21023" /></svg>
