<?xml version="1.0" encoding="UTF-8" standalone="no"?>
<!-- Created with Inkscape (http://www.inkscape.org/) -->

<svg
   width="48.355274mm"
   height="91.321869mm"
   viewBox="0 0 48.355274 91.321869"
   version="1.1"
   id="svg1"
   inkscape:version="1.3 (0e150ed6c4, 2023-07-21)"
   sodipodi:docname="keepout.simple.svg"
   xmlns:inkscape="http://www.inkscape.org/namespaces/inkscape"
   xmlns:sodipodi="http://sodipodi.sourceforge.net/DTD/sodipodi-0.dtd"
   xmlns="http://www.w3.org/2000/svg"
   xmlns:svg="http://www.w3.org/2000/svg"
   xmlns:rdf="http://www.w3.org/1999/02/22-rdf-syntax-ns#"
   xmlns:cc="http://creativecommons.org/ns#"
   xmlns:dc="http://purl.org/dc/elements/1.1/">
  <title
     id="title1">SVG Image created as wing-combo-B_Cu.svg date 2024/12/11 19:50:10 </title>
  <sodipodi:namedview
     id="namedview1"
     pagecolor="#505050"
     bordercolor="#eeeeee"
     borderopacity="1"
     inkscape:showpageshadow="0"
     inkscape:pageopacity="0"
     inkscape:pagecheckerboard="0"
     inkscape:deskcolor="#505050"
     inkscape:document-units="mm"
     inkscape:zoom="5.2382488"
     inkscape:cx="91.347323"
     inkscape:cy="172.57676"
     inkscape:window-width="3840"
     inkscape:window-height="2054"
     inkscape:window-x="-11"
     inkscape:window-y="-11"
     inkscape:window-maximized="1"
     inkscape:current-layer="layer1" />
  <defs
     id="defs1" />
  <g
     inkscape:label="Layer 1"
     inkscape:groupmode="layer"
     id="layer1"
     transform="translate(-131.23337,-10.31875)">
    <path
       id="path14"
       style="fill:#fdef52;fill-opacity:0.201066;stroke:#00ff0b;stroke-width:0.0555625;stroke-linecap:round"
       d="m 134.45516,10.346531 v 28.350725 c 3.6e-4,0.08283 0.032,3.764463 2.87011,6.687447 l 5.1e-4,0.0016 c 0.0111,0.0089 0.009,0.0055 0.0207,0.0155 0.0587,0.04902 0.12871,0.111652 0.20672,0.189652 0.078,0.078 0.16422,0.171383 0.25682,0.28267 0.0764,0.09181 0.1581,0.19907 0.2372,0.320911 0.0791,0.121841 0.1555,0.258274 0.2222,0.408244 0.0311,0.07005 0.0608,0.143905 0.0873,0.221175 0.0265,0.07727 0.0501,0.158107 0.0698,0.242362 0.0197,0.08426 0.0356,0.172024 0.0465,0.263034 0.0105,0.09101 0.016,0.18515 0.016,0.28267 0,0.08789 -0.004,0.176223 -0.0124,0.264583 -0.009,0.08836 -0.021,0.17696 -0.0382,0.2651 -0.0172,0.08814 -0.0388,0.175803 -0.0646,0.263033 -0.0257,0.08723 -0.056,0.173796 -0.0904,0.259416 -0.0325,0.08083 -0.0686,0.160838 -0.10904,0.239778 -0.0404,0.07894 -0.0851,0.156871 -0.13333,0.233061 -0.0482,0.07619 -0.10048,0.150662 -0.15658,0.223242 -0.0561,0.07258 -0.11593,0.143247 -0.17983,0.211357 -0.0609,0.06492 -0.12507,0.127912 -0.19327,0.188102 -0.0682,0.0602 -0.14019,0.117623 -0.21549,0.172083 -0.0753,0.05446 -0.15438,0.105769 -0.23668,0.153479 -0.0823,0.04771 -0.16815,0.09181 -0.25735,0.131775 -0.0858,0.03839 -0.17453,0.07319 -0.26613,0.103352 -0.0916,0.03017 -0.18557,0.05598 -0.28267,0.077 -0.0971,0.02102 -0.19697,0.0371 -0.29921,0.04806 -0.10224,0.01094 -0.20711,0.01654 -0.31419,0.01654 -0.39582,0 -0.71462,-0.01371 -0.98857,-0.03101 -0.079,-0.005 -0.12557,-0.0084 -0.19584,-0.01344 -0.16338,-0.01176 -0.33211,-0.02464 -0.45528,-0.03101 -0.17116,-0.009 -0.30609,-0.0088 -0.44545,0.0062 -0.0665,0.0075 -0.13701,0.01908 -0.21549,0.03669 -0.0785,0.0176 -0.16496,0.04118 -0.26303,0.07286 -0.0681,0.022 -0.14876,0.05848 -0.23927,0.111622 -0.0905,0.05314 -0.19088,0.122933 -0.29713,0.211873 -0.10238,0.08571 -0.2069,0.186272 -0.31006,0.300757 -0.10317,0.114485 -0.20497,0.242893 -0.30179,0.384472 -0.0948,0.138585 -0.1839,0.288902 -0.26459,0.449585 -0.0807,0.160689 -0.15292,0.331754 -0.2129,0.512114 -0.0589,0.176995 -0.10593,0.362969 -0.1385,0.556555 -0.0163,0.09679 -0.0292,0.195618 -0.0377,0.296106 -0.008,0.100488 -0.0129,0.202561 -0.0129,0.306441 0,0.102375 0.005,0.203611 0.0129,0.303341 0.008,0.09973 0.0205,0.197766 0.0367,0.294556 0.0323,0.193567 0.0797,0.381146 0.13953,0.561206 0.0591,0.177699 0.13035,0.347626 0.21084,0.508496 0.0805,0.16087 0.17021,0.312684 0.26665,0.453719 0.0954,0.139445 0.19616,0.267262 0.29921,0.381889 0.10306,0.114621 0.20838,0.21606 0.31264,0.30334 0.10467,0.08763 0.20402,0.156983 0.29456,0.210323 0.0905,0.05334 0.17225,0.09067 0.24184,0.113172 0.0967,0.03125 0.18246,0.05479 0.26097,0.07235 0.0785,0.01756 0.14975,0.02909 0.21755,0.03669 0.13688,0.0153 0.27114,0.01546 0.44545,0.0067 0.12095,-0.0063 0.29088,-0.0192 0.45528,-0.03101 0.0705,-0.0051 0.11493,-0.0084 0.19532,-0.01344 0.26648,-0.0168 0.58721,-0.03049 0.98909,-0.03049 0.10483,0 0.20788,0.0054 0.30903,0.01602 0.10116,0.01062 0.20056,0.0263 0.29766,0.04702 0.0971,0.02072 0.19203,0.04619 0.28474,0.07648 0.0927,0.03029 0.18298,0.06557 0.27078,0.104904 0.0871,0.03902 0.17182,0.0822 0.25322,0.129191 0.0814,0.04699 0.15972,0.09768 0.23513,0.151928 0.0754,0.05425 0.14794,0.11178 0.21703,0.1726 0.0691,0.06082 0.13491,0.125039 0.19741,0.191719 0.0622,0.06627 0.12133,0.135216 0.17673,0.206706 0.0554,0.07149 0.10715,0.145125 0.15555,0.221175 0.0484,0.07605 0.0933,0.154124 0.13435,0.234094 0.0411,0.07997 0.0781,0.161727 0.11163,0.244947 0.0334,0.08288 0.0633,0.167871 0.0889,0.253731 0.0256,0.08586 0.0471,0.172796 0.0646,0.260966 0.0175,0.08817 0.0308,0.177367 0.0398,0.267167 0.009,0.08981 0.0134,0.180025 0.0134,0.270785 0,1.149628 0.004,4.073887 0.002,4.112938 -0.002,0.03905 -0.006,0.129864 -0.0152,0.219614 -0.009,0.08975 -0.0224,0.17854 -0.0398,0.26665 -0.0174,0.08811 -0.039,0.175146 -0.0646,0.260966 -0.0256,0.08582 -0.0551,0.170831 -0.0884,0.253731 -0.0335,0.0832 -0.0705,0.16447 -0.11162,0.24443 -0.0411,0.07996 -0.0865,0.158551 -0.13488,0.234611 -0.0484,0.07606 -0.10005,0.149675 -0.15555,0.221175 -0.0555,0.0715 -0.11453,0.140937 -0.17673,0.207222 -0.0625,0.06665 -0.1283,0.130393 -0.19741,0.191203 -0.0691,0.06081 -0.14163,0.11834 -0.21703,0.1726 -0.0754,0.05426 -0.15363,0.104928 -0.23513,0.151928 -0.0815,0.047 -0.16602,0.09016 -0.25322,0.129191 -0.0878,0.03932 -0.17808,0.07456 -0.27078,0.104903 -0.0927,0.03034 -0.18764,0.05621 -0.28474,0.077 -0.0971,0.02079 -0.19648,0.03635 -0.29766,0.04703 -0.10116,0.01064 -0.20417,0.01654 -0.30903,0.01654 -0.40179,0 -0.72199,-0.0142 -0.98856,-0.031 -0.0805,-0.0051 -0.12514,-0.0084 -0.19585,-0.01344 -0.16436,-0.01182 -0.33439,-0.02478 -0.45527,-0.03101 -0.17425,-0.009 -0.30852,-0.0093 -0.44545,0.0057 -0.0678,0.0075 -0.13905,0.01953 -0.21756,0.03721 -0.0785,0.01768 -0.16428,0.04107 -0.26097,0.07235 -0.0696,0.0225 -0.1513,0.05983 -0.24184,0.113172 -0.0905,0.05334 -0.18986,0.122673 -0.29456,0.210323 -0.10421,0.08724 -0.20957,0.188719 -0.31264,0.30334 -0.10306,0.114621 -0.20382,0.242384 -0.29921,0.381889 -0.0964,0.140965 -0.18616,0.292464 -0.26665,0.453203 -0.0805,0.160734 -0.15172,0.330716 -0.21084,0.508496 -0.0598,0.179965 -0.10721,0.367633 -0.13953,0.561206 -0.0162,0.09679 -0.0283,0.194805 -0.0367,0.294555 -0.008,0.09975 -0.0129,0.200921 -0.0129,0.303341 0,0.10383 0.004,0.205978 0.0129,0.306441 0.008,0.100464 0.0214,0.199316 0.0377,0.296106 0.0326,0.193587 0.0796,0.37947 0.1385,0.556555 0.0599,0.180265 0.13222,0.351811 0.2129,0.512631 0.0807,0.160815 0.16976,0.31091 0.26459,0.449585 0.0968,0.141495 0.19863,0.269981 0.30179,0.384472 0.10315,0.114491 0.20761,0.214997 0.31006,0.300757 0.10618,0.08889 0.20611,0.158733 0.29662,0.211873 0.0905,0.05314 0.17161,0.08959 0.23978,0.111621 0.098,0.0317 0.18455,0.05538 0.26303,0.07286 0.0785,0.01748 0.1489,0.02877 0.2155,0.03617 0.13924,0.0156 0.27413,0.01579 0.44545,0.0072 0.12305,-0.0063 0.29185,-0.01923 0.45527,-0.03101 0.0703,-0.0051 0.11678,-0.0085 0.19585,-0.01344 0.27348,-0.0173 0.59237,-0.03152 0.98856,-0.03152 0.10694,0 0.21152,0.0056 0.31369,0.01654 0.10217,0.01094 0.20209,0.02706 0.2992,0.04806 0.0971,0.021 0.19159,0.04683 0.28319,0.077 0.0917,0.03017 0.18022,0.06489 0.26613,0.103352 0.0891,0.03989 0.17509,0.0836 0.25735,0.131259 0.0823,0.04766 0.16086,0.09903 0.23616,0.153479 0.0753,0.05445 0.14729,0.112359 0.21549,0.172599 0.0682,0.06024 0.13279,0.123052 0.19379,0.188102 0.0637,0.06796 0.12383,0.13835 0.17983,0.21084 0.056,0.07249 0.10828,0.147062 0.15658,0.223242 0.0483,0.07618 0.0923,0.154031 0.13281,0.233061 0.0405,0.07903 0.077,0.159265 0.10956,0.240295 0.0343,0.08536 0.0646,0.171759 0.0904,0.258899 0.0258,0.08714 0.0469,0.174833 0.0641,0.263033 0.0172,0.0882 0.0298,0.177077 0.0388,0.265617 0.009,0.08854 0.0129,0.17693 0.0129,0.2651 0,0.09105 -0.004,0.179627 -0.0119,0.265617 -0.008,0.08599 -0.0186,0.169344 -0.0326,0.250114 -0.0281,0.161535 -0.068,0.312514 -0.11472,0.452169 -0.0499,0.149305 -0.10865,0.287555 -0.17105,0.414445 -0.0625,0.12689 -0.1287,0.24242 -0.1943,0.345715 -0.0714,0.11245 -0.14467,0.214438 -0.21497,0.305408 -0.0703,0.09097 -0.13773,0.170925 -0.19793,0.238745 -0.0661,0.0744 -0.12718,0.138576 -0.17828,0.190686 -0.0531,0.05421 -0.10157,0.102025 -0.13177,0.131775 -0.021,0.0207 -0.0473,0.04591 -0.0739,0.07131 -0.019,0.0182 -0.0777,0.07327 -0.0966,0.09147 -0.0771,0.0738 -0.16196,0.156617 -0.25476,0.249597 -0.12669,0.12699 -0.25216,0.258201 -0.37414,0.392741 -0.0942,0.103874 -0.18325,0.206474 -0.26665,0.307474 -0.13027,0.15783 -0.24031,0.304374 -0.33331,0.439767 -0.093,0.135392 -0.16894,0.259634 -0.22944,0.373104 -0.0767,0.143824 -0.12739,0.26693 -0.15969,0.37052 -0.0185,0.05933 -0.0307,0.11239 -0.0387,0.15968 -0.008,0.0473 -0.0119,0.08883 -0.0119,0.125057 0,0.382344 -0.005,0.808243 -0.016,1.419032 0.007,-0.382469 -0.0169,0.89149 -0.0103,0.50901 -0.0114,0.59895 -0.0258,1.35853 -0.0258,2.06344 0,0.0602 0.006,0.11732 0.017,0.17312 0.0111,0.0558 0.027,0.11023 0.0481,0.16433 0.0219,0.0562 0.0494,0.1134 0.0832,0.1726 0.0338,0.0592 0.0737,0.12048 0.11989,0.18448 0.0958,0.13281 0.21232,0.26927 0.3452,0.41807 0.13909,0.15574 0.29112,0.32013 0.44183,0.49402 0.0945,0.10902 0.18412,0.21675 0.26872,0.32505 0.0846,0.10829 0.16426,0.21701 0.23926,0.32763 0.075,0.11062 0.14556,0.22351 0.21136,0.33951 0.0658,0.116 0.12665,0.23524 0.18345,0.35967 0.0467,0.10224 0.0875,0.20189 0.12351,0.29869 0.036,0.0968 0.0673,0.1908 0.0941,0.2806 0.0536,0.17965 0.0903,0.34379 0.11679,0.48679 0.0411,0.22202 0.062,0.42652 0.0734,0.59635 h 5.1e-4 v 0.004 c 1.6e-4,0.002 9.2e-4,0.006 0.001,0.008 0.0112,0.17172 0.0119,0.30507 0.0119,0.37827 -0.004,0.01 -0.008,0.0198 -0.0129,0.0294 v 11.650966 h 41.84344 V 10.346531 Z"
       sodipodi:nodetypes="ccccsssscsscscscscsssssscssssscccssssssscscscccscsssssccccsssssssscsscsssssccsscssscsssssscsccscssssssscccscscscssscsccccssscsssssssssssssccccssccscccscsssssccscsscssssssssscccccccccc"
       inkscape:label="keepout zone" />
    <path
       id="rect48"
       style="fill:#fdef52;fill-opacity:0.201066;stroke:#00ff0b;stroke-width:0.0555625;stroke-linecap:round"
       d="m 167.99959,12.277522 h 0.73652 c 0.6094,0 1.1,0.476409 1.1,1.068181 0,0.591772 -0.4906,1.068181 -1.1,1.068181 h -0.73652 c -0.6094,0 -1.10001,-0.476409 -1.10001,-1.068181 0,-0.591772 0.49061,-1.068181 1.10001,-1.068181 z m -0.004,5.004036 h 0.73654 c 0.6094,0 1.09999,0.476409 1.09999,1.068181 0,0.591772 -0.49059,1.068181 -1.09999,1.068181 h -0.73654 c -0.6094,0 -1.09999,-0.476409 -1.09999,-1.068181 0,-0.591772 0.49059,-1.068181 1.09999,-1.068181 z m 0.004,4.995514 h 0.73652 c 0.6094,0 1.1,0.476408 1.1,1.068181 0,0.591772 -0.4906,1.068181 -1.1,1.068181 h -0.73652 c -0.6094,0 -1.10001,-0.476409 -1.10001,-1.068181 0,-0.591773 0.49061,-1.068181 1.10001,-1.068181 z m -0.004,5.004036 h 0.73654 c 0.6094,0 1.09999,0.476408 1.09999,1.068181 0,0.591772 -0.49059,1.068181 -1.09999,1.068181 h -0.73654 c -0.6094,0 -1.09999,-0.476409 -1.09999,-1.068181 0,-0.591773 0.49059,-1.068181 1.09999,-1.068181 z m 0.004,4.996414 h 0.73652 c 0.6094,0 1.1,0.476409 1.1,1.068181 0,0.591772 -0.4906,1.068181 -1.1,1.068181 h -0.73652 c -0.6094,0 -1.10001,-0.476409 -1.10001,-1.068181 0,-0.591772 0.49061,-1.068181 1.10001,-1.068181 z m -0.004,5.004036 h 0.73654 c 0.6094,0 1.09999,0.476409 1.09999,1.068181 0,0.591772 -0.49059,1.068181 -1.09999,1.068181 h -0.73654 c -0.6094,0 -1.09999,-0.476409 -1.09999,-1.068181 0,-0.591772 0.49059,-1.068181 1.09999,-1.068181 z m 0.004,4.995514 h 0.73652 c 0.6094,0 1.1,0.476408 1.1,1.068181 0,0.591772 -0.4906,1.068181 -1.1,1.068181 h -0.73652 c -0.6094,0 -1.10001,-0.476409 -1.10001,-1.068181 0,-0.591773 0.49061,-1.068181 1.10001,-1.068181 z m -0.004,5.004036 h 0.73654 c 0.6094,0 1.09999,0.476408 1.09999,1.068181 0,0.591772 -0.49059,1.068181 -1.09999,1.068181 h -0.73654 c -0.6094,0 -1.09999,-0.476409 -1.09999,-1.068181 0,-0.591773 0.49059,-1.068181 1.09999,-1.068181 z m 0.004,4.996414 h 0.73652 c 0.6094,0 1.1,0.476409 1.1,1.068181 0,0.591772 -0.4906,1.068181 -1.1,1.068181 h -0.73652 c -0.6094,0 -1.10001,-0.476409 -1.10001,-1.068181 0,-0.591772 0.49061,-1.068181 1.10001,-1.068181 z m -0.004,5.004036 h 0.73654 c 0.6094,0 1.09999,0.476409 1.09999,1.068181 0,0.591772 -0.49059,1.068181 -1.09999,1.068181 h -0.73654 c -0.6094,0 -1.09999,-0.476409 -1.09999,-1.068181 0,-0.591772 0.49059,-1.068181 1.09999,-1.068181 z m 0.004,4.995514 h 0.73652 c 0.6094,0 1.1,0.476408 1.1,1.068181 0,0.591772 -0.4906,1.068181 -1.1,1.068181 h -0.73652 c -0.6094,0 -1.10001,-0.476409 -1.10001,-1.068181 0,-0.591773 0.49061,-1.068181 1.10001,-1.068181 z m -0.004,5.004036 h 0.73654 c 0.6094,0 1.09999,0.476408 1.09999,1.068181 0,0.591772 -0.49059,1.068181 -1.09999,1.068181 h -0.73654 c -0.6094,0 -1.09999,-0.476409 -1.09999,-1.068181 0,-0.591773 0.49059,-1.068181 1.09999,-1.068181 z m 0.004,4.996414 h 0.73652 c 0.6094,0 1.1,0.476409 1.1,1.068181 0,0.591772 -0.4906,1.068181 -1.1,1.068181 h -0.73652 c -0.6094,0 -1.10001,-0.476409 -1.10001,-1.068181 0,-0.591772 0.49061,-1.068181 1.10001,-1.068181 z m -0.004,5.004036 h 0.73654 c 0.6094,0 1.09999,0.476409 1.09999,1.068181 0,0.591772 -0.49059,1.068181 -1.09999,1.068181 h -0.73654 c -0.6094,0 -1.09999,-0.476409 -1.09999,-1.068181 0,-0.591772 0.49059,-1.068181 1.09999,-1.068181 z m 0.004,4.995516 h 0.73652 c 0.6094,0 1.1,0.47641 1.1,1.06818 0,0.59177 -0.4906,1.06818 -1.1,1.06818 h -0.73652 c -0.6094,0 -1.10001,-0.47641 -1.10001,-1.06818 0,-0.59177 0.49061,-1.06818 1.10001,-1.06818 z m -0.004,5.00403 h 0.73654 c 0.6094,0 1.09999,0.47641 1.09999,1.06818 0,0.59178 -0.49059,1.06819 -1.09999,1.06819 h -0.73654 c -0.6094,0 -1.09999,-0.47641 -1.09999,-1.06819 0,-0.59177 0.49059,-1.06818 1.09999,-1.06818 z m 0.004,4.99642 h 0.73652 c 0.6094,0 1.1,0.47641 1.1,1.06818 0,0.59177 -0.4906,1.06818 -1.1,1.06818 h -0.73652 c -0.6094,0 -1.10001,-0.47641 -1.10001,-1.06818 0,-0.59177 0.49061,-1.06818 1.10001,-1.06818 z m -0.004,5.00403 h 0.73654 c 0.6094,0 1.09999,0.47641 1.09999,1.06818 0,0.59178 -0.49059,1.06819 -1.09999,1.06819 h -0.73654 c -0.6094,0 -1.09999,-0.47641 -1.09999,-1.06819 0,-0.59177 0.49059,-1.06818 1.09999,-1.06818 z m -28.91951,-2.64682 h 2.2 c 0.4986,0 0.9,0.4014 0.9,0.9 v 2.2 c 0,0.4986 -0.4014,0.9 -0.9,0.9 h -2.2 c -0.4986,0 -0.90001,-0.4014 -0.90001,-0.9 v -2.2 c 0,-0.4986 0.40141,-0.9 0.90001,-0.9 z m 0.0278,-14.199993 h 2.2 c 0.49859,0 0.89999,0.4014 0.89999,0.9 v 2.200003 c 0,0.4986 -0.40139,0.9 -0.89999,0.9 h -2.2 c -0.4986,0 -0.90001,-0.4014 -0.90001,-0.9 v -2.200003 c 0,-0.4986 0.4014,-0.9 0.90001,-0.9 z m 20.65,14.100003 a 1.75,1.75 0 0 1 -1.75,1.75 1.75,1.75 0 0 1 -1.75,-1.75 1.75,1.75 0 0 1 1.75,-1.75 1.75,1.75 0 0 1 1.75,1.75 z m -4.6,1e-5 a 1.7499981,1.7500153 0 0 1 -1.75,1.75002 1.7499981,1.7500153 0 0 1 -1.74999,-1.75002 1.7499981,1.7500153 0 0 1 1.74999,-1.75001 1.7499981,1.7500153 0 0 1 1.75,1.75001 z m -6.00001,-1e-5 a 1.75,1.7500077 0 0 1 -1.75,1.75001 1.75,1.7500077 0 0 1 -1.75,-1.75001 1.75,1.7500077 0 0 1 1.75,-1.75 1.75,1.7500077 0 0 1 1.75,1.75 z m 10.6,-10.00001 a 1.75,1.75 0 0 1 -1.75,1.75 1.75,1.75 0 0 1 -1.75,-1.75 1.75,1.75 0 0 1 1.75,-1.75 1.75,1.75 0 0 1 1.75,1.75 z m -4.6,1e-5 a 1.749998,1.7211087 0 0 1 -1.75,1.7211 1.749998,1.7211087 0 0 1 -1.75,-1.7211 1.749998,1.7211087 0 0 1 1.75,-1.72111 1.749998,1.7211087 0 0 1 1.75,1.72111 z m -6.00001,-1e-5 a 1.75,1.75 0 0 1 -1.75,1.75 1.75,1.75 0 0 1 -1.75,-1.75 1.75,1.75 0 0 1 1.75,-1.75 1.75,1.75 0 0 1 1.75,1.75 z M 135.1755,69.702342 a 1.5,1.5 0 0 1 -1.5,1.5 1.5,1.5 0 0 1 -1.5,-1.5 1.5,1.5 0 0 1 1.5,-1.5 1.5,1.5 0 0 1 1.5,1.5 z m 14.15001,6.050003 a 1.5000026,1.5000036 0 0 1 -1.5,1.500003 1.5000026,1.5000036 0 0 1 -1.5,-1.500003 1.5000026,1.5000036 0 0 1 1.5,-1.500004 1.5000026,1.5000036 0 0 1 1.5,1.500004 z m 9.71839,-4.377609 a 1.4999963,1.4999975 0 0 1 -1.5,1.499997 1.4999963,1.4999975 0 0 1 -1.5,-1.499997 1.4999963,1.4999975 0 0 1 1.5,-1.499998 1.4999963,1.4999975 0 0 1 1.5,1.499998 z m -9.6684,-7.672394 a 1.5,1.5 0 0 1 -1.5,1.5 1.5,1.5 0 0 1 -1.5,-1.5 1.5,1.5 0 0 1 1.5,-1.5 1.5,1.5 0 0 1 1.5,1.5 z m -0.05,-4.047798 a 1.5,1.5 0 0 1 -1.5,1.5 1.5,1.5 0 0 1 -1.5,-1.5 1.5,1.5 0 0 1 1.5,-1.5 1.5,1.5 0 0 1 1.5,1.5 z m -14.15,-6.050003 a 1.5,1.5 0 0 1 -1.5,1.5 1.5,1.5 0 0 1 -1.5,-1.5 1.5,1.5 0 0 1 1.5,-1.5 1.5,1.5 0 0 1 1.5,1.5 z m 23.8684,-4.829796 a 1.4999963,1.5000001 0 0 1 -1.5,1.5 1.4999963,1.5000001 0 0 1 -1.5,-1.5 1.4999963,1.5000001 0 0 1 1.5,-1.5 1.4999963,1.5000001 0 0 1 1.5,1.5 z m -9.6684,-1.170204 a 1.4999996,1.4999998 0 0 1 -1.5,1.499999 1.4999996,1.4999998 0 0 1 -1.5,-1.499999 1.4999996,1.4999998 0 0 1 1.5,-1.5 1.4999996,1.4999998 0 0 1 1.5,1.5 z m 9.04,-5.4432 a 1.7499988,1.7500007 0 0 1 -1.75,1.750001 1.7499988,1.7500007 0 0 1 -1.75,-1.750001 1.7499988,1.7500007 0 0 1 1.75,-1.75 1.7499988,1.7500007 0 0 1 1.75,1.75 z m 0,-15.240001 a 1.75,1.75 0 0 1 -1.75,1.75 1.75,1.75 0 0 1 -1.75,-1.75 1.75,1.75 0 0 1 1.75,-1.75 1.75,1.75 0 0 1 1.75,1.75 z m 3.27019,-10.084397 a 1.5,1.5 0 0 1 -1.5,1.5 1.5,1.5 0 0 1 -1.5,-1.5 1.5,1.5 0 0 1 1.5,-1.5 1.5,1.5 0 0 1 1.5,1.5 z m -22.59999,0 a 1.5,1.5 0 0 1 -1.5,1.5 1.5,1.5 0 0 1 -1.5,-1.5 1.5,1.5 0 0 1 1.5,-1.5 1.5,1.5 0 0 1 1.5,1.5 z"
       inkscape:label="solder pads" />
    <g
       id="g54"
       inkscape:label="pin-labels">
      <text
         xml:space="preserve"
         style="font-style:normal;font-variant:normal;font-weight:bold;font-stretch:normal;font-size:4.23333px;line-height:1;font-family:'Courier New';-inkscape-font-specification:'Courier New, Bold';font-variant-ligatures:normal;font-variant-caps:normal;font-variant-numeric:normal;font-variant-east-asian:normal;fill:#fdef52;fill-opacity:0.201066;stroke:#00ff0b;stroke-width:0.0555625;stroke-linecap:round"
         x="-176.78506"
         y="14.717195"
         id="text1"
         transform="scale(-1,1)"><tspan
           sodipodi:role="line"
           id="tspan1"
           style="font-style:normal;font-variant:normal;font-weight:bold;font-stretch:normal;font-size:4.23333px;font-family:'Courier New';-inkscape-font-specification:'Courier New, Bold';font-variant-ligatures:normal;font-variant-caps:normal;font-variant-numeric:normal;font-variant-east-asian:normal;stroke-width:0.0555625"
           x="-176.78506"
           y="14.717195">P1</tspan></text>
      <text
         xml:space="preserve"
         style="font-style:normal;font-variant:normal;font-weight:bold;font-stretch:normal;font-size:4.23333px;line-height:1;font-family:'Courier New';-inkscape-font-specification:'Courier New, Bold';font-variant-ligatures:normal;font-variant-caps:normal;font-variant-numeric:normal;font-variant-east-asian:normal;fill:#fdef52;fill-opacity:0.201066;stroke:#00ff0b;stroke-width:0.0555625;stroke-linecap:round"
         x="-176.74579"
         y="19.72123"
         id="text38"
         transform="scale(-1,1)"><tspan
           sodipodi:role="line"
           id="tspan38"
           style="font-style:normal;font-variant:normal;font-weight:bold;font-stretch:normal;font-size:4.23333px;font-family:'Courier New';-inkscape-font-specification:'Courier New, Bold';font-variant-ligatures:normal;font-variant-caps:normal;font-variant-numeric:normal;font-variant-east-asian:normal;stroke-width:0.0555625"
           x="-176.74579"
           y="19.72123">P2</tspan></text>
      <text
         xml:space="preserve"
         style="font-style:normal;font-variant:normal;font-weight:bold;font-stretch:normal;font-size:4.23333px;line-height:1;font-family:'Courier New';-inkscape-font-specification:'Courier New, Bold';font-variant-ligatures:normal;font-variant-caps:normal;font-variant-numeric:normal;font-variant-east-asian:normal;fill:#fdef52;fill-opacity:0.201066;stroke:#00ff0b;stroke-width:0.0555625;stroke-linecap:round"
         x="-176.64658"
         y="34.717194"
         id="text39"
         transform="scale(-1,1)"><tspan
           sodipodi:role="line"
           id="tspan39"
           style="font-style:normal;font-variant:normal;font-weight:bold;font-stretch:normal;font-size:4.23333px;font-family:'Courier New';-inkscape-font-specification:'Courier New, Bold';font-variant-ligatures:normal;font-variant-caps:normal;font-variant-numeric:normal;font-variant-east-asian:normal;stroke-width:0.0555625"
           x="-176.64658"
           y="34.717194">E3</tspan></text>
      <text
         xml:space="preserve"
         style="font-style:normal;font-variant:normal;font-weight:bold;font-stretch:normal;font-size:4.23333px;line-height:1;font-family:'Courier New';-inkscape-font-specification:'Courier New, Bold';font-variant-ligatures:normal;font-variant-caps:normal;font-variant-numeric:normal;font-variant-east-asian:normal;fill:#fdef52;fill-opacity:0.201066;stroke:#00ff0b;stroke-width:0.0555625;stroke-linecap:round"
         x="-176.55562"
         y="29.720779"
         id="text40"
         transform="scale(-1,1)"><tspan
           sodipodi:role="line"
           id="tspan40"
           style="font-style:normal;font-variant:normal;font-weight:bold;font-stretch:normal;font-size:4.23333px;font-family:'Courier New';-inkscape-font-specification:'Courier New, Bold';font-variant-ligatures:normal;font-variant-caps:normal;font-variant-numeric:normal;font-variant-east-asian:normal;stroke-width:0.0555625"
           x="-176.55562"
           y="29.720779">E2</tspan></text>
      <text
         xml:space="preserve"
         style="font-style:normal;font-variant:normal;font-weight:bold;font-stretch:normal;font-size:4.23333px;line-height:1;font-family:'Courier New';-inkscape-font-specification:'Courier New, Bold';font-variant-ligatures:normal;font-variant-caps:normal;font-variant-numeric:normal;font-variant-east-asian:normal;fill:#fdef52;fill-opacity:0.201066;stroke:#00ff0b;stroke-width:0.0555625;stroke-linecap:round"
         x="-176.59489"
         y="24.716743"
         id="text41"
         transform="scale(-1,1)"><tspan
           sodipodi:role="line"
           id="tspan41"
           style="font-style:normal;font-variant:normal;font-weight:bold;font-stretch:normal;font-size:4.23333px;font-family:'Courier New';-inkscape-font-specification:'Courier New, Bold';font-variant-ligatures:normal;font-variant-caps:normal;font-variant-numeric:normal;font-variant-east-asian:normal;stroke-width:0.0555625"
           x="-176.59489"
           y="24.716743">E1</tspan></text>
      <text
         xml:space="preserve"
         style="font-style:normal;font-variant:normal;font-weight:bold;font-stretch:normal;font-size:4.23333px;line-height:1;font-family:'Courier New';-inkscape-font-specification:'Courier New, Bold';font-variant-ligatures:normal;font-variant-caps:normal;font-variant-numeric:normal;font-variant-east-asian:normal;fill:#fdef52;fill-opacity:0.201066;stroke:#00ff0b;stroke-width:0.0555625;stroke-linecap:round"
         x="-176.63004"
         y="54.717194"
         id="text42"
         transform="scale(-1,1)"><tspan
           sodipodi:role="line"
           id="tspan42"
           style="font-style:normal;font-variant:normal;font-weight:bold;font-stretch:normal;font-size:4.23333px;font-family:'Courier New';-inkscape-font-specification:'Courier New, Bold';font-variant-ligatures:normal;font-variant-caps:normal;font-variant-numeric:normal;font-variant-east-asian:normal;stroke-width:0.0555625"
           x="-176.63004"
           y="54.717194">X3</tspan></text>
      <text
         xml:space="preserve"
         style="font-style:normal;font-variant:normal;font-weight:bold;font-stretch:normal;font-size:4.23333px;line-height:1;font-family:'Courier New';-inkscape-font-specification:'Courier New, Bold';font-variant-ligatures:normal;font-variant-caps:normal;font-variant-numeric:normal;font-variant-east-asian:normal;fill:#fdef52;fill-opacity:0.201066;stroke:#00ff0b;stroke-width:0.0555625;stroke-linecap:round"
         x="-176.53909"
         y="49.720779"
         id="text43"
         transform="scale(-1,1)"><tspan
           sodipodi:role="line"
           id="tspan43"
           style="font-style:normal;font-variant:normal;font-weight:bold;font-stretch:normal;font-size:4.23333px;font-family:'Courier New';-inkscape-font-specification:'Courier New, Bold';font-variant-ligatures:normal;font-variant-caps:normal;font-variant-numeric:normal;font-variant-east-asian:normal;stroke-width:0.0555625"
           x="-176.53909"
           y="49.720779">X2</tspan></text>
      <text
         xml:space="preserve"
         style="font-style:normal;font-variant:normal;font-weight:bold;font-stretch:normal;font-size:4.23333px;line-height:1;font-family:'Courier New';-inkscape-font-specification:'Courier New, Bold';font-variant-ligatures:normal;font-variant-caps:normal;font-variant-numeric:normal;font-variant-east-asian:normal;fill:#fdef52;fill-opacity:0.201066;stroke:#00ff0b;stroke-width:0.0555625;stroke-linecap:round"
         x="-176.57837"
         y="44.716743"
         id="text44"
         transform="scale(-1,1)"><tspan
           sodipodi:role="line"
           id="tspan44"
           style="font-style:normal;font-variant:normal;font-weight:bold;font-stretch:normal;font-size:4.23333px;font-family:'Courier New';-inkscape-font-specification:'Courier New, Bold';font-variant-ligatures:normal;font-variant-caps:normal;font-variant-numeric:normal;font-variant-east-asian:normal;stroke-width:0.0555625"
           x="-176.57837"
           y="44.716743">X1</tspan></text>
      <text
         xml:space="preserve"
         style="font-style:normal;font-variant:normal;font-weight:bold;font-stretch:normal;font-size:4.23333px;line-height:1;font-family:'Courier New';-inkscape-font-specification:'Courier New, Bold';font-variant-ligatures:normal;font-variant-caps:normal;font-variant-numeric:normal;font-variant-east-asian:normal;fill:#fdef52;fill-opacity:0.201066;stroke:#00ff0b;stroke-width:0.0555625;stroke-linecap:round"
         x="-176.5515"
         y="39.72123"
         id="text45"
         transform="scale(-1,1)"><tspan
           sodipodi:role="line"
           id="tspan45"
           style="font-style:normal;font-variant:normal;font-weight:bold;font-stretch:normal;font-size:4.23333px;font-family:'Courier New';-inkscape-font-specification:'Courier New, Bold';font-variant-ligatures:normal;font-variant-caps:normal;font-variant-numeric:normal;font-variant-east-asian:normal;stroke-width:0.0555625"
           x="-176.5515"
           y="39.72123">E4</tspan></text>
      <text
         xml:space="preserve"
         style="font-style:normal;font-variant:normal;font-weight:bold;font-stretch:normal;font-size:4.23333px;line-height:1;font-family:'Courier New';-inkscape-font-specification:'Courier New, Bold';font-variant-ligatures:normal;font-variant-caps:normal;font-variant-numeric:normal;font-variant-east-asian:normal;fill:#fdef52;fill-opacity:0.201066;stroke:#00ff0b;stroke-width:0.0555625;stroke-linecap:round"
         x="-176.53496"
         y="79.72123"
         id="text46"
         transform="scale(-1,1)"><tspan
           sodipodi:role="line"
           id="tspan46"
           style="font-style:normal;font-variant:normal;font-weight:bold;font-stretch:normal;font-size:4.23333px;font-family:'Courier New';-inkscape-font-specification:'Courier New, Bold';font-variant-ligatures:normal;font-variant-caps:normal;font-variant-numeric:normal;font-variant-east-asian:normal;stroke-width:0.0555625"
           x="-176.53496"
           y="79.72123">U4</tspan></text>
      <text
         xml:space="preserve"
         style="font-style:normal;font-variant:normal;font-weight:bold;font-stretch:normal;font-size:4.23333px;line-height:1;font-family:'Courier New';-inkscape-font-specification:'Courier New, Bold';font-variant-ligatures:normal;font-variant-caps:normal;font-variant-numeric:normal;font-variant-east-asian:normal;fill:#fdef52;fill-opacity:0.201066;stroke:#00ff0b;stroke-width:0.0555625;stroke-linecap:round"
         x="-176.63004"
         y="74.717194"
         id="text47"
         transform="scale(-1,1)"><tspan
           sodipodi:role="line"
           id="tspan47"
           style="font-style:normal;font-variant:normal;font-weight:bold;font-stretch:normal;font-size:4.23333px;font-family:'Courier New';-inkscape-font-specification:'Courier New, Bold';font-variant-ligatures:normal;font-variant-caps:normal;font-variant-numeric:normal;font-variant-east-asian:normal;stroke-width:0.0555625"
           x="-176.63004"
           y="74.717194">U3</tspan></text>
      <text
         xml:space="preserve"
         style="font-style:normal;font-variant:normal;font-weight:bold;font-stretch:normal;font-size:4.23333px;line-height:1;font-family:'Courier New';-inkscape-font-specification:'Courier New, Bold';font-variant-ligatures:normal;font-variant-caps:normal;font-variant-numeric:normal;font-variant-east-asian:normal;fill:#fdef52;fill-opacity:0.201066;stroke:#00ff0b;stroke-width:0.0555625;stroke-linecap:round"
         x="-176.53909"
         y="69.720779"
         id="text48"
         transform="scale(-1,1)"><tspan
           sodipodi:role="line"
           id="tspan48"
           style="font-style:normal;font-variant:normal;font-weight:bold;font-stretch:normal;font-size:4.23333px;font-family:'Courier New';-inkscape-font-specification:'Courier New, Bold';font-variant-ligatures:normal;font-variant-caps:normal;font-variant-numeric:normal;font-variant-east-asian:normal;stroke-width:0.0555625"
           x="-176.53909"
           y="69.720779">U2</tspan></text>
      <text
         xml:space="preserve"
         style="font-style:normal;font-variant:normal;font-weight:bold;font-stretch:normal;font-size:4.23333px;line-height:1;font-family:'Courier New';-inkscape-font-specification:'Courier New, Bold';font-variant-ligatures:normal;font-variant-caps:normal;font-variant-numeric:normal;font-variant-east-asian:normal;fill:#fdef52;fill-opacity:0.201066;stroke:#00ff0b;stroke-width:0.0555625;stroke-linecap:round"
         x="-176.57837"
         y="64.716743"
         id="text49"
         transform="scale(-1,1)"><tspan
           sodipodi:role="line"
           id="tspan49"
           style="font-style:normal;font-variant:normal;font-weight:bold;font-stretch:normal;font-size:4.23333px;font-family:'Courier New';-inkscape-font-specification:'Courier New, Bold';font-variant-ligatures:normal;font-variant-caps:normal;font-variant-numeric:normal;font-variant-east-asian:normal;stroke-width:0.0555625"
           x="-176.57837"
           y="64.716743">U1</tspan></text>
      <text
         xml:space="preserve"
         style="font-style:normal;font-variant:normal;font-weight:bold;font-stretch:normal;font-size:4.23333px;line-height:1;font-family:'Courier New';-inkscape-font-specification:'Courier New, Bold';font-variant-ligatures:normal;font-variant-caps:normal;font-variant-numeric:normal;font-variant-east-asian:normal;fill:#fdef52;fill-opacity:0.201066;stroke:#00ff0b;stroke-width:0.0555625;stroke-linecap:round"
         x="-176.53496"
         y="59.72123"
         id="text50"
         transform="scale(-1,1)"><tspan
           sodipodi:role="line"
           id="tspan50"
           style="font-style:normal;font-variant:normal;font-weight:bold;font-stretch:normal;font-size:4.23333px;font-family:'Courier New';-inkscape-font-specification:'Courier New, Bold';font-variant-ligatures:normal;font-variant-caps:normal;font-variant-numeric:normal;font-variant-east-asian:normal;stroke-width:0.0555625"
           x="-176.53496"
           y="59.72123">X4</tspan></text>
      <text
         xml:space="preserve"
         style="font-style:normal;font-variant:normal;font-weight:bold;font-stretch:normal;font-size:4.23333px;line-height:1;font-family:'Courier New';-inkscape-font-specification:'Courier New, Bold';font-variant-ligatures:normal;font-variant-caps:normal;font-variant-numeric:normal;font-variant-east-asian:normal;fill:#fdef52;fill-opacity:0.201066;stroke:#00ff0b;stroke-width:0.0555625;stroke-linecap:round"
         x="-176.59489"
         y="99.72123"
         id="text51"
         transform="scale(-1,1)"><tspan
           sodipodi:role="line"
           id="tspan51"
           style="font-style:normal;font-variant:normal;font-weight:bold;font-stretch:normal;font-size:4.23333px;font-family:'Courier New';-inkscape-font-specification:'Courier New, Bold';font-variant-ligatures:normal;font-variant-caps:normal;font-variant-numeric:normal;font-variant-east-asian:normal;stroke-width:0.0555625"
           x="-176.59489"
           y="99.72123">E8</tspan></text>
      <text
         xml:space="preserve"
         style="font-style:normal;font-variant:normal;font-weight:bold;font-stretch:normal;font-size:4.23333px;line-height:1;font-family:'Courier New';-inkscape-font-specification:'Courier New, Bold';font-variant-ligatures:normal;font-variant-caps:normal;font-variant-numeric:normal;font-variant-east-asian:normal;fill:#fdef52;fill-opacity:0.201066;stroke:#00ff0b;stroke-width:0.0555625;stroke-linecap:round"
         x="-176.5515"
         y="94.717194"
         id="text52"
         transform="scale(-1,1)"><tspan
           sodipodi:role="line"
           id="tspan52"
           style="font-style:normal;font-variant:normal;font-weight:bold;font-stretch:normal;font-size:4.23333px;font-family:'Courier New';-inkscape-font-specification:'Courier New, Bold';font-variant-ligatures:normal;font-variant-caps:normal;font-variant-numeric:normal;font-variant-east-asian:normal;stroke-width:0.0555625"
           x="-176.5515"
           y="94.717194">E7</tspan></text>
      <text
         xml:space="preserve"
         style="font-style:normal;font-variant:normal;font-weight:bold;font-stretch:normal;font-size:4.23333px;line-height:1;font-family:'Courier New';-inkscape-font-specification:'Courier New, Bold';font-variant-ligatures:normal;font-variant-caps:normal;font-variant-numeric:normal;font-variant-east-asian:normal;fill:#fdef52;fill-opacity:0.201066;stroke:#00ff0b;stroke-width:0.0555625;stroke-linecap:round"
         x="-176.68999"
         y="89.720779"
         id="text53"
         transform="scale(-1,1)"><tspan
           sodipodi:role="line"
           id="tspan53"
           style="font-style:normal;font-variant:normal;font-weight:bold;font-stretch:normal;font-size:4.23333px;font-family:'Courier New';-inkscape-font-specification:'Courier New, Bold';font-variant-ligatures:normal;font-variant-caps:normal;font-variant-numeric:normal;font-variant-east-asian:normal;stroke-width:0.0555625"
           x="-176.68999"
           y="89.720779">E6</tspan></text>
      <text
         xml:space="preserve"
         style="font-style:normal;font-variant:normal;font-weight:bold;font-stretch:normal;font-size:4.23333px;line-height:1;font-family:'Courier New';-inkscape-font-specification:'Courier New, Bold';font-variant-ligatures:normal;font-variant-caps:normal;font-variant-numeric:normal;font-variant-east-asian:normal;fill:#fdef52;fill-opacity:0.201066;stroke:#00ff0b;stroke-width:0.0555625;stroke-linecap:round"
         x="-176.64658"
         y="84.716743"
         id="text54"
         transform="scale(-1,1)"><tspan
           sodipodi:role="line"
           id="tspan54"
           style="font-style:normal;font-variant:normal;font-weight:bold;font-stretch:normal;font-size:4.23333px;font-family:'Courier New';-inkscape-font-specification:'Courier New, Bold';font-variant-ligatures:normal;font-variant-caps:normal;font-variant-numeric:normal;font-variant-east-asian:normal;stroke-width:0.0555625"
           x="-176.64658"
           y="84.716743">E5</tspan></text>
      <g
         id="g95"
         inkscape:label="pin-clearings">
        <rect
           style="fill:#fdef52;fill-opacity:0.201066;stroke:#00ff0b;stroke-width:0.0555625;stroke-linecap:round"
           id="rect54"
           width="4.9948545"
           height="3.053643"
           x="171.79271"
           y="11.818881"
           ry="0.39999998"
           rx="0.40000001" />
        <rect
           style="fill:#fdef52;fill-opacity:0.201066;stroke:#00ff0b;stroke-width:0.0555625;stroke-linecap:round"
           id="rect55"
           width="4.9948545"
           height="3.053643"
           x="171.79271"
           y="16.818531"
           ry="0.39999998"
           rx="0.40000001" />
        <rect
           style="fill:#fdef52;fill-opacity:0.201066;stroke:#00ff0b;stroke-width:0.0555625;stroke-linecap:round"
           id="rect56"
           width="4.9948545"
           height="3.053643"
           x="171.79271"
           y="21.818531"
           ry="0.39999998"
           rx="0.40000001" />
        <rect
           style="fill:#fdef52;fill-opacity:0.201066;stroke:#00ff0b;stroke-width:0.0555625;stroke-linecap:round"
           id="rect57"
           width="4.9948545"
           height="3.053643"
           x="171.79271"
           y="26.818182"
           ry="0.39999998"
           rx="0.40000001" />
        <rect
           style="fill:#fdef52;fill-opacity:0.201066;stroke:#00ff0b;stroke-width:0.0555625;stroke-linecap:round"
           id="rect58"
           width="4.9948545"
           height="3.053643"
           x="171.79271"
           y="31.818531"
           ry="0.39999998"
           rx="0.40000001" />
        <rect
           style="fill:#fdef52;fill-opacity:0.201066;stroke:#00ff0b;stroke-width:0.0555625;stroke-linecap:round"
           id="rect59"
           width="4.9948545"
           height="3.053643"
           x="171.79271"
           y="36.818184"
           ry="0.39999998"
           rx="0.40000001" />
        <rect
           style="fill:#fdef52;fill-opacity:0.201066;stroke:#00ff0b;stroke-width:0.0555625;stroke-linecap:round"
           id="rect60"
           width="4.9948545"
           height="3.053643"
           x="171.79271"
           y="41.818531"
           ry="0.39999998"
           rx="0.40000001" />
        <rect
           style="fill:#fdef52;fill-opacity:0.201066;stroke:#00ff0b;stroke-width:0.0555625;stroke-linecap:round"
           id="rect61"
           width="4.9948545"
           height="3.053643"
           x="171.79271"
           y="46.81818"
           ry="0.39999998"
           rx="0.40000001" />
        <rect
           style="fill:#fdef52;fill-opacity:0.201066;stroke:#00ff0b;stroke-width:0.0555625;stroke-linecap:round"
           id="rect62"
           width="4.9948545"
           height="3.053643"
           x="171.79271"
           y="51.81818"
           ry="0.39999998"
           rx="0.40000001" />
        <rect
           style="fill:#fdef52;fill-opacity:0.201066;stroke:#00ff0b;stroke-width:0.0555625;stroke-linecap:round"
           id="rect63"
           width="4.9948545"
           height="3.053643"
           x="171.79271"
           y="56.817833"
           ry="0.39999998"
           rx="0.40000001" />
        <rect
           style="fill:#fdef52;fill-opacity:0.201066;stroke:#00ff0b;stroke-width:0.0555625;stroke-linecap:round"
           id="rect64"
           width="4.9948545"
           height="3.053643"
           x="171.79271"
           y="61.81818"
           ry="0.39999998"
           rx="0.40000001" />
        <rect
           style="fill:#fdef52;fill-opacity:0.201066;stroke:#00ff0b;stroke-width:0.0555625;stroke-linecap:round"
           id="rect65"
           width="4.9948545"
           height="3.053643"
           x="171.79271"
           y="66.817833"
           ry="0.39999998"
           rx="0.40000001" />
        <rect
           style="fill:#fdef52;fill-opacity:0.201066;stroke:#00ff0b;stroke-width:0.0555625;stroke-linecap:round"
           id="rect66"
           width="4.9948545"
           height="3.053643"
           x="171.79271"
           y="71.818535"
           ry="0.39999998"
           rx="0.40000001" />
        <rect
           style="fill:#fdef52;fill-opacity:0.201066;stroke:#00ff0b;stroke-width:0.0555625;stroke-linecap:round"
           id="rect67"
           width="4.9948545"
           height="3.053643"
           x="171.79271"
           y="76.818184"
           ry="0.39999998"
           rx="0.40000001" />
        <rect
           style="fill:#fdef52;fill-opacity:0.201066;stroke:#00ff0b;stroke-width:0.0555625;stroke-linecap:round"
           id="rect68"
           width="4.9948545"
           height="3.053643"
           x="171.79271"
           y="81.818184"
           ry="0.39999998"
           rx="0.40000001" />
        <rect
           style="fill:#fdef52;fill-opacity:0.201066;stroke:#00ff0b;stroke-width:0.0555625;stroke-linecap:round"
           id="rect69"
           width="4.9948545"
           height="3.053643"
           x="171.79271"
           y="86.817833"
           ry="0.39999998"
           rx="0.40000001" />
        <rect
           style="fill:#fdef52;fill-opacity:0.201066;stroke:#00ff0b;stroke-width:0.0555625;stroke-linecap:round"
           id="rect70"
           width="4.9948545"
           height="3.053643"
           x="171.79271"
           y="91.818184"
           ry="0.39999998"
           rx="0.40000001" />
        <rect
           style="fill:#fdef52;fill-opacity:0.201066;stroke:#00ff0b;stroke-width:0.0555625;stroke-linecap:round"
           id="rect71"
           width="4.9948545"
           height="3.053643"
           x="171.79271"
           y="96.817833"
           ry="0.39999998"
           rx="0.40000001" />
      </g>
    </g>
    <path
       id="path71"
       style="fill:#fdef52;fill-opacity:0.201066;stroke:#00ff0b;stroke-width:0.0555625;stroke-linecap:round"
       inkscape:label="keepout zone"
       d="m 135.51367,11.933594 c 0.0148,9.020087 -0.0294,18.042259 0.022,27.061048 0.16867,2.582536 1.64136,4.870969 3.43114,6.651842 1.49831,2.210838 -0.17976,5.735794 -2.88894,5.837025 -0.9519,0.100198 -2.01411,-0.195147 -2.88645,0.217663 -1.29694,1.041793 -1.11579,3.419333 0.44336,4.125 1.72518,-0.179005 3.82941,-0.215663 5.00256,1.304134 1.29675,1.571355 0.84117,3.714166 0.93294,5.582551 0.0767,1.613639 -0.3381,3.477046 -1.86576,4.317773 -1.17183,0.726381 -2.61441,0.637341 -3.91545,0.522104 -1.59245,0.390684 -1.84516,2.633983 -0.93499,3.781064 0.50574,0.705505 1.4203,0.637108 2.17327,0.507999 1.60133,-0.12562 3.34615,0.558413 4.05526,2.081689 0.92635,1.767726 0.328,4.045828 -1.19764,5.281365 -0.83051,0.703525 -1.64027,1.676986 -1.42841,2.84471 0.0189,1.03496 -0.22488,2.166092 0.20751,3.130127 1.16203,1.288232 2.22731,2.874915 2.09816,4.691004 0.0261,3.560784 -0.003,7.122526 0.0132,10.683998 13.24219,0 26.48438,0 39.72656,0 0,-29.716799 0,-59.433596 0,-89.150393 -14.32942,0 -28.65885,0 -42.98828,0 0,0.176432 0,0.352864 0,0.529297 z" />
    <path
       id="rect115"
       style="fill:#fdef52;fill-opacity:0.201066;stroke:#00ff0b;stroke-width:0.0555625;stroke-linecap:round"
       inkscape:label="diagonal-stripes"
       transform="rotate(-36.693164)"
       d="m 26.957129,173.51741 h 70 v 2 h -70 z m -6.147297,8.24928 h 70 v 2 h -70 z m 12.294592,-16.49856 h 69.999996 v 2 H 33.104424 Z m 6.147296,-8.24929 h 70 v 2 h -70 z m -9.220943,12.37394 h 70.000003 v 2 H 30.030777 Z m 6.147297,-8.24929 h 69.999996 v 2 H 36.178074 Z m 6.147297,-8.24929 h 69.999999 v 2 H 42.325371 Z m 6.147293,-8.24929 h 69.999996 v 2 H 48.472664 Z m 3.07365,-4.12463 h 69.999996 v 2 H 51.546314 Z M 85.356445,95.149208 h 70.000005 v 2 H 85.356445 Z M 60.767258,128.14635 h 70.000002 v 2 H 60.767258 Z m -6.147297,8.24928 h 69.999999 v 2 H 54.619961 Z M 23.88348,177.64206 h 70 v 2 h -70 z M 57.693611,132.271 h 69.999999 v 2 H 57.693611 Z m 6.147297,-8.24929 h 70.000002 v 2 H 63.840908 Z m 9.220944,-12.37393 h 69.999998 v 2 H 73.061852 Z m 3.073646,-4.12464 H 146.1355 v 2 H 76.135498 Z m -9.220947,12.37392 h 69.999999 v 2 H 66.914551 Z m 3.073654,-4.12464 H 139.9882 v 2 H 69.988205 Z M 88.430092,91.024567 h 69.999998 v 2 H 88.430092 Z M 79.209145,103.3985 h 69.999995 v 2 H 79.209145 Z m 3.073654,-4.124651 H 152.2828 v 2.000001 H 82.282799 Z M 45.399017,148.76956 h 70.000003 v 2 H 45.399017 Z m -27.662832,37.12178 h 70 v 2 h -70 z" />
    <g
       id="g117"
       inkscape:label="large-warning">
      <text
         xml:space="preserve"
         style="font-style:normal;font-variant:normal;font-weight:bold;font-stretch:normal;font-size:4.23333px;line-height:1;font-family:'Courier New';-inkscape-font-specification:'Courier New, Bold';font-variant-ligatures:normal;font-variant-caps:normal;font-variant-numeric:normal;font-variant-east-asian:normal;fill:#fdef52;fill-opacity:0.201066;stroke:#00ff0b;stroke-width:0.0555625;stroke-linecap:round"
         x="13.802633"
         y="145.77068"
         id="text1-0"
         transform="matrix(0,1,1,0,0,0)"><tspan
           sodipodi:role="line"
           id="tspan1-3"
           style="font-style:normal;font-variant:normal;font-weight:bold;font-stretch:normal;font-size:4.23333px;font-family:'Courier New';-inkscape-font-specification:'Courier New, Bold';font-variant-ligatures:normal;font-variant-caps:normal;font-variant-numeric:normal;font-variant-east-asian:normal;stroke-width:0.0555625"
           x="13.802633"
           y="145.77068">HIGH VOLTAGE</tspan><tspan
           sodipodi:role="line"
           style="font-style:normal;font-variant:normal;font-weight:bold;font-stretch:normal;font-size:4.23333px;font-family:'Courier New';-inkscape-font-specification:'Courier New, Bold';font-variant-ligatures:normal;font-variant-caps:normal;font-variant-numeric:normal;font-variant-east-asian:normal;stroke-width:0.0555625"
           x="13.802633"
           y="150.004"
           id="tspan116">USE CAUTION!</tspan></text>
      <rect
         style="fill:#fdef52;fill-opacity:0.201066;stroke:#00ff0b;stroke-width:0.0555625;stroke-linecap:round"
         id="rect116"
         width="8.2331104"
         height="31.554251"
         x="142.62335"
         y="13.345703"
         rx="1"
         ry="1" />
      <rect
         style="fill:#fdef52;fill-opacity:0.201066;stroke:#00ff0b;stroke-width:0.0555625;stroke-linecap:round"
         id="rect117"
         width="10.202995"
         height="33.221077"
         x="141.63841"
         y="12.512289"
         rx="1.5"
         ry="1.5" />
    </g>
  </g>
  <metadata
     id="metadata1">
    <rdf:RDF>
      <cc:Work
         rdf:about="">
        <dc:title>SVG Image created as wing-combo-B_Cu.svg date 2024/12/11 19:50:10 </dc:title>
      </cc:Work>
    </rdf:RDF>
  </metadata>
</svg>
