<?xml version="1.0" encoding="UTF-8" standalone="no"?>
<!-- Created with Inkscape (http://www.inkscape.org/) -->

<svg
   width="45.272362mm"
   height="45.400574mm"
   viewBox="0 0 45.272362 45.400575"
   version="1.1"
   id="svg1"
   xml:space="preserve"
   inkscape:version="1.3 (0e150ed6c4, 2023-07-21)"
   sodipodi:docname="made-at-board-simple.svg"
   xmlns:inkscape="http://www.inkscape.org/namespaces/inkscape"
   xmlns:sodipodi="http://sodipodi.sourceforge.net/DTD/sodipodi-0.dtd"
   xmlns="http://www.w3.org/2000/svg"
   xmlns:svg="http://www.w3.org/2000/svg"><sodipodi:namedview
     id="namedview1"
     pagecolor="#505050"
     bordercolor="#eeeeee"
     borderopacity="1"
     inkscape:showpageshadow="0"
     inkscape:pageopacity="0"
     inkscape:pagecheckerboard="0"
     inkscape:deskcolor="#505050"
     inkscape:document-units="mm"
     inkscape:zoom="8"
     inkscape:cx="134.75"
     inkscape:cy="41.375"
     inkscape:window-width="3840"
     inkscape:window-height="2054"
     inkscape:window-x="-11"
     inkscape:window-y="-11"
     inkscape:window-maximized="1"
     inkscape:current-layer="layer3" /><defs
     id="defs1">&#10;	&#10;	&#10;	&#10;	&#10;	&#10;	&#10;	&#10;	&#10;	&#10;</defs><g
     inkscape:groupmode="layer"
     id="layer3"
     inkscape:label="made-at"
     style="display:inline"
     transform="translate(-26.953815,-56.729205)"><path
       id="path950"
       style="fill:#e5ed60;fill-opacity:0.597684;stroke:none;stroke-width:0.0529;stroke-linecap:round;stroke-linejoin:round;stroke-opacity:1"
       d="m 49.396985,56.759843 c -6.226401,-0.118009 -11.987638,2.264864 -16.270325,6.254399 0.118322,0.109494 0.19482,0.26348 0.19482,0.438732 v 0.549838 c 0,0.123014 -0.04537,0.230582 -0.108003,0.325561 0.297877,-0.299192 0.60105,-0.59258 0.915189,-0.874365 v -0.401009 c 0,-0.1108 0.08919,-0.199988 0.199988,-0.199988 h 0.501778 c 4.243268,-3.502024 9.780228,-5.450196 15.689999,-5.036902 2.13832,0.149542 4.183624,0.601749 6.101953,1.305864 v -1.067119 c -0.897008,-0.31297 -1.819809,-0.572901 -2.765723,-0.775663 a 0.85000078,0.85000078 0 0 1 -0.716752,0.398942 0.85000078,0.85000078 0 0 1 -0.773596,-0.665076 c -0.585487,-0.08611 -1.17611,-0.158026 -1.776119,-0.199987 -0.399466,-0.02794 -0.797216,-0.04572 -1.193209,-0.05323 z m -1.233,2.098063 -2.77089,0.310059 0.077,0.753959 1.800407,-0.19482 0.07648,0.672827 a 0.99999989,0.99999989 0 0 1 0.173116,-0.07183 0.99999989,0.99999989 0 0 1 0.892969,0.74259 z m 3.022555,0.156063 c -0.352869,0.019 -0.671794,0.132424 -0.95033,0.347782 -0.37845,0.279012 -0.597009,0.676334 -0.663009,1.183391 l -0.09922,0.764294 c -0.0446,0.31 -0.01791,0.58666 0.07855,0.845426 0.06484,0.164907 0.15307,0.323925 0.2651,0.469222 0.294745,0.371913 0.6922,0.58306 1.191659,0.64854 l 1.551326,0.199987 0.119889,-0.946195 0.42168,-3.300057 -1.551843,-0.200505 c -0.124999,-0.01447 -0.246179,-0.01823 -0.363802,-0.01188 z m -0.666626,0.494027 a 0.20000176,0.20000176 0 0 1 0.199988,0.199987 0.20000176,0.20000176 0 0 1 -0.199988,0.199988 0.20000176,0.20000176 0 0 1 -0.199988,-0.199988 0.20000176,0.20000176 0 0 1 0.199988,-0.199987 z m 0.767395,0.272334 c 0.05281,-0.0044 0.107465,-0.0033 0.164331,0.0026 l 0.567924,0.07028 -0.319877,2.497522 -0.02377,0.235128 -0.567408,-0.07751 c -0.212261,-0.02248 -0.373418,-0.117806 -0.490926,-0.294039 -0.02175,-0.01677 -0.02854,-0.03287 -0.03514,-0.04857 -0.115405,-0.20663 -0.159403,-0.446071 -0.124023,-0.733806 l 0.09974,-0.772046 c 0.02833,-0.295865 0.135137,-0.517458 0.306958,-0.681095 0.123167,-0.123114 0.263756,-0.185176 0.422197,-0.198438 z m 9.223726,0.04599 v 0.567408 c 0.108187,-0.154688 0.279504,-0.262517 0.484208,-0.262517 h 0.02067 C 60.847982,60.029046 60.681794,59.92434 60.511035,59.82632 Z m -4.773352,0.157097 -2.246891,2.752287 -0.609265,0.736389 0.981335,0.381889 0.529167,-0.688331 1.190625,0.449585 -0.06821,0.866097 0.974617,0.373621 0.05426,-0.996838 0.07906,-1.447974 v -0.964799 a 0.20000176,0.20000176 0 0 1 -0.07235,0.07235 0.20000176,0.20000176 0 0 1 -0.199988,-0.199988 0.20000176,0.20000176 0 0 1 0.199988,-0.199988 0.20000176,0.20000176 0 0 1 0.07235,0.01964 v -0.812871 l -0.387057,-0.145727 z m -14.425993,0.37362 -0.391707,0.180351 v 1.790589 h -0.520899 l 0.337448,3.023071 0.908471,-0.418579 -0.107487,-0.811837 1.413351,-0.65164 0.55087,0.607715 0.908472,-0.418579 z m 5.4653,0.350883 -0.902788,0.09767 0.08423,0.76171 0.63252,-0.06821 a 0.99999989,0.99999989 0 0 1 -0.0708,-0.171049 0.99999989,0.99999989 0 0 1 0.256832,-0.620118 z m 15.343766,0.13746 c -0.05616,0.271729 -0.285716,0.47904 -0.576192,0.47904 h -0.519348 c 0.586453,0.379953 1.153125,0.786057 1.699121,1.217497 V 61.27688 c -0.19906,-0.146688 -0.399652,-0.291026 -0.603581,-0.431498 z m -6.377905,0.589111 0.01447,0.0088 -0.103869,1.382861 -0.765845,-0.298173 z m -7.283793,0.04082 a 0.99999989,0.99999989 0 0 1 -0.901754,0.837159 l 0.0186,0.147277 -1.800407,0.194821 0.08372,0.76171 2.778125,-0.30179 -0.101285,-0.954464 z m -7.26519,0.04444 1.197343,1.329635 -0.959631,0.44235 z m -2.407088,0.12454 -2.582272,1.810226 0.455787,0.650089 0.928625,-0.651123 1.882573,2.685108 0.722436,-0.506429 -1.882056,-2.685108 0.882634,-0.619083 h -0.274402 v -0.49351 z m 21.724255,0.65164 v 0.134359 c 0,0.592041 -0.476626,1.068668 -1.068668,1.068668 h -0.01757 l -0.400493,1.135848 -0.05788,0.171566 -0.116789,0.366386 -0.190169,0.552421 c 0.275628,0.05313 0.486792,0.284497 0.486792,0.577743 v 0.181384 l 0.77773,-0.518831 0.271818,-0.172083 0.152445,-0.10387 0.448035,-0.289388 0.144694,-0.104386 0.471806,-0.302824 0.01654,-0.0217 0.01499,0.0088 -0.01757,0.02894 -0.334864,0.419612 -0.10852,0.13746 -0.162264,0.209806 c 0.191276,0.09973 0.325561,0.294711 0.325561,0.5271 v 0.549837 c 0,0.05245 -0.01698,0.09937 -0.02946,0.147795 l 0.14521,-0.185519 0.101286,-0.137976 0.326595,-0.412378 0.100769,-0.130224 0.162781,-0.208773 v -0.02274 c 0,-0.09546 0.07153,-0.163805 0.160714,-0.183968 l 0.02067,-0.02635 0.100769,-0.130741 0.369487,-0.478007 0.100769,-0.130225 0.01809,-0.02274 v -0.923974 l -0.577226,-0.452169 -0.537435,0.367419 -0.144694,0.104387 -0.504879,0.338997 -0.14521,0.112138 -0.464572,0.311092 -0.14521,0.112138 -0.449069,0.304374 -0.152445,0.10387 -0.04858,0.03514 -0.0067,-0.0083 0.01137,-0.05271 0.06511,-0.171049 0.181385,-0.514181 0.06511,-0.171049 0.197404,-0.52865 0.05788,-0.171565 0.491443,-1.347722 z m -2.43551,1.203027 -0.640271,0.818555 -0.471289,0.623735 0.781864,0.612365 0.570508,-0.731738 1.03973,-1.322917 z m -25.946737,0.495577 c -2.271225,2.383823 -4.046767,5.254551 -5.148523,8.453748 v 4.269507 c 0.70808,-4.755246 2.907574,-8.981447 6.080249,-12.231295 -0.09665,0.06788 -0.208032,0.116272 -0.33538,0.116272 -0.330418,0 -0.596346,-0.267566 -0.596346,-0.599963 z m 17.15916,0.116789 c -3.969442,-0.07595 -7.658768,1.361691 -10.471196,3.799768 -1.412794,1.228105 -2.598861,2.718374 -3.495394,4.395598 v 0.575675 c 0,0.1108 -0.08919,0.200505 -0.199988,0.200505 h -0.181901 c -0.634788,1.366072 -1.089034,2.837745 -1.305346,4.39353 l -6.653858,-0.46508 v 6.308142 l 1.690853,0.118339 c 0.127853,-0.271347 0.398977,-0.46147 0.719853,-0.46147 h 1.257804 l 0.132809,-1.895492 h -0.464571 c -0.46838,0.645501 -0.988691,1.366412 -1.21543,1.656746 -0.07357,0.09413 -0.175497,0.158586 -0.285254,0.186036 -0.0024,0.001 -0.0054,0.0016 -0.0078,0.0021 -0.01178,0.0026 -0.02327,0.0052 -0.03514,0.0067 -0.007,0.0013 -0.0146,0.0019 -0.0217,0.0026 -0.0088,0.0012 -0.01756,0.002 -0.02636,0.0026 -0.0073,5.8e-5 -0.01472,-5.4e-5 -0.02222,0 -0.009,2.1e-5 -0.01787,-1.4e-4 -0.02687,-5.17e-4 -0.0036,3.6e-5 -0.0067,2.48e-4 -0.01034,0 l -0.47594,-0.03359 0.01602,-0.227893 c -0.165775,-0.129495 -0.165881,-0.129708 -0.165881,-0.129708 l 0.19327,-0.264583 0.297656,-4.253488 0.95188,0.06615 -0.19172,2.741952 0.294039,-0.402043 v -0.95343 h 0.697115 l 0.374654,-0.512114 a 0.80000067,0.80000067 0 0 1 -0.271818,0.112138 0.80000067,0.80000067 0 0 1 -0.799951,-0.799951 0.80000067,0.80000067 0 0 1 0.799951,-0.799951 0.80000067,0.80000067 0 0 1 0.77153,0.730705 l 0.05116,0.0036 0.09095,-0.12454 0.183968,0.144177 0.451652,0.03152 -0.02119,0.304374 0.137459,0.107487 c 0,0 -0.05901,0.08297 -0.160714,0.225309 l -0.261483,3.73724 c -0.01438,0.205687 -0.147988,0.382811 -0.337447,0.4439 0.210062,0.115517 0.35388,0.318696 0.394808,0.564307 l 2.368848,0.165881 c 0.02716,0.09721 0.0604,0.191876 0.0894,0.288355 V 83.77683 c 0,-0.210688 0.08488,-0.398404 0.217041,-0.541053 l -1.763717,-0.123506 0.06666,-0.951364 2.747119,0.19172 a 0.20000176,0.20000176 0 0 1 -0.130741,-0.130741 0.20000176,0.20000176 0 0 1 0.199988,-0.199988 0.20000176,0.20000176 0 0 1 0.01033,0.01033 l 0.03979,-0.571541 0.676961,0.04754 0.07803,-1.11311 -0.676961,-0.04754 0.02325,-0.331762 a 0.80000067,0.80000067 0 0 1 -0.567408,0.237711 0.80000067,0.80000067 0 0 1 -0.799951,-0.799951 0.80000067,0.80000067 0 0 1 0.04031,-0.09715 l -1.437639,-0.100769 0.06666,-0.951363 2.368848,0.165365 c 0.08123,-0.689257 0.56647,-1.320421 1.300179,-1.579749 0.798568,-0.280175 1.636736,-0.03056 2.123384,0.545703 1.852172,-0.565913 3.416443,-1.115974 5.258077,-0.993221 0.05224,0.0037 0.13045,0.0043 0.19017,0.0083 0.01608,-0.220792 0.03312,-0.441139 0.04857,-0.661975 l 3.73879,0.261482 0.07235,-1.034045 -0.140043,-0.0098 a 0.20000176,0.20000176 0 0 1 -0.19637,0.196371 0.20000176,0.20000176 0 0 1 -0.199988,-0.199988 0.20000176,0.20000176 0 0 1 0.02222,-0.02222 l -0.914673,-0.06408 0.149862,-2.143021 c -0.812652,-0.06447 -1.424848,-0.810003 -1.364258,-1.676384 0.06059,-0.866378 0.625761,-1.521984 1.584399,-1.470194 l 0.04082,-0.584977 1.748213,0.122473 -0.664559,-0.985987 0.07235,-0.04857 0.623735,-1.05575 c -0.04087,-0.07159 -0.06574,-0.149979 -0.05994,-0.233577 0.01541,-0.220397 0.210587,-0.390075 0.430982,-0.374655 0.227996,0.01595 0.390074,0.210585 0.374654,0.430982 -0.01541,0.220392 -0.210588,0.390074 -0.430982,0.374654 -0.03801,-0.0026 -0.06795,-0.01246 -0.105419,-0.02274 l -0.519349,0.872815 0.71882,1.081071 1.671732,0.116789 0.376205,-1.151351 a 0.74999968,0.74999968 0 0 1 -0.07286,0.02997 0.74999968,0.74999968 0 0 1 -0.749825,-0.749825 0.74999968,0.74999968 0 0 1 0.749825,-0.750341 0.74999968,0.74999968 0 0 1 0.293522,0.06821 c 0.03024,-0.205468 0.213021,-0.36094 0.42323,-0.346233 h 5.17e-4 c 0.227993,0.01594 0.389547,0.21059 0.374137,0.430982 -0.01399,0.200103 -0.178362,0.357777 -0.377755,0.366386 a 0.74999968,0.74999968 0 0 1 0.03669,0.230993 0.74999968,0.74999968 0 0 1 -0.310059,0.567408 l -0.431498,1.3255 1.69447,0.118339 -0.03669,0.524516 c 1.007588,0.116293 1.366688,0.989092 1.349788,1.667598 -0.06006,0.85878 -0.951182,1.483858 -1.568896,1.471228 l -0.154513,2.204 -1.428853,-0.100252 -0.07235,1.034045 3.732072,0.260966 c -0.01288,0.238317 -0.02756,0.476438 -0.04134,0.714685 0.05593,0.003 0.111664,0.0063 0.166914,0.01034 1.659754,0.121324 3.029449,0.759199 4.56768,1.48208 a 0.80000067,0.80000067 0 0 1 -0.06201,-0.150379 0.80000067,0.80000067 0 0 1 0.799951,-0.800468 0.80000067,0.80000067 0 0 1 0.789616,0.721403 c 0.377983,-0.04494 0.778921,0.02139 1.151867,0.218075 0.95061,0.494155 1.337848,1.621098 0.870748,2.512508 l -0.338997,-0.17725 c 0.07622,0.149903 0.163764,0.32975 0.275952,0.564307 l 0.478007,0.999422 -0.09508,1.196826 -0.0956,1.196826 -0.10387,0.09612 c -0.139783,0.129304 -0.325505,0.11649 -0.445967,-0.03101 -0.086,-0.105311 -0.08889,-0.138316 -0.06201,-0.797884 0.02753,-0.675877 0.02635,-0.69112 -0.07441,-0.864546 -0.124,-0.213449 -0.421187,-0.402649 -0.657324,-0.418579 -0.248773,-0.01678 -0.567846,0.123456 -0.714685,0.314709 -0.121545,0.158321 -0.126104,0.17824 -0.192754,0.850594 -0.06543,0.660005 -0.07219,0.692018 -0.172082,0.784448 -0.1398,0.12937 -0.325509,0.11655 -0.445968,-0.03101 l -0.08992,-0.11007 0.07441,-1.207162 0.0739,-1.207161 0.595829,-0.901237 c 0.652415,-0.98724 0.739325,-1.074796 1.044381,-1.053166 0.11776,0.0084 0.198837,0.02537 0.283187,0.103353 0.06702,-0.428819 -0.155025,-0.877834 -0.57826,-1.105359 -0.299036,-0.15426 -0.629841,-0.165163 -0.908988,-0.05581 l -0.561723,-0.03928 a 0.80000067,0.80000067 0 0 1 -0.100252,0.04134 0.80000067,0.80000067 0 0 1 -0.14056,-0.0584 L 57.7375,79.162156 c -0.307609,-0.154647 -0.620187,-0.300054 -0.944128,-0.420129 -0.325094,-0.181215 -0.978703,-0.394325 -2.187981,-0.556555 -0.01579,0.251509 -0.03139,0.50298 -0.04754,0.754475 l -0.891418,-0.06253 a 0.80000067,0.80000067 0 0 1 0.583427,0.710551 0.80000067,0.80000067 0 0 1 -0.148829,0.359151 c 0.202414,0.01598 0.457855,0.0349 0.548804,0.04909 v -1.208195 h 1.599903 v 1.599902 H 55.10413 c 0.03543,0.247317 -0.0027,0.750181 -0.09612,1.987992 -0.139431,1.847826 -0.147847,1.922049 -0.232027,2.018999 -0.04805,0.05538 -0.13433,0.125999 -0.19172,0.156579 -0.08816,0.04701 -0.278422,0.04358 -1.227832,-0.02222 -1.101511,-0.07598 -1.126697,-0.07923 -1.25367,-0.17725 -0.283214,-0.218583 -0.305929,-0.567302 -0.05374,-0.817004 0.160605,-0.159045 0.332113,-0.197159 0.75396,-0.167949 0.293877,0.02035 0.334718,0.01364 0.433048,-0.07183 0.144859,-0.125973 0.182073,-0.256735 0.122473,-0.433048 -0.0698,-0.20653 -0.230212,-0.276249 -0.713651,-0.310059 -0.436035,-0.03049 -0.537749,-0.07945 -0.610299,-0.292489 -0.05415,-0.158981 -0.01709,-0.288178 0.116272,-0.404109 0.0999,-0.08689 0.13581,-0.0921 0.47749,-0.06821 0.470165,0.03288 0.596158,0.01587 0.729155,-0.09974 0.150468,-0.130813 0.168532,-0.389022 0.03772,-0.539502 -0.110732,-0.127379 -0.240037,-0.167233 -0.623734,-0.194303 -0.440883,-0.03107 -0.660472,-0.231567 -0.643372,-0.587044 0.0092,-0.189714 0.101194,-0.327563 0.305408,-0.458887 0.05953,-0.03839 0.137198,-0.05241 0.328662,-0.04909 a 0.80000067,0.80000067 0 0 1 -0.112138,-0.270784 0.80000067,0.80000067 0 0 1 0.645956,-0.736389 L 44.043822,78.20459 c 0.01826,-0.24423 0.03704,-0.488543 0.05529,-0.732772 -2.66809,-0.02096 -3.433899,0.519348 -3.433899,0.519348 L 37.891739,77.79738 c -0.274915,-0.206096 -0.656696,-0.275373 -1.021126,-0.147795 -0.404001,0.14375 -0.671913,0.494369 -0.718303,0.879533 l 0.536918,0.03772 -0.0062,0.08682 h 1.18184 v 0.17725 l 0.438733,-0.14211 1.019576,3.147611 1.447457,-2.975012 0.857829,0.417546 c 0,0 -1.32008,2.713616 -1.881022,3.86643 l 0.07441,0.229444 c 0.139384,-0.234094 0.383646,-0.398425 0.676961,-0.398425 h 1.51567 a 0.20000176,0.20000176 0 0 1 -0.128158,-0.128158 0.20000176,0.20000176 0 0 1 0.15658,-0.15658 l 0.260966,-3.732072 1.195792,0.08372 a 0.20000176,0.20000176 0 0 1 0.0052,-0.0052 0.20000176,0.20000176 0 0 1 0.0057,0.0057 l 2.533696,0.17725 -0.100252,1.435055 a 0.20000176,0.20000176 0 0 1 0.131258,-0.131258 0.20000176,0.20000176 0 0 1 0.199988,0.199987 0.20000176,0.20000176 0 0 1 -0.199988,0.199988 0.20000176,0.20000176 0 0 1 -0.14056,-0.14056 l -0.157096,2.247408 c 0.08652,-0.03185 0.177598,-0.05529 0.275435,-0.05529 h 1.055749 l 0.255799,-3.662826 0.95188,0.06615 -0.129191,1.847949 -0.676962,-0.04754 -0.07803,1.11311 0.676961,0.04703 -0.05684,0.810803 c 0.190998,0.146035 0.321944,0.365744 0.321944,0.625802 v 0.696598 c 0,0.443441 -0.357024,0.800468 -0.800468,0.800468 h -1.249536 l -0.05581,0.79375 a 0.20000176,0.20000176 0 0 1 0.10852,-0.108521 0.20000176,0.20000176 0 0 1 0.199988,0.199988 0.20000176,0.20000176 0 0 1 -0.199988,0.199988 0.20000176,0.20000176 0 0 1 -0.120406,-0.120406 L 46.08302,88.71661 h 1.490865 c 0.443444,0 0.800468,0.357024 0.800468,0.800468 v 0.696598 c 0,0.443441 -0.357024,0.800468 -0.800468,0.800468 h -0.548287 c 4.3e-5,0.01064 0.0021,0.0198 0.0021,0.03049 2.2e-4,0.106928 -0.007,0.213631 -0.01499,0.327629 l -0.182418,-0.01292 -0.01292,0.182418 -0.357084,-0.0248 0.01189,-0.167432 -0.501778,-0.03514 -0.01189,0.167432 -0.296106,-0.02067 0.0124,-0.182418 -0.501261,-0.03514 -0.01292,0.182418 -0.303857,-0.02119 0.01292,-0.182418 -0.501779,-0.03514 -0.01292,0.182418 -0.296106,-0.02067 0.0124,-0.182418 -0.501262,-0.03514 -0.01292,0.182418 -0.326595,-0.02325 0.01344,-0.197404 -0.128674,-0.0088 0.02119,-0.304374 0.0072,10e-4 c 0.07578,-0.865317 0.240022,-1.571949 1.029394,-1.829862 l 0.06046,-0.209807 0.0078,0.001 0.293006,-4.195093 0.743623,0.05219 c -0.007,-0.04275 -0.02532,-0.0813 -0.02532,-0.12609 v -0.47594 l -0.496611,-0.03462 0.129192,-1.84795 0.676961,0.04754 0.07803,-1.113111 -0.676961,-0.04754 0.06253,-0.895552 -1.83658,-0.128675 -0.06253,0.89607 -0.676962,-0.04754 -0.07803,1.113111 0.676961,0.04754 -0.129191,1.847432 -0.09922,-0.0067 v 0.645956 c 0,0.443441 -0.357024,0.800468 -0.800468,0.800468 H 40.49882 c -0.443445,0 -0.800468,-0.357027 -0.800468,-0.800468 v -0.696598 c 0,-0.07415 0.02316,-0.140718 0.04186,-0.208773 l -0.323495,0.104386 c -0.07611,0.02472 -0.152112,0.02814 -0.223242,0.0155 -0.0722,0.0026 -0.146104,-0.01151 -0.218074,-0.04651 l -0.428915,-0.208256 0.174667,-0.359668 C 38.448814,82.232665 38.108349,81.182285 37.807513,80.2535 h -1.2361 l -0.190169,2.722832 h 0.08423 c 0.443444,0 0.800468,0.357024 0.800468,0.800468 v 0.696598 c 0,0.443441 -0.357024,0.800468 -0.800468,0.800468 h -1.520837 c -0.174632,0 -0.32707,-0.06702 -0.45837,-0.161231 0.249342,0.66081 0.537565,1.303159 0.871265,1.918746 a 0.84999859,0.84999859 0 0 1 0.258899,0.449068 c 0.249298,0.425332 0.517997,0.83769 0.805635,1.236101 h 0.04341 c 0.443444,0 0.800468,0.357024 0.800468,0.800468 v 0.273368 c 0.0066,0.0076 0.01254,0.01568 0.01912,0.02325 0.961372,1.102925 2.079269,2.072168 3.32021,2.87321 V 92.07345 c 0,-0.3324 0.267564,-0.599964 0.599964,-0.599964 h 0.0083 c 0.3324,0 0.60048,0.267564 0.60048,0.599964 v 1.000455 c 0,0.101118 -0.03105,0.192025 -0.07493,0.275436 1.859759,0.989059 3.947584,1.618483 6.179468,1.774569 2.897328,0.202621 5.671382,-0.409489 8.090979,-1.637627 -0.100188,-0.107129 -0.163814,-0.249303 -0.163814,-0.408243 v -0.999939 c 0,-0.3324 0.267566,-0.600481 0.599963,-0.600481 h 0.0088 c 0.3324,0 0.599964,0.268081 0.599964,0.600481 v 0.823205 c 0.754625,-0.459343 1.470419,-0.977809 2.133719,-1.555977 0.763839,-0.663986 1.459678,-1.40728 2.084111,-2.211752 h -0.857312 c -0.443445,0 -0.800468,-0.357026 -0.800468,-0.800467 v -0.696599 c 0,-0.443441 0.357023,-0.800468 0.800468,-0.800468 h 1.520321 c 0.266116,0 0.489716,0.137224 0.635103,0.335897 0.238573,-0.42762 0.462417,-0.865179 0.660942,-1.317232 l 7.06055,0.494027 c -0.08361,0.281274 -0.173957,0.55933 -0.2682,0.835607 a 1.5,1.5 0 0 1 0.362768,0.08062 V 80.046798 L 64.535645,79.63752 c 10e-4,-1.163787 -0.143282,-2.296837 -0.390157,-3.394625 a 0.20000176,0.20000176 0 0 1 -0.175183,-0.175183 0.20000176,0.20000176 0 0 1 0.10852,-0.10852 c -0.237769,-0.971157 -0.562551,-1.909536 -0.974617,-2.803447 -0.03562,0.05467 -0.08722,0.09663 -0.157614,0.09663 h -0.792716 c -0.1108,0 -0.199988,-0.08919 -0.199988,-0.199987 v -1.349272 c 0,-0.1108 0.08919,-0.199988 0.199988,-0.199988 h 0.06925 c -0.447243,-0.726609 -0.946543,-1.418134 -1.503267,-2.060339 -0.638166,-0.730132 -1.34449,-1.400513 -2.108398,-2.002462 -0.02122,0.0023 -0.03965,0.0124 -0.0615,0.0124 -0.29103,0 -0.520802,-0.211723 -0.574126,-0.488342 C 57.707361,66.774173 57.430822,66.594658 57.15,66.421269 v 0.431498 c 0,0.3324 -0.265924,0.599963 -0.596346,0.599963 -0.330421,0 -0.596346,-0.267563 -0.596346,-0.599963 V 66.30293 c 0,-0.178897 0.08044,-0.334685 0.203088,-0.444418 -1.288813,-0.670523 -2.686494,-1.165183 -4.164087,-1.454174 a 0.20000176,0.20000176 0 0 1 0.02377,0.02377 0.20000176,0.20000176 0 0 1 -0.199988,0.199988 0.20000176,0.20000176 0 0 1 -0.199988,-0.199988 0.20000176,0.20000176 0 0 1 0.08217,-0.08217 c -0.52972,-0.09301 -1.068685,-0.160611 -1.616956,-0.198954 -0.266943,-0.01867 -0.532738,-0.03059 -0.797367,-0.03566 z M 35.75544,64.626546 c -0.673361,0.619613 -1.309629,1.290554 -1.914612,1.997294 h 0.26045 c 0.556954,-0.64028 1.137143,-1.252963 1.751314,-1.81901 z m 0.434599,0.832508 c -0.436609,0.404254 -0.85313,0.835347 -1.259871,1.278991 0.05933,0.03369 0.119919,0.06596 0.168465,0.113172 0.38133,-0.414339 0.771572,-0.817489 1.179256,-1.196827 z m 0.375688,0.774113 c -0.424562,0.402806 -0.829165,0.832369 -1.224215,1.273824 v 0.313159 c 0.217063,-0.246138 0.43709,-0.48797 0.663525,-0.722437 a 0.20000176,0.20000176 0 0 1 -0.134875,-0.134875 0.20000176,0.20000176 0 0 1 0.199988,-0.199988 0.20000176,0.20000176 0 0 1 0.134358,0.134359 c 0.154818,-0.156126 0.305708,-0.317091 0.464572,-0.467672 z m 23.391854,0.639754 -0.19017,0.242362 0.789616,0.612883 0.272852,-0.354501 c -0.0846,0.0461 -0.176791,0.07906 -0.280087,0.07906 -0.323298,0 -0.581089,-0.2574 -0.592211,-0.579809 z m -23.007382,0.125573 c -1.410231,1.346745 -2.64932,2.93071 -3.678845,4.695321 0.03168,0.07339 0.05013,0.153878 0.05013,0.239262 v 0.06511 c 1.037022,-1.808059 2.297265,-3.429312 3.732072,-4.803324 z m 4.169255,1.428854 a 0.20000176,0.20000176 0 0 1 0.199988,0.199988 0.20000176,0.20000176 0 0 1 -0.199988,0.199987 0.20000176,0.20000176 0 0 1 -0.199988,-0.199987 0.20000176,0.20000176 0 0 1 0.199988,-0.199988 z m 28.155904,0.280603 v 1.618506 c 0,0.124553 -0.05691,0.232492 -0.143144,0.308508 0.01978,0.04237 0.03681,0.08617 0.05633,0.128674 l 0.02325,-0.06615 0.06563,-0.165364 0.07028,-0.161747 0.07545,-0.157097 0.07958,-0.152445 0.08372,-0.148312 0.08785,-0.143143 0.0863,-0.130742 C 69.603805,69.32561 69.445733,69.013061 69.275358,68.707951 Z m -37.170341,0.213424 c -0.516315,0.771981 -0.992411,1.580415 -1.428336,2.421557 0.01688,-0.0014 0.03132,-0.0098 0.04858,-0.0098 0.05508,0 0.104465,0.01759 0.15503,0.03152 0.444085,-0.849792 0.930455,-1.665245 1.457275,-2.443261 z m 1.058333,0 c -0.680847,0.95538 -1.295973,1.974076 -1.841748,3.046842 v 0.417029 c 0.605855,-1.228326 1.304584,-2.386604 2.083594,-3.463871 z m 1.012342,0 c -0.01202,0.01589 -0.0247,0.0311 -0.03669,0.04703 0.01987,-0.01393 0.03367,-0.03562 0.05374,-0.04703 z m -0.295589,0.392224 c -0.473444,0.654637 -0.916138,1.340315 -1.325501,2.054138 0.05501,-0.01674 0.109946,-0.03462 0.170532,-0.03462 0.02403,0 0.04443,0.01068 0.0677,0.01344 0.393292,-0.672577 0.81416,-1.322092 1.266073,-1.940966 -0.08293,-0.01323 -0.148095,-0.03203 -0.173633,-0.05788 -0.008,-0.0081 -0.0024,-0.02318 -0.0052,-0.03411 z m 14.512809,1.771984 c -0.539588,-0.03773 -1.005051,0.395694 -1.044381,0.958082 -0.03986,0.569988 0.361651,1.05625 0.901237,1.09399 0.539587,0.03774 1.005051,-0.395694 1.044381,-0.958081 0.03986,-0.569983 -0.361651,-1.056251 -0.901237,-1.093991 z m 2.865458,0.200505 c -0.539587,-0.03774 -1.005051,0.395178 -1.044381,0.957564 -0.03986,0.569989 0.361134,1.05625 0.90072,1.09399 0.539589,0.03773 1.005051,-0.395175 1.044381,-0.957564 0.03226,-0.570512 -0.368734,-1.05678 -0.90072,-1.09399 z m 5.295284,0.217041 c 0.330421,0 0.596346,0.267566 0.596346,0.599963 v 0.549321 c 0,0.3324 -0.265925,0.599963 -0.596346,0.599963 -0.330422,0 -0.596346,-0.267563 -0.596346,-0.599963 v -0.549321 c 0,-0.332397 0.265924,-0.599963 0.596346,-0.599963 z m 1.996261,0 c 0.330418,0 0.596346,0.267566 0.596346,0.599963 v 0.549321 c 0,0.3324 -0.265928,0.599963 -0.596346,0.599963 -0.330422,0 -0.596346,-0.267563 -0.596346,-0.599963 v -0.549321 c 0,-0.332397 0.265924,-0.599963 0.596346,-0.599963 z m 1.999877,0 c 0.330421,0 0.596863,0.267566 0.596863,0.599963 v 0.549321 c 0,0.3324 -0.266442,0.599963 -0.596863,0.599963 -0.330419,0 -0.596346,-0.267563 -0.596346,-0.599963 v -0.549321 c 0,-0.332397 0.265927,-0.599963 0.596346,-0.599963 z m -9.36997,0.07493 a 0.74999968,0.74999968 0 0 1 0.750342,0.749825 0.74999968,0.74999968 0 0 1 -0.750342,0.749825 0.74999968,0.74999968 0 0 1 -0.749825,-0.749825 0.74999968,0.74999968 0 0 1 0.749825,-0.749825 z m -10.844816,0.08992 a 0.20000176,0.20000176 0 0 1 0.199987,0.199988 0.20000176,0.20000176 0 0 1 -0.199987,0.199987 0.20000176,0.20000176 0 0 1 -0.199988,-0.199987 0.20000176,0.20000176 0 0 1 0.199988,-0.199988 z m -0.976168,0.415995 a 0.20000176,0.20000176 0 0 1 0.199988,0.199988 0.20000176,0.20000176 0 0 1 -0.199988,0.199988 0.20000176,0.20000176 0 0 1 -0.199988,-0.199988 0.20000176,0.20000176 0 0 1 0.199988,-0.199988 z m -7.23005,0.07338 c -0.519881,0.991716 -0.98439,2.026856 -1.370459,3.110921 l 0.194304,0.01344 c 0.339963,-0.949119 0.741263,-1.861484 1.188041,-2.739885 -0.0021,-0.02053 -0.01189,-0.03833 -0.01189,-0.05943 z m -2.000394,0.300757 c -0.39725,0.866009 -0.758389,1.75784 -1.065568,2.682523 l 0.19482,0.01344 c 0.275698,-0.823362 0.598549,-1.617706 0.946712,-2.394686 -0.0442,-0.0839 -0.07596,-0.175148 -0.07596,-0.276986 z m 37.905696,0.386022 c -0.01484,0.09688 -0.05075,0.183347 -0.105937,0.258899 0.612007,1.539271 1.090169,3.162404 1.404049,4.853968 l 0.202055,0.01395 C 69.20611,76.178742 68.693415,74.465047 68.03409,72.844133 Z m -36.986373,0.130742 c -0.07444,0.04949 -0.15763,0.08183 -0.25063,0.09353 -0.312173,0.696676 -0.604449,1.407178 -0.855762,2.142505 l 0.187069,0.01344 c 0.27023,-0.772759 0.582672,-1.51968 0.919323,-2.249475 z m 1.492932,0.0708 c -0.364958,0.734202 -0.696477,1.4934 -0.98857,2.277897 l 0.194304,0.01395 c 0.293236,-0.776786 0.625727,-1.530037 0.992187,-2.257226 -0.0047,1.11e-4 -0.0087,0.0026 -0.01344,0.0026 -0.06553,0 -0.125602,-0.01771 -0.184485,-0.03721 z M 66.21663,73.3547 c 0.609338,1.421476 1.093333,2.92333 1.418518,4.492749 l 0.210323,0.01447 c -0.326567,-1.574776 -0.808151,-3.080739 -1.4118,-4.507218 z m 0.891419,0 c 0.589037,1.44438 1.054492,2.966081 1.367358,4.551143 l 0.19482,0.01395 c -0.311283,-1.589569 -0.772044,-3.116286 -1.354439,-4.565096 z m -0.958082,1.404048 v 0.559139 c 0.276354,0.803013 0.511414,1.628772 0.699699,2.474268 l 0.194304,0.01344 C 66.815218,76.75635 66.510381,75.741137 66.149967,74.758752 Z m -26.695011,0.119373 a 0.20000176,0.20000176 0 0 1 0.199988,0.199988 0.20000176,0.20000176 0 0 1 -0.199988,0.199987 0.20000176,0.20000176 0 0 1 -0.199988,-0.199987 0.20000176,0.20000176 0 0 1 0.199988,-0.199988 z M 34.46508,76.00363 a 0.20000176,0.20000176 0 0 1 0.199988,0.199987 0.20000176,0.20000176 0 0 1 -0.199988,0.199988 0.20000176,0.20000176 0 0 1 -0.199988,-0.199988 0.20000176,0.20000176 0 0 1 0.199988,-0.199987 z m 36.421032,0.249597 c 0.1604,0.934097 0.268367,1.884525 0.306958,2.850988 h 1.006657 c -0.03132,-0.82068 -0.113159,-1.629724 -0.228926,-2.428792 l -0.04031,-0.0072 -0.08475,-0.01809 -0.08733,-0.02067 -0.08888,-0.02325 -0.09147,-0.02636 -0.09457,-0.02946 -0.05736,-0.01964 -0.05736,-0.0217 -0.05736,-0.02325 -0.05736,-0.02532 -0.05736,-0.02739 -0.05736,-0.02946 -0.05736,-0.03049 -0.05684,-0.03256 -0.05684,-0.03411 -0.05684,-0.03617 z m -20.733101,3.255098 0.95188,0.06666 -0.336414,4.807975 -0.95188,-0.06615 0.129192,-1.847949 0.677478,0.04754 0.07751,-1.11311 -0.676961,-0.04754 z m 9.181869,0.269751 h 1.599902 v 1.599903 H 59.33488 Z m -2.469617,0.299207 c 0.103821,0.007 0.206041,0.03505 0.274402,0.08217 0.200979,0.138501 0.241209,0.285159 0.225309,0.82734 -0.01412,0.481376 -0.01165,0.497944 0.09095,0.599447 0.142983,0.141466 0.373666,0.157346 0.534852,0.03721 0.116146,-0.08658 0.120363,-0.100008 0.175183,-0.600481 0.04304,-0.392965 0.07309,-0.532717 0.130224,-0.602547 0.128895,-0.157577 0.326431,-0.23212 0.509013,-0.21394 0.109565,0.01072 0.213833,0.05465 0.295073,0.133325 0.224529,0.217392 0.224012,0.208077 0.08165,2.243791 -0.08525,1.219016 -0.14721,1.895413 -0.18035,1.967321 -0.06087,0.13206 -0.208297,0.276036 -0.320911,0.313676 -0.04526,0.01502 -0.159331,0.02349 -0.253731,0.01809 -0.146046,-0.008 -0.194984,-0.03492 -0.328146,-0.177767 l -0.156579,-0.167431 0.01344,-0.526583 c 0.01278,-0.498733 0.0085,-0.532754 -0.0832,-0.638204 -0.136486,-0.156892 -0.38631,-0.173248 -0.54467,-0.03566 -0.107802,0.09367 -0.11659,0.124526 -0.167948,0.586528 -0.03052,0.274485 -0.07856,0.523194 -0.109555,0.569474 -0.193782,0.289446 -0.593756,0.354514 -0.822172,0.133325 -0.203717,-0.197279 -0.222427,-0.291573 -0.179317,-0.907955 0.05405,-0.772808 0.08777,-0.820171 0.586528,-0.819071 0.32072,7.34e-4 0.493289,-0.08702 0.578259,-0.294556 0.07266,-0.177477 0.03058,-0.398374 -0.10387,-0.543636 -0.07734,-0.08357 -0.151801,-0.110161 -0.416512,-0.148311 -0.288604,-0.04161 -0.331601,-0.05873 -0.410311,-0.164331 -0.08403,-0.112719 -0.08645,-0.14387 -0.04754,-0.700216 0.03614,-0.51676 0.05129,-0.597954 0.134876,-0.72502 0.05179,-0.07873 0.147006,-0.169349 0.211356,-0.201539 0.0747,-0.03742 0.179883,-0.05149 0.283704,-0.04444 z m -17.25011,0.340547 a 0.20000176,0.20000176 0 0 1 0.199988,0.199988 0.20000176,0.20000176 0 0 1 -0.199988,0.199988 0.20000176,0.20000176 0 0 1 -0.199988,-0.199988 0.20000176,0.20000176 0 0 1 0.199988,-0.199988 z m -6.311759,0.0093 2.739884,0.19172 -0.04393,0.63407 -2.740401,-0.19172 z m 31.833199,0.202572 c 0.07609,-0.0072 0.172081,-0.0048 0.315226,0.0052 0.562772,0.03936 0.585338,0.06049 0.991154,0.933277 0.241161,0.518675 0.321967,0.604938 0.583427,0.623218 0.252887,0.01769 0.361502,-0.07244 0.664559,-0.553455 0.489659,-0.777202 0.535072,-0.809322 1.101741,-0.769462 0.422,0.02968 0.568975,0.101975 0.691948,0.339514 0.06766,0.130649 0.06466,0.210621 -0.06563,2.075842 -0.149958,2.146645 -0.142233,2.105165 -0.419096,2.260844 -0.270656,0.152193 -0.645186,0.0082 -0.772563,-0.296622 -0.05243,-0.1255 -0.05136,-0.271109 0.0088,-1.131714 0.04462,-0.638714 0.05583,-1.023276 0.03152,-1.088306 -0.06965,-0.186261 -0.339282,-0.277285 -0.54622,-0.184485 -0.182017,0.08164 -0.216202,0.234414 -0.290422,1.293461 -0.06394,0.912273 -0.07648,1.000798 -0.156579,1.113627 -0.230129,0.324173 -0.746048,0.280303 -0.948263,-0.08061 -0.0573,-0.102248 -0.05747,-0.234121 -0.0021,-1.184424 l 0.06253,-1.069185 -0.09198,-0.10542 c -0.108182,-0.124495 -0.21986,-0.160658 -0.394807,-0.128158 -0.241526,0.04489 -0.25615,0.0971 -0.34985,1.238685 -0.07427,0.90485 -0.09487,1.049789 -0.165881,1.160652 -0.166703,0.260326 -0.539697,0.333709 -0.79065,0.155546 -0.245616,-0.174365 -0.243659,-0.131869 -0.09198,-2.300635 0.153481,-2.194641 0.136474,-2.109758 0.440283,-2.253609 0.06243,-0.02956 0.11873,-0.04652 0.194821,-0.05374 z m -22.478215,0.451652 2.739885,0.191719 -0.04444,0.63407 -2.739885,-0.191719 z m 5.060673,0.353983 2.739885,0.19172 -0.04444,0.63407 -2.739885,-0.19172 z m 14.243058,0.06356 c -0.205194,-0.01435 -0.392343,0.148278 -0.406693,0.353467 -0.01488,0.212798 0.14067,0.391814 0.353467,0.406694 0.212792,0.01488 0.391826,-0.148269 0.406176,-0.353467 0.01488,-0.21279 -0.147756,-0.392344 -0.35295,-0.406694 z m -33.99224,0.07906 a 0.20000176,0.20000176 0 0 1 0.199988,0.199988 0.20000176,0.20000176 0 0 1 -0.199988,0.199988 0.20000176,0.20000176 0 0 1 -0.199988,-0.199988 0.20000176,0.20000176 0 0 1 0.199988,-0.199988 z m 1.630391,0.609265 a 0.20000176,0.20000176 0 0 1 0.199988,0.199988 0.20000176,0.20000176 0 0 1 -0.199988,0.199988 0.20000176,0.20000176 0 0 1 -0.199987,-0.199988 0.20000176,0.20000176 0 0 1 0.199987,-0.199988 z m -2.619995,1.137915 v 4.194576 c 0.478897,1.394385 1.074422,2.737796 1.798857,4.003374 0.220085,0.08874 0.375171,0.302389 0.375171,0.555005 v 0.06925 c 1.092047,1.776851 2.414172,3.401792 3.933093,4.826062 h 0.962732 c 0.3324,0 0.599963,0.26808 0.599963,0.60048 v 0.0083 c 0,0.214826 -0.118013,0.393775 -0.286804,0.499711 0.111947,0.09071 0.221187,0.184689 0.334863,0.273369 h 1.715141 c -1.924508,-1.323482 -3.628218,-2.936978 -5.04672,-4.77697 -0.09217,0.0576 -0.194967,0.09974 -0.312126,0.09974 h -0.0088 c -0.332397,0 -0.599963,-0.267566 -0.599963,-0.599963 V 92.286873 C 30.170091,91.87172 29.90796,91.447605 29.660205,91.014083 h -0.269234 c -0.443445,0 -0.800468,-0.357027 -0.800468,-0.800468 v -0.696598 c 0,-0.142203 0.0466,-0.268451 0.111104,-0.383956 -0.825063,-1.825515 -1.414314,-3.774606 -1.721342,-5.807915 z m 12.439551,0.602548 a 0.20000176,0.20000176 0 0 1 0.199988,0.199987 0.20000176,0.20000176 0 0 1 -0.199988,0.199988 0.20000176,0.20000176 0 0 1 -0.199988,-0.199988 0.20000176,0.20000176 0 0 1 0.199988,-0.199987 z m -10.883573,0.926558 c 0.314733,1.339993 0.776873,2.632633 1.365808,3.862297 h 0.202055 c -0.586293,-1.211226 -1.04781,-2.483824 -1.365292,-3.803903 -0.01046,-0.01552 -0.02163,-0.03024 -0.03101,-0.04651 z m 22.822896,0.170532 1.831413,0.127641 -0.291972,4.172355 0.0078,5.17e-4 0.03514,0.262 c 6e-4,-0.0076 0.0082,-0.0069 0.0088,-0.01447 0.717924,0.368951 0.814652,1.094829 0.779281,1.948202 0.06729,-0.02603 0.139328,-0.04341 0.216007,-0.04341 h 0.0088 c 0.3324,0 0.599964,0.268081 0.599964,0.600481 v 0.999939 c 0,0.332397 -0.267564,0.599963 -0.599964,0.599963 h -0.0088 c -0.332397,0 -0.599963,-0.267566 -0.599963,-0.599963 v -0.999939 c 0,-0.02257 0.01051,-0.04165 0.01292,-0.06356 l -0.112654,-0.0078 0.01137,-0.15968 -0.501778,-0.03514 -0.01137,0.15968 -0.303857,-0.02119 0.0124,-0.175183 -0.501778,-0.03514 -0.0124,0.175183 -0.158647,-0.01085 c 0.01624,0.05458 0.03411,0.108985 0.03411,0.168982 v 1.000455 c 0,0.3324 -0.267564,0.599964 -0.599964,0.599964 h -0.0088 c -0.332397,0 -0.599963,-0.267564 -0.599963,-0.599964 V 92.07345 c 0,-0.162157 0.06517,-0.307718 0.168982,-0.415479 l -0.419096,-0.02945 -0.0124,0.175183 -0.319361,-0.02222 0.01292,-0.182418 -0.08372,-0.0062 0.02274,-0.318844 -0.0078,-5.16e-4 c 0.07685,-0.88052 0.241876,-1.602475 1.046447,-1.859318 l 5.17e-4,-0.0072 c 0,0 -3.3e-4,0.0072 0.0072,0.0078 l 0.03979,-0.134358 z m -20.14244,0.188103 c -0.05417,0.0223 -0.116236,0.02511 -0.1757,0.03514 0.179917,0.611744 0.388223,1.213193 0.633553,1.797823 a 0.84999937,0.84999937 0 0 1 0.169499,-0.07028 c -0.242166,-0.573804 -0.449363,-1.16304 -0.627352,-1.762683 z m -1.717724,0.06098 c 0.319953,1.194834 0.760784,2.346392 1.312064,3.442684 h 0.100253 c 0.04204,0 0.07809,0.01758 0.118339,0.02377 -0.563849,-1.103197 -1.017174,-2.263018 -1.348755,-3.466455 z m 0.787032,0 c 0.808602,2.87792 2.338997,5.497373 4.406966,7.648112 l 0.12454,-0.144694 c -2.035379,-2.11484 -3.547719,-4.685972 -4.344954,-7.503418 z m 28.499035,0.494026 a 0.20000176,0.20000176 0 0 1 0.199988,0.199988 0.20000176,0.20000176 0 0 1 -0.199988,0.199988 0.20000176,0.20000176 0 0 1 -0.199987,-0.199988 0.20000176,0.20000176 0 0 1 0.199987,-0.199988 z M 37.080424,85.88313 a 0.20000176,0.20000176 0 0 1 0.199988,0.199988 0.20000176,0.20000176 0 0 1 -0.199988,0.199987 0.20000176,0.20000176 0 0 1 -0.199988,-0.199987 0.20000176,0.20000176 0 0 1 0.199988,-0.199988 z m 5.27513,0.132808 a 0.20000176,0.20000176 0 0 1 0.199988,0.199988 0.20000176,0.20000176 0 0 1 -0.199988,0.199988 0.20000176,0.20000176 0 0 1 -0.199988,-0.199988 0.20000176,0.20000176 0 0 1 0.199988,-0.199988 z m 23.093681,1.412834 c -0.819037,1.863103 -1.981237,3.552356 -3.395142,5.004862 v 0.276986 c 1.505385,-1.514434 2.730463,-3.296489 3.585311,-5.268929 z m 0.767395,0.05323 c -0.606016,1.445757 -1.410078,2.792029 -2.373498,4.016292 0.03467,-0.0062 0.06633,-0.02067 0.102836,-0.02067 h 0.0083 c 0.04458,0 0.08381,0.01617 0.125574,0.02532 0.946974,-1.222959 1.738066,-2.566526 2.341975,-4.006474 z m 0.821139,0.05788 c -0.635713,1.564758 -1.491689,3.020802 -2.523361,4.340821 0.02189,0.06246 0.03979,0.127319 0.03979,0.197404 v 0.03566 c 1.095859,-1.38005 2.005219,-2.908421 2.673222,-4.560962 z m 0.835091,0.06563 c -0.788753,2.014769 -1.922041,3.861608 -3.321245,5.486487 -0.0071,0.298171 -0.230853,0.531794 -0.519865,0.570508 -0.758576,0.814221 -1.578795,1.573475 -2.467549,2.254643 l 0.09664,0.145211 c 2.863419,-2.177582 5.105871,-5.084558 6.409944,-8.443413 z M 32.555636,88.44318 a 0.84999937,0.84999937 0 0 1 -0.185002,0.04858 c 0.749599,1.404625 1.68431,2.707414 2.789494,3.864364 l 0.12454,-0.144177 c -1.076563,-1.13012 -1.991471,-2.40102 -2.729032,-3.768767 z m 7.943184,0.273369 h 1.520837 c 0.443444,0 0.800468,0.357024 0.800468,0.800468 v 0.696598 c 0,0.443441 -0.357024,0.800468 -0.800468,0.800468 H 40.49882 c -0.443445,0 -0.800468,-0.357027 -0.800468,-0.800468 v -0.696598 c 0,-0.443444 0.357023,-0.800468 0.800468,-0.800468 z m 15.920992,0.311092 a 0.20000176,0.20000176 0 0 1 0.199988,0.199988 0.20000176,0.20000176 0 0 1 -0.199988,0.200504 0.20000176,0.20000176 0 0 1 -0.199988,-0.200504 0.20000176,0.20000176 0 0 1 0.199988,-0.199988 z m -2.949691,0.05013 a 0.20000176,0.20000176 0 0 1 0.199988,0.199988 0.20000176,0.20000176 0 0 1 -0.199988,0.199988 0.20000176,0.20000176 0 0 1 -0.199988,-0.199988 0.20000176,0.20000176 0 0 1 0.199988,-0.199988 z m 5.264795,0.640271 a 0.20000176,0.20000176 0 0 1 0.199988,0.199988 0.20000176,0.20000176 0 0 1 -0.199988,0.199988 0.20000176,0.20000176 0 0 1 -0.199988,-0.199988 0.20000176,0.20000176 0 0 1 0.199988,-0.199988 z m 10.190076,0.113688 c -0.114223,0.231288 -0.234676,0.458701 -0.356568,0.68523 h 1.143083 c 0.07153,-0.140845 0.135895,-0.285865 0.204639,-0.428398 a 1.5,1.5 0 0 1 -0.146244,0.03927 1.5,1.5 0 0 1 -0.84491,-0.296106 z m -37.213233,0.126091 v 0.255798 c 0,0.02513 -0.01171,0.04627 -0.01395,0.0708 0.424627,0.672931 0.892627,1.318695 1.400431,1.935799 a 0.60000002,0.60000002 0 0 1 0.140043,-0.113172 c -0.55957,-0.680869 -1.069016,-1.398987 -1.526522,-2.149222 z m -0.386023,0.924491 c -0.05156,0.03203 -0.102133,0.06138 -0.160713,0.08113 0.736347,1.126936 1.588685,2.180685 2.543514,3.143994 l 0.116272,-0.130225 C 32.887753,93.027414 32.050051,91.99022 31.325736,90.88231 Z m 12.379607,0.591178 h 0.0083 c 0.3324,0 0.599963,0.267564 0.599963,0.599964 v 1.000455 c 0,0.3324 -0.267563,0.599964 -0.599963,0.599964 h -0.0083 c -0.3324,0 -0.599964,-0.267564 -0.599964,-0.599964 V 92.07345 c 0,-0.3324 0.267564,-0.599964 0.599964,-0.599964 z m 4.999694,0 h 0.0088 c 0.3324,0 0.599964,0.267564 0.599964,0.599964 v 1.000455 c 0,0.3324 -0.267564,0.599964 -0.599964,0.599964 h -0.0088 c -0.332397,0 -0.599963,-0.267564 -0.599963,-0.599964 V 92.07345 c 0,-0.3324 0.267566,-0.599964 0.599963,-0.599964 z m 19.085657,0.391708 a 0.80000067,0.80000067 0 0 1 -0.304374,0.457853 c -0.293338,0.439498 -0.603796,0.865801 -0.926558,1.282092 a 0.80000067,0.80000067 0 0 1 0.500227,-0.207222 0.80000067,0.80000067 0 0 1 0.635621,0.375687 c 0.03157,-0.04283 0.0638,-0.0851 0.09508,-0.128157 z m -21.581111,0.10852 a 0.60000002,0.60000002 0 0 1 0.599963,0.599964 0.60000002,0.60000002 0 0 1 -0.599963,0.599963 0.60000002,0.60000002 0 0 1 -0.599964,-0.599963 0.60000002,0.60000002 0 0 1 0.599964,-0.599964 z m 17.136421,0.127124 c -0.781857,0.908846 -1.65265,1.744789 -2.605525,2.489254 l 0.103352,0.160714 c 0.907686,-0.709895 1.745561,-1.50005 2.502173,-2.359029 z m -26.404073,0.110071 -0.287838,0.363802 v 0.503329 c 0,0.332397 -0.267562,0.599963 -0.599963,0.599963 h -0.0083 c -0.08017,0 -0.156042,-0.01718 -0.225826,-0.04548 l -0.02636,0.03307 -0.101286,0.137976 -0.33538,0.427364 -0.108521,0.137459 -0.368452,0.463021 -0.101286,0.137976 -0.469222,0.593245 1.027844,0.805119 0.537435,-0.366902 0.152445,-0.10387 0.497644,-0.347266 0.151929,-0.09612 0.457853,-0.31936 0.152446,-0.10387 0.448551,-0.304891 0.145211,-0.104386 0.04806,-0.03462 0.01447,0.0083 -0.0186,0.05219 -0.06563,0.171049 -0.180868,0.514181 -0.05788,0.171565 -0.197404,0.52865 -0.06563,0.171049 -0.490926,1.347722 1.035595,0.805635 0.264067,-0.337964 a 0.60000002,0.60000002 0 0 1 -0.216008,-0.4408 0.60000002,0.60000002 0 0 1 0.599964,-0.599963 0.60000002,0.60000002 0 0 1 0.325044,0.134875 l 1.174089,-1.500683 0.492993,-0.607198 -0.781347,-0.619601 -0.571025,0.738973 -1.131714,1.440739 -0.01499,-0.0083 0.438216,-1.244885 0.05788,-0.171566 0.12454,-0.358118 0.33538,-0.976684 -0.221692,-0.1726 c -0.06914,0.02768 -0.143987,0.04496 -0.223242,0.04496 h -0.0083 c -0.12675,0 -0.237692,-0.04764 -0.334347,-0.114205 l -0.63717,0.417029 -0.271818,0.172082 -0.144694,0.104387 -0.455786,0.288871 -0.144695,0.104386 -0.464054,0.303341 -0.03152,0.01292 -0.0072,-0.0072 0.0098,-0.02997 0.334864,-0.419613 0.109037,-0.137459 0.318843,-0.412895 0.109038,-0.137459 0.175183,-0.217041 0.612366,-0.781864 z m -2.952791,0.754476 a 0.60000002,0.60000002 0 0 1 -0.15658,0.09508 c 0.133683,0.144632 0.261725,0.293803 0.399976,0.434598 L 34.34209,93.349341 C 34.220176,93.224979 34.107439,93.09287 33.98914,92.965385 Z m 29.381669,0.236678 c -0.687299,0.727685 -1.426565,1.408573 -2.224154,2.022099 l 0.103353,0.160197 c 0.784483,-0.608125 1.513843,-1.279691 2.194181,-1.996261 -0.03526,-0.05697 -0.05876,-0.118331 -0.07338,-0.186035 z m -2.388485,0.243396 c -0.203265,0.176644 -0.406718,0.352947 -0.61805,0.520382 l 0.103353,0.160197 c 0.225123,-0.177855 0.441924,-0.36476 0.657841,-0.552938 -0.05489,-0.03557 -0.102668,-0.07653 -0.143144,-0.127641 z m 5.458065,0.316777 c -1.398642,1.771416 -3.060504,3.318939 -4.918046,4.593001 h 0.02791 c 0.111502,0 0.201022,0.09004 0.201022,0.201538 v 0.861446 c 0.647328,-0.427214 1.271864,-0.886559 1.872753,-1.37511 a 0.60000002,0.60000002 0 0 1 -0.273885,-0.465088 0.60000002,0.60000002 0 0 1 0.599964,-0.599963 0.60000002,0.60000002 0 0 1 0.500744,0.360701 c 0.845216,-0.754886 1.635056,-1.570875 2.36368,-2.442228 a 0.80000067,0.80000067 0 0 1 -0.554488,-0.698665 0.80000067,0.80000067 0 0 1 0.180351,-0.435632 z m -8.360213,0.376204 -0.73794,0.484208 1.542025,2.350761 h 0.565857 c 0.3324,0 0.599963,0.267566 0.599963,0.599963 v 0.0088 c 0,0.05524 -0.01768,0.104823 -0.03152,0.155546 l 1.243851,-0.815454 -0.435115,-0.664042 -0.948779,0.622184 z m -1.21388,0.628385 -0.942578,0.334347 0.03307,0.818555 -1.466577,0.519864 -0.49351,-0.65474 -0.942578,0.334347 0.725537,0.929659 a 0.60000002,0.60000002 0 0 1 0.170532,-0.0708 0.60000002,0.60000002 0 0 1 0.599964,0.599963 0.60000002,0.60000002 0 0 1 -0.124024,0.299207 l 1.413867,1.810742 0.07131,-0.02532 v -1.105876 c 0,-0.05516 0.02263,-0.104725 0.05839,-0.141077 l -0.978235,-1.30793 0.995805,-0.353467 0.06925,1.62419 c 0.01981,-0.0065 0.03431,-0.02325 0.05633,-0.02325 h 0.826306 z m -15.870349,0.300757 -0.05478,1.00459 -0.05684,1.035596 a 0.60000002,0.60000002 0 0 1 0.325045,-0.134359 0.60000002,0.60000002 0 0 1 0.595829,0.575159 l 0.03359,-0.444418 0.758093,0.29714 -0.855245,1.093473 -0.0072,-0.0072 0.0677,-0.896069 a 0.60000002,0.60000002 0 0 1 -0.592729,0.582394 0.60000002,0.60000002 0 0 1 -0.374654,-0.15503 l -0.08475,1.545126 0.126091,0.04754 a 0.60000002,0.60000002 0 0 1 0.333313,-0.137976 0.60000002,0.60000002 0 0 1 0.546737,0.471806 l 0.157096,-0.192753 v -1.097091 c 0,-0.1662 0.13404,-0.30024 0.30024,-0.30024 h 0.836125 l 0.944128,-1.16117 0.609265,-0.743623 -0.981852,-0.374138 -0.529167,0.68833 -1.190625,-0.449585 0.06821,-0.866097 z m 3.935677,1.382862 -0.119889,0.946195 -0.120406,0.958598 h 1.000972 l 0.02274,-0.17725 h -0.0057 c -0.3324,0 -0.599964,-0.267564 -0.599964,-0.599964 v -0.0088 c 0,-0.332397 0.267564,-0.599963 0.599964,-0.599963 h 0.999939 c 0.332397,0 0.60048,0.267566 0.60048,0.599963 v 0.0088 c 0,0.213893 -0.117539,0.391977 -0.285254,0.498161 0.01584,0.0858 0.01243,0.182435 0.0088,0.279053 h 0.993221 c 0.0025,-0.205242 -0.01763,-0.402801 -0.0863,-0.587044 -0.05724,-0.164387 -0.14547,-0.323391 -0.2651,-0.469222 -0.294743,-0.371901 -0.685116,-0.58257 -1.192175,-0.64854 z m 6.7014,0.05633 -2.786393,0.309025 0.109037,0.954464 0.0646,0.584977 h 0.98702 l -0.06925,-0.653707 -0.02119,-0.24598 0.77618,-0.08475 a 0.60000002,0.60000002 0 0 1 0.516247,-0.397392 0.60000002,0.60000002 0 0 1 0.499711,0.274402 z m 6.664193,1.644861 0.133842,0.203605 h 0.646472 l 0.264066,-0.173116 h -0.891418 c -0.05428,0 -0.10302,-0.0171 -0.152962,-0.03049 z m -6.771163,0.21084 -0.978235,0.105936 c 0.042,0.05167 0.07028,0.11499 0.07028,0.187069 v 0.574125 l 0.992704,-0.112655 z m -13.713375,0.880049 v 1.157042 c 1.247338,0.68478 2.568964,1.25274 3.946012,1.70377 h 2.214852 v -0.42065 c -1.699966,-0.39108 -3.322765,-0.9721 -4.842598,-1.72496 a 0.60000002,0.60000002 0 0 1 0.01912,0.12041 0.60000002,0.60000002 0 0 1 -0.599963,0.59996 0.60000002,0.60000002 0 0 1 -0.599964,-0.59996 0.60000002,0.60000002 0 0 1 0.410828,-0.522453 C 38.175944,99.454782 37.99439,99.34844 37.812679,99.242521 Z m 14.201717,0.765852 -0.221692,0.0238 a 0.60000002,0.60000002 0 0 1 0.01705,0.0413 0.60000002,0.60000002 0 0 1 -0.60048,0.59996 0.60000002,0.60000002 0 0 1 -0.56379,-0.51676 l -0.02739,0.003 v 0.26355 c 0,0.1662 -0.133526,0.30024 -0.299723,0.30024 h -1.03663 l 0.03876,0.34933 2.778642,-0.31006 z m 4.834847,0.79116 c -1.700966,0.64801 -3.496403,1.09095 -5.354712,1.3038 h 4.678268 c 0.180184,-0.059 0.363767,-0.10985 0.542085,-0.17312 v -0.83095 l 5.17e-4,-0.0207 10e-4,-0.0207 0.0031,-0.0207 0.0031,-0.0191 0.0047,-0.0191 0.0052,-0.0191 0.0062,-0.0186 0.0072,-0.0181 0.0083,-0.0176 0.0088,-0.0176 0.0093,-0.0165 0.01034,-0.0165 0.01137,-0.0155 0.01189,-0.015 0.0124,-0.0145 0.01344,-0.014 0.01395,-0.0134 z" /></g><style
     type="text/css"
     id="style2">&#10;	.st0{fill:#981B1F;}&#10;	.st1{fill-rule:evenodd;clip-rule:evenodd;fill:#981B1F;}&#10;	.st2{fill:#FFFFFF;}&#10;	.st3{fill:none;}&#10;	.st4{fill:none;stroke:#8A1919;stroke-width:5;stroke-miterlimit:10;}&#10;</style></svg>
