<?xml version="1.0" encoding="UTF-8" standalone="no"?>
<svg
   inkscape:export-ydpi="300"
   inkscape:export-xdpi="300"
   inkscape:export-filename="C:\Users\Corey\Downloads\MadeAtMH_simplified.png"
   version="1.1"
   x="0px"
   y="0px"
   viewBox="0 0 610.40039 610.40039"
   xml:space="preserve"
   id="svg356"
   sodipodi:docname="MadeAtMH_simplified.svg"
   inkscape:version="1.3 (0e150ed6c4, 2023-07-21)"
   width="610.40039"
   height="610.40039"
   xmlns:inkscape="http://www.inkscape.org/namespaces/inkscape"
   xmlns:sodipodi="http://sodipodi.sourceforge.net/DTD/sodipodi-0.dtd"
   xmlns="http://www.w3.org/2000/svg"
   xmlns:svg="http://www.w3.org/2000/svg"
   xmlns:rdf="http://www.w3.org/1999/02/22-rdf-syntax-ns#"
   xmlns:cc="http://creativecommons.org/ns#"
   xmlns:dc="http://purl.org/dc/elements/1.1/"><metadata
   id="metadata362"><rdf:RDF><cc:Work
       rdf:about=""><dc:format>image/svg+xml</dc:format><dc:type
         rdf:resource="http://purl.org/dc/dcmitype/StillImage" /></cc:Work></rdf:RDF></metadata><defs
   id="defs360">&#10;		&#10;	&#10;			&#10;			&#10;			&#10;			&#10;			&#10;			&#10;			&#10;			&#10;				&#10;		&#10;&#10;&#10;&#10;&#10;</defs><sodipodi:namedview
   pagecolor="#ffffff"
   bordercolor="#666666"
   borderopacity="1"
   objecttolerance="10"
   gridtolerance="10"
   guidetolerance="10"
   inkscape:pageopacity="0"
   inkscape:pageshadow="2"
   inkscape:window-width="3840"
   inkscape:window-height="2054"
   id="namedview358"
   showgrid="false"
   showguides="false"
   inkscape:zoom="2.24"
   inkscape:cx="282.14286"
   inkscape:cy="260.71429"
   inkscape:window-x="-11"
   inkscape:window-y="-11"
   inkscape:window-maximized="1"
   inkscape:current-layer="_x38__1_"
   inkscape:document-rotation="0"
   inkscape:pagecheckerboard="1"
   inkscape:showpageshadow="0"
   inkscape:deskcolor="#505050" />&#10;<style
   type="text/css"
   id="style2">&#10;	.st0{fill:#981B1F;}&#10;	.st1{fill-rule:evenodd;clip-rule:evenodd;fill:#981B1F;}&#10;	.st2{fill:#FFFFFF;}&#10;	.st3{fill:none;}&#10;	.st4{fill:none;stroke:#8A1919;stroke-width:5;stroke-miterlimit:10;}&#10;</style>&#10;&#10;&#10;&#10;&#10;&#10;<g
   id="_x38__1_"
   inkscape:label="logo"
   transform="translate(-94.799809,-94.7998)">&#10;	<path
   id="path943"
   style="font-style:normal;font-variant:normal;font-weight:bold;font-stretch:normal;font-size:67.2194px;line-height:1.25;font-family:sans-serif;-inkscape-font-specification:'sans-serif Bold';letter-spacing:0px;word-spacing:0px;fill:#981b1f;fill-opacity:1;stroke:none;stroke-width:0.916628"
   d="m 256.47487,635.28601 -32.94847,-25.06328 6.3085,-8.29323 11.85282,9.01622 26.0578,-34.25587 9.21887,7.01262 -26.0578,34.25587 11.87678,9.03444 z m 293.65631,-466.41246 32.15807,26.06966 -6.56181,8.09429 -11.5685,-9.37826 -27.10413,33.43411 -8.99771,-7.2942 27.10413,-33.43411 -11.59186,-9.39721 z m -38.28722,29.90143 -17.90631,-9.8202 -7.77127,7.45208 -11.51118,-6.31299 43.59458,-40.38957 13.65283,7.48749 -10.69695,58.43132 -11.5112,-6.31297 z m -10.0144,-17.42142 12.16558,6.67185 4.73221,-22.98605 z m 149.96986,300.7257 -2.4,-10e-6 c -13.5,40.97322 -37.9,77.45751 -70.1,106.0146 l 1.3,2.00568 c 32.89999,-29.13014 57.79999,-66.18749 71.2,-108.02027 z m -497.8,-10e-6 h 2.5 c 13.4,40.97321 37.9,77.45751 70.1,106.0146 l -1.5,2.00568 c -32.6,-29.13013 -57.50001,-66.18748 -71.09999,-108.02027 z m 65.1,116.52056 c -35.5,-31.13583 -62.20001,-71.24946 -76.2,-116.42505 h 2.59999 c 13.90001,44.41152 40.2,83.8566 75,114.61038 z m -44.2,-116.52056 2.49999,-10e-6 c 12.40001,34.57414 33.5,65.51894 60.60001,90.25568 l -1.5,2.00568 c -27.70001,-25.21427 -49.1,-56.82764 -61.6,-92.26135 z m -10.30001,0 h 2.70001 c 12.79999,37.72592 35.5,71.34496 65.2,98.08737 l -1.5,2.00568 C 200.79941,554.95235 177.69941,520.66474 164.5994,482.07924 Z M 586.89942,598.5998 c 35.5,-31.13582 62.2,-71.24945 76.2,-116.42504 h -2.50001 c -13.9,44.41152 -40.2,83.85658 -75.09999,114.61038 z m 44.2,-116.52054 -2.5,-10e-6 c -12.50001,34.57413 -33.5,65.51893 -60.60001,90.25567 l 1.5,2.00567 c 27.7,-25.21427 49,-56.82763 61.60001,-92.26133 z m 10.2,0 -2.50001,-10e-6 c -12.8,37.72592 -35.6,71.34496 -65.19999,98.08739 l 1.5,2.00567 c 30.09999,-27.21996 53.2,-61.50757 66.2,-100.09305 z M 143.93372,354.6176 h 2.55925 c 13.71758,-50.60715 38.79824,-95.66994 71.76137,-130.9416 l -1.53555,-2.47728 c -33.37262,35.86148 -58.86275,81.75004 -72.78507,133.41888 z m 509.59789,0 h -2.45688 C 637.25477,304.01044 612.2765,258.94766 579.31336,223.676 l 1.33082,-2.47726 c 33.67974,35.86146 59.16987,81.75003 72.88745,133.41887 z M 587.09348,210.6998 c 36.34134,38.45672 63.67413,87.88424 78.00593,143.79984 h -2.55924 C 648.31073,299.52777 621.38742,250.80805 585.66029,212.94114 Z m 45.24753,143.91781 -2.55925,-1e-5 C 616.98552,311.91412 595.48781,273.69334 567.74554,243.14028 l 1.53556,-2.47726 c 28.35649,31.14287 50.1613,70.18942 63.05991,113.95459 z m 10.44174,-1e-5 -2.55925,1e-5 C 627.12015,308.02127 603.77978,266.49744 573.47827,233.46712 l 1.53554,-2.47726 c 30.81338,33.62014 54.46085,75.96971 67.76894,123.62774 z M 210.57659,210.6998 c -36.34135,38.45672 -63.67414,87.88425 -78.00595,143.79985 h 2.66162 c 14.22943,-54.97189 41.15275,-103.69161 76.77752,-141.5585 z m -45.24755,143.91781 h 2.55926 c 12.69389,-42.70349 34.29396,-80.92427 62.03623,-111.47733 l -1.53555,-2.47726 c -28.3565,31.14286 -50.26367,70.18942 -63.05994,113.95459 z m -10.54411,-2e-5 2.764,10e-6 c 13.10335,-46.59634 36.34136,-88.12016 66.74525,-121.15048 l -1.53555,-2.47726 C 191.84288,264.61 168.1954,306.95959 154.78495,354.61761 Z M 399.99903,94.7998 c -168.4,6e-6 -305.199222,136.99923 -305.199221,305.19922 4e-6,168.4 136.799211,305.20118 305.199211,305.20118 168.2,0 305.20118,-136.80118 305.20117,-305.20118 10e-6,-168.2 -137.00116,-305.199223 -305.20116,-305.19922 z m 0,13.19922 c 154.58131,0 281.39235,120.76988 291.25977,272.90039 h -88.15431 c -3.46382,-50.61317 -25.40878,-96.30332 -59.10546,-130 -36.90001,-36.79999 -87.89962,-59.5996 -144.09961,-59.5996 -56.20001,-1e-5 -107.09961,22.7996 -144.09961,59.5996 -33.69595,33.78751 -55.80794,79.40164 -59.30078,130.00001 l -87.85939,-1e-5 C 118.51436,228.76888 245.41768,107.99902 399.99903,107.99902 Z m -25.90039,111.40039 c 2.89999,0 5.30077,2.40078 5.30078,5.30079 -1e-5,1.59999 -0.8,3.09961 -2.00001,4.0996 l 7.4004,29.5 h 21.99999 l 10.4004,-13.5 -6.00001,-11.90039 c -0.49999,0.1 -0.90038,0.20117 -1.40039,0.20117 -2.9,0 -5.30078,-2.40078 -5.30077,-5.30077 -1e-5,-2.90001 2.30077,-5.30079 5.30077,-5.30079 2.90001,0 5.29883,2.40078 5.29883,5.30078 10e-6,1.10001 -0.39999,2.1 -0.99999,3.00001 l 7.20116,14.40038 0.9004,0.69923 -9.60157,12.30077 23.00001,10e-6 v 7.69921 c 12.6,0.20001 19.40039,9.30118 19.40038,20.70117 0,11.4 -8.70039,20.59922 -19.40038,20.69923 v 28.19922 h -18.79883 l -10e-6,13.60155 h 49.19922 c 1e-5,2.90581 0.0144,5.81104 0.0234,8.7168 0.78517,0.005 1.81464,0.0605 2.50194,0.0625 24.22708,0.0763 44.20705,8.71407 67.94142,17.82032 6.9,-7.1 18.09881,-9.60118 28.29881,-5.20118 9.36981,4.06751 15.14762,12.77927 15.58008,21.8789 h 31.16993 l -10e-6,12.52149 h -36.89257 v 11.78906 l -8.9082,1e-5 -1e-5,14.64452 h 8.90821 l 10e-6,11.78908 36.89256,-10e-6 10e-6,12.52344 -49.41602,-10e-6 v -63.26758 l 7.07032,10e-6 c -0.25514,-5.0859 -3.44518,-9.9255 -8.60352,-12.17774 -4.65516,-2.0043 -9.71933,-1.44695 -13.50782,1 l -36.49217,10e-6 c 0,0 -9.53075,-7.77664 -44.48634,-9.94532 0.0191,3.21464 0.0373,6.42979 0.0586,9.64453 H 327.79002 c 0.0179,-3.30795 0.0455,-6.61608 0.0703,-9.92383 -15.98304,1.01695 -24.73547,3.21195 -29.15822,5.28711 -4.3517,1.27563 -8.57855,2.89341 -12.74803,4.63672 l -40.25392,1e-5 c -3.55504,-1.68743 -7.89621,-1.84635 -11.95311,-0.0996 -5.75028,2.59168 -9.07089,8.26701 -8.58595,13.94337 1.17597,-0.94392 2.25513,-1.09222 3.8047,-1.09376 4.01424,-0.004 5.07016,1.21951 12.70898,14.74413 l 6.9746,12.34962 -0.13476,15.87305 -0.13477,15.875 -1.27539,1.35742 c -1.71244,1.82174 -4.15509,1.82011 -5.86718,-0.002 -1.22326,-1.30185 -1.28677,-1.72752 -1.53908,-10.42968 -0.25701,-8.86492 -0.29749,-9.12623 -1.74413,-11.31054 -1.74762,-2.63877 -5.79551,-4.77327 -9.06835,-4.78127 -3.1066,-0.007 -7.17109,2.19762 -8.99024,4.87892 -1.47815,2.17867 -1.50916,2.37867 -1.76757,11.2539 -0.2522,8.66106 -0.31632,9.09037 -1.53908,10.39064 -1.71236,1.82089 -4.15523,1.82117 -5.86717,-10e-6 l -1.2754,-1.35741 -0.15429,-15.75587 -0.15431,-15.75586 7.17774,-12.65234 c 1.68373,-2.96863 2.99555,-5.24372 4.13086,-7.13673 l -4.59962,2.00977 c -5.29999,-12.1 0.79922,-26.4996 13.69922,-32.09961 10.2,-4.49999 21.40079,-2.00078 28.3008,5.19923 23.73436,-9.10626 43.71432,-17.74402 67.9414,-17.82032 0.72717,-0.002 1.46012,0.004 2.19531,0.0176 0.0363,-3.13229 0.0657,-6.26412 0.11523,-9.39649 h 49.10157 l -10e-6,-13.60154 -18.80075,1e-5 -1e-5,-29.00001 c -8.1,-0.4 -19.19921,-9.39922 -19.19922,-20.69922 0.40001,-8.89999 5.89922,-19.99961 19.19922,-20.59961 l 1e-5,-6.90039 h 22.30077 l -7.10156,-28.40039 c -2.7,-0.2 -4.79883,-2.49922 -4.79882,-5.19922 0,-2.9 2.29883,-5.30078 5.29883,-5.30078 z m 3.90038,64.30078 c -6.99999,0 -12.69882,6 -12.79882,13.5 0,7.4 5.69882,13.5 12.79882,13.5 7.1,0 12.80079,-5.99999 12.80078,-13.5 10e-6,-7.4 -5.70078,-13.5 -12.80078,-13.5 z m 37.70118,10e-6 c -7.1,-10e-6 -12.80078,5.99999 -12.80078,13.49999 -1e-5,7.4 5.70078,13.5 12.80077,13.5 7.1,0 12.79883,-6 12.79883,-13.5 0,-7.4 -5.69882,-13.5 -12.79882,-13.49999 z m 217.41797,107.37499 1.07812,1.71289 h 2.96093 l 10e-6,4.70508 19.74023,31.36914 10e-6,-36.07422 h 12.52343 l -10e-6,55.97266 2.29102,3.64258 c 0,0 -0.002,10e-4 -2.29101,1.54492 v 3 h -6.26172 c -0.0466,-2e-5 -0.0907,-0.005 -0.13672,-0.006 -0.11914,-0.003 -0.23736,-0.0105 -0.35547,-0.0195 -0.098,-0.008 -0.19472,-0.0152 -0.29101,-0.0273 -0.11476,-0.0145 -0.22806,-0.0339 -0.34179,-0.0547 -0.0929,-0.0171 -0.18646,-0.0336 -0.27736,-0.0547 -0.15401,-0.0349 -0.30536,-0.078 -0.45702,-0.125 -0.0335,-0.0104 -0.0691,-0.0199 -0.10157,-0.0312 -1.41204,-0.46005 -2.6834,-1.40121 -3.56054,-2.70118 -3.8455,-5.70383 -12.66867,-19.82573 -20.48047,-32.44141 v 35.46094 l -6.26172,10e-6 c -3.67707,-10e-6 -6.25976,-3.12412 -6.25976,-6.60353 V 401.1728 c -1.20131,-1.95699 -1.9004,-3.09767 -1.9004,-3.09767 l 1.9004,-1.28124 10e-6,-4.00586 h 5.94139 z m -260.69727,1.30273 h 12.52148 l 10e-6,24.31055 h -8.9082 V 431.333 h 8.9082 l -10e-6,24.3125 h -12.52149 z m 36.68749,-1e-5 12.52344,1e-5 1e-5,63.26758 -12.52344,10e-6 -1e-5,-24.31251 h 8.90821 v -14.64453 h -8.9082 z m 29.90236,1e-5 h 49.21093 v 63.26759 l -12.52148,-10e-6 V 431.333 h 8.90625 l -10e-6,-14.64453 h -8.90625 l 10e-6,-11.78906 h -24.16798 l 1e-5,11.78906 h -8.9082 l -1e-5,14.64453 h 8.90821 v 24.3125 h -12.52149 z m 69.37695,0.12111 16.23046,40.27929 16.23048,-40.27929 11.61523,4.67968 c 0,0 -14.80598,36.7427 -21.09571,52.35156 l 1.96094,4.86523 -5.80859,2.33985 c -0.97447,0.39264 -1.95942,0.50853 -2.90235,0.4082 -0.94291,0.10034 -1.93016,-0.0156 -2.90429,-0.40819 l -5.80664,-2.33986 1.95899,-4.86522 c -6.28939,-15.60888 -21.09375,-52.35157 -21.09375,-52.35157 z m -324.80273,0.62108 c 3.76706,0 5.05197,0.21298 6.6328,1.10157 3.84644,2.16182 3.70704,1.0384 3.70705,29.91601 -1e-5,28.53706 0.0613,27.97883 -3.31446,30.03711 -3.44918,2.10309 -8.26457,0.79971 -10.20899,-2.76172 -0.82811,-1.51676 -0.96553,-3.43338 -1.10937,-15.3496 -0.1815,-15.03387 -0.32784,-15.73023 -3.44922,-16.53908 -2.26101,-0.58587 -3.75654,-0.2122 -5.28711,1.31837 l -1.29687,1.29687 -0.16211,14.05859 c -0.14454,12.4942 -0.26957,14.21953 -1.11329,15.50587 -2.97832,4.5408 -9.7718,4.64267 -12.48828,0.1875 -0.94554,-1.55073 -1.02748,-2.72058 -1.02928,-14.72461 -0.002,-13.9353 -0.31246,-15.97147 -2.62111,-17.20703 -2.62469,-1.40466 -6.23575,-0.45799 -7.31837,1.91796 -0.37778,0.82917 -0.58539,5.87494 -0.58592,14.2793 -7.5e-4,11.32391 -0.11844,13.23286 -0.91993,14.82812 -1.94706,3.87539 -6.98599,5.41447 -10.39062,3.17384 -3.48275,-2.29205 -3.42015,-1.74242 -3.41797,-29.98829 0.002,-24.54288 0.0416,-25.59151 1.04687,-27.24023 1.82776,-2.99774 3.81623,-3.80636 9.36914,-3.80859 7.45655,-0.003 8.01874,0.45298 13.71874,11.07815 3.52779,6.576 4.86968,7.86134 8.19726,7.86132 3.4403,0 4.57818,-1.05818 8.21093,-7.6289 6.11305,-11.05682 6.42502,-11.3125 13.83009,-11.3125 z m 87.42773,0.47462 c 2.40741,-0.0668 4.92139,1.08414 6.46484,3.26562 0.68402,0.96678 0.95267,2.82865 1.15626,8.01366 0.25919,6.60346 0.29857,6.78339 1.74023,8.02345 2.00056,1.72081 5.04118,1.72129 7.04296,0 1.43642,-1.23513 1.48231,-1.44552 1.73829,-7.76173 0.28832,-7.11393 0.94652,-8.99938 3.70507,-10.6289 1.87657,-1.10851 5.45801,-1.10138 7.3457,0.0137 0.81316,0.48036 1.97407,1.75572 2.58008,2.834 0.97817,1.7404 1.10157,2.8195 1.10156,9.61913 0,7.3205 -0.0563,7.72399 -1.25977,9.12305 -1.12742,1.31068 -1.70431,1.49687 -5.52149,1.77735 -3.50107,0.25725 -4.5006,0.53726 -5.58982,1.56053 -1.8936,1.77896 -2.6483,4.62905 -1.85938,7.01954 0.92251,2.79526 3.0986,4.10264 7.29881,4.38672 6.53183,0.44178 6.93165,1.0929 6.93166,11.26172 -10e-6,8.1105 -0.32946,9.32792 -3.17774,11.7246 -3.19348,2.68714 -8.37215,1.47326 -10.64452,-2.49415 -0.36342,-0.63449 -0.7619,-3.93839 -0.91017,-7.56053 -0.24953,-6.09651 -0.33643,-6.50684 -1.6621,-7.83204 -1.9476,-1.94671 -5.23712,-1.96014 -7.16798,-0.0293 -1.2968,1.29683 -1.3846,1.73316 -1.67382,8.27539 l -0.30664,6.9082 -2.20313,2.0547 c -1.87448,1.7485 -2.53931,2.04985 -4.45898,2.02147 -1.24107,-0.0183 -2.72984,-0.22935 -3.30859,-0.46876 -1.44012,-0.59566 -3.23598,-2.61348 -3.91212,-4.39841 -0.36818,-0.97175 -0.56054,-9.88958 -0.56054,-25.9297 -10e-6,-26.78634 -0.0137,-26.6637 3.125,-29.30468 1.13576,-0.95568 2.54188,-1.4345 3.98633,-1.47462 z m 67.69336,0.84179 c 13.88667,0 14.62808,0.0495 16.01367,1.08399 2.55377,1.90666 3.62815,3.79457 3.57422,6.28711 -0.10106,4.67033 -3.15953,7.09267 -8.96094,7.09571 -5.04897,0.003 -6.77911,0.41191 -8.34571,1.9785 -1.85064,1.85064 -1.85064,5.24311 0,7.09375 1.63565,1.63565 3.27054,1.97852 9.45703,1.97853 4.4959,-1e-5 4.96087,0.0996 6.18946,1.32811 1.64013,1.64014 2.01079,3.36627 1.15624,5.39844 -1.14498,2.72314 -2.52426,3.26953 -8.26171,3.26953 -6.36119,10e-6 -8.52377,0.76597 -9.62695,3.40625 -0.94184,2.25417 -0.57918,3.99896 1.20312,5.78125 1.20922,1.2092 1.73681,1.33527 5.60352,1.33789 5.55046,0.004 7.76723,0.66326 9.7246,2.89259 3.0735,3.50052 2.45287,8.04356 -1.45508,10.64647 -1.75236,1.16719 -2.08125,1.18951 -16.57421,1.17578 -12.49199,-0.0118 -14.99026,-0.14178 -16.10156,-0.83788 -0.72346,-0.45314 -1.78864,-1.45146 -2.36718,-2.22072 -1.01348,-1.3466 -1.05786,-2.33087 -1.19142,-26.65428 -0.15519,-28.26344 -0.21251,-27.77913 3.55859,-29.97071 1.73108,-1.006 2.71568,-1.07031 16.40431,-1.07031 z m -110.2129,13.1914 c -2.7,3e-5 -4.99999,2.20002 -4.99999,5 -1e-5,2.7 2.19999,5 4.99999,5.00001 2.80001,1e-5 5,-2.2 5,-5 1e-5,-2.7 -2.3,-4.99999 -5,-5.00001 z m 150.50587,12.21094 h 36.05272 l 10e-6,8.34375 h -36.05274 z m 66.58984,0 h 36.05274 l 10e-6,8.34376 -36.05276,-10e-6 z m 123.08985,0 h 36.05273 v 8.34375 h -36.05274 z m -453.70314,43.66407 h 92.90821 c 10.29427,28.73694 26.835,54.51665 47.91603,75.59765 36.79999,36.9 87.8996,59.79883 144.0996,59.79883 56.2,0 107.1996,-22.99882 144.09961,-59.79883 21.08095,-21.08096 37.55671,-46.86077 47.79491,-75.59766 h 93.09962 c -29.11833,130.56903 -145.78512,228.49611 -284.89455,228.4961 -139.19586,0 -255.94789,-97.92708 -285.02343,-228.49609 z m 225.02344,-10e-6 h 24.09961 l 10e-6,55.9961 0.40037,1.80078 c 0.10006,3e-5 0.0996,-0.0996 0.0996,-0.0996 l 5e-5,0.0996 c 10.30001,4.1 11.80001,13.70078 12.00001,25.30078 l -0.0996,10e-6 v 4.19922 l -1.0996,10e-6 v 2.40037 h -4.19921 l -1e-5,-2.30078 -6.60156,10e-6 v 2.30077 h -3.89844 l -10e-6,-2.30077 h -6.60156 l 10e-6,2.30078 -3.89844,-2e-5 -10e-6,-2.30077 -6.60155,10e-6 -10e-6,2.30078 -3.99999,-2e-5 -10e-6,-2.0996 h -6.59959 l -1e-5,2.09961 h -4.5 l 1e-5,-2.40039 -1.50001,2e-5 -10e-6,-4.19923 0.0996,-10e-6 c 0.30001,-11.3 2.2,-20.8 12,-25 8e-5,0.1 0.10151,0.0993 0.10162,0.19915 l 0.69923,-3.40038 0.0996,-10e-6 z m 89.80078,10e-6 24.09961,-10e-6 v 55.19728 l 0.0996,-2e-5 0.59961,2.79882 c 10.1,4.1 11.60077,13.5004 11.80078,24.90039 l 0.0996,-1e-5 -1e-5,3.99999 h -1.69921 l -10e-6,2.59962 h -4.30078 l 1e-5,-2.39844 -6.5996,-10e-6 v 2.39844 l -3.90038,1e-5 v -2.39845 l -6.59962,10e-6 v 2.39843 h -3.99999 v -2.39843 l -6.59962,-2e-5 1e-5,2.39846 -3.90039,-1e-5 v -2.19921 l -6.59961,-10e-6 v 2.19922 h -4.70118 v -2.39843 h -2.39843 c -1e-5,-1.5 -3.9e-4,-2.90079 0.0996,-4.30079 0.79999,-11.59998 3.79921,-20.9996 14.19921,-25.09961 l 5e-5,0.0996 0.30078,-1.49999 z M 303.49941,186.7998 l -25.59999,-37.9 -14.3,9.6 5.2,18.1 0.6,2.3 2.09999,7.1 0.70001,2.3 1.89999,6.9 0.7,2.3 0.10001,0.7 -0.10002,0.1 -0.59999,-0.50001 -1.9,-1.5 -5.6,-4.4 -1.8,-1.6 -5.79999,-4.5 -1.8,-1.6 -6.30001,-4.90001 -1.79999,-1.49999 -6.70001,-5.3 -14.2,9.6 5.6,8.2 1.19999,1.79999 4.40001,6.60001 1.2,1.8 4.10001,6.1 1.19999,1.8 3.9,5.7 1.2,1.9 1.9,2.79999 6.5,9.80001 10.9,-7.3 -7.29999,-10.8 -2.10002,-3.10001 -1.29999,-1.79999 -3.8,-5.7 -1.3,-1.9 -4,-5.8 -0.2,-0.4 0.2,-0.1 0.2,0.3 5.89999,4.4 1.80002,1.50001 5.59999,4.19999 1.9,1.5 3.4,2.5 11,8.5 7.3,-4.8 -3.5,-13.1 -1.2,-4.9 -0.6,-2.3 -4.6,-16.7 0.2,-0.1 13.5,19.9 6.8,10.1 10.8,-7.3 z m 126.4,-63 -7.9,42.9 -2.19999,12.40001 36.1,6.5 1.79999,-9.90001 -23.39999,-4.19999 0.59999,-3.00001 1.90001,-10.7 19.49999,3.5 1.8,-9.89999 -19.5,-3.50001 2.2,-11.9 23.4,4.20001 1.7,-9.8 z m -65,0.3 2.5,43.6 0.7,12.5 20.50001,-1.2 c 6.6,-0.40001 12,-2.8 16.2,-7.4 1.59999,-1.8 2.89987,-3.80009 3.89999,-5.89999 1.50001,-3.3 2.1,-6.9 1.8,-11 l -0.59999,-10.10001 c -0.4,-6.7 -2.9,-12.09999 -7.60001,-16.09999 -4.6,-4.1 -10.29999,-5.90001 -16.9,-5.60001 z m 15.50001,42.20001 -1.9,-33.00001 7.49999,-0.4 c 3,-0.1 5.50001,0.8 7.5,3.1 2.1,2.3 3.30001,5.3 3.40001,9.2 l 0.6,10.2 c 0.2,3.8 -0.60001,6.90001 -2.30001,9.5 -0.10013,0.19992 -0.19995,0.40003 -0.49996,0.60003 -1.70007,2.19995 -3.89999,3.3 -6.7,3.4 l -7.5,0.49999 z m -64.1,-30.6 -0.70001,45.89999 -0.19999,13.1 13.1,-3.99999 -0.1,-11.40001 15.99999,-4.8 6.3,9.5 13.20001,-4.1 -7.3,-10.2 -26.9,-38.1 -6.7,2.10001 v 0 0 z m 11.8,15 0.2,-0.1 10.2,15.09999 -10.3,3.2 z m -34.17999,451.25545 18.72414,8.15345 7.06238,-8.12703 12.03695,5.24152 -39.74647,44.18169 -14.27638,-6.21666 5.3463,-59.16132 12.03695,5.24151 z m 11.55514,16.43996 -12.72122,-5.53947 -2.62518,23.32083 z m 197.02484,-5.89542 25.60001,37.9 14.29999,-9.6 -5.2,-18.09999 -0.69999,-2.30001 -2.10001,-7.1 -0.59999,-2.3 -1.90001,-6.9 -0.69999,-2.3 -0.2,-0.7 0.19999,-0.1 0.6,0.5 1.80001,1.49999 5.6,4.4 1.90001,1.49999 5.7,4.59999 1.89997,1.40004 6.2,5 1.9,1.49999 6.70001,5.3 14.2,-9.6 -5.6,-8.2 -1.2,-1.9 -4.4,-6.4 -1.3,-1.9 -4,-5.9 -1.2,-1.9 -3.9,-5.7 -1.3,-1.8 -1.8,-2.8 -6.7,-9.8 -10.8,7.3 7.3,10.80001 2.1,2.99999 1.3,1.9 3.8,5.7 1.3,1.9 4,5.8 0.1,0.4 -0.10001,0.1 -0.40002,-0.19998 -5.80019,-4.39976 -1.8,-1.49999 -5.69998,-4.20003 -1.80001,-1.49999 -3.40001,-2.49998 -11.19999,-8.50001 -7.3,4.89999 3.5,13.1 1.3,4.8 0.6,2.30001 4.60001,16.69999 -0.20001,0.1 -13.5,-19.9 -6.8,-10.2 -10.8,7.40001 z m -126.39999,63 7.8,-42.9 2.3,-12.4 -36.20001,-6.6 -1.7,9.8 23.30001,4.2 -0.5,3.2 -1.9,10.7 -19.5,-3.5 -1.8,9.80001 19.5,3.59999 -2.2,11.9 -23.4,-4.2 -1.8,9.8 z m 64.8,-0.4 -2.40001,-43.59999 -0.69999,-12.5 -20.5,1.19999 c -6.7,0.4 -12.00001,2.8 -16.20001,7.4 -1.69999,1.8 -3,3.8 -3.89999,5.9 -1.50001,3.30001 -2.1,6.9 -1.8,10.9 l 0.6,10.2 c 0.4,6.7 2.9,12.1 7.5,16.10001 4.69999,3.99999 10.4,5.89999 17,5.6 z m -15.40001,-42.1 1.90001,32.8 -7.5,0.50001 c -2.9,0.1 -5.5,-1.00001 -7.5,-3.2 -1.9,-2.4 -3.2,-5.50001 -3.40001,-9.20001 l -0.6,-10.1 c -0.19999,-3.8 0.50001,-6.9 2.30001,-9.5 0.1,-0.20001 0.29979,-0.40016 0.39998,-0.60001 1.8,-2.19999 4.00001,-3.3 6.8,-3.5 l 7.4,-0.4 z m 64.20001,30.6 0.7,-45.89999 0.2,-13.20001 -13.10001,4.1 0.1,11.40001 -16,4.79999 -6.3,-9.5 -13.19999,4 7.3,10.3 26.8,38.1 6.7,-2.1 0.1,-2e-5 v 0 z m -11.90001,-15 -0.10001,0.1 -10.2,-15.1 10.2,-3.2 z" />&#10;	&#10;	&#10;	&#10;	&#10;	&#10;	&#10;	&#10;	&#10;</g>&#10;&#10;&#10;&#10;&#10;&#10;&#10;&#10;</svg>
