<?xml version="1.0" encoding="UTF-8" standalone="no"?>
<!-- Created with Inkscape (http://www.inkscape.org/) -->

<svg
   width="3.6488304mm"
   height="3.5mm"
   viewBox="0 0 3.6488304 3.5"
   version="1.1"
   id="svg1"
   inkscape:version="1.3 (0e150ed6c4, 2023-07-21)"
   sodipodi:docname="mh-m.svg"
   xmlns:inkscape="http://www.inkscape.org/namespaces/inkscape"
   xmlns:sodipodi="http://sodipodi.sourceforge.net/DTD/sodipodi-0.dtd"
   xmlns="http://www.w3.org/2000/svg"
   xmlns:svg="http://www.w3.org/2000/svg">
  <sodipodi:namedview
     id="namedview1"
     pagecolor="#505050"
     bordercolor="#eeeeee"
     borderopacity="1"
     inkscape:showpageshadow="0"
     inkscape:pageopacity="0"
     inkscape:pagecheckerboard="0"
     inkscape:deskcolor="#505050"
     inkscape:document-units="mm"
     inkscape:zoom="136.67619"
     inkscape:cx="6.8958609"
     inkscape:cy="6.6141732"
     inkscape:window-width="3840"
     inkscape:window-height="2054"
     inkscape:window-x="-11"
     inkscape:window-y="-11"
     inkscape:window-maximized="1"
     inkscape:current-layer="layer1" />
  <defs
     id="defs1" />
  <g
     inkscape:label="Layer 1"
     inkscape:groupmode="layer"
     id="layer1"
     transform="translate(-53.445867,-54.683988)">
    <path
       style="font-variation-settings:'wght' 600;fill:#8b1919;fill-opacity:1;fill-rule:evenodd;stroke-width:1.88976;stroke-linecap:round"
       d="m 56.511644,54.683999 c 0.212403,0 0.284838,0.01205 0.373972,0.06214 0.216878,0.121886 0.209046,0.05854 0.209046,1.686727 0,1.608984 0.0035,1.577451 -0.186861,1.693501 -0.19448,0.118577 -0.465988,0.04514 -0.575624,-0.155666 -0.04669,-0.08552 -0.05447,-0.193592 -0.06258,-0.865456 -0.01023,-0.847642 -0.01844,-0.886902 -0.194443,-0.932507 -0.127486,-0.03303 -0.211858,-0.01198 -0.298159,0.07432 l -0.07314,0.07314 -0.0091,0.792624 c -0.0081,0.704451 -0.01513,0.801691 -0.0627,0.874218 -0.167932,0.25602 -0.551029,0.261761 -0.704196,0.01056 -0.05331,-0.08743 -0.05788,-0.153282 -0.05798,-0.830096 -1.33e-4,-0.785703 -0.01766,-0.900564 -0.147837,-0.970227 -0.14799,-0.0792 -0.351644,-0.02584 -0.412686,0.108127 -0.0213,0.04675 -0.03297,0.331257 -0.033,0.805116 -3.2e-5,0.638464 -0.0067,0.746117 -0.05189,0.836061 -0.109783,0.218502 -0.393909,0.305239 -0.585877,0.178908 -0.196373,-0.129229 -0.192826,-0.0982 -0.192703,-1.690767 9.5e-5,-1.383782 0.0024,-1.442949 0.05904,-1.535908 0.103057,-0.169018 0.215111,-0.214575 0.528209,-0.214701 0.420434,-1.33e-4 0.452217,0.02546 0.773609,0.62453 0.198913,0.37077 0.274529,0.443322 0.462152,0.443322 0.19398,0 0.258191,-0.05968 0.463022,-0.430148 0.344679,-0.62341 0.362231,-0.637829 0.779762,-0.637829 z"
       id="path3" />
  </g>
</svg>
