<?xml version="1.0" encoding="UTF-8" standalone="no"?>
<!-- Created with Inkscape (http://www.inkscape.org/) -->

<svg
   width="7.8949718mm"
   height="3.75mm"
   viewBox="0 0 7.8949718 3.75"
   version="1.1"
   id="svg5"
   inkscape:version="1.3 (0e150ed6c4, 2023-07-21)"
   sodipodi:docname="mh-sticker.svg"
   xmlns:inkscape="http://www.inkscape.org/namespaces/inkscape"
   xmlns:sodipodi="http://sodipodi.sourceforge.net/DTD/sodipodi-0.dtd"
   xmlns="http://www.w3.org/2000/svg"
   xmlns:svg="http://www.w3.org/2000/svg">
  <sodipodi:namedview
     id="namedview7"
     pagecolor="#ffffff"
     bordercolor="#666666"
     borderopacity="1.0"
     inkscape:pageshadow="2"
     inkscape:pageopacity="0.0"
     inkscape:pagecheckerboard="0"
     inkscape:document-units="mm"
     showgrid="false"
     fit-margin-top="0"
     fit-margin-left="0"
     fit-margin-right="0"
     fit-margin-bottom="0"
     inkscape:zoom="73.761874"
     inkscape:cx="14.919632"
     inkscape:cy="7.0903839"
     inkscape:window-width="3840"
     inkscape:window-height="2054"
     inkscape:window-x="-11"
     inkscape:window-y="-11"
     inkscape:window-maximized="1"
     inkscape:current-layer="layer1"
     inkscape:showpageshadow="0"
     inkscape:deskcolor="#505050" />
  <defs
     id="defs2" />
  <g
     inkscape:label="Layer 1"
     inkscape:groupmode="layer"
     id="layer1"
     transform="translate(-57.347228,-133.49986)">
    <path
       style="font-variation-settings:'wght' 600;fill:#8b1919;fill-opacity:1;fill-rule:evenodd;stroke-width:1.88976;stroke-linecap:round"
       d="m 60.534061,133.55541 c 0.220787,0 0.296081,0.0125 0.388733,0.0646 0.225439,0.1267 0.217298,0.0608 0.217298,1.7533 0,1.67249 0.0036,1.63972 -0.194237,1.76035 -0.202156,0.12325 -0.484381,0.0469 -0.598344,-0.16181 -0.04854,-0.0889 -0.05662,-0.20124 -0.06505,-0.89962 -0.01064,-0.8811 -0.01917,-0.92191 -0.202117,-0.96931 -0.132517,-0.0343 -0.22022,-0.0125 -0.309927,0.0772 l -0.07603,0.076 -0.0095,0.82391 c -0.0085,0.73226 -0.01573,0.83334 -0.06518,0.90873 -0.17456,0.26612 -0.572778,0.27209 -0.731991,0.011 -0.05542,-0.0909 -0.06016,-0.15934 -0.06027,-0.86286 -1.32e-4,-0.81672 -0.01836,-0.93611 -0.153671,-1.00853 -0.153833,-0.0823 -0.365525,-0.0269 -0.428976,0.1124 -0.02214,0.0486 -0.03427,0.34433 -0.0343,0.83689 -3.3e-5,0.66367 -0.007,0.77557 -0.05394,0.86906 -0.114117,0.22713 -0.409457,0.31729 -0.609002,0.18597 -0.204124,-0.13433 -0.200437,-0.10208 -0.200309,-1.7575 9.9e-5,-1.4384 0.0024,-1.4999 0.06137,-1.59653 0.107124,-0.17569 0.223602,-0.22304 0.549058,-0.22318 0.437028,-1.3e-4 0.470066,0.0265 0.804144,0.64918 0.206764,0.38541 0.285364,0.46083 0.480393,0.46083 0.201636,0 0.268382,-0.062 0.481297,-0.44713 0.358284,-0.64802 0.376529,-0.66301 0.810539,-0.66301 z"
       id="path3" />
    <path
       id="path1"
       style="font-variation-settings:'wght' 600;fill:#8b1919;fill-opacity:1;fill-rule:evenodd;stroke-width:1.88976;stroke-linecap:round"
       d="m 62.325411,133.49986 h 0.742197 v 1.44099 h -0.528 v 0.86803 h 0.528 v 1.44098 h -0.742197 z m 2.174592,0 H 65.2422 v 3.75 h -0.742197 v -1.44098 h 0.527935 v -0.86803 h -0.527935 z m -1.784697,1.62773 h 2.136933 v 0.49454 h -2.136933 z" />
  </g>
</svg>
