<?xml version="1.0" encoding="UTF-8" standalone="no"?>
<!-- Created with Inkscape (http://www.inkscape.org/) -->

<svg
   width="17.21497mm"
   height="17.205667mm"
   viewBox="0 0 17.21497 17.205668"
   version="1.1"
   id="svg1"
   xml:space="preserve"
   inkscape:version="1.3 (0e150ed6c4, 2023-07-21)"
   sodipodi:docname="notes-simple.svg"
   xmlns:inkscape="http://www.inkscape.org/namespaces/inkscape"
   xmlns:sodipodi="http://sodipodi.sourceforge.net/DTD/sodipodi-0.dtd"
   xmlns="http://www.w3.org/2000/svg"
   xmlns:svg="http://www.w3.org/2000/svg"><sodipodi:namedview
     id="namedview1"
     pagecolor="#505050"
     bordercolor="#eeeeee"
     borderopacity="1"
     inkscape:showpageshadow="0"
     inkscape:pageopacity="0"
     inkscape:pagecheckerboard="0"
     inkscape:deskcolor="#505050"
     inkscape:document-units="mm"
     inkscape:zoom="8"
     inkscape:cx="45.125"
     inkscape:cy="-8.125"
     inkscape:window-width="3840"
     inkscape:window-height="2054"
     inkscape:window-x="-11"
     inkscape:window-y="-11"
     inkscape:window-maximized="1"
     inkscape:current-layer="svg1" /><defs
     id="defs1" /><path
     id="rect11"
     style="display:inline;fill:#e5ed60;fill-opacity:0.597684;stroke-width:0.0529167;stroke-linecap:round"
     d="M 5.824968,0 C 5.636218,0 5.48442,0.151799 5.48442,0.340548 V 2.164726 A 0.48107183,0.48107183 0 0 1 5.004346,2.645833 H 0.499711 C 0.222711,2.645833 0,2.868547 0,3.145544 V 16.70544 c 0,0.277 0.222711,0.500228 0.499711,0.500228 h 16.215031 c 0.277,0 0.500228,-0.223228 0.500228,-0.500228 V 3.145544 0.340548 C 17.21497,0.151799 17.062653,0 16.873906,0 Z m 7.744746,0.506946 c 0.01607,0 0.02985,0.006 0.04134,0.0186 0.01148,0.01263 0.0209,0.02906 0.02894,0.04858 0.0069,0.01953 0.01297,0.041 0.01757,0.06511 0.0046,0.02297 0.0084,0.04536 0.01189,0.06718 0.0023,0.02182 0.004,0.04168 0.0052,0.05891 0.0011,0.01722 0.0016,0.02928 0.0016,0.03617 0.0034,0.04134 0.0099,0.08997 0.01912,0.146245 0.0092,0.05627 0.01992,0.114436 0.03256,0.174149 0.01149,0.05857 0.02446,0.116213 0.03824,0.173633 0.01263,0.05627 0.02469,0.107142 0.03617,0.151929 0.04594,0.18259 0.08768,0.340146 0.125574,0.473356 0.0379,0.13321 0.07275,0.248621 0.104903,0.346232 0.03101,0.09646 0.05989,0.179145 0.0863,0.248047 0.02526,0.06775 0.04898,0.128041 0.0708,0.180867 0.0057,0.01607 0.01171,0.03675 0.0186,0.06201 0.0058,0.02527 0.01184,0.0503 0.01757,0.07441 0.0057,0.02411 0.0109,0.04479 0.0155,0.06201 0.0046,0.01723 0.0084,0.02584 0.01189,0.02584 0.0057,0 0.01476,-0.0078 0.02739,-0.02274 0.01149,-0.01493 0.02486,-0.03296 0.03979,-0.05478 0.01378,-0.02182 0.02756,-0.04513 0.04134,-0.06925 0.01378,-0.02527 0.02584,-0.04674 0.03617,-0.06511 0.06431,-0.11943 0.121556,-0.241731 0.172082,-0.366903 0.05053,-0.12632 0.09664,-0.249941 0.137976,-0.37052 0.04019,-0.120578 0.07769,-0.235989 0.112138,-0.346232 0.0333,-0.110243 0.06471,-0.208831 0.09457,-0.296106 0.02871,-0.08728 0.05667,-0.160945 0.08423,-0.220658 0.02756,-0.05972 0.05644,-0.09934 0.0863,-0.118856 0.02527,-0.02297 0.05415,-0.04536 0.0863,-0.06718 0.03101,-0.02297 0.06626,-0.03462 0.106453,-0.03462 0.04249,0 0.07786,0.0099 0.10542,0.02946 0.02756,0.01837 0.04995,0.04209 0.06718,0.0708 0.01723,0.02756 0.03101,0.05857 0.04134,0.09302 0.01033,0.0333 0.01895,0.06471 0.02584,0.09457 l 0.50953,1.650028 0.04496,0.177767 c 0.01264,0.04823 0.02166,0.08268 0.02739,0.103353 0.0057,0.01952 0.0088,0.03371 0.0088,0.04289 0,0.01607 -0.0038,0.03462 -0.01189,0.05529 -0.0092,0.01952 -0.02044,0.03755 -0.03307,0.05478 -0.01378,0.01722 -0.02928,0.03192 -0.04651,0.04341 -0.01723,0.01263 -0.03445,0.0186 -0.05168,0.0186 -0.02756,0 -0.05419,-0.01114 -0.08062,-0.03411 C 15.85735,3.265307 15.83668,3.232577 15.8229,3.188937 15.8195,3.176307 15.81125,3.150467 15.79861,3.111427 15.78598,3.072377 15.77219,3.029317 15.75727,2.982236 15.74234,2.934006 15.72724,2.886176 15.71231,2.839092 15.69738,2.792012 15.68492,2.753712 15.67459,2.723854 15.66196,2.685964 15.64605,2.636004 15.62653,2.573992 15.60701,2.511982 15.58634,2.444801 15.56452,2.372454 15.5427,2.298954 15.52031,2.223165 15.49734,2.145078 15.47322,2.066988 15.45123,1.992919 15.43171,1.922869 15.41104,1.852819 15.3925,1.789887 15.37642,1.734767 15.36035,1.678497 15.34829,1.635437 15.34025,1.605576 c -0.0023,-0.008 -0.0075,-0.02698 -0.0155,-0.05684 -0.0092,-0.02985 -0.01861,-0.05994 -0.02894,-0.09095 -0.01034,-0.03215 -0.02067,-0.06103 -0.03101,-0.0863 -0.01034,-0.02527 -0.01895,-0.03772 -0.02584,-0.03772 -0.0069,0 -0.01297,0.0042 -0.01757,0.01344 -0.0057,0.008 -0.01,0.01929 -0.01344,0.03307 -0.0046,0.01378 -0.0089,0.02928 -0.0124,0.04651 -0.0046,0.01607 -0.0088,0.03198 -0.01344,0.04806 l -0.01033,0.03979 c -0.03675,0.141249 -0.07769,0.289389 -0.122473,0.444417 -0.04479,0.153882 -0.09606,0.30627 -0.153479,0.457854 -0.05857,0.150434 -0.124426,0.295129 -0.197921,0.434082 -0.0735,0.137804 -0.157498,0.261425 -0.251664,0.37052 -0.01952,0.02297 -0.04272,0.03807 -0.07028,0.04496 -0.02871,0.008 -0.05627,0.01189 -0.08268,0.01189 -0.04479,0 -0.08532,-0.01074 -0.120923,-0.03256 -0.03675,-0.02297 -0.06948,-0.05225 -0.09819,-0.08785 -0.02871,-0.03675 -0.05363,-0.07769 -0.07545,-0.122473 -0.02297,-0.04479 -0.04324,-0.08957 -0.06046,-0.134359 -0.03904,-0.09876 -0.0739,-0.191375 -0.104903,-0.277503 -0.03215,-0.08727 -0.06144,-0.16904 -0.08785,-0.245979 -0.02756,-0.07809 -0.05259,-0.152159 -0.07441,-0.222209 -0.02297,-0.0712 -0.04444,-0.140099 -0.06511,-0.206706 -0.01148,-0.03789 -0.02526,-0.08572 -0.04134,-0.143144 -0.01723,-0.05857 -0.03537,-0.1223 -0.05374,-0.191202 -0.01837,-0.07005 -0.036,-0.1428 -0.05323,-0.218592 -0.01837,-0.07579 -0.03428,-0.149459 -0.04806,-0.220658 -0.01493,-0.07235 -0.02699,-0.139525 -0.03617,-0.201538 -0.0092,-0.06316 -0.01395,-0.116961 -0.01395,-0.161747 0,-0.0712 0.009,-0.127642 0.02739,-0.168982 0.01723,-0.04249 0.03709,-0.07866 0.05891,-0.108521 0.01953,-0.0092 0.041,-0.01607 0.06511,-0.02067 0.02297,-0.0046 0.04283,-0.0067 0.05891,-0.0067 z m -2.864941,0.483691 c 0.0356,0 0.06276,0.0099 0.08113,0.02946 0.01837,0.01952 0.03083,0.04019 0.03772,0.06201 0.0092,0.02756 0.0153,0.04864 0.01757,0.06356 0.0011,0.01493 0.0016,0.02699 0.0016,0.03617 v 0.01757 c 0,0.02412 -3.67e-4,0.04306 -0.0016,0.05684 -0.0011,0.01378 -0.0021,0.02796 -0.0021,0.04289 0,0.01263 0.0031,0.02986 0.0088,0.05168 0.0046,0.02067 0.01148,0.04823 0.02067,0.08268 0.0092,0.0333 0.02084,0.07464 0.03462,0.124024 0.01263,0.04823 0.02641,0.105475 0.04134,0.172082 0.0046,0.01838 0.01056,0.03732 0.0186,0.05684 0.008,0.01837 0.02314,0.0279 0.04496,0.0279 h 0.230993 c 0.01723,0 0.03273,0.0056 0.04651,0.01705 0.01378,0.01033 0.02492,0.02371 0.03411,0.03979 0.008,0.01493 0.01452,0.03043 0.01912,0.04651 0.0046,0.01608 0.0067,0.02894 0.0067,0.03927 0,0.02641 -0.0077,0.05012 -0.02377,0.0708 -0.01607,0.01952 -0.03675,0.03635 -0.06201,0.05013 -0.02526,0.01378 -0.05374,0.02452 -0.08475,0.03256 -0.03101,0.0081 -0.06109,0.01282 -0.09095,0.01395 0.02411,0.09531 0.04691,0.195222 0.06873,0.299723 0.02178,0.103172 0.03252,0.202901 0.03256,0.299207 v 5.17e-4 c -5.1e-5,0.071 -0.01038,0.137612 -0.03101,0.199471 -0.02067,0.06201 -0.05035,0.116734 -0.0894,0.163814 -0.04019,0.04594 -0.08882,0.08251 -0.146245,0.110071 -0.05857,0.02641 -0.125344,0.03979 -0.199987,0.03979 -0.04823,0 -0.09819,-0.0052 -0.149862,-0.0155 -0.05167,-0.01033 -0.0995,-0.02928 -0.143144,-0.05684 -0.02527,-0.01608 -0.0519,-0.03422 -0.08062,-0.05374 -0.02871,-0.02067 -0.05627,-0.04174 -0.08268,-0.06356 -0.02641,-0.02297 -0.05053,-0.04668 -0.07235,-0.0708 -0.02297,-0.02411 -0.04151,-0.04863 -0.05529,-0.0739 -0.0402,-0.07235 -0.07941,-0.144292 -0.117306,-0.215491 -0.03905,-0.07235 -0.06741,-0.143775 -0.08578,-0.214974 -0.0011,-0.0046 -0.0021,-0.01148 -0.0021,-0.02067 0,-0.01263 0.0034,-0.02389 0.01034,-0.03307 0.0057,-0.0092 0.01355,-0.01649 0.02274,-0.02222 0.0092,-0.0058 0.01861,-0.0096 0.02894,-0.01189 0.0092,-0.0023 0.01739,-0.0036 0.02429,-0.0036 0.02182,0 0.03945,0.01033 0.05323,0.03101 0.04019,0.05512 0.08458,0.11329 0.132808,0.17415 0.04708,0.06087 0.09744,0.117309 0.151412,0.168981 0.05282,0.05053 0.108865,0.09227 0.167432,0.125574 0.05856,0.0333 0.117934,0.05013 0.1788,0.05013 0.0356,0 0.0658,-0.0061 0.08992,-0.01757 0.02297,-0.01263 0.041,-0.02894 0.05478,-0.04961 0.01379,-0.02067 0.02372,-0.04479 0.02946,-0.07235 0.0057,-0.02871 0.0088,-0.05891 0.0088,-0.08992 0,-0.02412 -0.0026,-0.05725 -0.0072,-0.09974 -0.0057,-0.04364 -0.01344,-0.09227 -0.02377,-0.146244 -0.01148,-0.05512 -0.02526,-0.114607 -0.04134,-0.177767 -0.01607,-0.06316 -0.03502,-0.127293 -0.05684,-0.192753 -0.01033,0 -0.02371,-0.0014 -0.03979,-0.0036 -0.01723,-0.0023 -0.03922,-0.0057 -0.06563,-0.01034 -0.02641,-0.0046 -0.05782,-0.01148 -0.09457,-0.02067 -0.03789,-0.0092 -0.08308,-0.02033 -0.135909,-0.03411 -0.0356,-0.0092 -0.07269,-0.01872 -0.110587,-0.0279 -0.03789,-0.0092 -0.07407,-0.0178 -0.108521,-0.02584 -0.0356,-0.008 -0.06741,-0.01533 -0.09612,-0.02222 -0.02986,-0.0069 -0.05397,-0.01204 -0.07235,-0.0155 -0.02182,-0.0046 -0.04381,-0.01148 -0.06563,-0.02067 -0.02182,-0.01034 -0.04116,-0.0228 -0.0584,-0.03772 -0.01723,-0.01607 -0.03101,-0.03462 -0.04134,-0.05529 -0.01149,-0.02182 -0.01757,-0.04634 -0.01757,-0.0739 0,-0.02067 0.0048,-0.03749 0.01395,-0.05013 0.0092,-0.01263 0.02125,-0.02256 0.03617,-0.02946 0.01378,-0.0069 0.03061,-0.01117 0.05013,-0.01344 0.01837,-0.0035 0.0364,-0.0052 0.05478,-0.0052 0.01263,0 0.02905,0.0021 0.04857,0.0067 0.01837,0.0034 0.04117,0.0086 0.06873,0.0155 0.02756,0.0057 0.06069,0.01303 0.09974,0.02222 0.03789,0.0092 0.0836,0.01912 0.136425,0.02946 0.04823,0.0092 0.09646,0.0182 0.144694,0.02739 0.04823,0.0092 0.103352,0.01912 0.165365,0.02946 L 10.539408,1.28726 c -0.0057,-0.02297 -0.0083,-0.04881 -0.0083,-0.07751 0,-0.02641 0.0034,-0.05317 0.01034,-0.07958 0.0069,-0.02641 0.01723,-0.04961 0.03101,-0.07028 0.01378,-0.02067 0.03141,-0.03749 0.05323,-0.05013 0.02182,-0.01263 0.04807,-0.01912 0.07906,-0.01912 z m 1.486731,0.568441 c 0.07579,0 0.136081,0.02411 0.180868,0.07235 0.03789,0.0023 0.07447,0.0101 0.11007,0.02274 0.0356,0.01149 0.06235,0.02222 0.07958,0.03256 0.107946,0.06661 0.203088,0.13855 0.285771,0.21549 0.08153,0.07694 0.151756,0.155259 0.210323,0.235645 0.05857,0.08038 0.10588,0.160541 0.142627,0.239779 0.0356,0.07809 0.06236,0.152158 0.07958,0.222208 0.02067,0.08268 0.03101,0.160197 0.03101,0.232544 0,0.07465 -0.01033,0.142229 -0.03101,0.203089 -0.02182,0.06086 -0.05415,0.112939 -0.09663,0.156579 -0.04364,0.04364 -0.09744,0.07729 -0.161748,0.100252 -0.06546,0.02411 -0.142569,0.03617 -0.230993,0.03617 -0.09302,0 -0.177021,-0.01297 -0.251665,-0.03824 C 12.463497,3.266124 12.394595,3.231674 12.332582,3.186891 12.240712,3.121431 12.157628,3.048283 12.082984,2.96675 12.007194,2.88407 11.943058,2.79794 11.890231,2.708368 11.837401,2.618798 11.796461,2.52658 11.767758,2.432416 11.739048,2.338246 11.724868,2.24615 11.724868,2.15543 c 0,-0.03904 0.0021,-0.07441 0.0067,-0.10542 0.0046,-0.03101 0.01108,-0.05937 0.01912,-0.08578 0.0069,-0.02756 0.0159,-0.0534 0.02739,-0.07751 0.01033,-0.02411 0.02199,-0.04915 0.03462,-0.07441 0.04019,-0.07809 0.09095,-0.139181 0.152962,-0.183968 0.06086,-0.04593 0.136253,-0.06925 0.225826,-0.06925 z m -5.25756,0.02067 c 0.03789,0 0.07407,0.0038 0.10852,0.01189 0.03331,0.008 0.06695,0.01929 0.100253,0.03307 0.03215,0.01378 0.06396,0.03009 0.09612,0.04961 0.03215,0.01953 0.0658,0.04152 0.100252,0.06563 0.04708,0.02297 0.09227,0.05185 0.135909,0.0863 0.04249,0.03445 0.08078,0.07063 0.115238,0.10852 0.0333,0.03789 0.06046,0.07619 0.08113,0.115239 0.01952,0.03789 0.02946,0.07194 0.02946,0.101803 0,0.01837 -0.0014,0.0356 -0.0036,0.05168 -0.0034,0.01607 -0.0073,0.03198 -0.01189,0.04806 -0.0092,0.03789 -0.02297,0.07194 -0.04134,0.101803 -0.01953,0.02871 -0.04152,0.05363 -0.06563,0.07545 -0.02527,0.02182 -0.05191,0.04169 -0.08061,0.05891 -0.02871,0.01607 -0.05799,0.02985 -0.08785,0.04134 l -0.05891,0.02377 c -0.02871,0.01149 -0.05972,0.02446 -0.09302,0.03824 -0.03331,0.01378 -0.06431,0.02836 -0.09302,0.04444 -0.02871,0.01608 -0.05191,0.0333 -0.07028,0.05168 -0.01952,0.01723 -0.02945,0.03577 -0.02945,0.05529 0,0.01033 0.0017,0.02239 0.0052,0.03617 0.0057,0.02527 0.02986,0.04978 0.07235,0.0739 0.04134,0.02297 0.0913,0.04364 0.149861,0.06201 0.05857,0.01838 0.120979,0.03348 0.187586,0.04496 0.06546,0.01149 0.125344,0.01705 0.179317,0.01705 0.01837,0 0.03347,-8.34e-4 0.04496,-0.0031 0.01149,-0.0023 0.02182,-0.005 0.03101,-0.0072 0.0092,-0.0035 0.0178,-0.006 0.02584,-0.0083 0.0069,-0.0023 0.01458,-0.0036 0.02377,-0.0036 0.01033,0 0.02199,0.0048 0.03462,0.01395 0.01149,0.008 0.02222,0.01837 0.03256,0.03101 0.01034,0.01149 0.01895,0.02435 0.02584,0.03927 0.0069,0.01378 0.01034,0.02675 0.01034,0.03824 0,0.02297 -0.009,0.04576 -0.02739,0.06873 -0.01952,0.02297 -0.04324,0.04364 -0.0708,0.06201 -0.02871,0.01723 -0.05972,0.03141 -0.09302,0.04289 -0.03331,0.01033 -0.06391,0.0155 -0.09147,0.0155 -0.05512,0 -0.115407,-0.0077 -0.180867,-0.02377 -0.0666,-0.01607 -0.132461,-0.03767 -0.197921,-0.06408 -0.0666,-0.02756 -0.130336,-0.05897 -0.191203,-0.09457 -0.06086,-0.03675 -0.11386,-0.07597 -0.158646,-0.117306 -0.0069,-0.0057 -0.0155,-0.01688 -0.02584,-0.03411 -0.01033,-0.01837 -0.01975,-0.03864 -0.02894,-0.06046 -0.01033,-0.02297 -0.01987,-0.04576 -0.02791,-0.06873 -0.0092,-0.02297 -0.01514,-0.04324 -0.0186,-0.06046 -0.0046,-0.01953 -0.0081,-0.03675 -0.01033,-0.05168 -0.0023,-0.01493 -0.0036,-0.03003 -0.0036,-0.04496 0,-0.03101 0.0048,-0.05765 0.01395,-0.08062 0.0092,-0.02297 0.02256,-0.04364 0.03979,-0.06201 0.01723,-0.01837 0.03829,-0.0352 0.06356,-0.05013 0.02411,-0.01607 0.05168,-0.03198 0.08268,-0.04806 0.02297,-0.01149 0.05053,-0.02446 0.08268,-0.03824 0.03101,-0.01378 0.06334,-0.02756 0.09663,-0.04134 0.03331,-0.01378 0.06644,-0.02756 0.09974,-0.04134 0.03215,-0.01378 0.06103,-0.02756 0.0863,-0.04134 0.01952,-0.0092 0.03543,-0.01992 0.04806,-0.03256 0.01263,-0.01263 0.01912,-0.02854 0.01912,-0.04806 0,-0.01837 -0.0086,-0.03864 -0.02584,-0.06046 -0.01723,-0.02297 -0.03962,-0.04576 -0.06718,-0.06873 -0.02871,-0.02297 -0.06063,-0.04536 -0.09508,-0.06718 -0.0356,-0.02181 -0.07177,-0.04076 -0.108521,-0.05684 -0.03675,-0.01723 -0.072,-0.0306 -0.106453,-0.03979 -0.0356,-0.01033 -0.0666,-0.0155 -0.09302,-0.0155 -0.02182,0 -0.04037,0.0052 -0.05529,0.0155 -0.01493,0.01033 -0.02911,0.02199 -0.04289,0.03462 -0.01378,0.01149 -0.02928,0.02222 -0.04651,0.03256 -0.01723,0.01033 -0.03922,0.0155 -0.06563,0.0155 -0.01607,0 -0.02986,-0.0073 -0.04134,-0.02222 -0.01148,-0.01493 -0.02142,-0.03307 -0.02946,-0.05374 -0.008,-0.02067 -0.01359,-0.04134 -0.01705,-0.06201 -0.0035,-0.02067 -0.0052,-0.03698 -0.0052,-0.04961 0,-0.04135 0.01114,-0.07406 0.03411,-0.09819 0.02182,-0.02526 0.04938,-0.04421 0.08268,-0.05684 0.0333,-0.01261 0.07039,-0.02082 0.110588,-0.02429 0.04019,-0.0035 0.07717,-0.0052 0.111621,-0.0052 z m 1.643827,0.143144 c 0.07809,0 0.152159,0.01338 0.222209,0.03979 0.0689,0.02641 0.133437,0.06086 0.194303,0.103353 0.05972,0.04134 0.114838,0.08785 0.165365,0.139526 0.04938,0.05053 0.09376,0.100886 0.132808,0.151412 0.03905,0.05053 0.07177,0.09744 0.09818,0.141077 0.02641,0.04249 0.04575,0.07654 0.0584,0.101802 0.04364,0.01148 0.07901,0.03428 0.10542,0.06873 0.02641,0.03445 0.03927,0.07671 0.03927,0.126091 0,0.02527 -0.0065,0.04461 -0.01912,0.05839 -0.01378,0.01266 -0.02796,0.01995 -0.04289,0.02222 0.01493,0.0666 0.02222,0.126894 0.02222,0.180867 0,0.06661 -0.009,0.123453 -0.02739,0.170533 -0.01952,0.04708 -0.04404,0.0867 -0.0739,0.118855 -0.031,0.03215 -0.06637,0.058 -0.10542,0.07752 -0.03904,0.01953 -0.07866,0.03462 -0.118856,0.04496 -0.04019,0.01031 -0.07849,0.0172 -0.115238,0.02067 -0.03789,0.0035 -0.07061,0.0052 -0.09819,0.0052 -0.142397,0 -0.276354,-0.02027 -0.401526,-0.06046 C 8.487095,3.193238 8.364393,3.126056 8.244963,3.03189 8.218553,3.01008 8.196563,2.98424 8.179333,2.95438 8.162103,2.92453 8.150963,2.89484 8.145223,2.86498 c -0.0011,-0.0057 -0.0021,-0.01263 -0.0021,-0.02067 -0.0011,-0.0092 -0.0016,-0.0182 -0.0016,-0.02739 0,-0.01608 0.0044,-0.03118 0.0124,-0.04496 0.008,-0.01493 0.02607,-0.02222 0.05478,-0.02222 0.02871,0 0.06236,0.0094 0.100253,0.02894 0.03675,0.01837 0.07545,0.04169 0.116788,0.06925 0.03215,0.02182 0.06792,0.04421 0.106971,0.06718 0.03904,0.02182 0.08079,0.04249 0.125573,0.06201 0.04364,0.01837 0.09015,0.03388 0.139527,0.04651 0.04938,0.01149 0.101056,0.01705 0.155029,0.01705 0.09302,0 0.166281,-0.01855 0.219108,-0.05529 0.05283,-0.03675 0.07906,-0.08842 0.07906,-0.155029 0,-0.02985 -0.0034,-0.05994 -0.01033,-0.09095 -0.008,-0.03215 -0.01705,-0.05891 -0.02739,-0.07958 C 9.166212,2.655231 9.110167,2.649271 9.045861,2.641231 8.981551,2.632031 8.91529,2.619071 8.84639,2.602991 8.77634,2.586911 8.706519,2.567161 8.637617,2.543051 8.567567,2.518941 8.50343,2.488731 8.444864,2.453131 8.385154,2.416381 8.333474,2.374241 8.289834,2.326007 8.246204,2.277777 8.216514,2.221332 8.200434,2.157025 c -0.01033,-0.0356 -0.0155,-0.07309 -0.0155,-0.112138 0,-0.04593 0.0077,-0.08808 0.02377,-0.127124 0.01608,-0.04019 0.04019,-0.07465 0.07235,-0.103353 C 8.313204,1.7857 8.354144,1.76331 8.403528,1.74723 8.452908,1.73115 8.51107,1.72294 8.577677,1.72294 Z m 3.575492,0.143144 c -0.008,0.02067 -0.01705,0.04174 -0.02739,0.06356 -0.01034,0.02067 -0.02067,0.04094 -0.03101,0.06046 -0.01723,0.03215 -0.03101,0.06144 -0.04134,0.08785 -0.01149,0.02526 -0.01705,0.05282 -0.01705,0.08268 0,0.02986 0.0038,0.06259 0.01188,0.09819 0.0069,0.0356 0.01551,0.0735 0.02584,0.113688 0.01608,0.06431 0.04456,0.134933 0.08475,0.211873 0.03904,0.07579 0.08768,0.146817 0.146244,0.213424 0.05857,0.0666 0.125746,0.122128 0.201538,0.166915 0.07464,0.04364 0.155605,0.06563 0.242879,0.06563 0.04709,0 0.08711,-0.0065 0.120407,-0.01912 0.03215,-0.01378 0.05931,-0.03181 0.08113,-0.05478 0.02182,-0.02411 0.03773,-0.0526 0.04806,-0.08475 0.0092,-0.0333 0.01395,-0.06856 0.01395,-0.106453 0,-0.02182 -0.0014,-0.04421 -0.0036,-0.06718 -0.0034,-0.02411 -0.0086,-0.04955 -0.0155,-0.07596 -0.008,-0.03445 -0.02182,-0.07235 -0.04134,-0.113688 -0.02067,-0.04134 -0.04438,-0.08308 -0.0708,-0.125574 -0.02756,-0.04364 -0.05765,-0.0863 -0.09095,-0.127641 -0.03445,-0.04134 -0.07022,-0.07964 -0.106971,-0.115238 -0.03789,-0.0356 -0.07619,-0.0666 -0.115238,-0.09302 -0.03905,-0.02641 -0.07786,-0.04628 -0.115755,-0.05891 -0.05742,-0.0057 -0.103927,-0.01263 -0.139527,-0.02067 -0.03559,-0.008 -0.06356,-0.01665 -0.08423,-0.02584 -0.02067,-0.01033 -0.03618,-0.02107 -0.04651,-0.03256 -0.01033,-0.01263 -0.02027,-0.02681 -0.02946,-0.04289 z M 8.629448,1.99316 c -0.03215,0 -0.05972,0.0082 -0.08268,0.02429 -0.02297,0.01493 -0.03462,0.03772 -0.03462,0.06873 v 0.0155 c 0,0.0046 0.0014,0.0098 0.0036,0.0155 0.0092,0.0333 0.02986,0.06522 0.06201,0.09508 0.03101,0.02871 0.07235,0.05495 0.124024,0.07906 0.05053,0.02297 0.109898,0.04231 0.1788,0.05839 0.0689,0.01493 0.144694,0.02619 0.227376,0.03307 C 9.089588,2.34603 9.063748,2.30509 9.030448,2.260307 8.997148,2.214377 8.959248,2.171717 8.916759,2.132666 8.873119,2.092476 8.827529,2.059346 8.7793,2.032926 8.72992,2.006516 8.67997,1.993136 8.629439,1.993136 Z m 3.455086,2.522327 A 0.200001,0.200001 0 0 1 12.284522,4.715474 0.200001,0.200001 0 0 1 12.084534,4.915462 0.200001,0.200001 0 0 1 11.884546,4.715474 0.200001,0.200001 0 0 1 12.084534,4.515487 Z M 1.089856,4.735628 A 0.200001,0.200001 0 0 1 1.289844,4.935616 0.200001,0.200001 0 0 1 1.089856,5.135604 0.200001,0.200001 0 0 1 0.889868,4.935616 0.200001,0.200001 0 0 1 1.089856,4.735628 Z M 14.65957,5.985681 A 0.200001,0.200001 0 0 1 14.859558,6.185669 0.200001,0.200001 0 0 1 14.65957,6.385657 0.200001,0.200001 0 0 1 14.459583,6.185669 0.200001,0.200001 0 0 1 14.65957,5.985681 Z M 6.66471,6.075601 A 0.200001,0.200001 0 0 1 6.864697,6.275589 0.200001,0.200001 0 0 1 6.66471,6.475577 0.200001,0.200001 0 0 1 6.464722,6.275589 0.200001,0.200001 0 0 1 6.66471,6.075601 Z M 3.689697,12.105724 A 0.200001,0.200001 0 0 1 3.889685,12.305712 0.200001,0.200001 0 0 1 3.689697,12.505699 0.200001,0.200001 0 0 1 3.48971,12.305712 0.200001,0.200001 0 0 1 3.689697,12.105724 Z M 2.87476,13.065355 A 0.200001,0.200001 0 0 1 3.074748,13.265343 0.200001,0.200001 0 0 1 2.87476,13.465331 0.200001,0.200001 0 0 1 2.674772,13.265343 0.200001,0.200001 0 0 1 2.87476,13.065355 Z" /></svg>
